<svg viewBox="0 0 811.388916015625 400.0000305175781" xmlns="http://www.w3.org/2000/svg"><g><g><g><g><g><line x1="50" y1="378" x2="45" y2="378" style="visibility: inherit;" fill="rgb(0, 0, 0)" stroke="rgb(204, 204, 204)" stroke-width="1px"></line><line x1="50" y1="330.75" x2="45" y2="330.75" style="visibility: inherit;" fill="rgb(0, 0, 0)" stroke="rgb(204, 204, 204)" stroke-width="1px"></line><line x1="50" y1="283.5" x2="45" y2="283.5" style="visibility: inherit;" fill="rgb(0, 0, 0)" stroke="rgb(204, 204, 204)" stroke-width="1px"></line><line x1="50" y1="236.25" x2="45" y2="236.25" style="visibility: inherit;" fill="rgb(0, 0, 0)" stroke="rgb(204, 204, 204)" stroke-width="1px"></line><line x1="50" y1="189" x2="45" y2="189" style="visibility: inherit;" fill="rgb(0, 0, 0)" stroke="rgb(204, 204, 204)" stroke-width="1px"></line><line x1="50" y1="141.75" x2="45" y2="141.75" style="visibility: inherit;" fill="rgb(0, 0, 0)" stroke="rgb(204, 204, 204)" stroke-width="1px"></line><line x1="50" y1="94.5" x2="45" y2="94.5" style="visibility: inherit;" fill="rgb(0, 0, 0)" stroke="rgb(204, 204, 204)" stroke-width="1px"></line><line x1="50" y1="47.25" x2="45" y2="47.25" style="visibility: inherit;" fill="rgb(0, 0, 0)" stroke="rgb(204, 204, 204)" stroke-width="1px"></line><line x1="50" y1="0" x2="45" y2="0" style="visibility: inherit;" fill="rgb(0, 0, 0)" stroke="rgb(204, 204, 204)" stroke-width="1px"></line></g><g transform="translate(40, 0)"><text x="0" y="378" dx="0em" dy="0.3em" style="text-anchor: end; visibility: hidden; font-family: Roboto, sans-serif; font-size: 12px; font-weight: 200;" fill="rgb(50, 49, 63)" stroke="none" stroke-width="1px">0.82</text><text x="0" y="330.75" dx="0em" dy="0.3em" style="text-anchor: end; visibility: inherit; font-family: Roboto, sans-serif; font-size: 12px; font-weight: 200;" fill="rgb(50, 49, 63)" stroke="none" stroke-width="1px">0.83</text><text x="0" y="283.5" dx="0em" dy="0.3em" style="text-anchor: end; visibility: inherit; font-family: Roboto, sans-serif; font-size: 12px; font-weight: 200;" fill="rgb(50, 49, 63)" stroke="none" stroke-width="1px">0.84</text><text x="0" y="236.25" dx="0em" dy="0.3em" style="text-anchor: end; visibility: inherit; font-family: Roboto, sans-serif; font-size: 12px; font-weight: 200;" fill="rgb(50, 49, 63)" stroke="none" stroke-width="1px">0.85</text><text x="0" y="189" dx="0em" dy="0.3em" style="text-anchor: end; visibility: inherit; font-family: Roboto, sans-serif; font-size: 12px; font-weight: 200;" fill="rgb(50, 49, 63)" stroke="none" stroke-width="1px">0.86</text><text x="0" y="141.75" dx="0em" dy="0.3em" style="text-anchor: end; visibility: inherit; font-family: Roboto, sans-serif; font-size: 12px; font-weight: 200;" fill="rgb(50, 49, 63)" stroke="none" stroke-width="1px">0.87</text><text x="0" y="94.5" dx="0em" dy="0.3em" style="text-anchor: end; visibility: inherit; font-family: Roboto, sans-serif; font-size: 12px; font-weight: 200;" fill="rgb(50, 49, 63)" stroke="none" stroke-width="1px">0.88</text><text x="0" y="47.25" dx="0em" dy="0.3em" style="text-anchor: end; visibility: inherit; font-family: Roboto, sans-serif; font-size: 12px; font-weight: 200;" fill="rgb(50, 49, 63)" stroke="none" stroke-width="1px">0.89</text><text x="0" y="0" dx="0em" dy="0.3em" style="text-anchor: end; visibility: hidden; font-family: Roboto, sans-serif; font-size: 12px; font-weight: 200;" fill="rgb(50, 49, 63)" stroke="none" stroke-width="1px">0.9</text></g><line x1="50" y1="0" x2="50" y2="378" fill="rgb(0, 0, 0)" stroke="rgb(204, 204, 204)" stroke-width="1px"></line></g></g><g transform="translate(50, 0)" clip-path="url(#clip_0)"><clipPath id="clip_0"><rect width="761" height="377"></rect></clipPath><g><g><g><line x1="0" y1="0" x2="0" y2="378" fill="rgb(0, 0, 0)" stroke="rgb(60, 60, 60)" stroke-width="1px" opacity="0.25"></line><line x1="63.449083333333334" y1="0" x2="63.449083333333334" y2="378" fill="rgb(0, 0, 0)" stroke="rgb(60, 60, 60)" stroke-width="1px" opacity="0.25"></line><line x1="126.89816666666667" y1="0" x2="126.89816666666667" y2="378" fill="rgb(0, 0, 0)" stroke="rgb(60, 60, 60)" stroke-width="1px" opacity="0.25"></line><line x1="190.34725" y1="0" x2="190.34725" y2="378" fill="rgb(0, 0, 0)" stroke="rgb(60, 60, 60)" stroke-width="1px" opacity="0.25"></line><line x1="253.79633333333334" y1="0" x2="253.79633333333334" y2="378" fill="rgb(0, 0, 0)" stroke="rgb(60, 60, 60)" stroke-width="1px" opacity="0.25"></line><line x1="317.2454166666667" y1="0" x2="317.2454166666667" y2="378" fill="rgb(0, 0, 0)" stroke="rgb(60, 60, 60)" stroke-width="1px" opacity="0.25"></line><line x1="380.6945" y1="0" x2="380.6945" y2="378" fill="rgb(0, 0, 0)" stroke="rgb(60, 60, 60)" stroke-width="1px" opacity="0.25"></line><line x1="444.14358333333337" y1="0" x2="444.14358333333337" y2="378" fill="rgb(0, 0, 0)" stroke="rgb(60, 60, 60)" stroke-width="1px" opacity="0.25"></line><line x1="507.5926666666667" y1="0" x2="507.5926666666667" y2="378" fill="rgb(0, 0, 0)" stroke="rgb(60, 60, 60)" stroke-width="1px" opacity="0.25"></line><line x1="571.04175" y1="0" x2="571.04175" y2="378" fill="rgb(0, 0, 0)" stroke="rgb(60, 60, 60)" stroke-width="1px" opacity="0.25"></line><line x1="634.4908333333334" y1="0" x2="634.4908333333334" y2="378" fill="rgb(0, 0, 0)" stroke="rgb(60, 60, 60)" stroke-width="1px" opacity="0.25"></line><line x1="697.9399166666667" y1="0" x2="697.9399166666667" y2="378" fill="rgb(0, 0, 0)" stroke="rgb(60, 60, 60)" stroke-width="1px" opacity="0.25"></line><line x1="761.389" y1="0" x2="761.389" y2="378" fill="rgb(0, 0, 0)" stroke="rgb(60, 60, 60)" stroke-width="1px" opacity="0.25"></line></g><g><line x1="0" y1="378" x2="761.389" y2="378" fill="rgb(0, 0, 0)" stroke="rgb(60, 60, 60)" stroke-width="1px" opacity="0.25"></line><line x1="0" y1="330.75" x2="761.389" y2="330.75" fill="rgb(0, 0, 0)" stroke="rgb(60, 60, 60)" stroke-width="1px" opacity="0.25"></line><line x1="0" y1="283.5" x2="761.389" y2="283.5" fill="rgb(0, 0, 0)" stroke="rgb(60, 60, 60)" stroke-width="1px" opacity="0.25"></line><line x1="0" y1="236.25" x2="761.389" y2="236.25" fill="rgb(0, 0, 0)" stroke="rgb(60, 60, 60)" stroke-width="1px" opacity="0.25"></line><line x1="0" y1="189" x2="761.389" y2="189" fill="rgb(0, 0, 0)" stroke="rgb(60, 60, 60)" stroke-width="1px" opacity="0.25"></line><line x1="0" y1="141.75" x2="761.389" y2="141.75" fill="rgb(0, 0, 0)" stroke="rgb(60, 60, 60)" stroke-width="1px" opacity="0.25"></line><line x1="0" y1="94.5" x2="761.389" y2="94.5" fill="rgb(0, 0, 0)" stroke="rgb(60, 60, 60)" stroke-width="1px" opacity="0.25"></line><line x1="0" y1="47.25" x2="761.389" y2="47.25" fill="rgb(0, 0, 0)" stroke="rgb(60, 60, 60)" stroke-width="1px" opacity="0.25"></line><line x1="0" y1="0" x2="761.389" y2="0" fill="rgb(0, 0, 0)" stroke="rgb(60, 60, 60)" stroke-width="1px" opacity="0.25"></line></g></g></g><g><g><line x1="0" y1="4252.499999999996" x2="761.389" y2="4252.499999999996" fill="rgb(0, 0, 0)" stroke="rgb(153, 153, 153)" stroke-width="1.5px"></line></g></g><g><g><line x1="63.449083333333334" y1="0" x2="63.449083333333334" y2="378" fill="rgb(0, 0, 0)" stroke="rgb(153, 153, 153)" stroke-width="1.5px"></line></g></g><g><g><g><g><g><path stroke="rgb(204, 51, 17)" stroke-width="2px" d="M76.1389,385.9200873970983L88.82871666666666,211.28462344408027L101.51853333333334,243.25998812913886L114.20835,229.73179757595054L126.89816666666667,214.974001944065L139.5879833333333,191.60728096961967L152.2778,117.81745791435242L164.9676166666667,205.135471522808L177.65743333333333,176.84920370578763L190.34725,228.50219249725333L203.03706666666668,160.86152136325833L215.72688333333332,96.91051036119461L228.4167,217.43349373340598L241.10651666666666,112.89819270372391L253.79633333333334,179.30897712707517L266.48615,148.56321752071378L279.1759666666666,141.18417888879776L291.86578333333335,164.55089986324307L304.5556,112.89819270372391L317.2454166666667,135.03502696752548L329.9352333333334,143.64395231008527L342.62505,128.8858750462532L355.31486666666666,71.08401596546177L368.00468333333333,98.14039707183838L380.6945,187.91762083768842L393.38431666666673,137.49480038881302L406.07413333333335,109.20881420373917L418.76395,58.78571212291722L431.45376666666664,72.31390267610554L444.14358333333337,114.12807941436768L456.8334,122.73672312498093L469.5232166666667,120.27723133563995L482.2130333333333,149.79310423135755L494.90285,135.03502696752548L507.5926666666667,78.46305459737782L520.2824833333334,79.69294130802159L532.9723,126.42638325691223L545.6621166666666,120.27723133563995L558.3519333333332,72.31390267610554L571.04175,95.68062365055084L583.7315666666667,120.27723133563995L596.4213833333333,85.84209322929387L609.1112,125.19649654626846L621.8010166666667,125.19649654626846L634.4908333333334,87.07169830799107L647.18065,114.12807941436768L659.8704666666667,52.63656020164494L672.5602833333334,119.04734462499619L685.2501,71.08401596546177" style="fill: none;" fill="none"></path></g><g><path stroke="rgb(51, 187, 238)" stroke-width="2px" d="M63.449083333333334,319.5093029737471L76.1389,265.3968223929404L88.82871666666666,206.3650766015052L101.51853333333334,167.0106732845306L114.20835,141.18417888879776L126.89816666666667,189.14750754833213L139.5879833333333,159.63163465261457L152.2778,143.64395231008527L164.9676166666667,100.59988886117935L177.65743333333333,128.8858750462532L190.34725,135.03502696752548L203.03706666666668,117.81745791435242L215.72688333333332,98.14039707183838L228.4167,170.70005178451535L241.10651666666666,132.5755351781845L253.79633333333334,80.92282801866536L266.48615,174.38971191644666L279.1759666666666,105.51915407180786L291.86578333333335,96.91051036119461L304.5556,82.15243309736256L317.2454166666667,95.68062365055084L329.9352333333334,121.50711804628372L342.62505,62.47537225484852L355.31486666666666,83.38231980800633L368.00468333333333,67.39463746547703L380.6945,91.99124515056614L393.38431666666673,99.37000215053558L406.07413333333335,107.9789274930954L418.76395,83.38231980800633L431.45376666666664,99.37000215053558L444.14358333333337,111.66830599308014L456.8334,89.5314717292786L469.5232166666667,151.02299094200131L482.2130333333333,109.20881420373917L494.90285,91.99124515056614L507.5926666666667,89.5314717292786L520.2824833333334,128.8858750462532L532.9723,80.92282801866536L545.6621166666666,88.30158501863484L558.3519333333332,110.43870091438293L571.04175,104.28954899311066L583.7315666666667,61.245485544204755L596.4213833333333,85.84209322929387L609.1112,90.76135843992238L621.8010166666667,127.656269967556L634.4908333333334,72.31390267610554L647.18065,78.46305459737782L659.8704666666667,98.14039707183838L672.5602833333334,76.00328117609028L685.2501,109.20881420373917" style="fill: none;" fill="none"></path></g><g><path stroke="rgb(255, 112, 67)" stroke-width="2px" d="M63.449083333333334,371.1622917652128L76.1389,262.93733060359943L88.82871666666666,210.0547367334365L101.51853333333334,160.86152136325833L114.20835,142.4140655994415L126.89816666666667,135.03502696752548L139.5879833333333,125.19649654626846L152.2778,111.66830599308014L164.9676166666667,120.27723133563995L177.65743333333333,143.64395231008527L190.34725,115.35796612501144L203.03706666666668,98.14039707183838L215.72688333333332,101.82977557182312L228.4167,95.68062365055084L241.10651666666666,87.07169830799107L253.79633333333334,96.91051036119461L266.48615,87.07169830799107L279.1759666666666,77.23316788673405L291.86578333333335,83.38231980800633L304.5556,85.84209322929387L317.2454166666667,78.46305459737782L329.9352333333334,72.31390267610554L342.62505,74.77367609739308L355.31486666666666,91.99124515056614L368.00468333333333,98.14039707183838L380.6945,89.5314717292786L393.38431666666673,85.84209322929387L406.07413333333335,87.07169830799107L418.76395,98.14039707183838L431.45376666666664,88.30158501863484L444.14358333333337,96.91051036119461L456.8334,91.99124515056614L469.5232166666667,93.22085022926335L482.2130333333333,84.6122065186501L494.90285,80.92282801866536L507.5926666666667,96.91051036119461L520.2824833333334,76.00328117609028L532.9723,77.23316788673405L545.6621166666666,79.69294130802159L558.3519333333332,88.30158501863484L571.04175,83.38231980800633L583.7315666666667,82.15243309736256L596.4213833333333,90.76135843992238L609.1112,78.46305459737782L621.8010166666667,82.15243309736256L634.4908333333334,105.51915407180786L647.18065,87.07169830799107L659.8704666666667,94.45073693990712L672.5602833333334,90.76135843992238L685.2501,93.22085022926335" style="fill: none;" fill="none"></path></g><g><path stroke="rgb(0, 119, 187)" stroke-width="2px" d="M101.51853333333334,387.1499741077421L114.20835,344.10591065883614L126.89816666666667,324.4285681843756L139.5879833333333,298.6023554205893L152.2778,282.6143914461134L164.9676166666667,274.00574773550017L177.65743333333333,261.70744389295567L190.34725,258.0180653929709L203.03706666666668,248.17925333976734L215.72688333333332,229.73179757595054L228.4167,230.9616842865943L241.10651666666666,223.58264565467826L253.79633333333334,222.35304057598105L266.48615,219.89326715469352L279.1759666666666,211.28462344408027L291.86578333333335,196.52654618024818L304.5556,195.2966594696044L317.2454166666667,187.91762083768842L329.9352333333334,182.9983556270599L342.62505,182.9983556270599L355.31486666666666,190.3773942589759L368.00468333333333,178.0790904164314L380.6945,176.84920370578763L393.38431666666673,170.70005178451535L406.07413333333335,171.92993849515912L418.76395,160.86152136325833L431.45376666666664,158.4017479419708L444.14358333333337,149.79310423135755L456.8334,152.25259602069852L469.5232166666667,146.1037257313728L482.2130333333333,144.87383902072904L494.90285,143.64395231008527L507.5926666666667,136.26491367816925L520.2824833333334,135.03502696752548L532.9723,132.5755351781845L545.6621166666666,131.34564846754074L558.3519333333332,127.656269967556L571.04175,122.73672312498093L583.7315666666667,123.9666098356247L596.4213833333333,120.27723133563995L609.1112,117.81745791435242L621.8010166666667,121.50711804628372L634.4908333333334,117.81745791435242L647.18065,114.12807941436768L659.8704666666667,111.66830599308014L672.5602833333334,107.9789274930954L685.2501,104.28954899311066" style="fill: none;" fill="none"></path></g></g></g></g></g></g><g transform="translate(50, 378)" clip-path="url(#clip_1)"><clipPath id="clip_1"><rect width="761" height="21"></rect></clipPath><g><g><line x1="0" y1="0" x2="0" y2="5" style="visibility: inherit;" fill="rgb(0, 0, 0)" stroke="rgb(204, 204, 204)" stroke-width="1px"></line><line x1="63.449083333333334" y1="0" x2="63.449083333333334" y2="5" style="visibility: inherit;" fill="rgb(0, 0, 0)" stroke="rgb(204, 204, 204)" stroke-width="1px"></line><line x1="126.89816666666667" y1="0" x2="126.89816666666667" y2="5" style="visibility: inherit;" fill="rgb(0, 0, 0)" stroke="rgb(204, 204, 204)" stroke-width="1px"></line><line x1="190.34725" y1="0" x2="190.34725" y2="5" style="visibility: inherit;" fill="rgb(0, 0, 0)" stroke="rgb(204, 204, 204)" stroke-width="1px"></line><line x1="253.79633333333334" y1="0" x2="253.79633333333334" y2="5" style="visibility: inherit;" fill="rgb(0, 0, 0)" stroke="rgb(204, 204, 204)" stroke-width="1px"></line><line x1="317.2454166666667" y1="0" x2="317.2454166666667" y2="5" style="visibility: inherit;" fill="rgb(0, 0, 0)" stroke="rgb(204, 204, 204)" stroke-width="1px"></line><line x1="380.6945" y1="0" x2="380.6945" y2="5" style="visibility: inherit;" fill="rgb(0, 0, 0)" stroke="rgb(204, 204, 204)" stroke-width="1px"></line><line x1="444.14358333333337" y1="0" x2="444.14358333333337" y2="5" style="visibility: inherit;" fill="rgb(0, 0, 0)" stroke="rgb(204, 204, 204)" stroke-width="1px"></line><line x1="507.5926666666667" y1="0" x2="507.5926666666667" y2="5" style="visibility: inherit;" fill="rgb(0, 0, 0)" stroke="rgb(204, 204, 204)" stroke-width="1px"></line><line x1="571.04175" y1="0" x2="571.04175" y2="5" style="visibility: inherit;" fill="rgb(0, 0, 0)" stroke="rgb(204, 204, 204)" stroke-width="1px"></line><line x1="634.4908333333334" y1="0" x2="634.4908333333334" y2="5" style="visibility: inherit;" fill="rgb(0, 0, 0)" stroke="rgb(204, 204, 204)" stroke-width="1px"></line><line x1="697.9399166666667" y1="0" x2="697.9399166666667" y2="5" style="visibility: inherit;" fill="rgb(0, 0, 0)" stroke="rgb(204, 204, 204)" stroke-width="1px"></line><line x1="761.389" y1="0" x2="761.389" y2="5" style="visibility: inherit;" fill="rgb(0, 0, 0)" stroke="rgb(204, 204, 204)" stroke-width="1px"></line></g><g transform="translate(0, 8)"><text x="0" y="0" dx="0em" dy="0.95em" style="text-anchor: middle; visibility: hidden; font-family: Roboto, sans-serif; font-size: 12px; font-weight: 200;" fill="rgb(50, 49, 63)" stroke="none" stroke-width="1px">-5</text><text x="63.449083333333334" y="0" dx="0em" dy="0.95em" style="text-anchor: middle; visibility: inherit; font-family: Roboto, sans-serif; font-size: 12px; font-weight: 200;" fill="rgb(50, 49, 63)" stroke="none" stroke-width="1px">0</text><text x="126.89816666666667" y="0" dx="0em" dy="0.95em" style="text-anchor: middle; visibility: inherit; font-family: Roboto, sans-serif; font-size: 12px; font-weight: 200;" fill="rgb(50, 49, 63)" stroke="none" stroke-width="1px">5</text><text x="190.34725" y="0" dx="0em" dy="0.95em" style="text-anchor: middle; visibility: inherit; font-family: Roboto, sans-serif; font-size: 12px; font-weight: 200;" fill="rgb(50, 49, 63)" stroke="none" stroke-width="1px">10</text><text x="253.79633333333334" y="0" dx="0em" dy="0.95em" style="text-anchor: middle; visibility: inherit; font-family: Roboto, sans-serif; font-size: 12px; font-weight: 200;" fill="rgb(50, 49, 63)" stroke="none" stroke-width="1px">15</text><text x="317.2454166666667" y="0" dx="0em" dy="0.95em" style="text-anchor: middle; visibility: inherit; font-family: Roboto, sans-serif; font-size: 12px; font-weight: 200;" fill="rgb(50, 49, 63)" stroke="none" stroke-width="1px">20</text><text x="380.6945" y="0" dx="0em" dy="0.95em" style="text-anchor: middle; visibility: inherit; font-family: Roboto, sans-serif; font-size: 12px; font-weight: 200;" fill="rgb(50, 49, 63)" stroke="none" stroke-width="1px">25</text><text x="444.14358333333337" y="0" dx="0em" dy="0.95em" style="text-anchor: middle; visibility: inherit; font-family: Roboto, sans-serif; font-size: 12px; font-weight: 200;" fill="rgb(50, 49, 63)" stroke="none" stroke-width="1px">30</text><text x="507.5926666666667" y="0" dx="0em" dy="0.95em" style="text-anchor: middle; visibility: inherit; font-family: Roboto, sans-serif; font-size: 12px; font-weight: 200;" fill="rgb(50, 49, 63)" stroke="none" stroke-width="1px">35</text><text x="571.04175" y="0" dx="0em" dy="0.95em" style="text-anchor: middle; visibility: inherit; font-family: Roboto, sans-serif; font-size: 12px; font-weight: 200;" fill="rgb(50, 49, 63)" stroke="none" stroke-width="1px">40</text><text x="634.4908333333334" y="0" dx="0em" dy="0.95em" style="text-anchor: middle; visibility: inherit; font-family: Roboto, sans-serif; font-size: 12px; font-weight: 200;" fill="rgb(50, 49, 63)" stroke="none" stroke-width="1px">45</text><text x="697.9399166666667" y="0" dx="0em" dy="0.95em" style="text-anchor: middle; visibility: inherit; font-family: Roboto, sans-serif; font-size: 12px; font-weight: 200;" fill="rgb(50, 49, 63)" stroke="none" stroke-width="1px">50</text><text x="761.389" y="0" dx="0em" dy="0.95em" style="text-anchor: middle; visibility: hidden; font-family: Roboto, sans-serif; font-size: 12px; font-weight: 200;" fill="rgb(50, 49, 63)" stroke="none" stroke-width="1px">55</text></g><line x1="0" y1="0" x2="761.389" y2="0" fill="rgb(0, 0, 0)" stroke="rgb(204, 204, 204)" stroke-width="1px"></line></g></g></g></g></svg>