<svg viewBox="0 0 859 400" xmlns="http://www.w3.org/2000/svg"><g><g><g><g><g><line x1="51.5625" y1="378" x2="46.5625" y2="378" style="visibility: inherit;" fill="rgb(0, 0, 0)" stroke="rgb(204, 204, 204)" stroke-width="1px"></line><line x1="51.5625" y1="330.75" x2="46.5625" y2="330.75" style="visibility: inherit;" fill="rgb(0, 0, 0)" stroke="rgb(204, 204, 204)" stroke-width="1px"></line><line x1="51.5625" y1="283.5" x2="46.5625" y2="283.5" style="visibility: inherit;" fill="rgb(0, 0, 0)" stroke="rgb(204, 204, 204)" stroke-width="1px"></line><line x1="51.5625" y1="236.25" x2="46.5625" y2="236.25" style="visibility: inherit;" fill="rgb(0, 0, 0)" stroke="rgb(204, 204, 204)" stroke-width="1px"></line><line x1="51.5625" y1="189" x2="46.5625" y2="189" style="visibility: inherit;" fill="rgb(0, 0, 0)" stroke="rgb(204, 204, 204)" stroke-width="1px"></line><line x1="51.5625" y1="141.75" x2="46.5625" y2="141.75" style="visibility: inherit;" fill="rgb(0, 0, 0)" stroke="rgb(204, 204, 204)" stroke-width="1px"></line><line x1="51.5625" y1="94.5" x2="46.5625" y2="94.5" style="visibility: inherit;" fill="rgb(0, 0, 0)" stroke="rgb(204, 204, 204)" stroke-width="1px"></line><line x1="51.5625" y1="47.25" x2="46.5625" y2="47.25" style="visibility: inherit;" fill="rgb(0, 0, 0)" stroke="rgb(204, 204, 204)" stroke-width="1px"></line><line x1="51.5625" y1="0" x2="46.5625" y2="0" style="visibility: inherit;" fill="rgb(0, 0, 0)" stroke="rgb(204, 204, 204)" stroke-width="1px"></line></g><g transform="translate(41.5625, 0)"><text x="0" y="378" dx="0em" dy="0.3em" style="text-anchor: end; visibility: hidden; font-family: Roboto, sans-serif; font-size: 12px; font-weight: 200;" fill="rgb(50, 49, 63)" stroke="none" stroke-width="1px">-0.5</text><text x="0" y="330.75" dx="0em" dy="0.3em" style="text-anchor: end; visibility: inherit; font-family: Roboto, sans-serif; font-size: 12px; font-weight: 200;" fill="rgb(50, 49, 63)" stroke="none" stroke-width="1px">0</text><text x="0" y="283.5" dx="0em" dy="0.3em" style="text-anchor: end; visibility: inherit; font-family: Roboto, sans-serif; font-size: 12px; font-weight: 200;" fill="rgb(50, 49, 63)" stroke="none" stroke-width="1px">0.5</text><text x="0" y="236.25" dx="0em" dy="0.3em" style="text-anchor: end; visibility: inherit; font-family: Roboto, sans-serif; font-size: 12px; font-weight: 200;" fill="rgb(50, 49, 63)" stroke="none" stroke-width="1px">1</text><text x="0" y="189" dx="0em" dy="0.3em" style="text-anchor: end; visibility: inherit; font-family: Roboto, sans-serif; font-size: 12px; font-weight: 200;" fill="rgb(50, 49, 63)" stroke="none" stroke-width="1px">1.5</text><text x="0" y="141.75" dx="0em" dy="0.3em" style="text-anchor: end; visibility: inherit; font-family: Roboto, sans-serif; font-size: 12px; font-weight: 200;" fill="rgb(50, 49, 63)" stroke="none" stroke-width="1px">2</text><text x="0" y="94.5" dx="0em" dy="0.3em" style="text-anchor: end; visibility: inherit; font-family: Roboto, sans-serif; font-size: 12px; font-weight: 200;" fill="rgb(50, 49, 63)" stroke="none" stroke-width="1px">2.5</text><text x="0" y="47.25" dx="0em" dy="0.3em" style="text-anchor: end; visibility: inherit; font-family: Roboto, sans-serif; font-size: 12px; font-weight: 200;" fill="rgb(50, 49, 63)" stroke="none" stroke-width="1px">3</text><text x="0" y="0" dx="0em" dy="0.3em" style="text-anchor: end; visibility: hidden; font-family: Roboto, sans-serif; font-size: 12px; font-weight: 200;" fill="rgb(50, 49, 63)" stroke="none" stroke-width="1px">3.5</text></g><line x1="51.5625" y1="0" x2="51.5625" y2="378" fill="rgb(0, 0, 0)" stroke="rgb(204, 204, 204)" stroke-width="1px"></line></g></g><g transform="translate(51, 0)" clip-path="url(#clip_0)"><clipPath id="clip_0"><rect width="807" height="378"></rect></clipPath><g><g><g><line x1="0" y1="0" x2="0" y2="378" fill="rgb(0, 0, 0)" stroke="rgb(60, 60, 60)" stroke-width="1px" opacity="0.25"></line><line x1="67.28645833333333" y1="0" x2="67.28645833333333" y2="378" fill="rgb(0, 0, 0)" stroke="rgb(60, 60, 60)" stroke-width="1px" opacity="0.25"></line><line x1="134.57291666666666" y1="0" x2="134.57291666666666" y2="378" fill="rgb(0, 0, 0)" stroke="rgb(60, 60, 60)" stroke-width="1px" opacity="0.25"></line><line x1="201.859375" y1="0" x2="201.859375" y2="378" fill="rgb(0, 0, 0)" stroke="rgb(60, 60, 60)" stroke-width="1px" opacity="0.25"></line><line x1="269.1458333333333" y1="0" x2="269.1458333333333" y2="378" fill="rgb(0, 0, 0)" stroke="rgb(60, 60, 60)" stroke-width="1px" opacity="0.25"></line><line x1="336.4322916666667" y1="0" x2="336.4322916666667" y2="378" fill="rgb(0, 0, 0)" stroke="rgb(60, 60, 60)" stroke-width="1px" opacity="0.25"></line><line x1="403.71875" y1="0" x2="403.71875" y2="378" fill="rgb(0, 0, 0)" stroke="rgb(60, 60, 60)" stroke-width="1px" opacity="0.25"></line><line x1="471.00520833333337" y1="0" x2="471.00520833333337" y2="378" fill="rgb(0, 0, 0)" stroke="rgb(60, 60, 60)" stroke-width="1px" opacity="0.25"></line><line x1="538.2916666666666" y1="0" x2="538.2916666666666" y2="378" fill="rgb(0, 0, 0)" stroke="rgb(60, 60, 60)" stroke-width="1px" opacity="0.25"></line><line x1="605.578125" y1="0" x2="605.578125" y2="378" fill="rgb(0, 0, 0)" stroke="rgb(60, 60, 60)" stroke-width="1px" opacity="0.25"></line><line x1="672.8645833333334" y1="0" x2="672.8645833333334" y2="378" fill="rgb(0, 0, 0)" stroke="rgb(60, 60, 60)" stroke-width="1px" opacity="0.25"></line><line x1="740.1510416666666" y1="0" x2="740.1510416666666" y2="378" fill="rgb(0, 0, 0)" stroke="rgb(60, 60, 60)" stroke-width="1px" opacity="0.25"></line><line x1="807.4375" y1="0" x2="807.4375" y2="378" fill="rgb(0, 0, 0)" stroke="rgb(60, 60, 60)" stroke-width="1px" opacity="0.25"></line></g><g><line x1="0" y1="378" x2="807.4375" y2="378" fill="rgb(0, 0, 0)" stroke="rgb(60, 60, 60)" stroke-width="1px" opacity="0.25"></line><line x1="0" y1="330.75" x2="807.4375" y2="330.75" fill="rgb(0, 0, 0)" stroke="rgb(60, 60, 60)" stroke-width="1px" opacity="0.25"></line><line x1="0" y1="283.5" x2="807.4375" y2="283.5" fill="rgb(0, 0, 0)" stroke="rgb(60, 60, 60)" stroke-width="1px" opacity="0.25"></line><line x1="0" y1="236.25" x2="807.4375" y2="236.25" fill="rgb(0, 0, 0)" stroke="rgb(60, 60, 60)" stroke-width="1px" opacity="0.25"></line><line x1="0" y1="189" x2="807.4375" y2="189" fill="rgb(0, 0, 0)" stroke="rgb(60, 60, 60)" stroke-width="1px" opacity="0.25"></line><line x1="0" y1="141.75" x2="807.4375" y2="141.75" fill="rgb(0, 0, 0)" stroke="rgb(60, 60, 60)" stroke-width="1px" opacity="0.25"></line><line x1="0" y1="94.5" x2="807.4375" y2="94.5" fill="rgb(0, 0, 0)" stroke="rgb(60, 60, 60)" stroke-width="1px" opacity="0.25"></line><line x1="0" y1="47.25" x2="807.4375" y2="47.25" fill="rgb(0, 0, 0)" stroke="rgb(60, 60, 60)" stroke-width="1px" opacity="0.25"></line><line x1="0" y1="0" x2="807.4375" y2="0" fill="rgb(0, 0, 0)" stroke="rgb(60, 60, 60)" stroke-width="1px" opacity="0.25"></line></g></g></g><g><g><line x1="0" y1="330.75" x2="807.4375" y2="330.75" fill="rgb(0, 0, 0)" stroke="rgb(153, 153, 153)" stroke-width="1.5px"></line></g></g><g><g><line x1="67.28645833333333" y1="0" x2="67.28645833333333" y2="378" fill="rgb(0, 0, 0)" stroke="rgb(153, 153, 153)" stroke-width="1.5px"></line></g></g><g><g><g><g><g><path stroke="rgb(238, 51, 119)" stroke-width="2px" d="M67.28645833333333,-23.982717633247375L80.74375,57.80236601829529L94.20104166666667,93.8143275976181L107.65833333333333,141.27575433254242L121.115625,159.11710435152054L134.57291666666666,163.84630179405212L148.03020833333332,174.67598515748978L161.4875,176.61141622066498L174.94479166666667,179.6502925157547L188.40208333333334,179.99786013364792L201.859375,182.60519742965698L215.31666666666666,183.72706139087677L228.77395833333333,182.15397799015045L242.23125,183.82892203330994L255.68854166666665,184.43668377399445L269.1458333333333,184.5778039097786L282.603125,185.01713848114014L296.06041666666664,185.23385989665985L309.51770833333336,185.28463250398636L322.975,185.2239802479744L336.4322916666667,185.5400276184082L349.88958333333335,185.61126923561096L363.346875,185.4416366815567L376.8041666666667,185.37536305189133L390.26145833333334,185.4524400830269L403.71875,185.46827906370163L417.1760416666667,185.4310473203659L430.6333333333333,185.47739267349243L444.09062500000005,185.47281897068024L457.54791666666665,185.46039336919785L471.00520833333337,185.46363776922226L484.4625,185.46446013450623L497.9197916666667,185.4677157998085L511.3770833333333,185.4702392220497L524.834375,185.47013783454895L538.2916666666666,185.47352868318558L551.7489583333333,185.47591692209244L565.20625,185.47552263736725L578.6635416666667,185.47529733181L592.1208333333333,185.47546631097794L605.578125,185.47577047348022L619.0354166666667,185.47602957487106L632.4927083333333,185.47624361515045L645.95,185.47624361515045L659.4072916666667,185.47618728876114L672.8645833333334,185.4761084318161L686.321875,185.47618728876114L699.7791666666667,185.47620981931686L713.2364583333333,185.4762323498726L726.69375,185.4762323498726" style="fill: none;" fill="none"></path></g><g><path stroke="rgb(0, 153, 136)" stroke-width="2px" d="M67.28645833333333,-46.47170448303223L80.74375,27.656076908111572L94.20104166666667,88.2485818862915L107.65833333333333,109.69048368930817L121.115625,112.32281863689423L134.57291666666666,131.36510360240936L148.03020833333332,135.9269778728485L161.4875,137.28822898864746L174.94479166666667,133.4314935207367L188.40208333333334,142.4655704498291L201.859375,154.0437188744545L215.31666666666666,146.80702829360962L228.77395833333333,153.35510623455048L242.23125,159.35581558942795L255.68854166666665,156.91383004188538L269.1458333333333,158.4920842051506L282.603125,157.18563866615295L296.06041666666664,155.5412798523903L309.51770833333336,157.82101160287857L322.975,157.84087228775024L336.4322916666667,157.3484782576561L349.88958333333335,155.211421251297L363.346875,156.40383964776993L376.8041666666667,156.21913415193558L390.26145833333334,156.1033158302307L403.71875,157.0944237112999L417.1760416666667,156.93080681562424L430.6333333333333,157.2030435204506L444.09062500000005,157.7064887881279L457.54791666666665,157.15501964092255L471.00520833333337,157.04351592063904L484.4625,157.11082595586777L497.9197916666667,157.1483843922615L511.3770833333333,157.16975462436676L524.834375,157.11245942115784L538.2916666666666,157.03632867336273L551.7489583333333,157.18220275640488L565.20625,157.2176883816719L578.6635416666667,157.2696100473404L592.1208333333333,157.3191772699356L605.578125,157.31959408521652L619.0354166666667,157.29342484474182L632.4927083333333,157.30355232954025L645.95,157.2847393155098L659.4072916666667,157.263740837574L672.8645833333334,157.2674133181572L686.321875,157.2691594362259L699.7791666666667,157.2724038362503L713.2364583333333,157.2740598320961L726.69375,157.27551305294037" style="fill: none;" fill="none"></path></g><g><path stroke="rgb(187, 187, 187)" stroke-width="2px" d="M80.74375,-0.7404667139053345L94.20104166666667,11.01521122455597L107.65833333333333,55.71664488315582L121.115625,52.55229592323303L134.57291666666666,13.249093294143677L148.03020833333332,62.55692160129547L161.4875,47.83601975440979L174.94479166666667,58.42454731464386L188.40208333333334,52.445703864097595L201.859375,67.13965916633606L215.31666666666666,48.606677412986755L228.77395833333333,61.10383594036102L242.23125,62.763076186180115L255.68854166666665,59.96077072620392L269.1458333333333,58.930110454559326L282.603125,68.19460737705231L296.06041666666664,70.9030956029892L309.51770833333336,66.128870844841L322.975,68.34644079208374L336.4322916666667,69.11462008953094L349.88958333333335,64.47497034072876L363.346875,68.93151426315308L376.8041666666667,69.03954827785492L390.26145833333334,62.01359724998474L403.71875,65.68118870258331L417.1760416666667,65.53845763206482L430.6333333333333,64.11704993247986L444.09062500000005,69.01302981376648L457.54791666666665,65.14417290687561L471.00520833333337,66.84782087802887L484.4625,66.74278342723846L497.9197916666667,66.85261988639832L511.3770833333333,63.74928367137909L524.834375,64.85442996025085L538.2916666666666,66.96887755393982L551.7489583333333,62.61354088783264L565.20625,64.63234627246857L578.6635416666667,66.13240814208984L592.1208333333333,66.13914477825165L605.578125,66.40633463859558L619.0354166666667,66.08522915840149L632.4927083333333,66.71392178535461L645.95,66.0462738275528L659.4072916666667,66.27139914035797L672.8645833333334,65.9822645187378L686.321875,65.74551343917847L699.7791666666667,65.45009279251099L713.2364583333333,65.85239839553833L726.69375,65.95739078521729" style="fill: none;" fill="none"></path></g><g><path stroke="rgb(51, 187, 238)" stroke-width="2px" d="M67.28645833333333,286.16330038011074L80.74375,297.6831707060337L94.20104166666667,301.36657297611237L107.65833333333333,304.6941783428192L121.115625,305.1591442376375L134.57291666666666,304.96893283724785L148.03020833333332,305.5347286015749L161.4875,305.6194096952677L174.94479166666667,305.6215557307005L188.40208333333334,305.3909554928541L201.859375,305.643109023571L215.31666666666666,305.66387374699116L228.77395833333333,305.70935449004173L242.23125,305.66616904735565L255.68854166666665,305.6501329243183L269.1458333333333,305.66348791122437L282.603125,305.68533128499985L296.06041666666664,305.73416908085346L309.51770833333336,305.6703681796789L322.975,305.65951408445835L336.4322916666667,305.6841568797827L349.88958333333335,305.67746248841286L363.346875,305.6834499835968L376.8041666666667,305.6860832422972L390.26145833333334,305.6838921457529L403.71875,305.68616773188114L417.1760416666667,305.68270929157734L430.6333333333333,305.68464410305023L444.09062500000005,305.68310920894146L457.54791666666665,305.68291206657887L471.00520833333337,305.6813743561506L484.4625,305.6805576235056L497.9197916666667,305.68006758391857L511.3770833333333,305.6798788905144L524.834375,305.68008448183537L538.2916666666666,305.68006758391857L551.7489583333333,305.6800309717655L565.20625,305.6800591349602L578.6635416666667,305.6801041960716L592.1208333333333,305.68017742037773L605.578125,305.6802224814892L619.0354166666667,305.6802309304476L632.4927083333333,305.680239379406L645.95,305.6802450120449L659.4072916666667,305.6802450120449L672.8645833333334,305.6802534610033L686.321875,305.6802534610033L699.7791666666667,305.68025064468384L713.2364583333333,305.68025064468384L726.69375,305.6802478283644" style="fill: none;" fill="none"></path></g><g><path stroke="rgb(204, 51, 17)" stroke-width="2px" d="M67.28645833333333,291.02053052186966L80.74375,292.05831326544285L94.20104166666667,299.5910131037235L107.65833333333333,300.32023425400257L121.115625,303.2676421254873L134.57291666666666,302.25213646888733L148.03020833333332,303.53692169487476L161.4875,302.70293064415455L174.94479166666667,302.10146337747574L188.40208333333334,302.0857060700655L201.859375,302.11997786164284L215.31666666666666,302.3352516889572L228.77395833333333,302.1495604813099L242.23125,301.81249210238457L255.68854166666665,301.6010203063488L269.1458333333333,301.869131103158L282.603125,301.446184694767L296.06041666666664,301.48797887563705L309.51770833333336,301.4919245392084L322.975,301.5728824585676L336.4322916666667,301.6297946423292L349.88958333333335,301.65867318212986L363.346875,301.5918503701687L376.8041666666667,301.6055123358965L390.26145833333334,301.50088043510914L403.71875,301.50324895977974L417.1760416666667,301.4839515388012L430.6333333333333,301.4582019299269L444.09062500000005,301.4767614752054L457.54791666666665,301.48544700443745L471.00520833333337,301.5104136765003L484.4625,301.52289278805256L497.9197916666667,301.5203918963671L511.3770833333333,301.52144238352776L524.834375,301.52554857730865L538.2916666666666,301.5154661536217L551.7489583333333,301.51459872722626L565.20625,301.5131539553404L578.6635416666667,301.51593366265297L592.1208333333333,301.5167757421732L605.578125,301.51194293797016L619.0354166666667,301.51132898032665L632.4927083333333,301.5125794261694L645.95,301.51252591609955L659.4072916666667,301.5135285258293L672.8645833333334,301.51362428069115L686.321875,301.5132919549942L699.7791666666667,301.51442693173885L713.2364583333333,301.51425513625145L726.69375,301.5143227279186" style="fill: none;" fill="none"></path></g><g><path stroke="rgb(0, 119, 187)" stroke-width="2px" d="M67.28645833333333,287.7583285421133L80.74375,295.2911185026169L94.20104166666667,296.515811920166L107.65833333333333,295.625131174922L121.115625,297.2252878546715L134.57291666666666,297.6234478354454L148.03020833333332,296.42254950106144L161.4875,295.4984390437603L174.94479166666667,293.74073182046413L188.40208333333334,295.06158846616745L201.859375,295.5520054399967L215.31666666666666,295.5149032473564L228.77395833333333,293.5975219756365L242.23125,293.81405188143253L255.68854166666665,293.30281104147434L269.1458333333333,293.4633947610855L282.603125,292.2008612751961L296.06041666666664,292.6907825767994L309.51770833333336,292.01585724949837L322.975,292.20526318252087L336.4322916666667,292.1234350204468L349.88958333333335,291.74961648881435L363.346875,292.0754139572382L376.8041666666667,291.57010991871357L390.26145833333334,290.73798890411854L403.71875,290.41820991039276L417.1760416666667,290.50438928604126L430.6333333333333,290.8488505035639L444.09062500000005,290.3532148897648L457.54791666666665,290.42848947644234L471.00520833333337,290.6132175028324L484.4625,290.4012246876955L497.9197916666667,290.431959182024L511.3770833333333,289.9003760665655L524.834375,290.2458990365267L538.2916666666666,290.36708526313305L551.7489583333333,290.2369572222233L565.20625,289.9767124056816L578.6635416666667,289.9399960488081L592.1208333333333,289.8727507889271L605.578125,289.9615831375122L619.0354166666667,289.94392481446266L632.4927083333333,289.9244499653578L645.95,290.03248116374016L659.4072916666667,289.9355068355799L672.8645833333334,289.84797844290733L686.321875,289.8452100008726L699.7791666666667,289.8688558191061L713.2364583333333,289.8091076016426L726.69375,289.7961328178644" style="fill: none;" fill="none"></path></g><g><path stroke="rgb(255, 112, 67)" stroke-width="2px" d="M67.28645833333333,292.73526634275913L80.74375,298.52344496548176L94.20104166666667,301.54062996804714L107.65833333333333,302.9812337011099L121.115625,304.2457836717367L134.57291666666666,304.9393980950117L148.03020833333332,305.76524153351784L161.4875,305.98134899139404L174.94479166666667,306.5847482532263L188.40208333333334,306.9363629221916L201.859375,307.0839465111494L215.31666666666666,307.14681661874056L228.77395833333333,307.34072303026915L242.23125,307.2651104852557L255.68854166666665,307.50904036313295L269.1458333333333,307.7189955711365L282.603125,307.6905155405402L296.06041666666664,307.8868707418442L309.51770833333336,307.8456848859787L322.975,307.9008157476783L336.4322916666667,308.0129883438349L349.88958333333335,307.98821599781513L363.346875,308.0362666323781L376.8041666666667,308.03356578201056L390.26145833333334,308.00734021514654L403.71875,308.04094735533L417.1760416666667,308.01976018399L430.6333333333333,308.1075645759702L444.09062500000005,308.12880666553974L457.54791666666665,308.11397451907396L471.00520833333337,308.11383229494095L484.4625,308.15283127874136L497.9197916666667,308.1863271743059L511.3770833333333,308.1745183467865L524.834375,308.20312229543924L538.2916666666666,308.2013184428215L551.7489583333333,308.208857730031L565.20625,308.1893138810992L578.6635416666667,308.19193587452173L592.1208333333333,308.1791047230363L605.578125,308.1826631426811L619.0354166666667,308.1958392933011L632.4927083333333,308.18968422710896L645.95,308.1859582364559L659.4072916666667,308.18553860485554L672.8645833333334,308.19308211654425L686.321875,308.19676304608583L699.7791666666667,308.1955590695143L713.2364583333333,308.19737700372934L726.69375,308.19987367093563" style="fill: none;" fill="none"></path></g></g></g></g></g></g><g transform="translate(51, 378)" clip-path="url(#clip_1)"><clipPath id="clip_1"><rect width="807" height="22"></rect></clipPath><g><g><line x1="0" y1="0" x2="0" y2="5" style="visibility: inherit;" fill="rgb(0, 0, 0)" stroke="rgb(204, 204, 204)" stroke-width="1px"></line><line x1="67.28645833333333" y1="0" x2="67.28645833333333" y2="5" style="visibility: inherit;" fill="rgb(0, 0, 0)" stroke="rgb(204, 204, 204)" stroke-width="1px"></line><line x1="134.57291666666666" y1="0" x2="134.57291666666666" y2="5" style="visibility: inherit;" fill="rgb(0, 0, 0)" stroke="rgb(204, 204, 204)" stroke-width="1px"></line><line x1="201.859375" y1="0" x2="201.859375" y2="5" style="visibility: inherit;" fill="rgb(0, 0, 0)" stroke="rgb(204, 204, 204)" stroke-width="1px"></line><line x1="269.1458333333333" y1="0" x2="269.1458333333333" y2="5" style="visibility: inherit;" fill="rgb(0, 0, 0)" stroke="rgb(204, 204, 204)" stroke-width="1px"></line><line x1="336.4322916666667" y1="0" x2="336.4322916666667" y2="5" style="visibility: inherit;" fill="rgb(0, 0, 0)" stroke="rgb(204, 204, 204)" stroke-width="1px"></line><line x1="403.71875" y1="0" x2="403.71875" y2="5" style="visibility: inherit;" fill="rgb(0, 0, 0)" stroke="rgb(204, 204, 204)" stroke-width="1px"></line><line x1="471.00520833333337" y1="0" x2="471.00520833333337" y2="5" style="visibility: inherit;" fill="rgb(0, 0, 0)" stroke="rgb(204, 204, 204)" stroke-width="1px"></line><line x1="538.2916666666666" y1="0" x2="538.2916666666666" y2="5" style="visibility: inherit;" fill="rgb(0, 0, 0)" stroke="rgb(204, 204, 204)" stroke-width="1px"></line><line x1="605.578125" y1="0" x2="605.578125" y2="5" style="visibility: inherit;" fill="rgb(0, 0, 0)" stroke="rgb(204, 204, 204)" stroke-width="1px"></line><line x1="672.8645833333334" y1="0" x2="672.8645833333334" y2="5" style="visibility: inherit;" fill="rgb(0, 0, 0)" stroke="rgb(204, 204, 204)" stroke-width="1px"></line><line x1="740.1510416666666" y1="0" x2="740.1510416666666" y2="5" style="visibility: inherit;" fill="rgb(0, 0, 0)" stroke="rgb(204, 204, 204)" stroke-width="1px"></line><line x1="807.4375" y1="0" x2="807.4375" y2="5" style="visibility: inherit;" fill="rgb(0, 0, 0)" stroke="rgb(204, 204, 204)" stroke-width="1px"></line></g><g transform="translate(0, 8)"><text x="0" y="0" dx="0em" dy="0.95em" style="text-anchor: middle; visibility: hidden; font-family: Roboto, sans-serif; font-size: 12px; font-weight: 200;" fill="rgb(50, 49, 63)" stroke="none" stroke-width="1px">-5</text><text x="67.28645833333333" y="0" dx="0em" dy="0.95em" style="text-anchor: middle; visibility: inherit; font-family: Roboto, sans-serif; font-size: 12px; font-weight: 200;" fill="rgb(50, 49, 63)" stroke="none" stroke-width="1px">0</text><text x="134.57291666666666" y="0" dx="0em" dy="0.95em" style="text-anchor: middle; visibility: inherit; font-family: Roboto, sans-serif; font-size: 12px; font-weight: 200;" fill="rgb(50, 49, 63)" stroke="none" stroke-width="1px">5</text><text x="201.859375" y="0" dx="0em" dy="0.95em" style="text-anchor: middle; visibility: inherit; font-family: Roboto, sans-serif; font-size: 12px; font-weight: 200;" fill="rgb(50, 49, 63)" stroke="none" stroke-width="1px">10</text><text x="269.1458333333333" y="0" dx="0em" dy="0.95em" style="text-anchor: middle; visibility: inherit; font-family: Roboto, sans-serif; font-size: 12px; font-weight: 200;" fill="rgb(50, 49, 63)" stroke="none" stroke-width="1px">15</text><text x="336.4322916666667" y="0" dx="0em" dy="0.95em" style="text-anchor: middle; visibility: inherit; font-family: Roboto, sans-serif; font-size: 12px; font-weight: 200;" fill="rgb(50, 49, 63)" stroke="none" stroke-width="1px">20</text><text x="403.71875" y="0" dx="0em" dy="0.95em" style="text-anchor: middle; visibility: inherit; font-family: Roboto, sans-serif; font-size: 12px; font-weight: 200;" fill="rgb(50, 49, 63)" stroke="none" stroke-width="1px">25</text><text x="471.00520833333337" y="0" dx="0em" dy="0.95em" style="text-anchor: middle; visibility: inherit; font-family: Roboto, sans-serif; font-size: 12px; font-weight: 200;" fill="rgb(50, 49, 63)" stroke="none" stroke-width="1px">30</text><text x="538.2916666666666" y="0" dx="0em" dy="0.95em" style="text-anchor: middle; visibility: inherit; font-family: Roboto, sans-serif; font-size: 12px; font-weight: 200;" fill="rgb(50, 49, 63)" stroke="none" stroke-width="1px">35</text><text x="605.578125" y="0" dx="0em" dy="0.95em" style="text-anchor: middle; visibility: inherit; font-family: Roboto, sans-serif; font-size: 12px; font-weight: 200;" fill="rgb(50, 49, 63)" stroke="none" stroke-width="1px">40</text><text x="672.8645833333334" y="0" dx="0em" dy="0.95em" style="text-anchor: middle; visibility: inherit; font-family: Roboto, sans-serif; font-size: 12px; font-weight: 200;" fill="rgb(50, 49, 63)" stroke="none" stroke-width="1px">45</text><text x="740.1510416666666" y="0" dx="0em" dy="0.95em" style="text-anchor: middle; visibility: inherit; font-family: Roboto, sans-serif; font-size: 12px; font-weight: 200;" fill="rgb(50, 49, 63)" stroke="none" stroke-width="1px">50</text><text x="807.4375" y="0" dx="0em" dy="0.95em" style="text-anchor: middle; visibility: hidden; font-family: Roboto, sans-serif; font-size: 12px; font-weight: 200;" fill="rgb(50, 49, 63)" stroke="none" stroke-width="1px">55</text></g><line x1="0" y1="0" x2="807.4375" y2="0" fill="rgb(0, 0, 0)" stroke="rgb(204, 204, 204)" stroke-width="1px"></line></g></g></g></g></svg>