<svg viewBox="0 0 910 400" xmlns="http://www.w3.org/2000/svg"><g><g><g><g><g><line x1="49.98400115966797" y1="373.3506767286031" x2="44.98400115966797" y2="373.3506767286031" style="visibility: inherit;" fill="rgb(0, 0, 0)" stroke="rgb(204, 204, 204)" stroke-width="1px"></line><line x1="49.98400115966797" y1="335.0408044793776" x2="44.98400115966797" y2="335.0408044793776" style="visibility: inherit;" fill="rgb(0, 0, 0)" stroke="rgb(204, 204, 204)" stroke-width="1px"></line><line x1="49.98400115966797" y1="296.7309322301521" x2="44.98400115966797" y2="296.7309322301521" style="visibility: inherit;" fill="rgb(0, 0, 0)" stroke="rgb(204, 204, 204)" stroke-width="1px"></line><line x1="49.98400115966797" y1="258.4210599809268" x2="44.98400115966797" y2="258.4210599809268" style="visibility: inherit;" fill="rgb(0, 0, 0)" stroke="rgb(204, 204, 204)" stroke-width="1px"></line><line x1="49.98400115966797" y1="220.1111877317014" x2="44.98400115966797" y2="220.1111877317014" style="visibility: inherit;" fill="rgb(0, 0, 0)" stroke="rgb(204, 204, 204)" stroke-width="1px"></line><line x1="49.98400115966797" y1="181.8013154824759" x2="44.98400115966797" y2="181.8013154824759" style="visibility: inherit;" fill="rgb(0, 0, 0)" stroke="rgb(204, 204, 204)" stroke-width="1px"></line><line x1="49.98400115966797" y1="143.49144323325044" x2="44.98400115966797" y2="143.49144323325044" style="visibility: inherit;" fill="rgb(0, 0, 0)" stroke="rgb(204, 204, 204)" stroke-width="1px"></line><line x1="49.98400115966797" y1="105.18157098402493" x2="44.98400115966797" y2="105.18157098402493" style="visibility: inherit;" fill="rgb(0, 0, 0)" stroke="rgb(204, 204, 204)" stroke-width="1px"></line><line x1="49.98400115966797" y1="66.87169873479948" x2="44.98400115966797" y2="66.87169873479948" style="visibility: inherit;" fill="rgb(0, 0, 0)" stroke="rgb(204, 204, 204)" stroke-width="1px"></line><line x1="49.98400115966797" y1="28.561826485574187" x2="44.98400115966797" y2="28.561826485574187" style="visibility: inherit;" fill="rgb(0, 0, 0)" stroke="rgb(204, 204, 204)" stroke-width="1px"></line></g><g transform="translate(39.98400115966797, 0)"><text style="text-anchor: end; visibility: hidden; font-family: Roboto, sans-serif; font-size: 12px; font-weight: 200;" x="0" y="373.3506767286031" dx="0em" dy="0.3em" fill="rgb(50, 49, 63)" stroke="none" stroke-width="1px">0.76</text><text style="text-anchor: end; visibility: inherit; font-family: Roboto, sans-serif; font-size: 12px; font-weight: 200;" x="0" y="335.0408044793776" dx="0em" dy="0.3em" fill="rgb(50, 49, 63)" stroke="none" stroke-width="1px">0.78</text><text style="text-anchor: end; visibility: inherit; font-family: Roboto, sans-serif; font-size: 12px; font-weight: 200;" x="0" y="296.7309322301521" dx="0em" dy="0.3em" fill="rgb(50, 49, 63)" stroke="none" stroke-width="1px">0.8</text><text style="text-anchor: end; visibility: inherit; font-family: Roboto, sans-serif; font-size: 12px; font-weight: 200;" x="0" y="258.4210599809268" dx="0em" dy="0.3em" fill="rgb(50, 49, 63)" stroke="none" stroke-width="1px">0.82</text><text style="text-anchor: end; visibility: inherit; font-family: Roboto, sans-serif; font-size: 12px; font-weight: 200;" x="0" y="220.1111877317014" dx="0em" dy="0.3em" fill="rgb(50, 49, 63)" stroke="none" stroke-width="1px">0.84</text><text style="text-anchor: end; visibility: inherit; font-family: Roboto, sans-serif; font-size: 12px; font-weight: 200;" x="0" y="181.8013154824759" dx="0em" dy="0.3em" fill="rgb(50, 49, 63)" stroke="none" stroke-width="1px">0.86</text><text style="text-anchor: end; visibility: inherit; font-family: Roboto, sans-serif; font-size: 12px; font-weight: 200;" x="0" y="143.49144323325044" dx="0em" dy="0.3em" fill="rgb(50, 49, 63)" stroke="none" stroke-width="1px">0.88</text><text style="text-anchor: end; visibility: inherit; font-family: Roboto, sans-serif; font-size: 12px; font-weight: 200;" x="0" y="105.18157098402493" dx="0em" dy="0.3em" fill="rgb(50, 49, 63)" stroke="none" stroke-width="1px">0.9</text><text style="text-anchor: end; visibility: inherit; font-family: Roboto, sans-serif; font-size: 12px; font-weight: 200;" x="0" y="66.87169873479948" dx="0em" dy="0.3em" fill="rgb(50, 49, 63)" stroke="none" stroke-width="1px">0.92</text><text style="text-anchor: end; visibility: inherit; font-family: Roboto, sans-serif; font-size: 12px; font-weight: 200;" x="0" y="28.561826485574187" dx="0em" dy="0.3em" fill="rgb(50, 49, 63)" stroke="none" stroke-width="1px">0.94</text></g><line x1="49.98400115966797" y1="0" x2="49.98400115966797" y2="378.6199998855591" fill="rgb(0, 0, 0)" stroke="rgb(204, 204, 204)" stroke-width="1px"></line></g></g><g transform="translate(49, 0)" clip-path="url(#clip_0)"><clipPath id="clip_0"><rect width="860" height="378"></rect></clipPath><g><g><g><line x1="22.40816758215336" y1="0" x2="22.40816758215336" y2="378.6199998855591" fill="rgb(0, 0, 0)" stroke="rgb(60, 60, 60)" stroke-width="1px" opacity="0.25"></line><line x1="109.42708643963998" y1="0" x2="109.42708643963998" y2="378.6199998855591" fill="rgb(0, 0, 0)" stroke="rgb(60, 60, 60)" stroke-width="1px" opacity="0.25"></line><line x1="196.44600529712662" y1="0" x2="196.44600529712662" y2="378.6199998855591" fill="rgb(0, 0, 0)" stroke="rgb(60, 60, 60)" stroke-width="1px" opacity="0.25"></line><line x1="283.4649241546132" y1="0" x2="283.4649241546132" y2="378.6199998855591" fill="rgb(0, 0, 0)" stroke="rgb(60, 60, 60)" stroke-width="1px" opacity="0.25"></line><line x1="370.48384301209984" y1="0" x2="370.48384301209984" y2="378.6199998855591" fill="rgb(0, 0, 0)" stroke="rgb(60, 60, 60)" stroke-width="1px" opacity="0.25"></line><line x1="457.50276186958644" y1="0" x2="457.50276186958644" y2="378.6199998855591" fill="rgb(0, 0, 0)" stroke="rgb(60, 60, 60)" stroke-width="1px" opacity="0.25"></line><line x1="544.5216807270731" y1="0" x2="544.5216807270731" y2="378.6199998855591" fill="rgb(0, 0, 0)" stroke="rgb(60, 60, 60)" stroke-width="1px" opacity="0.25"></line><line x1="631.5405995845598" y1="0" x2="631.5405995845598" y2="378.6199998855591" fill="rgb(0, 0, 0)" stroke="rgb(60, 60, 60)" stroke-width="1px" opacity="0.25"></line><line x1="718.5595184420464" y1="0" x2="718.5595184420464" y2="378.6199998855591" fill="rgb(0, 0, 0)" stroke="rgb(60, 60, 60)" stroke-width="1px" opacity="0.25"></line><line x1="805.578437299533" y1="0" x2="805.578437299533" y2="378.6199998855591" fill="rgb(0, 0, 0)" stroke="rgb(60, 60, 60)" stroke-width="1px" opacity="0.25"></line></g><g><line x1="0" y1="373.3506767286031" x2="860.015998840332" y2="373.3506767286031" fill="rgb(0, 0, 0)" stroke="rgb(60, 60, 60)" stroke-width="1px" opacity="0.25"></line><line x1="0" y1="335.0408044793776" x2="860.015998840332" y2="335.0408044793776" fill="rgb(0, 0, 0)" stroke="rgb(60, 60, 60)" stroke-width="1px" opacity="0.25"></line><line x1="0" y1="296.7309322301521" x2="860.015998840332" y2="296.7309322301521" fill="rgb(0, 0, 0)" stroke="rgb(60, 60, 60)" stroke-width="1px" opacity="0.25"></line><line x1="0" y1="258.4210599809268" x2="860.015998840332" y2="258.4210599809268" fill="rgb(0, 0, 0)" stroke="rgb(60, 60, 60)" stroke-width="1px" opacity="0.25"></line><line x1="0" y1="220.1111877317014" x2="860.015998840332" y2="220.1111877317014" fill="rgb(0, 0, 0)" stroke="rgb(60, 60, 60)" stroke-width="1px" opacity="0.25"></line><line x1="0" y1="181.8013154824759" x2="860.015998840332" y2="181.8013154824759" fill="rgb(0, 0, 0)" stroke="rgb(60, 60, 60)" stroke-width="1px" opacity="0.25"></line><line x1="0" y1="143.49144323325044" x2="860.015998840332" y2="143.49144323325044" fill="rgb(0, 0, 0)" stroke="rgb(60, 60, 60)" stroke-width="1px" opacity="0.25"></line><line x1="0" y1="105.18157098402493" x2="860.015998840332" y2="105.18157098402493" fill="rgb(0, 0, 0)" stroke="rgb(60, 60, 60)" stroke-width="1px" opacity="0.25"></line><line x1="0" y1="66.87169873479948" x2="860.015998840332" y2="66.87169873479948" fill="rgb(0, 0, 0)" stroke="rgb(60, 60, 60)" stroke-width="1px" opacity="0.25"></line><line x1="0" y1="28.561826485574187" x2="860.015998840332" y2="28.561826485574187" fill="rgb(0, 0, 0)" stroke="rgb(60, 60, 60)" stroke-width="1px" opacity="0.25"></line></g></g></g><g><g><line x1="0" y1="1829.1258221991702" x2="860.015998840332" y2="1829.1258221991702" fill="rgb(0, 0, 0)" stroke="rgb(153, 153, 153)" stroke-width="1.5px"></line></g></g><g><g><line x1="109.42708643963998" y1="0" x2="109.42708643963998" y2="378.6199998855591" fill="rgb(0, 0, 0)" stroke="rgb(153, 153, 153)" stroke-width="1.5px"></line></g></g><g><g><g><g><g><path style="fill: none;" stroke="rgb(51, 187, 238)" stroke-width="2px" d="M109.42708643963998,245.1791400878259L118.12897832538864,202.30241172013035L126.83087021113731,183.855362224398L135.532762096886,161.4199312019505L144.23465398263465,149.45432993253974L152.93654586838332,145.46572006119192L161.63843775413196,139.48297651264468L170.34032963988062,136.49154765221294L179.0422215256293,137.48872866312897L187.74411341137795,136.99013815767097L196.44600529712662,139.48297651264468L205.14789718287528,135.49448081361322L213.84978906862395,133.00164245863948L222.5516809543726,134.99589030815523L231.2535728401213,133.00164245863948L239.95546472586992,129.01303258729166L248.65735661161858,127.01878473777593L257.3592484973672,131.5058709422654L266.0611403831159,131.0072804368074L274.7630322688646,130.01021359820768L283.4649241546132,128.51444208183364L292.1668160403619,131.0072804368074L300.8687079261105,129.01303258729166L309.5705998118592,130.5088041036657L318.27249169760785,126.02171789917621L326.97438358335654,128.01596574869194L335.6762754691052,130.5088041036657L344.3781673548539,129.01303258729166L353.0800592406025,126.5201942323179L361.7819511263512,126.5201942323179L370.48384301209984,128.01596574869194L379.18573489784853,126.5201942323179L387.88762678359717,126.5201942323179L396.5895186693458,127.01878473777593L405.2914105550945,126.5201942323179L413.99330244084314,126.5201942323179L422.69519432659183,125.52312739371818L431.3970862123405,126.5201942323179L440.0989780980891,126.5201942323179L448.8008699838378,126.5201942323179L457.50276186958644,127.01878473777593L466.20465375533513,127.51737524323391L474.90654564108377,127.01878473777593L483.60843752683246,127.01878473777593L492.3103294125811,127.01878473777593L501.0122212983298,127.01878473777593L509.7141131840784,127.01878473777593L518.4160050698271,127.01878473777593L527.1178969555758,126.5201942323179L535.8197888413245,126.5201942323179" fill="none"></path></g><g><path style="fill: none;" stroke="rgb(204, 51, 17)" stroke-width="2px" d="M109.42708643963998,367.6624018514681L118.12897832538864,199.7569399273237L126.83087021113731,149.21388303432713L135.532762096886,125.65579562530559L144.23465398263465,96.10092147282703L152.93654586838332,86.46352207822734L161.63843775413196,83.25105561336078L170.34032963988062,76.1835608872645L179.0422215256293,75.11273873230898L187.74411341137795,60.12122856293166L196.44600529712662,65.04696480680053L205.14789718287528,56.69457483261075L213.84978906862395,56.69457483261075L222.5516809543726,55.83793994310958L231.2535728401213,53.48210836774417L239.95546472586992,48.984632482467696L248.65735661161858,52.83954657138105L257.3592484973672,51.554651323287494L266.0611403831159,49.62708010651447L274.7630322688646,46.200426376193555L283.4649241546132,49.62708010651447L292.1668160403619,46.4146136416479L300.8687079261105,50.269641902877595L309.5705998118592,45.557978752146774L318.27249169760785,47.05717543801102L326.97438358335654,43.6305217076901L335.6762754691052,48.55625795155896L344.3781673548539,47.05717543801102L353.0800592406025,49.19881974792209L361.7819511263512,46.84298817255667L370.48384301209984,45.129604221238L379.18573489784853,45.129604221238L387.88762678359717,45.557978752146774L396.5895186693458,44.9155311281L405.2914105550945,41.488877397779035L413.99330244084314,45.98635328305551L422.69519432659183,47.485435796603454L431.3970862123405,46.200426376193555L440.0989780980891,46.84298817255667L448.8008699838378,43.84470897314444L457.50276186958644,46.4146136416479L466.20465375533513,48.12799759296653L474.90654564108377,45.34379148669239L483.60843752683246,44.70134386264561L492.3103294125811,44.70134386264561L501.0122212983298,46.62880090710229L509.7141131840784,42.987959911326975L518.4160050698271,43.84470897314444L527.1178969555758,45.129604221238L535.8197888413245,47.485435796603454" fill="none"></path></g><g><path style="fill: none;" stroke="rgb(0, 119, 187)" stroke-width="2px" d="M109.42708643963998,260.63464655081015L118.12897832538864,221.7465280544624L126.83087021113731,197.81532551564084L135.532762096886,182.35970488034027L144.23465398263465,176.87543766493476L152.93654586838332,167.90126525595574L161.63843775413196,157.9299118360607L170.34032963988062,157.43132133060269L179.0422215256293,149.45432993253974L187.74411341137795,146.46290107210797L196.44600529712662,144.46865322259222L205.14789718287528,146.46290107210797L213.84978906862395,144.46865322259222L222.5516809543726,140.97863385670243L231.2535728401213,139.48297651264468L239.95546472586992,137.48872866312897L248.65735661161858,137.48872866312897L257.3592484973672,133.50011879178115L266.0611403831159,134.4972998026972L274.7630322688646,135.49448081361322L283.4649241546132,132.00446144772343L292.1668160403619,133.00164245863948L300.8687079261105,133.50011879178115L309.5705998118592,133.50011879178115L318.27249169760785,130.5088041036657L326.97438358335654,133.99870929723917L335.6762754691052,132.00446144772343L344.3781673548539,133.50011879178115L353.0800592406025,133.99870929723917L361.7819511263512,134.4972998026972L370.48384301209984,134.4972998026972L379.18573489784853,133.50011879178115L387.88762678359717,133.00164245863948L396.5895186693458,132.00446144772343L405.2914105550945,131.5058709422654L413.99330244084314,130.5088041036657L422.69519432659183,130.5088041036657L431.3970862123405,131.5058709422654L440.0989780980891,133.00164245863948L448.8008699838378,133.00164245863948L457.50276186958644,133.50011879178115L466.20465375533513,133.99870929723917L474.90654564108377,133.99870929723917L483.60843752683246,133.50011879178115L492.3103294125811,133.99870929723917L501.0122212983298,133.99870929723917L509.7141131840784,132.50305195318145L518.4160050698271,132.00446144772343L527.1178969555758,132.00446144772343L535.8197888413245,132.00446144772343" fill="none"></path></g><g><path style="fill: none;" stroke="rgb(255, 112, 67)" stroke-width="2px" d="M109.42708643963998,381.5832040382062L118.12897832538864,204.0402285471458L126.83087021113731,156.28137776042334L135.532762096886,131.22409366553757L144.23465398263465,109.16508877006402L152.93654586838332,95.45847384878026L161.63843775413196,86.24933481277296L170.34032963988062,86.03514754731857L179.0422215256293,75.32692599776338L187.74411341137795,69.1161803334846L196.44600529712662,71.25782464339564L205.14789718287528,59.69285403202293L213.84978906862395,61.62031107647961L222.5516809543726,59.264593673430504L231.2535728401213,56.26620030170197L239.95546472586992,57.12294936351948L248.65735661161858,52.41128621278866L257.3592484973672,53.48210836774417L266.0611403831159,54.55293052269968L274.7630322688646,52.83954657138105L283.4649241546132,47.485435796603454L292.1668160403619,48.77044521701331L300.8687079261105,48.34207068610458L309.5705998118592,46.62880090710229L318.27249169760785,47.699623062057796L326.97438358335654,44.9155311281L335.6762754691052,49.19881974792209L344.3781673548539,46.4146136416479L353.0800592406025,46.4146136416479L361.7819511263512,45.129604221238L370.48384301209984,48.55625795155896L379.18573489784853,44.48715659719122L387.88762678359717,44.9155311281L396.5895186693458,45.98635328305551L405.2914105550945,43.84470897314444L413.99330244084314,45.557978752146774L422.69519432659183,43.6305217076901L431.3970862123405,45.77216601760112L440.0989780980891,46.62880090710229L448.8008699838378,45.129604221238L457.50276186958644,43.6305217076901L466.20465375533513,46.62880090710229L474.90654564108377,41.488877397779035L483.60843752683246,45.557978752146774L492.3103294125811,43.202147176781324L501.0122212983298,39.34723308786801L509.7141131840784,47.27124853114906L518.4160050698271,41.0605028668703L527.1178969555758,44.05878206628249L535.8197888413245,43.202147176781324" fill="none"></path></g></g></g></g></g></g><g transform="translate(49, 378)" clip-path="url(#clip_1)"><clipPath id="clip_1"><rect width="860" height="21"></rect></clipPath><g><g><line x1="22.40816758215336" y1="0" x2="22.40816758215336" y2="5" style="visibility: inherit;" fill="rgb(0, 0, 0)" stroke="rgb(204, 204, 204)" stroke-width="1px"></line><line x1="109.42708643963998" y1="0" x2="109.42708643963998" y2="5" style="visibility: inherit;" fill="rgb(0, 0, 0)" stroke="rgb(204, 204, 204)" stroke-width="1px"></line><line x1="196.44600529712662" y1="0" x2="196.44600529712662" y2="5" style="visibility: inherit;" fill="rgb(0, 0, 0)" stroke="rgb(204, 204, 204)" stroke-width="1px"></line><line x1="283.4649241546132" y1="0" x2="283.4649241546132" y2="5" style="visibility: inherit;" fill="rgb(0, 0, 0)" stroke="rgb(204, 204, 204)" stroke-width="1px"></line><line x1="370.48384301209984" y1="0" x2="370.48384301209984" y2="5" style="visibility: inherit;" fill="rgb(0, 0, 0)" stroke="rgb(204, 204, 204)" stroke-width="1px"></line><line x1="457.50276186958644" y1="0" x2="457.50276186958644" y2="5" style="visibility: inherit;" fill="rgb(0, 0, 0)" stroke="rgb(204, 204, 204)" stroke-width="1px"></line><line x1="544.5216807270731" y1="0" x2="544.5216807270731" y2="5" style="visibility: inherit;" fill="rgb(0, 0, 0)" stroke="rgb(204, 204, 204)" stroke-width="1px"></line><line x1="631.5405995845598" y1="0" x2="631.5405995845598" y2="5" style="visibility: inherit;" fill="rgb(0, 0, 0)" stroke="rgb(204, 204, 204)" stroke-width="1px"></line><line x1="718.5595184420464" y1="0" x2="718.5595184420464" y2="5" style="visibility: inherit;" fill="rgb(0, 0, 0)" stroke="rgb(204, 204, 204)" stroke-width="1px"></line><line x1="805.578437299533" y1="0" x2="805.578437299533" y2="5" style="visibility: inherit;" fill="rgb(0, 0, 0)" stroke="rgb(204, 204, 204)" stroke-width="1px"></line></g><g transform="translate(0, 8)"><text style="text-anchor: middle; visibility: hidden; font-family: Roboto, sans-serif; font-size: 12px; font-weight: 200;" x="22.40816758215336" y="0" dx="0em" dy="0.95em" fill="rgb(50, 49, 63)" stroke="none" stroke-width="1px">-10</text><text style="text-anchor: middle; visibility: hidden; font-family: Roboto, sans-serif; font-size: 12px; font-weight: 200;" x="109.42708643963998" y="0" dx="0em" dy="0.95em" fill="rgb(50, 49, 63)" stroke="none" stroke-width="1px">0</text><text style="text-anchor: middle; visibility: hidden; font-family: Roboto, sans-serif; font-size: 12px; font-weight: 200;" x="196.44600529712662" y="0" dx="0em" dy="0.95em" fill="rgb(50, 49, 63)" stroke="none" stroke-width="1px">10</text><text style="text-anchor: middle; visibility: hidden; font-family: Roboto, sans-serif; font-size: 12px; font-weight: 200;" x="283.4649241546132" y="0" dx="0em" dy="0.95em" fill="rgb(50, 49, 63)" stroke="none" stroke-width="1px">20</text><text style="text-anchor: middle; visibility: hidden; font-family: Roboto, sans-serif; font-size: 12px; font-weight: 200;" x="370.48384301209984" y="0" dx="0em" dy="0.95em" fill="rgb(50, 49, 63)" stroke="none" stroke-width="1px">30</text><text style="text-anchor: middle; visibility: hidden; font-family: Roboto, sans-serif; font-size: 12px; font-weight: 200;" x="457.50276186958644" y="0" dx="0em" dy="0.95em" fill="rgb(50, 49, 63)" stroke="none" stroke-width="1px">40</text><text style="text-anchor: middle; visibility: hidden; font-family: Roboto, sans-serif; font-size: 12px; font-weight: 200;" x="544.5216807270731" y="0" dx="0em" dy="0.95em" fill="rgb(50, 49, 63)" stroke="none" stroke-width="1px">50</text><text style="text-anchor: middle; visibility: hidden; font-family: Roboto, sans-serif; font-size: 12px; font-weight: 200;" x="631.5405995845598" y="0" dx="0em" dy="0.95em" fill="rgb(50, 49, 63)" stroke="none" stroke-width="1px">60</text><text style="text-anchor: middle; visibility: hidden; font-family: Roboto, sans-serif; font-size: 12px; font-weight: 200;" x="718.5595184420464" y="0" dx="0em" dy="0.95em" fill="rgb(50, 49, 63)" stroke="none" stroke-width="1px">70</text><text style="text-anchor: middle; visibility: hidden; font-family: Roboto, sans-serif; font-size: 12px; font-weight: 200;" x="805.578437299533" y="0" dx="0em" dy="0.95em" fill="rgb(50, 49, 63)" stroke="none" stroke-width="1px">80</text></g><line x1="0" y1="0" x2="860.015998840332" y2="0" fill="rgb(0, 0, 0)" stroke="rgb(204, 204, 204)" stroke-width="1px"></line></g></g></g></g></svg>