<svg viewBox="0 0 803.0556030273438 400.0000305175781" xmlns="http://www.w3.org/2000/svg"><g><g><g><g><g><line x1="50" y1="378" x2="45" y2="378" style="visibility: inherit;" fill="rgb(0, 0, 0)" stroke="rgb(204, 204, 204)" stroke-width="1px"></line><line x1="50" y1="348.92307692307696" x2="45" y2="348.92307692307696" style="visibility: inherit;" fill="rgb(0, 0, 0)" stroke="rgb(204, 204, 204)" stroke-width="1px"></line><line x1="50" y1="319.84615384615387" x2="45" y2="319.84615384615387" style="visibility: inherit;" fill="rgb(0, 0, 0)" stroke="rgb(204, 204, 204)" stroke-width="1px"></line><line x1="50" y1="290.7692307692307" x2="45" y2="290.7692307692307" style="visibility: inherit;" fill="rgb(0, 0, 0)" stroke="rgb(204, 204, 204)" stroke-width="1px"></line><line x1="50" y1="261.6923076923077" x2="45" y2="261.6923076923077" style="visibility: inherit;" fill="rgb(0, 0, 0)" stroke="rgb(204, 204, 204)" stroke-width="1px"></line><line x1="50" y1="232.61538461538464" x2="45" y2="232.61538461538464" style="visibility: inherit;" fill="rgb(0, 0, 0)" stroke="rgb(204, 204, 204)" stroke-width="1px"></line><line x1="50" y1="203.53846153846152" x2="45" y2="203.53846153846152" style="visibility: inherit;" fill="rgb(0, 0, 0)" stroke="rgb(204, 204, 204)" stroke-width="1px"></line><line x1="50" y1="174.46153846153848" x2="45" y2="174.46153846153848" style="visibility: inherit;" fill="rgb(0, 0, 0)" stroke="rgb(204, 204, 204)" stroke-width="1px"></line><line x1="50" y1="145.38461538461536" x2="45" y2="145.38461538461536" style="visibility: inherit;" fill="rgb(0, 0, 0)" stroke="rgb(204, 204, 204)" stroke-width="1px"></line><line x1="50" y1="116.30769230769232" x2="45" y2="116.30769230769232" style="visibility: inherit;" fill="rgb(0, 0, 0)" stroke="rgb(204, 204, 204)" stroke-width="1px"></line><line x1="50" y1="87.23076923076921" x2="45" y2="87.23076923076921" style="visibility: inherit;" fill="rgb(0, 0, 0)" stroke="rgb(204, 204, 204)" stroke-width="1px"></line><line x1="50" y1="58.15384615384616" x2="45" y2="58.15384615384616" style="visibility: inherit;" fill="rgb(0, 0, 0)" stroke="rgb(204, 204, 204)" stroke-width="1px"></line><line x1="50" y1="29.07692307692306" x2="45" y2="29.07692307692306" style="visibility: inherit;" fill="rgb(0, 0, 0)" stroke="rgb(204, 204, 204)" stroke-width="1px"></line><line x1="50" y1="0" x2="45" y2="0" style="visibility: inherit;" fill="rgb(0, 0, 0)" stroke="rgb(204, 204, 204)" stroke-width="1px"></line></g><g transform="translate(40, 0)"><text x="0" y="378" dx="0em" dy="0.3em" style="text-anchor: end; visibility: hidden; font-family: Roboto, sans-serif; font-size: 12px; font-weight: 200;" fill="rgb(50, 49, 63)" stroke="none" stroke-width="1px">-0.5</text><text x="0" y="348.92307692307696" dx="0em" dy="0.3em" style="text-anchor: end; visibility: inherit; font-family: Roboto, sans-serif; font-size: 12px; font-weight: 200;" fill="rgb(50, 49, 63)" stroke="none" stroke-width="1px">0</text><text x="0" y="319.84615384615387" dx="0em" dy="0.3em" style="text-anchor: end; visibility: inherit; font-family: Roboto, sans-serif; font-size: 12px; font-weight: 200;" fill="rgb(50, 49, 63)" stroke="none" stroke-width="1px">0.5</text><text x="0" y="290.7692307692307" dx="0em" dy="0.3em" style="text-anchor: end; visibility: inherit; font-family: Roboto, sans-serif; font-size: 12px; font-weight: 200;" fill="rgb(50, 49, 63)" stroke="none" stroke-width="1px">1</text><text x="0" y="261.6923076923077" dx="0em" dy="0.3em" style="text-anchor: end; visibility: inherit; font-family: Roboto, sans-serif; font-size: 12px; font-weight: 200;" fill="rgb(50, 49, 63)" stroke="none" stroke-width="1px">1.5</text><text x="0" y="232.61538461538464" dx="0em" dy="0.3em" style="text-anchor: end; visibility: inherit; font-family: Roboto, sans-serif; font-size: 12px; font-weight: 200;" fill="rgb(50, 49, 63)" stroke="none" stroke-width="1px">2</text><text x="0" y="203.53846153846152" dx="0em" dy="0.3em" style="text-anchor: end; visibility: inherit; font-family: Roboto, sans-serif; font-size: 12px; font-weight: 200;" fill="rgb(50, 49, 63)" stroke="none" stroke-width="1px">2.5</text><text x="0" y="174.46153846153848" dx="0em" dy="0.3em" style="text-anchor: end; visibility: inherit; font-family: Roboto, sans-serif; font-size: 12px; font-weight: 200;" fill="rgb(50, 49, 63)" stroke="none" stroke-width="1px">3</text><text x="0" y="145.38461538461536" dx="0em" dy="0.3em" style="text-anchor: end; visibility: inherit; font-family: Roboto, sans-serif; font-size: 12px; font-weight: 200;" fill="rgb(50, 49, 63)" stroke="none" stroke-width="1px">3.5</text><text x="0" y="116.30769230769232" dx="0em" dy="0.3em" style="text-anchor: end; visibility: inherit; font-family: Roboto, sans-serif; font-size: 12px; font-weight: 200;" fill="rgb(50, 49, 63)" stroke="none" stroke-width="1px">4</text><text x="0" y="87.23076923076921" dx="0em" dy="0.3em" style="text-anchor: end; visibility: inherit; font-family: Roboto, sans-serif; font-size: 12px; font-weight: 200;" fill="rgb(50, 49, 63)" stroke="none" stroke-width="1px">4.5</text><text x="0" y="58.15384615384616" dx="0em" dy="0.3em" style="text-anchor: end; visibility: inherit; font-family: Roboto, sans-serif; font-size: 12px; font-weight: 200;" fill="rgb(50, 49, 63)" stroke="none" stroke-width="1px">5</text><text x="0" y="29.07692307692306" dx="0em" dy="0.3em" style="text-anchor: end; visibility: inherit; font-family: Roboto, sans-serif; font-size: 12px; font-weight: 200;" fill="rgb(50, 49, 63)" stroke="none" stroke-width="1px">5.5</text><text x="0" y="0" dx="0em" dy="0.3em" style="text-anchor: end; visibility: hidden; font-family: Roboto, sans-serif; font-size: 12px; font-weight: 200;" fill="rgb(50, 49, 63)" stroke="none" stroke-width="1px">6</text></g><line x1="50" y1="0" x2="50" y2="378" fill="rgb(0, 0, 0)" stroke="rgb(204, 204, 204)" stroke-width="1px"></line></g></g><g transform="translate(50, 0)" clip-path="url(#clip_0)"><clipPath id="clip_0"><rect width="753" height="377"></rect></clipPath><g><g><g><line x1="0" y1="0" x2="0" y2="378" fill="rgb(0, 0, 0)" stroke="rgb(60, 60, 60)" stroke-width="1px" opacity="0.25"></line><line x1="62.754666666666665" y1="0" x2="62.754666666666665" y2="378" fill="rgb(0, 0, 0)" stroke="rgb(60, 60, 60)" stroke-width="1px" opacity="0.25"></line><line x1="125.50933333333333" y1="0" x2="125.50933333333333" y2="378" fill="rgb(0, 0, 0)" stroke="rgb(60, 60, 60)" stroke-width="1px" opacity="0.25"></line><line x1="188.264" y1="0" x2="188.264" y2="378" fill="rgb(0, 0, 0)" stroke="rgb(60, 60, 60)" stroke-width="1px" opacity="0.25"></line><line x1="251.01866666666666" y1="0" x2="251.01866666666666" y2="378" fill="rgb(0, 0, 0)" stroke="rgb(60, 60, 60)" stroke-width="1px" opacity="0.25"></line><line x1="313.77333333333337" y1="0" x2="313.77333333333337" y2="378" fill="rgb(0, 0, 0)" stroke="rgb(60, 60, 60)" stroke-width="1px" opacity="0.25"></line><line x1="376.528" y1="0" x2="376.528" y2="378" fill="rgb(0, 0, 0)" stroke="rgb(60, 60, 60)" stroke-width="1px" opacity="0.25"></line><line x1="439.2826666666667" y1="0" x2="439.2826666666667" y2="378" fill="rgb(0, 0, 0)" stroke="rgb(60, 60, 60)" stroke-width="1px" opacity="0.25"></line><line x1="502.0373333333333" y1="0" x2="502.0373333333333" y2="378" fill="rgb(0, 0, 0)" stroke="rgb(60, 60, 60)" stroke-width="1px" opacity="0.25"></line><line x1="564.792" y1="0" x2="564.792" y2="378" fill="rgb(0, 0, 0)" stroke="rgb(60, 60, 60)" stroke-width="1px" opacity="0.25"></line><line x1="627.5466666666667" y1="0" x2="627.5466666666667" y2="378" fill="rgb(0, 0, 0)" stroke="rgb(60, 60, 60)" stroke-width="1px" opacity="0.25"></line><line x1="690.3013333333333" y1="0" x2="690.3013333333333" y2="378" fill="rgb(0, 0, 0)" stroke="rgb(60, 60, 60)" stroke-width="1px" opacity="0.25"></line><line x1="753.056" y1="0" x2="753.056" y2="378" fill="rgb(0, 0, 0)" stroke="rgb(60, 60, 60)" stroke-width="1px" opacity="0.25"></line></g><g><line x1="0" y1="378" x2="753.056" y2="378" fill="rgb(0, 0, 0)" stroke="rgb(60, 60, 60)" stroke-width="1px" opacity="0.25"></line><line x1="0" y1="348.92307692307696" x2="753.056" y2="348.92307692307696" fill="rgb(0, 0, 0)" stroke="rgb(60, 60, 60)" stroke-width="1px" opacity="0.25"></line><line x1="0" y1="319.84615384615387" x2="753.056" y2="319.84615384615387" fill="rgb(0, 0, 0)" stroke="rgb(60, 60, 60)" stroke-width="1px" opacity="0.25"></line><line x1="0" y1="290.7692307692307" x2="753.056" y2="290.7692307692307" fill="rgb(0, 0, 0)" stroke="rgb(60, 60, 60)" stroke-width="1px" opacity="0.25"></line><line x1="0" y1="261.6923076923077" x2="753.056" y2="261.6923076923077" fill="rgb(0, 0, 0)" stroke="rgb(60, 60, 60)" stroke-width="1px" opacity="0.25"></line><line x1="0" y1="232.61538461538464" x2="753.056" y2="232.61538461538464" fill="rgb(0, 0, 0)" stroke="rgb(60, 60, 60)" stroke-width="1px" opacity="0.25"></line><line x1="0" y1="203.53846153846152" x2="753.056" y2="203.53846153846152" fill="rgb(0, 0, 0)" stroke="rgb(60, 60, 60)" stroke-width="1px" opacity="0.25"></line><line x1="0" y1="174.46153846153848" x2="753.056" y2="174.46153846153848" fill="rgb(0, 0, 0)" stroke="rgb(60, 60, 60)" stroke-width="1px" opacity="0.25"></line><line x1="0" y1="145.38461538461536" x2="753.056" y2="145.38461538461536" fill="rgb(0, 0, 0)" stroke="rgb(60, 60, 60)" stroke-width="1px" opacity="0.25"></line><line x1="0" y1="116.30769230769232" x2="753.056" y2="116.30769230769232" fill="rgb(0, 0, 0)" stroke="rgb(60, 60, 60)" stroke-width="1px" opacity="0.25"></line><line x1="0" y1="87.23076923076921" x2="753.056" y2="87.23076923076921" fill="rgb(0, 0, 0)" stroke="rgb(60, 60, 60)" stroke-width="1px" opacity="0.25"></line><line x1="0" y1="58.15384615384616" x2="753.056" y2="58.15384615384616" fill="rgb(0, 0, 0)" stroke="rgb(60, 60, 60)" stroke-width="1px" opacity="0.25"></line><line x1="0" y1="29.07692307692306" x2="753.056" y2="29.07692307692306" fill="rgb(0, 0, 0)" stroke="rgb(60, 60, 60)" stroke-width="1px" opacity="0.25"></line><line x1="0" y1="0" x2="753.056" y2="0" fill="rgb(0, 0, 0)" stroke="rgb(60, 60, 60)" stroke-width="1px" opacity="0.25"></line></g></g></g><g><g><line x1="0" y1="348.92307692307696" x2="753.056" y2="348.92307692307696" fill="rgb(0, 0, 0)" stroke="rgb(153, 153, 153)" stroke-width="1.5px"></line></g></g><g><g><line x1="62.754666666666665" y1="0" x2="62.754666666666665" y2="378" fill="rgb(0, 0, 0)" stroke="rgb(153, 153, 153)" stroke-width="1.5px"></line></g></g><g><g><g><g><g><path stroke="rgb(0, 153, 136)" stroke-width="2px" d="M62.754666666666665,108.09093035184421L75.30560000000001,108.91284502469577L87.85653333333335,89.89278558584361L100.40746666666666,93.02296609144942L112.9584,174.9046070392315L125.50933333333333,170.41575776613675L138.06026666666668,145.95648941626914L150.61120000000003,164.85502250377948L163.16213333333334,151.29183593163125L175.7130666666667,166.99445475064792L188.264,175.97277721991904L200.81493333333333,173.61691298851602L213.36586666666668,170.30555908496564L225.9168,160.8095052425678L238.46773333333334,172.37157638256366L251.01866666666666,178.16362072871283L263.5696,176.92724088522107L276.12053333333336,174.74549278846152L288.6714666666667,170.51704127971942L301.22240000000005,171.68904612614557L313.77333333333337,169.70074191460245L326.3242666666667,169.7563403936533L338.8752,174.44576014005222L351.4261333333334,171.66569753793567L363.9770666666667,173.6568717956543L376.528,173.60504458500787L389.0789333333334,174.3285457904522L401.62986666666666,172.20344990950363L414.18080000000003,170.181148822491L426.73173333333335,172.2073043676523L439.2826666666667,171.3944435119629L451.8336,171.095140677232L464.38453333333337,170.94161400428183L476.9354666666667,170.19917326707107L489.48640000000006,171.0942533199604L502.0373333333333,171.23968285780686L514.5882666666668,171.30068867023175L527.1392,170.96695914635293L539.6901333333334,171.02045015188367L552.2410666666667,171.217235491826L564.792,171.3030734428993L577.3429333333333,171.0954179763794L589.8938666666667,170.87194259350116L602.4448000000001,171.24256676893967L614.9957333333333,171.3951506247887L627.5466666666667,171.54141206007736L640.0976,171.52534257448636L652.6485333333334,171.45189989530124L665.1994666666667,171.53068058307355L677.7504,171.491650728079" style="fill: none;" fill="none"></path></g><g><path stroke="rgb(187, 187, 187)" stroke-width="2px" d="M62.754666666666665,101.71748674832858L75.30560000000001,103.40557303795448L87.85653333333335,193.26201857053317L100.40746666666666,186.48791929391712L112.9584,187.6824962909405L125.50933333333333,222.9768683360173L138.06026666666668,212.43620087550238L150.61120000000003,213.8484577032236L163.16213333333334,223.09029755225546L175.7130666666667,223.53963309067947L188.264,212.83721703749436L200.81493333333333,226.40823731055625L213.36586666666668,225.40189097477838L225.9168,226.76230672689587L238.46773333333334,225.60791037632868L251.01866666666666,228.88715303861179L263.5696,228.23153466444748L276.12053333333336,228.7499454204853L288.6714666666667,228.36632977999173L301.22240000000005,229.14989398075983L313.77333333333337,228.99183346674994L326.3242666666667,228.9904053761409L338.8752,229.39153245779187L351.4261333333334,229.2334858087393L363.9770666666667,229.0751757254967L376.528,228.66868290534384L389.0789333333334,228.56741325671854L401.62986666666666,228.72484984764688L414.18080000000003,228.71630903390735L426.73173333333335,228.73685690072864L439.2826666666667,228.71227433131293L451.8336,228.7866459626418L464.38453333333337,228.80494770636923L476.9354666666667,228.81839671501749L489.48640000000006,228.78660436776966L502.0373333333333,228.79147096780628L514.5882666666668,228.77953323951132L527.1392,228.77078445141134L539.6901333333334,228.76708250779373L552.2410666666667,228.7740981762226L564.792,228.76913452148438L577.3429333333333,228.76694385822L589.8938666666667,228.76900973686807L602.4448000000001,228.76891268216647L614.9957333333333,228.76630607018106L627.5466666666667,228.76888495225174L640.0976,228.76963365994968L652.6485333333334,228.76991095909707L665.1994666666667,228.7699248240544L677.7504,228.77118653517502" style="fill: none;" fill="none"></path></g><g><path stroke="rgb(238, 51, 119)" stroke-width="2px" d="M62.754666666666665,105.21145600538985L75.30560000000001,87.12395359919623L87.85653333333335,71.58630004295937L100.40746666666666,121.71699450566217L112.9584,91.27459496718184L125.50933333333333,83.13542131277232L138.06026666666668,75.68259077805742L150.61120000000003,29.87923270005448L163.16213333333334,33.23158528254583L175.7130666666667,59.71623273996205L188.264,89.10220571664662L200.81493333333333,103.75111550551192L213.36586666666668,63.72378774789662L225.9168,50.43791418809159L238.46773333333334,54.958888567410995L251.01866666666666,76.70488181480995L263.5696,62.593571882981514L276.12053333333336,62.35251573415904L288.6714666666667,47.793229029728835L301.22240000000005,64.76316041212813L313.77333333333337,69.9257218287541L326.3242666666667,78.36005269564114L338.8752,70.4840913919302L351.4261333333334,74.00129831754245L363.9770666666667,71.50582783038801L376.528,65.35161693279558L389.0789333333334,67.72612953186035L401.62986666666666,55.480765562791085L414.18080000000003,59.176359029916604L426.73173333333335,67.01782431969276L439.2826666666667,69.53888951815091L451.8336,65.65855935903697L464.38453333333337,61.02095295832708L476.9354666666667,61.29875124417819L489.48640000000006,63.8082253382756L502.0373333333333,55.739236098069405L514.5882666666668,58.07794937720664L527.1392,54.241682052612305L539.6901333333334,51.651264337392966L552.2410666666667,53.42861322256236L564.792,52.82887062659629L577.3429333333333,53.535706153282746L589.8938666666667,54.17754275982195L602.4448000000001,54.250722004817064L614.9957333333333,53.76514346782976L627.5466666666667,53.849553328294014L640.0976,53.959446980403L652.6485333333334,53.718252182006836L665.1994666666667,53.41533059340255L677.7504,55.02677139869102" style="fill: none;" fill="none"></path></g><g><path stroke="rgb(204, 51, 17)" stroke-width="2px" d="M62.754666666666665,324.57276114133685L75.30560000000001,324.33426481026873L87.85653333333335,320.4614667892456L100.40746666666666,317.2762008080116L112.9584,327.0641657297428L125.50933333333333,325.6431670464002L138.06026666666668,325.22658053728253L150.61120000000003,324.9672833039211L163.16213333333334,322.74591435835913L175.7130666666667,325.4566365755521L188.264,324.8362299937469L200.81493333333333,324.4878608080057L213.36586666666668,324.020114339315L225.9168,323.19423082241644L238.46773333333334,323.6550361468242L251.01866666666666,323.3101782615368L263.5696,323.2561205258736L276.12053333333336,323.16101385079895L288.6714666666667,322.6586448504375L301.22240000000005,322.8350019088158L313.77333333333337,322.71797993549933L326.3242666666667,322.71126236365393L338.8752,322.59114850484406L351.4261333333334,322.45250932986914L363.9770666666667,322.54302323781525L376.528,322.46362036008105L389.0789333333334,322.5055635892428L401.62986666666666,322.529938184298L414.18080000000003,322.3649798539969L426.73173333333335,322.36700760401214L439.2826666666667,322.3470039367676L451.8336,322.3919766591145L464.38453333333337,322.30752520377814L476.9354666666667,322.311826806802L489.48640000000006,322.36014791635364L502.0373333333333,322.3251336996372L514.5882666666668,322.28829450790704L527.1392,322.32617703767926L539.6901333333334,322.2388971310395L552.2410666666667,322.2923916028096L564.792,322.2931593748239L577.3429333333333,322.2712752727362L589.8938666666667,322.28162026405334L602.4448000000001,322.2698350502895L614.9957333333333,322.26223532053143L627.5466666666667,322.25649002882153L640.0976,322.2485939355997L652.6485333333334,322.2382142818891L665.1994666666667,322.2313095331192L677.7504,322.22381898990045" style="fill: none;" fill="none"></path></g><g><path stroke="rgb(0, 119, 187)" stroke-width="2px" d="M62.754666666666665,321.4306775698295L75.30560000000001,322.7340216911756L87.85653333333335,329.9852262827066L100.40746666666666,329.8568731729801L112.9584,328.8396203151116L125.50933333333333,330.6708206947033L138.06026666666668,330.4907876895024L150.61120000000003,329.6125414279791L163.16213333333334,330.5582216427876L175.7130666666667,330.6612902696316L188.264,330.4664304256439L200.81493333333333,330.5959377930714L213.36586666666668,330.6369659350468L225.9168,330.2315788452442L238.46773333333334,330.31839774205133L251.01866666666666,330.1814934198673L263.5696,330.2252494922051L276.12053333333336,330.1775835018891L288.6714666666667,330.20934291986316L301.22240000000005,330.2597940334907L313.77333333333337,330.22821485996246L326.3242666666667,330.1885905449207L338.8752,330.1598363564564L351.4261333333334,330.18360955898584L363.9770666666667,330.17093005547156L376.528,330.18458010600165L389.0789333333334,330.17732353393853L401.62986666666666,330.1688139163531L414.18080000000003,330.16765099305377L426.73173333333335,330.1669404139885L439.2826666666667,330.1644776509358L451.8336,330.1689924276792L464.38453333333337,330.1666700473198L476.9354666666667,330.1631968754989L489.48640000000006,330.1608675626608L502.0373333333333,330.1597583660713L514.5882666666668,330.1594758675648L527.1392,330.1574983780201L539.6901333333334,330.15674447096313L552.2410666666667,330.1555451521507L564.792,330.15644464126L577.3429333333333,330.1562799948913L589.8938666666667,330.156312924165L602.4448000000001,330.1561222810012L614.9957333333333,330.15608935172736L627.5466666666667,330.15595070215375L640.0976,330.1557115316391L652.6485333333334,330.15570979851947L665.1994666666667,330.15568033548504L677.7504,330.1556682036473" style="fill: none;" fill="none"></path></g><g><path stroke="rgb(51, 187, 238)" stroke-width="2px" d="M62.754666666666665,323.3617195074375L75.30560000000001,322.80745917100177L87.85653333333335,322.3590699159182L100.40746666666666,317.55326425112213L112.9584,316.2082212704879L125.50933333333333,314.387631049523L138.06026666666668,313.4854209423065L150.61120000000003,313.41451901655927L163.16213333333334,309.1639806307279L175.7130666666667,315.70495104789734L188.264,315.36554729021515L200.81493333333333,314.7919228076935L213.36586666666668,313.9896409144768L225.9168,314.3627919783959L238.46773333333334,312.09992348230804L251.01866666666666,312.3944290417892L263.5696,311.62195680691644L276.12053333333336,311.3556387057671L288.6714666666667,309.4733216945942L301.22240000000005,310.76415269191443L313.77333333333337,309.75316852789655L326.3242666666667,309.39388935382544L338.8752,309.96180840638965L351.4261333333334,310.3470809092888L363.9770666666667,308.9809354635385L376.528,308.95800975652844L389.0789333333334,308.66030139189496L401.62986666666666,307.8209861975449L414.18080000000003,307.48920123393714L426.73173333333335,307.59175339111914L439.2826666666667,307.1670732131371L451.8336,307.3206900083102L464.38453333333337,306.97582692366376L476.9354666666667,307.2776081195244L489.48640000000006,307.3308114271897L502.0373333333333,307.01990362314075L514.5882666666668,306.66841308887183L527.1392,306.09825831193194L539.6901333333334,306.3470129783337L552.2410666666667,306.0480879636911L564.792,306.15336805123553L577.3429333333333,306.07893749383777L589.8938666666667,305.8631363648635L602.4448000000001,305.6764516463646L614.9957333333333,305.685599051989L627.5466666666667,305.79114257372345L640.0976,305.46201968193054L652.6485333333334,305.45207157501807L665.1994666666667,305.1357183089623L677.7504,305.20433598298297" style="fill: none;" fill="none"></path></g><g><path stroke="rgb(255, 112, 67)" stroke-width="2px" d="M62.754666666666665,326.780088351323L75.30560000000001,330.6482762740208L87.85653333333335,332.40827316504254L100.40746666666666,333.6245973476997L112.9584,334.20007973450885L125.50933333333333,334.6065898858584L138.06026666666668,334.871204330371L150.61120000000003,335.03710461121335L163.16213333333334,335.29056816376175L175.7130666666667,335.48607272826706L188.264,335.4825267654199L200.81493333333333,335.64652234774366L213.36586666666668,335.69367013527796L225.9168,335.6835001890476L238.46773333333334,335.8272373355352L251.01866666666666,335.88785232947424L263.5696,335.898631467269L276.12053333333336,335.87830110696643L288.6714666666667,335.8855169507173L301.22240000000005,335.93068118278796L313.77333333333337,335.94071247944464L326.3242666666667,335.95616757411227L338.8752,335.9717292556396L351.4261333333334,335.9926081483181L363.9770666666667,335.9981324672699L376.528,335.9949651910709L389.0789333333334,335.9863238563904L401.62986666666666,335.992007622352L414.18080000000003,336.0025085944396L426.73173333333335,336.00181274689163L439.2826666666667,336.00092192338064L451.8336,336.0036281897472L464.38453333333337,336.0118128473942L476.9354666666667,336.0222358290966L489.48640000000006,336.0234602781442L502.0373333333333,336.0268121315883L514.5882666666668,336.0278693345877L527.1392,336.0314802894226L539.6901333333334,336.0295062661171L552.2410666666667,336.03034942883716L564.792,336.02914404410586L577.3429333333333,336.03070991772876L589.8938666666667,336.03019691430603L602.4448000000001,336.03227405823196L614.9957333333333,336.0332420055683L627.5466666666667,336.0325652223367L640.0976,336.0331588158241L652.6485333333334,336.0345730414757L665.1994666666667,336.03646474159683L677.7504,336.0370193398916" style="fill: none;" fill="none"></path></g></g></g></g></g></g><g transform="translate(50, 378)" clip-path="url(#clip_1)"><clipPath id="clip_1"><rect width="753" height="21"></rect></clipPath><g><g><line x1="0" y1="0" x2="0" y2="5" style="visibility: inherit;" fill="rgb(0, 0, 0)" stroke="rgb(204, 204, 204)" stroke-width="1px"></line><line x1="62.754666666666665" y1="0" x2="62.754666666666665" y2="5" style="visibility: inherit;" fill="rgb(0, 0, 0)" stroke="rgb(204, 204, 204)" stroke-width="1px"></line><line x1="125.50933333333333" y1="0" x2="125.50933333333333" y2="5" style="visibility: inherit;" fill="rgb(0, 0, 0)" stroke="rgb(204, 204, 204)" stroke-width="1px"></line><line x1="188.264" y1="0" x2="188.264" y2="5" style="visibility: inherit;" fill="rgb(0, 0, 0)" stroke="rgb(204, 204, 204)" stroke-width="1px"></line><line x1="251.01866666666666" y1="0" x2="251.01866666666666" y2="5" style="visibility: inherit;" fill="rgb(0, 0, 0)" stroke="rgb(204, 204, 204)" stroke-width="1px"></line><line x1="313.77333333333337" y1="0" x2="313.77333333333337" y2="5" style="visibility: inherit;" fill="rgb(0, 0, 0)" stroke="rgb(204, 204, 204)" stroke-width="1px"></line><line x1="376.528" y1="0" x2="376.528" y2="5" style="visibility: inherit;" fill="rgb(0, 0, 0)" stroke="rgb(204, 204, 204)" stroke-width="1px"></line><line x1="439.2826666666667" y1="0" x2="439.2826666666667" y2="5" style="visibility: inherit;" fill="rgb(0, 0, 0)" stroke="rgb(204, 204, 204)" stroke-width="1px"></line><line x1="502.0373333333333" y1="0" x2="502.0373333333333" y2="5" style="visibility: inherit;" fill="rgb(0, 0, 0)" stroke="rgb(204, 204, 204)" stroke-width="1px"></line><line x1="564.792" y1="0" x2="564.792" y2="5" style="visibility: inherit;" fill="rgb(0, 0, 0)" stroke="rgb(204, 204, 204)" stroke-width="1px"></line><line x1="627.5466666666667" y1="0" x2="627.5466666666667" y2="5" style="visibility: inherit;" fill="rgb(0, 0, 0)" stroke="rgb(204, 204, 204)" stroke-width="1px"></line><line x1="690.3013333333333" y1="0" x2="690.3013333333333" y2="5" style="visibility: inherit;" fill="rgb(0, 0, 0)" stroke="rgb(204, 204, 204)" stroke-width="1px"></line><line x1="753.056" y1="0" x2="753.056" y2="5" style="visibility: inherit;" fill="rgb(0, 0, 0)" stroke="rgb(204, 204, 204)" stroke-width="1px"></line></g><g transform="translate(0, 8)"><text x="0" y="0" dx="0em" dy="0.95em" style="text-anchor: middle; visibility: hidden; font-family: Roboto, sans-serif; font-size: 12px; font-weight: 200;" fill="rgb(50, 49, 63)" stroke="none" stroke-width="1px">-5</text><text x="62.754666666666665" y="0" dx="0em" dy="0.95em" style="text-anchor: middle; visibility: inherit; font-family: Roboto, sans-serif; font-size: 12px; font-weight: 200;" fill="rgb(50, 49, 63)" stroke="none" stroke-width="1px">0</text><text x="125.50933333333333" y="0" dx="0em" dy="0.95em" style="text-anchor: middle; visibility: inherit; font-family: Roboto, sans-serif; font-size: 12px; font-weight: 200;" fill="rgb(50, 49, 63)" stroke="none" stroke-width="1px">5</text><text x="188.264" y="0" dx="0em" dy="0.95em" style="text-anchor: middle; visibility: inherit; font-family: Roboto, sans-serif; font-size: 12px; font-weight: 200;" fill="rgb(50, 49, 63)" stroke="none" stroke-width="1px">10</text><text x="251.01866666666666" y="0" dx="0em" dy="0.95em" style="text-anchor: middle; visibility: inherit; font-family: Roboto, sans-serif; font-size: 12px; font-weight: 200;" fill="rgb(50, 49, 63)" stroke="none" stroke-width="1px">15</text><text x="313.77333333333337" y="0" dx="0em" dy="0.95em" style="text-anchor: middle; visibility: inherit; font-family: Roboto, sans-serif; font-size: 12px; font-weight: 200;" fill="rgb(50, 49, 63)" stroke="none" stroke-width="1px">20</text><text x="376.528" y="0" dx="0em" dy="0.95em" style="text-anchor: middle; visibility: inherit; font-family: Roboto, sans-serif; font-size: 12px; font-weight: 200;" fill="rgb(50, 49, 63)" stroke="none" stroke-width="1px">25</text><text x="439.2826666666667" y="0" dx="0em" dy="0.95em" style="text-anchor: middle; visibility: inherit; font-family: Roboto, sans-serif; font-size: 12px; font-weight: 200;" fill="rgb(50, 49, 63)" stroke="none" stroke-width="1px">30</text><text x="502.0373333333333" y="0" dx="0em" dy="0.95em" style="text-anchor: middle; visibility: inherit; font-family: Roboto, sans-serif; font-size: 12px; font-weight: 200;" fill="rgb(50, 49, 63)" stroke="none" stroke-width="1px">35</text><text x="564.792" y="0" dx="0em" dy="0.95em" style="text-anchor: middle; visibility: inherit; font-family: Roboto, sans-serif; font-size: 12px; font-weight: 200;" fill="rgb(50, 49, 63)" stroke="none" stroke-width="1px">40</text><text x="627.5466666666667" y="0" dx="0em" dy="0.95em" style="text-anchor: middle; visibility: inherit; font-family: Roboto, sans-serif; font-size: 12px; font-weight: 200;" fill="rgb(50, 49, 63)" stroke="none" stroke-width="1px">45</text><text x="690.3013333333333" y="0" dx="0em" dy="0.95em" style="text-anchor: middle; visibility: inherit; font-family: Roboto, sans-serif; font-size: 12px; font-weight: 200;" fill="rgb(50, 49, 63)" stroke="none" stroke-width="1px">50</text><text x="753.056" y="0" dx="0em" dy="0.95em" style="text-anchor: middle; visibility: hidden; font-family: Roboto, sans-serif; font-size: 12px; font-weight: 200;" fill="rgb(50, 49, 63)" stroke="none" stroke-width="1px">55</text></g><line x1="0" y1="0" x2="753.056" y2="0" fill="rgb(0, 0, 0)" stroke="rgb(204, 204, 204)" stroke-width="1px"></line></g></g></g></g></svg>