<svg viewBox="0 0 810.5556030273438 400.0000305175781" xmlns="http://www.w3.org/2000/svg"><g><g><g><g><g><line x1="51.5625" y1="378" x2="46.5625" y2="378" style="visibility: inherit;" fill="rgb(0, 0, 0)" stroke="rgb(204, 204, 204)" stroke-width="1px"></line><line x1="51.5625" y1="336" x2="46.5625" y2="336" style="visibility: inherit;" fill="rgb(0, 0, 0)" stroke="rgb(204, 204, 204)" stroke-width="1px"></line><line x1="51.5625" y1="294.00000000000006" x2="46.5625" y2="294.00000000000006" style="visibility: inherit;" fill="rgb(0, 0, 0)" stroke="rgb(204, 204, 204)" stroke-width="1px"></line><line x1="51.5625" y1="252.00000000000003" x2="46.5625" y2="252.00000000000003" style="visibility: inherit;" fill="rgb(0, 0, 0)" stroke="rgb(204, 204, 204)" stroke-width="1px"></line><line x1="51.5625" y1="209.99999999999997" x2="46.5625" y2="209.99999999999997" style="visibility: inherit;" fill="rgb(0, 0, 0)" stroke="rgb(204, 204, 204)" stroke-width="1px"></line><line x1="51.5625" y1="168.00000000000003" x2="46.5625" y2="168.00000000000003" style="visibility: inherit;" fill="rgb(0, 0, 0)" stroke="rgb(204, 204, 204)" stroke-width="1px"></line><line x1="51.5625" y1="126.00000000000001" x2="46.5625" y2="126.00000000000001" style="visibility: inherit;" fill="rgb(0, 0, 0)" stroke="rgb(204, 204, 204)" stroke-width="1px"></line><line x1="51.5625" y1="83.99999999999996" x2="46.5625" y2="83.99999999999996" style="visibility: inherit;" fill="rgb(0, 0, 0)" stroke="rgb(204, 204, 204)" stroke-width="1px"></line><line x1="51.5625" y1="42.00000000000002" x2="46.5625" y2="42.00000000000002" style="visibility: inherit;" fill="rgb(0, 0, 0)" stroke="rgb(204, 204, 204)" stroke-width="1px"></line><line x1="51.5625" y1="0" x2="46.5625" y2="0" style="visibility: inherit;" fill="rgb(0, 0, 0)" stroke="rgb(204, 204, 204)" stroke-width="1px"></line></g><g transform="translate(41.5625, 0)"><text x="0" y="378" dx="0em" dy="0.3em" style="text-anchor: end; visibility: hidden; font-family: Roboto, sans-serif; font-size: 12px; font-weight: 200;" fill="rgb(50, 49, 63)" stroke="none" stroke-width="1px">0.2</text><text x="0" y="336" dx="0em" dy="0.3em" style="text-anchor: end; visibility: inherit; font-family: Roboto, sans-serif; font-size: 12px; font-weight: 200;" fill="rgb(50, 49, 63)" stroke="none" stroke-width="1px">0.22</text><text x="0" y="294.00000000000006" dx="0em" dy="0.3em" style="text-anchor: end; visibility: inherit; font-family: Roboto, sans-serif; font-size: 12px; font-weight: 200;" fill="rgb(50, 49, 63)" stroke="none" stroke-width="1px">0.24</text><text x="0" y="252.00000000000003" dx="0em" dy="0.3em" style="text-anchor: end; visibility: inherit; font-family: Roboto, sans-serif; font-size: 12px; font-weight: 200;" fill="rgb(50, 49, 63)" stroke="none" stroke-width="1px">0.26</text><text x="0" y="209.99999999999997" dx="0em" dy="0.3em" style="text-anchor: end; visibility: inherit; font-family: Roboto, sans-serif; font-size: 12px; font-weight: 200;" fill="rgb(50, 49, 63)" stroke="none" stroke-width="1px">0.28</text><text x="0" y="168.00000000000003" dx="0em" dy="0.3em" style="text-anchor: end; visibility: inherit; font-family: Roboto, sans-serif; font-size: 12px; font-weight: 200;" fill="rgb(50, 49, 63)" stroke="none" stroke-width="1px">0.3</text><text x="0" y="126.00000000000001" dx="0em" dy="0.3em" style="text-anchor: end; visibility: inherit; font-family: Roboto, sans-serif; font-size: 12px; font-weight: 200;" fill="rgb(50, 49, 63)" stroke="none" stroke-width="1px">0.32</text><text x="0" y="83.99999999999996" dx="0em" dy="0.3em" style="text-anchor: end; visibility: inherit; font-family: Roboto, sans-serif; font-size: 12px; font-weight: 200;" fill="rgb(50, 49, 63)" stroke="none" stroke-width="1px">0.34</text><text x="0" y="42.00000000000002" dx="0em" dy="0.3em" style="text-anchor: end; visibility: inherit; font-family: Roboto, sans-serif; font-size: 12px; font-weight: 200;" fill="rgb(50, 49, 63)" stroke="none" stroke-width="1px">0.36</text><text x="0" y="0" dx="0em" dy="0.3em" style="text-anchor: end; visibility: hidden; font-family: Roboto, sans-serif; font-size: 12px; font-weight: 200;" fill="rgb(50, 49, 63)" stroke="none" stroke-width="1px">0.38</text></g><line x1="51.5625" y1="0" x2="51.5625" y2="378" fill="rgb(0, 0, 0)" stroke="rgb(204, 204, 204)" stroke-width="1px"></line></g></g><g transform="translate(51, 0)" clip-path="url(#clip_0)"><clipPath id="clip_0"><rect width="758" height="377"></rect></clipPath><g><g><g><line x1="0" y1="0" x2="0" y2="378" fill="rgb(0, 0, 0)" stroke="rgb(60, 60, 60)" stroke-width="1px" opacity="0.25"></line><line x1="63.24945833333334" y1="0" x2="63.24945833333334" y2="378" fill="rgb(0, 0, 0)" stroke="rgb(60, 60, 60)" stroke-width="1px" opacity="0.25"></line><line x1="126.49891666666667" y1="0" x2="126.49891666666667" y2="378" fill="rgb(0, 0, 0)" stroke="rgb(60, 60, 60)" stroke-width="1px" opacity="0.25"></line><line x1="189.748375" y1="0" x2="189.748375" y2="378" fill="rgb(0, 0, 0)" stroke="rgb(60, 60, 60)" stroke-width="1px" opacity="0.25"></line><line x1="252.99783333333335" y1="0" x2="252.99783333333335" y2="378" fill="rgb(0, 0, 0)" stroke="rgb(60, 60, 60)" stroke-width="1px" opacity="0.25"></line><line x1="316.2472916666667" y1="0" x2="316.2472916666667" y2="378" fill="rgb(0, 0, 0)" stroke="rgb(60, 60, 60)" stroke-width="1px" opacity="0.25"></line><line x1="379.49675" y1="0" x2="379.49675" y2="378" fill="rgb(0, 0, 0)" stroke="rgb(60, 60, 60)" stroke-width="1px" opacity="0.25"></line><line x1="442.74620833333336" y1="0" x2="442.74620833333336" y2="378" fill="rgb(0, 0, 0)" stroke="rgb(60, 60, 60)" stroke-width="1px" opacity="0.25"></line><line x1="505.9956666666667" y1="0" x2="505.9956666666667" y2="378" fill="rgb(0, 0, 0)" stroke="rgb(60, 60, 60)" stroke-width="1px" opacity="0.25"></line><line x1="569.245125" y1="0" x2="569.245125" y2="378" fill="rgb(0, 0, 0)" stroke="rgb(60, 60, 60)" stroke-width="1px" opacity="0.25"></line><line x1="632.4945833333334" y1="0" x2="632.4945833333334" y2="378" fill="rgb(0, 0, 0)" stroke="rgb(60, 60, 60)" stroke-width="1px" opacity="0.25"></line><line x1="695.7440416666667" y1="0" x2="695.7440416666667" y2="378" fill="rgb(0, 0, 0)" stroke="rgb(60, 60, 60)" stroke-width="1px" opacity="0.25"></line><line x1="758.9935" y1="0" x2="758.9935" y2="378" fill="rgb(0, 0, 0)" stroke="rgb(60, 60, 60)" stroke-width="1px" opacity="0.25"></line></g><g><line x1="0" y1="378" x2="758.9935" y2="378" fill="rgb(0, 0, 0)" stroke="rgb(60, 60, 60)" stroke-width="1px" opacity="0.25"></line><line x1="0" y1="336" x2="758.9935" y2="336" fill="rgb(0, 0, 0)" stroke="rgb(60, 60, 60)" stroke-width="1px" opacity="0.25"></line><line x1="0" y1="294.00000000000006" x2="758.9935" y2="294.00000000000006" fill="rgb(0, 0, 0)" stroke="rgb(60, 60, 60)" stroke-width="1px" opacity="0.25"></line><line x1="0" y1="252.00000000000003" x2="758.9935" y2="252.00000000000003" fill="rgb(0, 0, 0)" stroke="rgb(60, 60, 60)" stroke-width="1px" opacity="0.25"></line><line x1="0" y1="209.99999999999997" x2="758.9935" y2="209.99999999999997" fill="rgb(0, 0, 0)" stroke="rgb(60, 60, 60)" stroke-width="1px" opacity="0.25"></line><line x1="0" y1="168.00000000000003" x2="758.9935" y2="168.00000000000003" fill="rgb(0, 0, 0)" stroke="rgb(60, 60, 60)" stroke-width="1px" opacity="0.25"></line><line x1="0" y1="126.00000000000001" x2="758.9935" y2="126.00000000000001" fill="rgb(0, 0, 0)" stroke="rgb(60, 60, 60)" stroke-width="1px" opacity="0.25"></line><line x1="0" y1="83.99999999999996" x2="758.9935" y2="83.99999999999996" fill="rgb(0, 0, 0)" stroke="rgb(60, 60, 60)" stroke-width="1px" opacity="0.25"></line><line x1="0" y1="42.00000000000002" x2="758.9935" y2="42.00000000000002" fill="rgb(0, 0, 0)" stroke="rgb(60, 60, 60)" stroke-width="1px" opacity="0.25"></line><line x1="0" y1="0" x2="758.9935" y2="0" fill="rgb(0, 0, 0)" stroke="rgb(60, 60, 60)" stroke-width="1px" opacity="0.25"></line></g></g></g><g><g><line x1="0" y1="798" x2="758.9935" y2="798" fill="rgb(0, 0, 0)" stroke="rgb(153, 153, 153)" stroke-width="1.5px"></line></g></g><g><g><line x1="63.24945833333334" y1="0" x2="63.24945833333334" y2="378" fill="rgb(0, 0, 0)" stroke="rgb(153, 153, 153)" stroke-width="1.5px"></line></g></g><g><g><g><g><g><path stroke="rgb(204, 51, 17)" stroke-width="2px" d="M75.89935000000001,-147.71588337421414L88.54924166666667,114.13317131996155L101.19913333333334,109.49819791316988L113.849025,72.7640669345856L126.49891666666667,138.8907473087311L139.14880833333333,132.38955545425418L151.79870000000003,100.67510712146759L164.4485916666667,134.8246704339981L177.09848333333335,138.54659307003024L189.748375,131.50998759269714L202.39826666666667,136.18664252758026L215.04815833333333,137.66821432113647L227.69805,123.02923607826236L240.34794166666666,126.1643629074097L252.99783333333335,121.22059571743014L265.647725,122.80067610740662L278.29761666666667,121.07940423488617L290.94750833333336,122.22627210617067L303.59740000000005,124.04811787605288L316.2472916666667,122.90775883197784L328.8971833333334,121.47688078880313L341.547075,120.43853509426118L354.1969666666667,121.29701185226442L366.84685833333333,120.83914089202884L379.49675,121.33205938339236L392.1466416666667,121.07001650333406L404.79653333333334,120.76272475719452L417.44642500000003,120.72073030471803L430.09631666666667,120.69507050514224L442.74620833333336,120.60613739490509L455.3961,120.76917099952699L468.04599166666674,120.68530726432802L480.6958833333333,120.55988717079165L493.34577500000006,120.47577309608461L505.9956666666667,120.43571877479555L518.6455583333334,120.42551743984224L531.29545,120.35410809516908L543.9453416666666,120.32688367366791L556.5952333333333,120.28357493877412L569.245125,120.31605648994446L581.8950166666667,120.31011092662813L594.5449083333334,120.3113000392914L607.1948000000001,120.30441570281984L619.8446916666667,120.30322659015656L632.4945833333334,120.29821979999544L645.144475,120.28958308696747L657.7943666666667,120.28952050209048L670.4442583333333,120.28845655918121L683.09415,120.28801846504211" style="fill: none;" fill="none"></path></g><g><path stroke="rgb(0, 119, 187)" stroke-width="2px" d="M63.24945833333334,-192.81554710865018L75.89935000000001,63.18157124519349L88.54924166666667,145.03495502471924L101.19913333333334,218.98174095153811L113.849025,229.31431639194489L126.49891666666667,225.08739638328555L139.14880833333333,237.6606355905533L151.79870000000003,239.54243767261508L164.4485916666667,239.5901273488999L177.09848333333335,234.4656776189804L189.748375,240.06908941268924L202.39826666666667,240.53052771091464L215.04815833333333,241.54121088981628L227.69805,240.58153438568115L240.34794166666666,240.22517609596255L252.99783333333335,240.5219535827637L265.647725,241.0073618888855L278.29761666666667,242.09264624118805L290.94750833333336,240.6748484373093L303.59740000000005,240.43364632129672L316.2472916666667,240.98126399517062L328.8971833333334,240.83249974250793L341.547075,240.96555519104004L354.1969666666667,241.0240720510483L366.84685833333333,240.9753810167313L379.49675,241.0259495973587L392.1466416666667,240.94909536838531L404.79653333333334,240.9920911788941L417.44642500000003,240.95798242092135L430.09631666666667,240.95360147953033L442.74620833333336,240.91943013668066L455.3961,240.90128052234653L468.04599166666674,240.89039075374606L480.6958833333333,240.88619756698614L493.34577500000006,240.89076626300812L505.9956666666667,240.89039075374606L518.6455583333334,240.8895771503449L531.29545,240.890202999115L543.9453416666666,240.89120435714722L556.5952333333333,240.8928315639496L569.245125,240.89383292198184L581.8950166666667,240.89402067661285L594.5449083333334,240.8942084312439L607.1948000000001,240.89433360099795L619.8446916666667,240.89433360099795L632.4945833333334,240.894521355629L645.144475,240.894521355629L657.7943666666667,240.89445877075195L670.4442583333333,240.89445877075195L683.09415,240.89439618587497" style="fill: none;" fill="none"></path></g><g><path stroke="rgb(255, 112, 67)" stroke-width="2px" d="M63.24945833333334,-5.838783502578744L75.89935000000001,134.38463616371158L88.54924166666667,197.79394376277926L101.19913333333334,241.1266486644745L113.849025,266.3196902275086L126.49891666666667,287.89401161670685L139.14880833333333,296.270246386528L151.79870000000003,306.52446556091314L164.4485916666667,307.74061489105225L177.09848333333335,308.8395427465439L189.748375,311.3305773139L202.39826666666667,315.26259738206863L215.04815833333333,304.03383779525757L227.69805,302.5396238565445L240.34794166666666,295.6913049817086L252.99783333333335,294.5583935379982L265.647725,287.3736809492111L278.29761666666667,278.73055297136307L290.94750833333336,273.63924193382263L303.59740000000005,276.16848456859594L316.2472916666667,268.80775201320654L328.8971833333334,249.7924010753632L341.547075,239.3820326328278L354.1969666666667,233.30147373676303L366.84685833333333,229.30843341350555L379.49675,219.1576670408249L392.1466416666667,217.35472190380102L404.79653333333334,209.35374605655673L417.44642500000003,187.92067873477936L430.09631666666667,187.53891098499298L442.74620833333336,181.36422443389895L455.3961,174.32229924201968L468.04599166666674,165.89893805980682L480.6958833333333,156.2415908575058L493.34577500000006,158.4104071855545L505.9956666666667,150.20928490161896L518.6455583333334,147.3821382522583L531.29545,132.47930216789246L543.9453416666666,126.92764806747437L556.5952333333333,109.16793751716614L569.245125,119.99818789958957L581.8950166666667,98.4223018884659L594.5449083333334,85.03683614730836L607.1948000000001,82.2304676771164L619.8446916666667,71.21096062660219L632.4945833333334,58.63640713691711L645.144475,55.58983790874482L657.7943666666667,48.1309722661972L670.4442583333333,36.117867708206184L683.09415,22.963527917861956" style="fill: none;" fill="none"></path></g></g></g></g></g></g><g transform="translate(51, 378)" clip-path="url(#clip_1)"><clipPath id="clip_1"><rect width="758" height="21"></rect></clipPath><g><g><line x1="0" y1="0" x2="0" y2="5" style="visibility: inherit;" fill="rgb(0, 0, 0)" stroke="rgb(204, 204, 204)" stroke-width="1px"></line><line x1="63.24945833333334" y1="0" x2="63.24945833333334" y2="5" style="visibility: inherit;" fill="rgb(0, 0, 0)" stroke="rgb(204, 204, 204)" stroke-width="1px"></line><line x1="126.49891666666667" y1="0" x2="126.49891666666667" y2="5" style="visibility: inherit;" fill="rgb(0, 0, 0)" stroke="rgb(204, 204, 204)" stroke-width="1px"></line><line x1="189.748375" y1="0" x2="189.748375" y2="5" style="visibility: inherit;" fill="rgb(0, 0, 0)" stroke="rgb(204, 204, 204)" stroke-width="1px"></line><line x1="252.99783333333335" y1="0" x2="252.99783333333335" y2="5" style="visibility: inherit;" fill="rgb(0, 0, 0)" stroke="rgb(204, 204, 204)" stroke-width="1px"></line><line x1="316.2472916666667" y1="0" x2="316.2472916666667" y2="5" style="visibility: inherit;" fill="rgb(0, 0, 0)" stroke="rgb(204, 204, 204)" stroke-width="1px"></line><line x1="379.49675" y1="0" x2="379.49675" y2="5" style="visibility: inherit;" fill="rgb(0, 0, 0)" stroke="rgb(204, 204, 204)" stroke-width="1px"></line><line x1="442.74620833333336" y1="0" x2="442.74620833333336" y2="5" style="visibility: inherit;" fill="rgb(0, 0, 0)" stroke="rgb(204, 204, 204)" stroke-width="1px"></line><line x1="505.9956666666667" y1="0" x2="505.9956666666667" y2="5" style="visibility: inherit;" fill="rgb(0, 0, 0)" stroke="rgb(204, 204, 204)" stroke-width="1px"></line><line x1="569.245125" y1="0" x2="569.245125" y2="5" style="visibility: inherit;" fill="rgb(0, 0, 0)" stroke="rgb(204, 204, 204)" stroke-width="1px"></line><line x1="632.4945833333334" y1="0" x2="632.4945833333334" y2="5" style="visibility: inherit;" fill="rgb(0, 0, 0)" stroke="rgb(204, 204, 204)" stroke-width="1px"></line><line x1="695.7440416666667" y1="0" x2="695.7440416666667" y2="5" style="visibility: inherit;" fill="rgb(0, 0, 0)" stroke="rgb(204, 204, 204)" stroke-width="1px"></line><line x1="758.9935" y1="0" x2="758.9935" y2="5" style="visibility: inherit;" fill="rgb(0, 0, 0)" stroke="rgb(204, 204, 204)" stroke-width="1px"></line></g><g transform="translate(0, 8)"><text x="0" y="0" dx="0em" dy="0.95em" style="text-anchor: middle; visibility: hidden; font-family: Roboto, sans-serif; font-size: 12px; font-weight: 200;" fill="rgb(50, 49, 63)" stroke="none" stroke-width="1px">-5</text><text x="63.24945833333334" y="0" dx="0em" dy="0.95em" style="text-anchor: middle; visibility: inherit; font-family: Roboto, sans-serif; font-size: 12px; font-weight: 200;" fill="rgb(50, 49, 63)" stroke="none" stroke-width="1px">0</text><text x="126.49891666666667" y="0" dx="0em" dy="0.95em" style="text-anchor: middle; visibility: inherit; font-family: Roboto, sans-serif; font-size: 12px; font-weight: 200;" fill="rgb(50, 49, 63)" stroke="none" stroke-width="1px">5</text><text x="189.748375" y="0" dx="0em" dy="0.95em" style="text-anchor: middle; visibility: inherit; font-family: Roboto, sans-serif; font-size: 12px; font-weight: 200;" fill="rgb(50, 49, 63)" stroke="none" stroke-width="1px">10</text><text x="252.99783333333335" y="0" dx="0em" dy="0.95em" style="text-anchor: middle; visibility: inherit; font-family: Roboto, sans-serif; font-size: 12px; font-weight: 200;" fill="rgb(50, 49, 63)" stroke="none" stroke-width="1px">15</text><text x="316.2472916666667" y="0" dx="0em" dy="0.95em" style="text-anchor: middle; visibility: inherit; font-family: Roboto, sans-serif; font-size: 12px; font-weight: 200;" fill="rgb(50, 49, 63)" stroke="none" stroke-width="1px">20</text><text x="379.49675" y="0" dx="0em" dy="0.95em" style="text-anchor: middle; visibility: inherit; font-family: Roboto, sans-serif; font-size: 12px; font-weight: 200;" fill="rgb(50, 49, 63)" stroke="none" stroke-width="1px">25</text><text x="442.74620833333336" y="0" dx="0em" dy="0.95em" style="text-anchor: middle; visibility: inherit; font-family: Roboto, sans-serif; font-size: 12px; font-weight: 200;" fill="rgb(50, 49, 63)" stroke="none" stroke-width="1px">30</text><text x="505.9956666666667" y="0" dx="0em" dy="0.95em" style="text-anchor: middle; visibility: inherit; font-family: Roboto, sans-serif; font-size: 12px; font-weight: 200;" fill="rgb(50, 49, 63)" stroke="none" stroke-width="1px">35</text><text x="569.245125" y="0" dx="0em" dy="0.95em" style="text-anchor: middle; visibility: inherit; font-family: Roboto, sans-serif; font-size: 12px; font-weight: 200;" fill="rgb(50, 49, 63)" stroke="none" stroke-width="1px">40</text><text x="632.4945833333334" y="0" dx="0em" dy="0.95em" style="text-anchor: middle; visibility: inherit; font-family: Roboto, sans-serif; font-size: 12px; font-weight: 200;" fill="rgb(50, 49, 63)" stroke="none" stroke-width="1px">45</text><text x="695.7440416666667" y="0" dx="0em" dy="0.95em" style="text-anchor: middle; visibility: inherit; font-family: Roboto, sans-serif; font-size: 12px; font-weight: 200;" fill="rgb(50, 49, 63)" stroke="none" stroke-width="1px">50</text><text x="758.9935" y="0" dx="0em" dy="0.95em" style="text-anchor: middle; visibility: hidden; font-family: Roboto, sans-serif; font-size: 12px; font-weight: 200;" fill="rgb(50, 49, 63)" stroke="none" stroke-width="1px">55</text></g><line x1="0" y1="0" x2="758.9935" y2="0" fill="rgb(0, 0, 0)" stroke="rgb(204, 204, 204)" stroke-width="1px"></line></g></g></g></g></svg>