<svg viewBox="0 0 859 400" xmlns="http://www.w3.org/2000/svg"><g><g><g><g><g><line x1="50" y1="378" x2="45" y2="378" style="visibility: inherit;" fill="rgb(0, 0, 0)" stroke="rgb(204, 204, 204)" stroke-width="1px"></line><line x1="50" y1="330.75" x2="45" y2="330.75" style="visibility: inherit;" fill="rgb(0, 0, 0)" stroke="rgb(204, 204, 204)" stroke-width="1px"></line><line x1="50" y1="283.5" x2="45" y2="283.5" style="visibility: inherit;" fill="rgb(0, 0, 0)" stroke="rgb(204, 204, 204)" stroke-width="1px"></line><line x1="50" y1="236.25" x2="45" y2="236.25" style="visibility: inherit;" fill="rgb(0, 0, 0)" stroke="rgb(204, 204, 204)" stroke-width="1px"></line><line x1="50" y1="189" x2="45" y2="189" style="visibility: inherit;" fill="rgb(0, 0, 0)" stroke="rgb(204, 204, 204)" stroke-width="1px"></line><line x1="50" y1="141.75" x2="45" y2="141.75" style="visibility: inherit;" fill="rgb(0, 0, 0)" stroke="rgb(204, 204, 204)" stroke-width="1px"></line><line x1="50" y1="94.5" x2="45" y2="94.5" style="visibility: inherit;" fill="rgb(0, 0, 0)" stroke="rgb(204, 204, 204)" stroke-width="1px"></line><line x1="50" y1="47.25" x2="45" y2="47.25" style="visibility: inherit;" fill="rgb(0, 0, 0)" stroke="rgb(204, 204, 204)" stroke-width="1px"></line><line x1="50" y1="0" x2="45" y2="0" style="visibility: inherit;" fill="rgb(0, 0, 0)" stroke="rgb(204, 204, 204)" stroke-width="1px"></line></g><g transform="translate(40, 0)"><text x="0" y="378" dx="0em" dy="0.3em" style="text-anchor: end; visibility: hidden; font-family: Roboto, sans-serif; font-size: 12px; font-weight: 200;" fill="rgb(50, 49, 63)" stroke="none" stroke-width="1px">0.83</text><text x="0" y="330.75" dx="0em" dy="0.3em" style="text-anchor: end; visibility: inherit; font-family: Roboto, sans-serif; font-size: 12px; font-weight: 200;" fill="rgb(50, 49, 63)" stroke="none" stroke-width="1px">0.84</text><text x="0" y="283.5" dx="0em" dy="0.3em" style="text-anchor: end; visibility: inherit; font-family: Roboto, sans-serif; font-size: 12px; font-weight: 200;" fill="rgb(50, 49, 63)" stroke="none" stroke-width="1px">0.85</text><text x="0" y="236.25" dx="0em" dy="0.3em" style="text-anchor: end; visibility: inherit; font-family: Roboto, sans-serif; font-size: 12px; font-weight: 200;" fill="rgb(50, 49, 63)" stroke="none" stroke-width="1px">0.86</text><text x="0" y="189" dx="0em" dy="0.3em" style="text-anchor: end; visibility: inherit; font-family: Roboto, sans-serif; font-size: 12px; font-weight: 200;" fill="rgb(50, 49, 63)" stroke="none" stroke-width="1px">0.87</text><text x="0" y="141.75" dx="0em" dy="0.3em" style="text-anchor: end; visibility: inherit; font-family: Roboto, sans-serif; font-size: 12px; font-weight: 200;" fill="rgb(50, 49, 63)" stroke="none" stroke-width="1px">0.88</text><text x="0" y="94.5" dx="0em" dy="0.3em" style="text-anchor: end; visibility: inherit; font-family: Roboto, sans-serif; font-size: 12px; font-weight: 200;" fill="rgb(50, 49, 63)" stroke="none" stroke-width="1px">0.89</text><text x="0" y="47.25" dx="0em" dy="0.3em" style="text-anchor: end; visibility: inherit; font-family: Roboto, sans-serif; font-size: 12px; font-weight: 200;" fill="rgb(50, 49, 63)" stroke="none" stroke-width="1px">0.9</text><text x="0" y="0" dx="0em" dy="0.3em" style="text-anchor: end; visibility: hidden; font-family: Roboto, sans-serif; font-size: 12px; font-weight: 200;" fill="rgb(50, 49, 63)" stroke="none" stroke-width="1px">0.91</text></g><line x1="50" y1="0" x2="50" y2="378" fill="rgb(0, 0, 0)" stroke="rgb(204, 204, 204)" stroke-width="1px"></line></g></g><g transform="translate(50, 0)" clip-path="url(#clip_0)"><clipPath id="clip_0"><rect width="809" height="378"></rect></clipPath><g><g><g><line x1="0" y1="0" x2="0" y2="378" fill="rgb(0, 0, 0)" stroke="rgb(60, 60, 60)" stroke-width="1px" opacity="0.25"></line><line x1="67.41666666666666" y1="0" x2="67.41666666666666" y2="378" fill="rgb(0, 0, 0)" stroke="rgb(60, 60, 60)" stroke-width="1px" opacity="0.25"></line><line x1="134.83333333333331" y1="0" x2="134.83333333333331" y2="378" fill="rgb(0, 0, 0)" stroke="rgb(60, 60, 60)" stroke-width="1px" opacity="0.25"></line><line x1="202.25" y1="0" x2="202.25" y2="378" fill="rgb(0, 0, 0)" stroke="rgb(60, 60, 60)" stroke-width="1px" opacity="0.25"></line><line x1="269.66666666666663" y1="0" x2="269.66666666666663" y2="378" fill="rgb(0, 0, 0)" stroke="rgb(60, 60, 60)" stroke-width="1px" opacity="0.25"></line><line x1="337.08333333333337" y1="0" x2="337.08333333333337" y2="378" fill="rgb(0, 0, 0)" stroke="rgb(60, 60, 60)" stroke-width="1px" opacity="0.25"></line><line x1="404.5" y1="0" x2="404.5" y2="378" fill="rgb(0, 0, 0)" stroke="rgb(60, 60, 60)" stroke-width="1px" opacity="0.25"></line><line x1="471.9166666666667" y1="0" x2="471.9166666666667" y2="378" fill="rgb(0, 0, 0)" stroke="rgb(60, 60, 60)" stroke-width="1px" opacity="0.25"></line><line x1="539.3333333333333" y1="0" x2="539.3333333333333" y2="378" fill="rgb(0, 0, 0)" stroke="rgb(60, 60, 60)" stroke-width="1px" opacity="0.25"></line><line x1="606.75" y1="0" x2="606.75" y2="378" fill="rgb(0, 0, 0)" stroke="rgb(60, 60, 60)" stroke-width="1px" opacity="0.25"></line><line x1="674.1666666666667" y1="0" x2="674.1666666666667" y2="378" fill="rgb(0, 0, 0)" stroke="rgb(60, 60, 60)" stroke-width="1px" opacity="0.25"></line><line x1="741.5833333333333" y1="0" x2="741.5833333333333" y2="378" fill="rgb(0, 0, 0)" stroke="rgb(60, 60, 60)" stroke-width="1px" opacity="0.25"></line><line x1="809" y1="0" x2="809" y2="378" fill="rgb(0, 0, 0)" stroke="rgb(60, 60, 60)" stroke-width="1px" opacity="0.25"></line></g><g><line x1="0" y1="378" x2="809" y2="378" fill="rgb(0, 0, 0)" stroke="rgb(60, 60, 60)" stroke-width="1px" opacity="0.25"></line><line x1="0" y1="330.75" x2="809" y2="330.75" fill="rgb(0, 0, 0)" stroke="rgb(60, 60, 60)" stroke-width="1px" opacity="0.25"></line><line x1="0" y1="283.5" x2="809" y2="283.5" fill="rgb(0, 0, 0)" stroke="rgb(60, 60, 60)" stroke-width="1px" opacity="0.25"></line><line x1="0" y1="236.25" x2="809" y2="236.25" fill="rgb(0, 0, 0)" stroke="rgb(60, 60, 60)" stroke-width="1px" opacity="0.25"></line><line x1="0" y1="189" x2="809" y2="189" fill="rgb(0, 0, 0)" stroke="rgb(60, 60, 60)" stroke-width="1px" opacity="0.25"></line><line x1="0" y1="141.75" x2="809" y2="141.75" fill="rgb(0, 0, 0)" stroke="rgb(60, 60, 60)" stroke-width="1px" opacity="0.25"></line><line x1="0" y1="94.5" x2="809" y2="94.5" fill="rgb(0, 0, 0)" stroke="rgb(60, 60, 60)" stroke-width="1px" opacity="0.25"></line><line x1="0" y1="47.25" x2="809" y2="47.25" fill="rgb(0, 0, 0)" stroke="rgb(60, 60, 60)" stroke-width="1px" opacity="0.25"></line><line x1="0" y1="0" x2="809" y2="0" fill="rgb(0, 0, 0)" stroke="rgb(60, 60, 60)" stroke-width="1px" opacity="0.25"></line></g></g></g><g><g><line x1="0" y1="4299.749999999996" x2="809" y2="4299.749999999996" fill="rgb(0, 0, 0)" stroke="rgb(153, 153, 153)" stroke-width="1.5px"></line></g></g><g><g><line x1="67.41666666666666" y1="0" x2="67.41666666666666" y2="378" fill="rgb(0, 0, 0)" stroke="rgb(153, 153, 153)" stroke-width="1.5px"></line></g></g><g><g><g><g><g><path stroke="rgb(238, 51, 119)" stroke-width="2px" d="M67.41666666666666,449.1577697396276L80.9,336.0135433673857L94.38333333333334,318.7959743142127L107.86666666666666,208.11152136325833L121.35,168.75711804628372L134.83333333333331,157.68870091438293L148.31666666666666,152.76915407180786L161.8,126.94294130802159L175.28333333333333,101.11644691228871L188.76666666666668,110.95497733354573L202.25,93.7374082803727L215.73333333333332,85.12876456975945L229.21666666666667,93.7374082803727L242.7,94.96729499101643L256.18333333333334,88.8181430697442L269.66666666666663,92.5078032016755L283.15,85.12876456975945L296.6333333333333,86.35865128040322L310.1166666666667,85.12876456975945L323.6,90.04802978038796L337.08333333333337,88.8181430697442L350.56666666666666,88.8181430697442L364.05,82.66899114847192L377.53333333333336,86.35865128040322L391.01666666666665,83.89887785911569L404.5,85.12876456975945L417.98333333333335,85.12876456975945L431.46666666666664,85.12876456975945L444.95000000000005,85.12876456975945L458.43333333333334,85.12876456975945L471.9166666666667,85.12876456975945L485.4,85.12876456975945L498.8833333333334,85.12876456975945L512.3666666666667,85.12876456975945L525.85,85.12876456975945L539.3333333333333,85.12876456975945L552.8166666666667,85.12876456975945L566.3,85.12876456975945L579.7833333333333,85.12876456975945L593.2666666666667,85.12876456975945L606.75,85.12876456975945L620.2333333333333,85.12876456975945L633.7166666666667,85.12876456975945L647.2,85.12876456975945L660.6833333333333,85.12876456975945L674.1666666666667,85.12876456975945L687.65,85.12876456975945L701.1333333333333,85.12876456975945L714.6166666666667,85.12876456975945L728.1,85.12876456975945" style="fill: none;" fill="none"></path></g><g><path stroke="rgb(0, 153, 136)" stroke-width="2px" d="M67.41666666666666,554.9229574799534L80.9,349.541733920574L94.38333333333334,241.31677275896064L107.86666666666666,213.03078657388684L121.35,160.1481927037239L134.83333333333331,168.75711804628372L148.31666666666666,147.84988886117935L161.8,140.47085022926333L175.28333333333333,163.8378528356552L188.76666666666668,153.99904078245163L202.25,102.34633362293248L215.73333333333332,129.40243309736255L229.21666666666667,96.1971817016602L242.7,104.80582541227345L256.18333333333334,94.96729499101643L269.66666666666663,93.7374082803727L283.15,94.96729499101643L296.6333333333333,104.80582541227345L310.1166666666667,97.42706841230397L323.6,92.5078032016755L337.08333333333337,98.65695512294774L350.56666666666666,91.27791649103173L364.05,106.03571212291722L377.53333333333336,92.5078032016755L391.01666666666665,96.1971817016602L404.5,91.27791649103173L417.98333333333335,96.1971817016602L431.46666666666664,97.42706841230397L444.95000000000005,94.96729499101643L458.43333333333334,97.42706841230397L471.9166666666667,91.27791649103173L485.4,93.7374082803727L498.8833333333334,93.7374082803727L512.3666666666667,93.7374082803727L525.85,93.7374082803727L539.3333333333333,94.96729499101643L552.8166666666667,94.96729499101643L566.3,94.96729499101643L579.7833333333333,94.96729499101643L593.2666666666667,94.96729499101643L606.75,94.96729499101643L620.2333333333333,94.96729499101643L633.7166666666667,94.96729499101643L647.2,94.96729499101643L660.6833333333333,94.96729499101643L674.1666666666667,94.96729499101643L687.65,94.96729499101643L701.1333333333333,94.96729499101643L714.6166666666667,94.96729499101643L728.1,94.96729499101643" style="fill: none;" fill="none"></path></g><g><path stroke="rgb(187, 187, 187)" stroke-width="2px" d="M80.9,403.65421450138075L94.38333333333334,352.00150734186155L107.86666666666666,275.75219249725336L121.35,204.4221428632736L134.83333333333331,274.5223057866096L148.31666666666666,204.4221428632736L161.8,210.57129478454587L175.28333333333333,176.1358750462532L188.76666666666668,149.07977557182312L202.25,149.07977557182312L215.73333333333332,173.67638325691223L229.21666666666667,157.68870091438293L242.7,112.1848640441895L256.18333333333334,140.47085022926333L269.66666666666663,112.1848640441895L283.15,117.104129254818L296.6333333333333,129.40243309736255L310.1166666666667,103.57622033357625L323.6,136.7814717292786L337.08333333333337,115.8745241761208L350.56666666666666,146.62000215053558L364.05,123.25328117609028L377.53333333333336,113.41475075483326L391.01666666666665,112.1848640441895L404.5,124.48316788673405L417.98333333333335,102.34633362293248L431.46666666666664,124.48316788673405L444.95000000000005,117.104129254818L458.43333333333334,125.71305459737782L471.9166666666667,114.64463746547703L485.4,115.8745241761208L498.8833333333334,122.02367609739308L512.3666666666667,114.64463746547703L525.85,122.02367609739308L539.3333333333333,113.41475075483326L552.8166666666667,119.56390267610554L566.3,115.8745241761208L579.7833333333333,109.72537225484852L593.2666666666667,113.41475075483326L606.75,110.95497733354573L620.2333333333333,114.64463746547703L633.7166666666667,106.03571212291722L647.2,113.41475075483326L660.6833333333333,106.03571212291722L674.1666666666667,114.64463746547703L687.65,115.8745241761208L701.1333333333333,112.1848640441895L714.6166666666667,115.8745241761208L728.1,114.64463746547703" style="fill: none;" fill="none"></path></g><g><path stroke="rgb(51, 187, 238)" stroke-width="2px" d="M67.41666666666666,406.11398792266823L80.9,267.14326715469355L94.38333333333334,225.32909041643134L107.86666666666666,119.56390267610554L121.35,112.1848640441895L134.83333333333331,117.104129254818L148.31666666666666,99.88656020164494L161.8,91.27791649103173L175.28333333333333,91.27791649103173L188.76666666666668,87.58825635910043L202.25,87.58825635910043L215.73333333333332,88.8181430697442L229.21666666666667,86.35865128040322L242.7,88.8181430697442L256.18333333333334,83.89887785911569L269.66666666666663,86.35865128040322L283.15,85.12876456975945L296.6333333333333,88.8181430697442L310.1166666666667,85.12876456975945L323.6,85.12876456975945L337.08333333333337,83.89887785911569L350.56666666666666,86.35865128040322L364.05,86.35865128040322L377.53333333333336,86.35865128040322L391.01666666666665,86.35865128040322L404.5,86.35865128040322L417.98333333333335,86.35865128040322L431.46666666666664,86.35865128040322L444.95000000000005,86.35865128040322L458.43333333333334,86.35865128040322L471.9166666666667,83.89887785911569L485.4,83.89887785911569L498.8833333333334,86.35865128040322L512.3666666666667,86.35865128040322L525.85,86.35865128040322L539.3333333333333,86.35865128040322L552.8166666666667,86.35865128040322L566.3,86.35865128040322L579.7833333333333,86.35865128040322L593.2666666666667,86.35865128040322L606.75,86.35865128040322L620.2333333333333,86.35865128040322L633.7166666666667,86.35865128040322L647.2,86.35865128040322L660.6833333333333,86.35865128040322L674.1666666666667,86.35865128040322L687.65,86.35865128040322L701.1333333333333,86.35865128040322L714.6166666666667,86.35865128040322L728.1,86.35865128040322" style="fill: none;" fill="none"></path></g><g><path stroke="rgb(204, 51, 17)" stroke-width="2px" d="M67.41666666666666,348.31184720993025L80.9,301.5784052610396L94.38333333333334,219.17993849515912L107.86666666666666,203.19225615262982L121.35,146.62000215053558L134.83333333333331,120.79378938674931L148.31666666666666,107.26559883356099L161.8,106.03571212291722L175.28333333333333,122.02367609739308L188.76666666666668,106.03571212291722L202.25,102.34633362293248L215.73333333333332,107.26559883356099L229.21666666666667,92.5078032016755L242.7,99.88656020164494L256.18333333333334,99.88656020164494L269.66666666666663,98.65695512294774L283.15,94.96729499101643L296.6333333333333,94.96729499101643L310.1166666666667,90.04802978038796L323.6,92.5078032016755L337.08333333333337,86.35865128040322L350.56666666666666,81.43910443782815L364.05,81.43910443782815L377.53333333333336,78.97961264848718L391.01666666666665,81.43910443782815L404.5,80.20949935913094L417.98333333333335,83.89887785911569L431.46666666666664,81.43910443782815L444.95000000000005,82.66899114847192L458.43333333333334,85.12876456975945L471.9166666666667,81.43910443782815L485.4,80.20949935913094L498.8833333333334,77.74972593784341L512.3666666666667,81.43910443782815L525.85,78.97961264848718L539.3333333333333,78.97961264848718L552.8166666666667,78.97961264848718L566.3,77.74972593784341L579.7833333333333,78.97961264848718L593.2666666666667,78.97961264848718L606.75,81.43910443782815L620.2333333333333,81.43910443782815L633.7166666666667,78.97961264848718L647.2,78.97961264848718L660.6833333333333,78.97961264848718L674.1666666666667,78.97961264848718L687.65,78.97961264848718L701.1333333333333,78.97961264848718L714.6166666666667,78.97961264848718L728.1,78.97961264848718" style="fill: none;" fill="none"></path></g><g><path stroke="rgb(0, 119, 187)" stroke-width="2px" d="M67.41666666666666,433.1700873970983L80.9,284.3608362078666L94.38333333333334,251.15558481216422L107.86666666666666,274.5223057866096L121.35,221.63971191644666L134.83333333333331,200.73248273134232L148.31666666666666,221.63971191644666L161.8,192.12383902072906L175.28333333333333,200.73248273134232L188.76666666666668,187.20457381010056L202.25,167.52723133563995L215.73333333333332,173.67638325691223L229.21666666666667,185.9746870994568L242.7,173.67638325691223L256.18333333333334,156.45881420373917L269.66666666666663,163.8378528356552L283.15,161.37807941436768L296.6333333333333,182.28502696752548L310.1166666666667,182.28502696752548L323.6,171.2166098356247L337.08333333333337,160.1481927037239L350.56666666666666,165.06745791435242L364.05,161.37807941436768L377.53333333333336,167.52723133563995L391.01666666666665,160.1481927037239L404.5,165.06745791435242L417.98333333333335,165.06745791435242L431.46666666666664,163.8378528356552L444.95000000000005,167.52723133563995L458.43333333333334,160.1481927037239L471.9166666666667,166.29734462499619L485.4,165.06745791435242L498.8833333333334,167.52723133563995L512.3666666666667,166.29734462499619L525.85,158.91830599308014L539.3333333333333,166.29734462499619L552.8166666666667,161.37807941436768L566.3,158.91830599308014L579.7833333333333,157.68870091438293L593.2666666666667,153.99904078245163L606.75,160.1481927037239L620.2333333333333,162.60796612501144L633.7166666666667,160.1481927037239L647.2,162.60796612501144L660.6833333333333,162.60796612501144L674.1666666666667,161.37807941436768L687.65,161.37807941436768L701.1333333333333,160.1481927037239L714.6166666666667,155.2289274930954L728.1,153.99904078245163" style="fill: none;" fill="none"></path></g><g><path stroke="rgb(255, 112, 67)" stroke-width="2px" d="M67.41666666666666,430.7103139758108L80.9,334.7839382886885L94.38333333333334,275.75219249725336L107.86666666666666,237.6273942589759L121.35,224.09920370578763L134.83333333333331,201.96236944198606L148.31666666666666,177.36576175689697L161.8,176.1358750462532L175.28333333333333,156.45881420373917L188.76666666666668,149.07977557182312L202.25,144.1605103611946L215.73333333333332,149.07977557182312L229.21666666666667,144.1605103611946L242.7,135.55158501863482L256.18333333333334,131.86220651865008L269.66666666666663,126.94294130802159L283.15,126.94294130802159L296.6333333333333,117.104129254818L310.1166666666667,119.56390267610554L323.6,122.02367609739308L337.08333333333337,113.41475075483326L350.56666666666666,115.8745241761208L364.05,117.104129254818L377.53333333333336,117.104129254818L391.01666666666665,109.72537225484852L404.5,118.33401596546177L417.98333333333335,113.41475075483326L431.46666666666664,117.104129254818L444.95000000000005,118.33401596546177L458.43333333333334,119.56390267610554L471.9166666666667,119.56390267610554L485.4,117.104129254818L498.8833333333334,115.8745241761208L512.3666666666667,113.41475075483326L525.85,112.1848640441895L539.3333333333333,109.72537225484852L552.8166666666667,109.72537225484852L566.3,112.1848640441895L579.7833333333333,115.8745241761208L593.2666666666667,115.8745241761208L606.75,117.104129254818L620.2333333333333,118.33401596546177L633.7166666666667,118.33401596546177L647.2,117.104129254818L660.6833333333333,118.33401596546177L674.1666666666667,118.33401596546177L687.65,114.64463746547703L701.1333333333333,113.41475075483326L714.6166666666667,113.41475075483326L728.1,113.41475075483326" style="fill: none;" fill="none"></path></g></g></g></g></g></g><g transform="translate(50, 378)" clip-path="url(#clip_1)"><clipPath id="clip_1"><rect width="809" height="22"></rect></clipPath><g><g><line x1="0" y1="0" x2="0" y2="5" style="visibility: inherit;" fill="rgb(0, 0, 0)" stroke="rgb(204, 204, 204)" stroke-width="1px"></line><line x1="67.41666666666666" y1="0" x2="67.41666666666666" y2="5" style="visibility: inherit;" fill="rgb(0, 0, 0)" stroke="rgb(204, 204, 204)" stroke-width="1px"></line><line x1="134.83333333333331" y1="0" x2="134.83333333333331" y2="5" style="visibility: inherit;" fill="rgb(0, 0, 0)" stroke="rgb(204, 204, 204)" stroke-width="1px"></line><line x1="202.25" y1="0" x2="202.25" y2="5" style="visibility: inherit;" fill="rgb(0, 0, 0)" stroke="rgb(204, 204, 204)" stroke-width="1px"></line><line x1="269.66666666666663" y1="0" x2="269.66666666666663" y2="5" style="visibility: inherit;" fill="rgb(0, 0, 0)" stroke="rgb(204, 204, 204)" stroke-width="1px"></line><line x1="337.08333333333337" y1="0" x2="337.08333333333337" y2="5" style="visibility: inherit;" fill="rgb(0, 0, 0)" stroke="rgb(204, 204, 204)" stroke-width="1px"></line><line x1="404.5" y1="0" x2="404.5" y2="5" style="visibility: inherit;" fill="rgb(0, 0, 0)" stroke="rgb(204, 204, 204)" stroke-width="1px"></line><line x1="471.9166666666667" y1="0" x2="471.9166666666667" y2="5" style="visibility: inherit;" fill="rgb(0, 0, 0)" stroke="rgb(204, 204, 204)" stroke-width="1px"></line><line x1="539.3333333333333" y1="0" x2="539.3333333333333" y2="5" style="visibility: inherit;" fill="rgb(0, 0, 0)" stroke="rgb(204, 204, 204)" stroke-width="1px"></line><line x1="606.75" y1="0" x2="606.75" y2="5" style="visibility: inherit;" fill="rgb(0, 0, 0)" stroke="rgb(204, 204, 204)" stroke-width="1px"></line><line x1="674.1666666666667" y1="0" x2="674.1666666666667" y2="5" style="visibility: inherit;" fill="rgb(0, 0, 0)" stroke="rgb(204, 204, 204)" stroke-width="1px"></line><line x1="741.5833333333333" y1="0" x2="741.5833333333333" y2="5" style="visibility: inherit;" fill="rgb(0, 0, 0)" stroke="rgb(204, 204, 204)" stroke-width="1px"></line><line x1="809" y1="0" x2="809" y2="5" style="visibility: inherit;" fill="rgb(0, 0, 0)" stroke="rgb(204, 204, 204)" stroke-width="1px"></line></g><g transform="translate(0, 8)"><text x="0" y="0" dx="0em" dy="0.95em" style="text-anchor: middle; visibility: hidden; font-family: Roboto, sans-serif; font-size: 12px; font-weight: 200;" fill="rgb(50, 49, 63)" stroke="none" stroke-width="1px">-5</text><text x="67.41666666666666" y="0" dx="0em" dy="0.95em" style="text-anchor: middle; visibility: inherit; font-family: Roboto, sans-serif; font-size: 12px; font-weight: 200;" fill="rgb(50, 49, 63)" stroke="none" stroke-width="1px">0</text><text x="134.83333333333331" y="0" dx="0em" dy="0.95em" style="text-anchor: middle; visibility: inherit; font-family: Roboto, sans-serif; font-size: 12px; font-weight: 200;" fill="rgb(50, 49, 63)" stroke="none" stroke-width="1px">5</text><text x="202.25" y="0" dx="0em" dy="0.95em" style="text-anchor: middle; visibility: inherit; font-family: Roboto, sans-serif; font-size: 12px; font-weight: 200;" fill="rgb(50, 49, 63)" stroke="none" stroke-width="1px">10</text><text x="269.66666666666663" y="0" dx="0em" dy="0.95em" style="text-anchor: middle; visibility: inherit; font-family: Roboto, sans-serif; font-size: 12px; font-weight: 200;" fill="rgb(50, 49, 63)" stroke="none" stroke-width="1px">15</text><text x="337.08333333333337" y="0" dx="0em" dy="0.95em" style="text-anchor: middle; visibility: inherit; font-family: Roboto, sans-serif; font-size: 12px; font-weight: 200;" fill="rgb(50, 49, 63)" stroke="none" stroke-width="1px">20</text><text x="404.5" y="0" dx="0em" dy="0.95em" style="text-anchor: middle; visibility: inherit; font-family: Roboto, sans-serif; font-size: 12px; font-weight: 200;" fill="rgb(50, 49, 63)" stroke="none" stroke-width="1px">25</text><text x="471.9166666666667" y="0" dx="0em" dy="0.95em" style="text-anchor: middle; visibility: inherit; font-family: Roboto, sans-serif; font-size: 12px; font-weight: 200;" fill="rgb(50, 49, 63)" stroke="none" stroke-width="1px">30</text><text x="539.3333333333333" y="0" dx="0em" dy="0.95em" style="text-anchor: middle; visibility: inherit; font-family: Roboto, sans-serif; font-size: 12px; font-weight: 200;" fill="rgb(50, 49, 63)" stroke="none" stroke-width="1px">35</text><text x="606.75" y="0" dx="0em" dy="0.95em" style="text-anchor: middle; visibility: inherit; font-family: Roboto, sans-serif; font-size: 12px; font-weight: 200;" fill="rgb(50, 49, 63)" stroke="none" stroke-width="1px">40</text><text x="674.1666666666667" y="0" dx="0em" dy="0.95em" style="text-anchor: middle; visibility: inherit; font-family: Roboto, sans-serif; font-size: 12px; font-weight: 200;" fill="rgb(50, 49, 63)" stroke="none" stroke-width="1px">45</text><text x="741.5833333333333" y="0" dx="0em" dy="0.95em" style="text-anchor: middle; visibility: inherit; font-family: Roboto, sans-serif; font-size: 12px; font-weight: 200;" fill="rgb(50, 49, 63)" stroke="none" stroke-width="1px">50</text><text x="809" y="0" dx="0em" dy="0.95em" style="text-anchor: middle; visibility: hidden; font-family: Roboto, sans-serif; font-size: 12px; font-weight: 200;" fill="rgb(50, 49, 63)" stroke="none" stroke-width="1px">55</text></g><line x1="0" y1="0" x2="809" y2="0" fill="rgb(0, 0, 0)" stroke="rgb(204, 204, 204)" stroke-width="1px"></line></g></g></g></g></svg>