<svg viewBox="0 0 910 400" xmlns="http://www.w3.org/2000/svg"><g><g><g><g><g><line x1="51.53200149536133" y1="374.69302945911187" x2="46.53200149536133" y2="374.69302945911187" style="visibility: inherit;" fill="rgb(0, 0, 0)" stroke="rgb(204, 204, 204)" stroke-width="1px"></line><line x1="51.53200149536133" y1="346.03803023081167" x2="46.53200149536133" y2="346.03803023081167" style="visibility: inherit;" fill="rgb(0, 0, 0)" stroke="rgb(204, 204, 204)" stroke-width="1px"></line><line x1="51.53200149536133" y1="317.3830310025115" x2="46.53200149536133" y2="317.3830310025115" style="visibility: inherit;" fill="rgb(0, 0, 0)" stroke="rgb(204, 204, 204)" stroke-width="1px"></line><line x1="51.53200149536133" y1="288.7280317742113" x2="46.53200149536133" y2="288.7280317742113" style="visibility: inherit;" fill="rgb(0, 0, 0)" stroke="rgb(204, 204, 204)" stroke-width="1px"></line><line x1="51.53200149536133" y1="260.0730325459111" x2="46.53200149536133" y2="260.0730325459111" style="visibility: inherit;" fill="rgb(0, 0, 0)" stroke="rgb(204, 204, 204)" stroke-width="1px"></line><line x1="51.53200149536133" y1="231.41803331761088" x2="46.53200149536133" y2="231.41803331761088" style="visibility: inherit;" fill="rgb(0, 0, 0)" stroke="rgb(204, 204, 204)" stroke-width="1px"></line><line x1="51.53200149536133" y1="202.76303408931068" x2="46.53200149536133" y2="202.76303408931068" style="visibility: inherit;" fill="rgb(0, 0, 0)" stroke="rgb(204, 204, 204)" stroke-width="1px"></line><line x1="51.53200149536133" y1="174.10803486101042" x2="46.53200149536133" y2="174.10803486101042" style="visibility: inherit;" fill="rgb(0, 0, 0)" stroke="rgb(204, 204, 204)" stroke-width="1px"></line><line x1="51.53200149536133" y1="145.45303563271023" x2="46.53200149536133" y2="145.45303563271023" style="visibility: inherit;" fill="rgb(0, 0, 0)" stroke="rgb(204, 204, 204)" stroke-width="1px"></line><line x1="51.53200149536133" y1="116.79803640441003" x2="46.53200149536133" y2="116.79803640441003" style="visibility: inherit;" fill="rgb(0, 0, 0)" stroke="rgb(204, 204, 204)" stroke-width="1px"></line><line x1="51.53200149536133" y1="88.14303717610983" x2="46.53200149536133" y2="88.14303717610983" style="visibility: inherit;" fill="rgb(0, 0, 0)" stroke="rgb(204, 204, 204)" stroke-width="1px"></line><line x1="51.53200149536133" y1="59.48803794780964" x2="46.53200149536133" y2="59.48803794780964" style="visibility: inherit;" fill="rgb(0, 0, 0)" stroke="rgb(204, 204, 204)" stroke-width="1px"></line><line x1="51.53200149536133" y1="30.833038719509435" x2="46.53200149536133" y2="30.833038719509435" style="visibility: inherit;" fill="rgb(0, 0, 0)" stroke="rgb(204, 204, 204)" stroke-width="1px"></line><line x1="51.53200149536133" y1="2.178039491209236" x2="46.53200149536133" y2="2.178039491209236" style="visibility: inherit;" fill="rgb(0, 0, 0)" stroke="rgb(204, 204, 204)" stroke-width="1px"></line></g><g transform="translate(41.53200149536133, 0)"><text style="text-anchor: end; visibility: hidden; font-family: Roboto, sans-serif; font-size: 12px; font-weight: 200;" x="0" y="374.69302945911187" dx="0em" dy="0.3em" fill="rgb(50, 49, 63)" stroke="none" stroke-width="1px">0.05</text><text style="text-anchor: end; visibility: inherit; font-family: Roboto, sans-serif; font-size: 12px; font-weight: 200;" x="0" y="346.03803023081167" dx="0em" dy="0.3em" fill="rgb(50, 49, 63)" stroke="none" stroke-width="1px">0.1</text><text style="text-anchor: end; visibility: inherit; font-family: Roboto, sans-serif; font-size: 12px; font-weight: 200;" x="0" y="317.3830310025115" dx="0em" dy="0.3em" fill="rgb(50, 49, 63)" stroke="none" stroke-width="1px">0.15</text><text style="text-anchor: end; visibility: inherit; font-family: Roboto, sans-serif; font-size: 12px; font-weight: 200;" x="0" y="288.7280317742113" dx="0em" dy="0.3em" fill="rgb(50, 49, 63)" stroke="none" stroke-width="1px">0.2</text><text style="text-anchor: end; visibility: inherit; font-family: Roboto, sans-serif; font-size: 12px; font-weight: 200;" x="0" y="260.0730325459111" dx="0em" dy="0.3em" fill="rgb(50, 49, 63)" stroke="none" stroke-width="1px">0.25</text><text style="text-anchor: end; visibility: inherit; font-family: Roboto, sans-serif; font-size: 12px; font-weight: 200;" x="0" y="231.41803331761088" dx="0em" dy="0.3em" fill="rgb(50, 49, 63)" stroke="none" stroke-width="1px">0.3</text><text style="text-anchor: end; visibility: inherit; font-family: Roboto, sans-serif; font-size: 12px; font-weight: 200;" x="0" y="202.76303408931068" dx="0em" dy="0.3em" fill="rgb(50, 49, 63)" stroke="none" stroke-width="1px">0.35</text><text style="text-anchor: end; visibility: inherit; font-family: Roboto, sans-serif; font-size: 12px; font-weight: 200;" x="0" y="174.10803486101042" dx="0em" dy="0.3em" fill="rgb(50, 49, 63)" stroke="none" stroke-width="1px">0.4</text><text style="text-anchor: end; visibility: inherit; font-family: Roboto, sans-serif; font-size: 12px; font-weight: 200;" x="0" y="145.45303563271023" dx="0em" dy="0.3em" fill="rgb(50, 49, 63)" stroke="none" stroke-width="1px">0.45</text><text style="text-anchor: end; visibility: inherit; font-family: Roboto, sans-serif; font-size: 12px; font-weight: 200;" x="0" y="116.79803640441003" dx="0em" dy="0.3em" fill="rgb(50, 49, 63)" stroke="none" stroke-width="1px">0.5</text><text style="text-anchor: end; visibility: inherit; font-family: Roboto, sans-serif; font-size: 12px; font-weight: 200;" x="0" y="88.14303717610983" dx="0em" dy="0.3em" fill="rgb(50, 49, 63)" stroke="none" stroke-width="1px">0.55</text><text style="text-anchor: end; visibility: inherit; font-family: Roboto, sans-serif; font-size: 12px; font-weight: 200;" x="0" y="59.48803794780964" dx="0em" dy="0.3em" fill="rgb(50, 49, 63)" stroke="none" stroke-width="1px">0.6</text><text style="text-anchor: end; visibility: inherit; font-family: Roboto, sans-serif; font-size: 12px; font-weight: 200;" x="0" y="30.833038719509435" dx="0em" dy="0.3em" fill="rgb(50, 49, 63)" stroke="none" stroke-width="1px">0.65</text><text style="text-anchor: end; visibility: hidden; font-family: Roboto, sans-serif; font-size: 12px; font-weight: 200;" x="0" y="2.178039491209236" dx="0em" dy="0.3em" fill="rgb(50, 49, 63)" stroke="none" stroke-width="1px">0.7</text></g><line x1="51.53200149536133" y1="0" x2="51.53200149536133" y2="377.5999994277954" fill="rgb(0, 0, 0)" stroke="rgb(204, 204, 204)" stroke-width="1px"></line></g></g><g transform="translate(51, 0)" clip-path="url(#clip_0)"><clipPath id="clip_0"><rect width="858" height="377"></rect></clipPath><g><g><g><line x1="17.11333166206466" y1="0" x2="17.11333166206466" y2="377.5999994277954" fill="rgb(0, 0, 0)" stroke="rgb(60, 60, 60)" stroke-width="1px" opacity="0.25"></line><line x1="103.97561934549759" y1="0" x2="103.97561934549759" y2="377.5999994277954" fill="rgb(0, 0, 0)" stroke="rgb(60, 60, 60)" stroke-width="1px" opacity="0.25"></line><line x1="190.83790702893054" y1="0" x2="190.83790702893054" y2="377.5999994277954" fill="rgb(0, 0, 0)" stroke="rgb(60, 60, 60)" stroke-width="1px" opacity="0.25"></line><line x1="277.70019471236344" y1="0" x2="277.70019471236344" y2="377.5999994277954" fill="rgb(0, 0, 0)" stroke="rgb(60, 60, 60)" stroke-width="1px" opacity="0.25"></line><line x1="364.5624823957964" y1="0" x2="364.5624823957964" y2="377.5999994277954" fill="rgb(0, 0, 0)" stroke="rgb(60, 60, 60)" stroke-width="1px" opacity="0.25"></line><line x1="451.42477007922935" y1="0" x2="451.42477007922935" y2="377.5999994277954" fill="rgb(0, 0, 0)" stroke="rgb(60, 60, 60)" stroke-width="1px" opacity="0.25"></line><line x1="538.2870577626622" y1="0" x2="538.2870577626622" y2="377.5999994277954" fill="rgb(0, 0, 0)" stroke="rgb(60, 60, 60)" stroke-width="1px" opacity="0.25"></line><line x1="625.1493454460953" y1="0" x2="625.1493454460953" y2="377.5999994277954" fill="rgb(0, 0, 0)" stroke="rgb(60, 60, 60)" stroke-width="1px" opacity="0.25"></line><line x1="712.0116331295281" y1="0" x2="712.0116331295281" y2="377.5999994277954" fill="rgb(0, 0, 0)" stroke="rgb(60, 60, 60)" stroke-width="1px" opacity="0.25"></line><line x1="798.8739208129612" y1="0" x2="798.8739208129612" y2="377.5999994277954" fill="rgb(0, 0, 0)" stroke="rgb(60, 60, 60)" stroke-width="1px" opacity="0.25"></line></g><g><line x1="0" y1="374.69302945911187" x2="858.4679985046387" y2="374.69302945911187" fill="rgb(0, 0, 0)" stroke="rgb(60, 60, 60)" stroke-width="1px" opacity="0.25"></line><line x1="0" y1="346.03803023081167" x2="858.4679985046387" y2="346.03803023081167" fill="rgb(0, 0, 0)" stroke="rgb(60, 60, 60)" stroke-width="1px" opacity="0.25"></line><line x1="0" y1="317.3830310025115" x2="858.4679985046387" y2="317.3830310025115" fill="rgb(0, 0, 0)" stroke="rgb(60, 60, 60)" stroke-width="1px" opacity="0.25"></line><line x1="0" y1="288.7280317742113" x2="858.4679985046387" y2="288.7280317742113" fill="rgb(0, 0, 0)" stroke="rgb(60, 60, 60)" stroke-width="1px" opacity="0.25"></line><line x1="0" y1="260.0730325459111" x2="858.4679985046387" y2="260.0730325459111" fill="rgb(0, 0, 0)" stroke="rgb(60, 60, 60)" stroke-width="1px" opacity="0.25"></line><line x1="0" y1="231.41803331761088" x2="858.4679985046387" y2="231.41803331761088" fill="rgb(0, 0, 0)" stroke="rgb(60, 60, 60)" stroke-width="1px" opacity="0.25"></line><line x1="0" y1="202.76303408931068" x2="858.4679985046387" y2="202.76303408931068" fill="rgb(0, 0, 0)" stroke="rgb(60, 60, 60)" stroke-width="1px" opacity="0.25"></line><line x1="0" y1="174.10803486101042" x2="858.4679985046387" y2="174.10803486101042" fill="rgb(0, 0, 0)" stroke="rgb(60, 60, 60)" stroke-width="1px" opacity="0.25"></line><line x1="0" y1="145.45303563271023" x2="858.4679985046387" y2="145.45303563271023" fill="rgb(0, 0, 0)" stroke="rgb(60, 60, 60)" stroke-width="1px" opacity="0.25"></line><line x1="0" y1="116.79803640441003" x2="858.4679985046387" y2="116.79803640441003" fill="rgb(0, 0, 0)" stroke="rgb(60, 60, 60)" stroke-width="1px" opacity="0.25"></line><line x1="0" y1="88.14303717610983" x2="858.4679985046387" y2="88.14303717610983" fill="rgb(0, 0, 0)" stroke="rgb(60, 60, 60)" stroke-width="1px" opacity="0.25"></line><line x1="0" y1="59.48803794780964" x2="858.4679985046387" y2="59.48803794780964" fill="rgb(0, 0, 0)" stroke="rgb(60, 60, 60)" stroke-width="1px" opacity="0.25"></line><line x1="0" y1="30.833038719509435" x2="858.4679985046387" y2="30.833038719509435" fill="rgb(0, 0, 0)" stroke="rgb(60, 60, 60)" stroke-width="1px" opacity="0.25"></line><line x1="0" y1="2.178039491209236" x2="858.4679985046387" y2="2.178039491209236" fill="rgb(0, 0, 0)" stroke="rgb(60, 60, 60)" stroke-width="1px" opacity="0.25"></line></g></g></g><g><g><line x1="0" y1="403.3480286874121" x2="858.4679985046387" y2="403.3480286874121" fill="rgb(0, 0, 0)" stroke="rgb(153, 153, 153)" stroke-width="1.5px"></line></g></g><g><g><line x1="103.97561934549759" y1="0" x2="103.97561934549759" y2="377.5999994277954" fill="rgb(0, 0, 0)" stroke="rgb(153, 153, 153)" stroke-width="1.5px"></line></g></g><g><g><g><g><g><path style="fill: none;" stroke="rgb(51, 187, 238)" stroke-width="2px" d="M103.97561934549759,185.13122536290746L112.6618481138409,223.2518069824242L121.34807688218417,240.59638963328393L130.03430565052747,252.5831354190042L138.72053441887076,258.25445329066844L147.40676318721407,262.26056770738376L156.09299195555738,264.8683149862983L164.77922072390064,266.5032446543852L173.46544949224395,269.00110107593997L182.15167826058723,270.9277778189398L190.83790702893054,270.8928327312559L199.52413579727383,272.50899179750286L208.2103645656171,272.9736282419562L216.8965933339604,272.8734045007398L225.58282210230374,274.2899188309473L234.26905087064702,274.88727316584425L242.95527963899028,274.99350042530153L251.64150840733362,274.79314688127636L260.3277371756769,274.8642582559449L269.0139659440202,275.3093469717306L277.70019471236344,275.408204336107L286.38642348070675,275.5605126544945L295.07265224905,275.71387137507776L303.7588810173933,275.91963064747625L312.44510978573663,275.9740722246964L321.1313385540799,275.9428590537569L329.8175673224232,275.8576996172018L338.5037960907665,275.9137125277879L347.19002485910977,276.01719849370994L355.8762536274531,276.01034098994404L364.5624823957964,276.0015620187468L373.24871116413965,276.02823198669324L381.93493993248296,276.10889091953146L390.6211687008262,276.21160829848094L399.3073974691696,276.2236751139495L407.99362623751284,276.2567072740573L416.6798550058561,276.26712589746256L425.36608377419947,276.3027114742902L434.05231254254267,276.2832576840302L442.73854131088603,276.29156696318864L451.42477007922935,276.27968802453563L460.11099884757255,276.29511954297277L468.7972276159159,276.2900639486647L477.4834563842592,276.3105339816994L486.1696851526025,276.3200730000139L494.8559139209458,276.31340337306347L503.5421426892891,276.3192531739099L512.2283714576323,276.33319021767824L520.9146002259756,276.35183272168945L529.600828994319,276.35729822904955" fill="none"></path></g><g><path style="fill: none;" stroke="rgb(204, 51, 17)" stroke-width="2px" d="M103.97561934549759,23.66049627746878L112.6618481138409,217.94174206755434L121.34807688218417,261.26780099469164L130.03430565052747,287.4550877824992L138.72053441887076,308.2638883351723L147.40676318721407,316.3966999247359L156.09299195555738,318.0844485975453L164.77922072390064,324.50105671660583L173.46544949224395,329.25130850025874L182.15167826058723,336.1919733766036L190.83790702893054,336.08619018961923L199.52413579727383,339.1294572765116L208.2103645656171,341.85675398907375L216.8965933339604,342.64235235325106L225.58282210230374,344.9581134413056L234.26905087064702,346.8204124855017L242.95527963899028,345.2724057340791L251.64150840733362,347.1382274685659L260.3277371756769,348.61333374564515L269.0139659440202,349.9192057112309L277.70019471236344,349.1111603375285L286.38642348070675,350.02232019344956L295.07265224905,348.74460840055133L303.7588810173933,351.1940737323308L312.44510978573663,349.5232595924826L321.1313385540799,352.7933153453271L329.8175673224232,350.3110953987354L338.5037960907665,350.4959021362776L347.19002485910977,350.5271153072171L355.8762536274531,351.35991345136233L364.5624823957964,352.6722159279515L373.24871116413965,352.363128676953L381.93493993248296,350.63870986569924L390.6211687008262,352.2000259815293L399.3073974691696,352.7240400395374L407.99362623751284,350.5016622686438L416.6798550058561,351.44044428637176L425.36608377419947,350.11662154505L434.05231254254267,352.1923059523831L442.73854131088603,352.0843749918033L451.42477007922935,351.52311862504905L460.11099884757255,351.39577657348553L468.7972276159159,351.44962463076575L477.4834563842592,353.15947871889034L486.1696851526025,352.4419515409125L494.8559139209458,351.9946083033408L503.5421426892891,353.14915403389284L512.2283714576323,351.8407585410806L520.9146002259756,351.5617016910695L529.600828994319,352.3617409504749" fill="none"></path></g><g><path style="fill: none;" stroke="rgb(0, 119, 187)" stroke-width="2px" d="M103.97561934549759,172.8057718382534L112.6618481138409,207.90847109060908L121.34807688218417,226.20634070333924L130.03430565052747,234.94295421851368L138.72053441887076,242.61188087088595L147.40676318721407,246.8183402917712L156.09299195555738,251.82670920036168L164.77922072390064,253.13730370590082L173.46544949224395,256.79664876032615L182.15167826058723,258.92903353659295L190.83790702893054,259.82406160594644L199.52413579727383,260.2053405233026L208.2103645656171,261.3812956709669L216.8965933339604,260.92273960345165L225.58282210230374,262.40206456902445L234.26905087064702,263.6753484469755L242.95527963899028,263.50262987454L251.64150840733362,264.6934358304845L260.3277371756769,264.44366214412634L269.0139659440202,264.77800601702734L277.70019471236344,265.45828234640373L286.38642348070675,265.3080492128421L295.07265224905,265.599454693545L303.7588810173933,265.5830752511751L312.44510978573663,265.42402898699515L321.1313385540799,265.62784117239664L329.8175673224232,265.499350510302L338.5037960907665,266.0318446445736L347.19002485910977,266.160668361023L355.8762536274531,266.07071806567257L364.5624823957964,266.0698555402923L373.24871116413965,266.30636683144684L381.93493993248296,266.50950436828356L390.6211687008262,266.4378891421553L399.3073974691696,266.61135922185287L407.99362623751284,266.60041966727727L416.6798550058561,266.64614205228696L425.36608377419947,266.52761740126925L434.05231254254267,266.5435186117452L442.73854131088603,266.46570345070523L451.42477007922935,266.4872836649225L460.11099884757255,266.56719109049874L468.7972276159159,266.52986338320005L477.4834563842592,266.507266926208L486.1696851526025,266.50472204934346L494.8559139209458,266.55047005391884L503.5421426892891,266.57279323554286L512.2283714576323,266.565491659304L520.9146002259756,266.57651661243193L529.600828994319,266.59165777579057" fill="none"></path></g><g><path style="fill: none;" stroke="rgb(255, 112, 67)" stroke-width="2px" d="M103.97561934549759,14.324077488940562L112.6618481138409,216.94865938021798L121.34807688218417,258.1988588329896L130.03430565052747,279.7525397200069L138.72053441887076,296.3872042039167L147.40676318721407,309.1226220197123L156.09299195555738,315.7818132670103L164.77922072390064,320.94888684557066L173.46544949224395,326.38229288981927L182.15167826058723,330.53626636033675L190.83790702893054,334.01951959950276L199.52413579727383,337.29280341763183L208.2103645656171,338.20544920836653L216.8965933339604,341.41065330044097L225.58282210230374,343.943553018015L234.26905087064702,345.1092261799581L242.95527963899028,346.88691660826277L251.64150840733362,346.48035971936605L260.3277371756769,347.93985941097543L269.0139659440202,348.8676634447792L277.70019471236344,350.0104796841452L286.38642348070675,350.0000354411742L295.07265224905,351.4627375785024L303.7588810173933,352.85785530138054L312.44510978573663,352.5478286663046L321.1313385540799,353.1054342449394L329.8175673224232,351.654248102416L338.5037960907665,353.6702474614054L347.19002485910977,353.1644190251526L355.8762536274531,353.3960754085974L364.5624823957964,354.5746181324026L373.24871116413965,353.6172021505187L381.93493993248296,353.6512377436184L390.6211687008262,354.09883717684767L399.3073974691696,355.2585239002604L407.99362623751284,354.8450198391176L416.6798550058561,353.87341488773546L425.36608377419947,354.10118990696907L434.05231254254267,354.0926201622255L442.73854131088603,355.1812083207526L451.42477007922935,355.1350632129081L460.11099884757255,354.20976135669264L468.7972276159159,355.2312177130978L477.4834563842592,354.5740459621008L486.1696851526025,355.73615373447694L494.8559139209458,356.3753618999552L503.5421426892891,354.3355662343111L512.2283714576323,356.5555955450108L520.9146002259756,353.42312540010244L529.600828994319,356.23932200581936" fill="none"></path></g></g></g></g></g></g><g transform="translate(51, 377)" clip-path="url(#clip_1)"><clipPath id="clip_1"><rect width="858" height="22"></rect></clipPath><g><g><line x1="17.11333166206466" y1="0" x2="17.11333166206466" y2="5" style="visibility: inherit;" fill="rgb(0, 0, 0)" stroke="rgb(204, 204, 204)" stroke-width="1px"></line><line x1="103.97561934549759" y1="0" x2="103.97561934549759" y2="5" style="visibility: inherit;" fill="rgb(0, 0, 0)" stroke="rgb(204, 204, 204)" stroke-width="1px"></line><line x1="190.83790702893054" y1="0" x2="190.83790702893054" y2="5" style="visibility: inherit;" fill="rgb(0, 0, 0)" stroke="rgb(204, 204, 204)" stroke-width="1px"></line><line x1="277.70019471236344" y1="0" x2="277.70019471236344" y2="5" style="visibility: inherit;" fill="rgb(0, 0, 0)" stroke="rgb(204, 204, 204)" stroke-width="1px"></line><line x1="364.5624823957964" y1="0" x2="364.5624823957964" y2="5" style="visibility: inherit;" fill="rgb(0, 0, 0)" stroke="rgb(204, 204, 204)" stroke-width="1px"></line><line x1="451.42477007922935" y1="0" x2="451.42477007922935" y2="5" style="visibility: inherit;" fill="rgb(0, 0, 0)" stroke="rgb(204, 204, 204)" stroke-width="1px"></line><line x1="538.2870577626622" y1="0" x2="538.2870577626622" y2="5" style="visibility: inherit;" fill="rgb(0, 0, 0)" stroke="rgb(204, 204, 204)" stroke-width="1px"></line><line x1="625.1493454460953" y1="0" x2="625.1493454460953" y2="5" style="visibility: inherit;" fill="rgb(0, 0, 0)" stroke="rgb(204, 204, 204)" stroke-width="1px"></line><line x1="712.0116331295281" y1="0" x2="712.0116331295281" y2="5" style="visibility: inherit;" fill="rgb(0, 0, 0)" stroke="rgb(204, 204, 204)" stroke-width="1px"></line><line x1="798.8739208129612" y1="0" x2="798.8739208129612" y2="5" style="visibility: inherit;" fill="rgb(0, 0, 0)" stroke="rgb(204, 204, 204)" stroke-width="1px"></line></g><g transform="translate(0, 8)"><text style="text-anchor: middle; visibility: inherit; font-family: Roboto, sans-serif; font-size: 12px; font-weight: 200;" x="17.11333166206466" y="0" dx="0em" dy="0.95em" fill="rgb(50, 49, 63)" stroke="none" stroke-width="1px">-10</text><text style="text-anchor: middle; visibility: inherit; font-family: Roboto, sans-serif; font-size: 12px; font-weight: 200;" x="103.97561934549759" y="0" dx="0em" dy="0.95em" fill="rgb(50, 49, 63)" stroke="none" stroke-width="1px">0</text><text style="text-anchor: middle; visibility: inherit; font-family: Roboto, sans-serif; font-size: 12px; font-weight: 200;" x="190.83790702893054" y="0" dx="0em" dy="0.95em" fill="rgb(50, 49, 63)" stroke="none" stroke-width="1px">10</text><text style="text-anchor: middle; visibility: inherit; font-family: Roboto, sans-serif; font-size: 12px; font-weight: 200;" x="277.70019471236344" y="0" dx="0em" dy="0.95em" fill="rgb(50, 49, 63)" stroke="none" stroke-width="1px">20</text><text style="text-anchor: middle; visibility: inherit; font-family: Roboto, sans-serif; font-size: 12px; font-weight: 200;" x="364.5624823957964" y="0" dx="0em" dy="0.95em" fill="rgb(50, 49, 63)" stroke="none" stroke-width="1px">30</text><text style="text-anchor: middle; visibility: inherit; font-family: Roboto, sans-serif; font-size: 12px; font-weight: 200;" x="451.42477007922935" y="0" dx="0em" dy="0.95em" fill="rgb(50, 49, 63)" stroke="none" stroke-width="1px">40</text><text style="text-anchor: middle; visibility: inherit; font-family: Roboto, sans-serif; font-size: 12px; font-weight: 200;" x="538.2870577626622" y="0" dx="0em" dy="0.95em" fill="rgb(50, 49, 63)" stroke="none" stroke-width="1px">50</text><text style="text-anchor: middle; visibility: inherit; font-family: Roboto, sans-serif; font-size: 12px; font-weight: 200;" x="625.1493454460953" y="0" dx="0em" dy="0.95em" fill="rgb(50, 49, 63)" stroke="none" stroke-width="1px">60</text><text style="text-anchor: middle; visibility: inherit; font-family: Roboto, sans-serif; font-size: 12px; font-weight: 200;" x="712.0116331295281" y="0" dx="0em" dy="0.95em" fill="rgb(50, 49, 63)" stroke="none" stroke-width="1px">70</text><text style="text-anchor: middle; visibility: inherit; font-family: Roboto, sans-serif; font-size: 12px; font-weight: 200;" x="798.8739208129612" y="0" dx="0em" dy="0.95em" fill="rgb(50, 49, 63)" stroke="none" stroke-width="1px">80</text></g><line x1="0" y1="0" x2="858.4679985046387" y2="0" fill="rgb(0, 0, 0)" stroke="rgb(204, 204, 204)" stroke-width="1px"></line></g></g></g></g></svg>