<svg viewBox="0 0 811.388916015625 400.0000305175781" xmlns="http://www.w3.org/2000/svg"><g><g><g><g><g><line x1="41.171875" y1="337.9415683935825" x2="36.171875" y2="337.9415683935825" style="visibility: inherit;" fill="rgb(0, 0, 0)" stroke="rgb(204, 204, 204)" stroke-width="1px"></line><line x1="41.171875" y1="308.5224446738863" x2="36.171875" y2="308.5224446738863" style="visibility: inherit;" fill="rgb(0, 0, 0)" stroke="rgb(204, 204, 204)" stroke-width="1px"></line><line x1="41.171875" y1="287.64924421309644" x2="36.171875" y2="287.64924421309644" style="visibility: inherit;" fill="rgb(0, 0, 0)" stroke="rgb(204, 204, 204)" stroke-width="1px"></line><line x1="41.171875" y1="271.4587321022149" x2="36.171875" y2="271.4587321022149" style="visibility: inherit;" fill="rgb(0, 0, 0)" stroke="rgb(204, 204, 204)" stroke-width="1px"></line><line x1="41.171875" y1="258.23012049340025" x2="36.171875" y2="258.23012049340025" style="visibility: inherit;" fill="rgb(0, 0, 0)" stroke="rgb(204, 204, 204)" stroke-width="1px"></line><line x1="41.171875" y1="247.04548874426436" x2="36.171875" y2="247.04548874426436" style="visibility: inherit;" fill="rgb(0, 0, 0)" stroke="rgb(204, 204, 204)" stroke-width="1px"></line><line x1="41.171875" y1="237.3569200326104" x2="36.171875" y2="237.3569200326104" style="visibility: inherit;" fill="rgb(0, 0, 0)" stroke="rgb(204, 204, 204)" stroke-width="1px"></line><line x1="41.171875" y1="228.81099677370406" x2="36.171875" y2="228.81099677370406" style="visibility: inherit;" fill="rgb(0, 0, 0)" stroke="rgb(204, 204, 204)" stroke-width="1px"></line><line x1="41.171875" y1="221.1664079217289" x2="36.171875" y2="221.1664079217289" style="visibility: inherit;" fill="rgb(0, 0, 0)" stroke="rgb(204, 204, 204)" stroke-width="1px"></line><line x1="41.171875" y1="170.87408374124283" x2="36.171875" y2="170.87408374124283" style="visibility: inherit;" fill="rgb(0, 0, 0)" stroke="rgb(204, 204, 204)" stroke-width="1px"></line><line x1="41.171875" y1="141.45496002154667" x2="36.171875" y2="141.45496002154667" style="visibility: inherit;" fill="rgb(0, 0, 0)" stroke="rgb(204, 204, 204)" stroke-width="1px"></line><line x1="41.171875" y1="120.58175956075677" x2="36.171875" y2="120.58175956075677" style="visibility: inherit;" fill="rgb(0, 0, 0)" stroke="rgb(204, 204, 204)" stroke-width="1px"></line><line x1="41.171875" y1="104.39124744987527" x2="36.171875" y2="104.39124744987527" style="visibility: inherit;" fill="rgb(0, 0, 0)" stroke="rgb(204, 204, 204)" stroke-width="1px"></line><line x1="41.171875" y1="91.16263584106059" x2="36.171875" y2="91.16263584106059" style="visibility: inherit;" fill="rgb(0, 0, 0)" stroke="rgb(204, 204, 204)" stroke-width="1px"></line><line x1="41.171875" y1="79.97800409192469" x2="36.171875" y2="79.97800409192469" style="visibility: inherit;" fill="rgb(0, 0, 0)" stroke="rgb(204, 204, 204)" stroke-width="1px"></line><line x1="41.171875" y1="70.28943538027077" x2="36.171875" y2="70.28943538027077" style="visibility: inherit;" fill="rgb(0, 0, 0)" stroke="rgb(204, 204, 204)" stroke-width="1px"></line><line x1="41.171875" y1="61.7435121213644" x2="36.171875" y2="61.7435121213644" style="visibility: inherit;" fill="rgb(0, 0, 0)" stroke="rgb(204, 204, 204)" stroke-width="1px"></line><line x1="41.171875" y1="54.098923269389225" x2="36.171875" y2="54.098923269389225" style="visibility: inherit;" fill="rgb(0, 0, 0)" stroke="rgb(204, 204, 204)" stroke-width="1px"></line><line x1="41.171875" y1="3.806599088903142" x2="36.171875" y2="3.806599088903142" style="visibility: inherit;" fill="rgb(0, 0, 0)" stroke="rgb(204, 204, 204)" stroke-width="1px"></line></g><g transform="translate(31.171875, 0)"><text x="0" y="337.9415683935825" dx="0em" dy="0.3em" style="text-anchor: end; visibility: inherit; font-family: Roboto, sans-serif; font-size: 12px; font-weight: 200;" fill="rgb(50, 49, 63)" stroke="none" stroke-width="1px">0.2</text><text x="0" y="308.5224446738863" dx="0em" dy="0.3em" style="text-anchor: end; visibility: hidden; font-family: Roboto, sans-serif; font-size: 12px; font-weight: 200;" fill="rgb(50, 49, 63)" stroke="none" stroke-width="1px">0.3</text><text x="0" y="287.64924421309644" dx="0em" dy="0.3em" style="text-anchor: end; visibility: hidden; font-family: Roboto, sans-serif; font-size: 12px; font-weight: 200;" fill="rgb(50, 49, 63)" stroke="none" stroke-width="1px">0.4</text><text x="0" y="271.4587321022149" dx="0em" dy="0.3em" style="text-anchor: end; visibility: inherit; font-family: Roboto, sans-serif; font-size: 12px; font-weight: 200;" fill="rgb(50, 49, 63)" stroke="none" stroke-width="1px">0.5</text><text x="0" y="258.23012049340025" dx="0em" dy="0.3em" style="text-anchor: end; visibility: hidden; font-family: Roboto, sans-serif; font-size: 12px; font-weight: 200;" fill="rgb(50, 49, 63)" stroke="none" stroke-width="1px">0.6</text><text x="0" y="247.04548874426436" dx="0em" dy="0.3em" style="text-anchor: end; visibility: hidden; font-family: Roboto, sans-serif; font-size: 12px; font-weight: 200;" fill="rgb(50, 49, 63)" stroke="none" stroke-width="1px">0.7</text><text x="0" y="237.3569200326104" dx="0em" dy="0.3em" style="text-anchor: end; visibility: inherit; font-family: Roboto, sans-serif; font-size: 12px; font-weight: 200;" fill="rgb(50, 49, 63)" stroke="none" stroke-width="1px">0.8</text><text x="0" y="228.81099677370406" dx="0em" dy="0.3em" style="text-anchor: end; visibility: hidden; font-family: Roboto, sans-serif; font-size: 12px; font-weight: 200;" fill="rgb(50, 49, 63)" stroke="none" stroke-width="1px">0.9</text><text x="0" y="221.1664079217289" dx="0em" dy="0.3em" style="text-anchor: end; visibility: hidden; font-family: Roboto, sans-serif; font-size: 12px; font-weight: 200;" fill="rgb(50, 49, 63)" stroke="none" stroke-width="1px">1</text><text x="0" y="170.87408374124283" dx="0em" dy="0.3em" style="text-anchor: end; visibility: inherit; font-family: Roboto, sans-serif; font-size: 12px; font-weight: 200;" fill="rgb(50, 49, 63)" stroke="none" stroke-width="1px">2</text><text x="0" y="141.45496002154667" dx="0em" dy="0.3em" style="text-anchor: end; visibility: hidden; font-family: Roboto, sans-serif; font-size: 12px; font-weight: 200;" fill="rgb(50, 49, 63)" stroke="none" stroke-width="1px">3</text><text x="0" y="120.58175956075677" dx="0em" dy="0.3em" style="text-anchor: end; visibility: hidden; font-family: Roboto, sans-serif; font-size: 12px; font-weight: 200;" fill="rgb(50, 49, 63)" stroke="none" stroke-width="1px">4</text><text x="0" y="104.39124744987527" dx="0em" dy="0.3em" style="text-anchor: end; visibility: inherit; font-family: Roboto, sans-serif; font-size: 12px; font-weight: 200;" fill="rgb(50, 49, 63)" stroke="none" stroke-width="1px">5</text><text x="0" y="91.16263584106059" dx="0em" dy="0.3em" style="text-anchor: end; visibility: hidden; font-family: Roboto, sans-serif; font-size: 12px; font-weight: 200;" fill="rgb(50, 49, 63)" stroke="none" stroke-width="1px">6</text><text x="0" y="79.97800409192469" dx="0em" dy="0.3em" style="text-anchor: end; visibility: hidden; font-family: Roboto, sans-serif; font-size: 12px; font-weight: 200;" fill="rgb(50, 49, 63)" stroke="none" stroke-width="1px">7</text><text x="0" y="70.28943538027077" dx="0em" dy="0.3em" style="text-anchor: end; visibility: inherit; font-family: Roboto, sans-serif; font-size: 12px; font-weight: 200;" fill="rgb(50, 49, 63)" stroke="none" stroke-width="1px">8</text><text x="0" y="61.7435121213644" dx="0em" dy="0.3em" style="text-anchor: end; visibility: hidden; font-family: Roboto, sans-serif; font-size: 12px; font-weight: 200;" fill="rgb(50, 49, 63)" stroke="none" stroke-width="1px">9</text><text x="0" y="54.098923269389225" dx="0em" dy="0.3em" style="text-anchor: end; visibility: hidden; font-family: Roboto, sans-serif; font-size: 12px; font-weight: 200;" fill="rgb(50, 49, 63)" stroke="none" stroke-width="1px">10</text><text x="0" y="3.806599088903142" dx="0em" dy="0.3em" style="text-anchor: end; visibility: hidden; font-family: Roboto, sans-serif; font-size: 12px; font-weight: 200;" fill="rgb(50, 49, 63)" stroke="none" stroke-width="1px">20</text></g><line x1="41.171875" y1="0" x2="41.171875" y2="378" fill="rgb(0, 0, 0)" stroke="rgb(204, 204, 204)" stroke-width="1px"></line></g></g><g transform="translate(41, 0)" clip-path="url(#clip_0)"><clipPath id="clip_0"><rect width="770" height="377"></rect></clipPath><g><g><g><line x1="0" y1="0" x2="0" y2="378" fill="rgb(0, 0, 0)" stroke="rgb(60, 60, 60)" stroke-width="1px" opacity="0.25"></line><line x1="64.18476041666666" y1="0" x2="64.18476041666666" y2="378" fill="rgb(0, 0, 0)" stroke="rgb(60, 60, 60)" stroke-width="1px" opacity="0.25"></line><line x1="128.36952083333333" y1="0" x2="128.36952083333333" y2="378" fill="rgb(0, 0, 0)" stroke="rgb(60, 60, 60)" stroke-width="1px" opacity="0.25"></line><line x1="192.55428125" y1="0" x2="192.55428125" y2="378" fill="rgb(0, 0, 0)" stroke="rgb(60, 60, 60)" stroke-width="1px" opacity="0.25"></line><line x1="256.73904166666665" y1="0" x2="256.73904166666665" y2="378" fill="rgb(0, 0, 0)" stroke="rgb(60, 60, 60)" stroke-width="1px" opacity="0.25"></line><line x1="320.9238020833333" y1="0" x2="320.9238020833333" y2="378" fill="rgb(0, 0, 0)" stroke="rgb(60, 60, 60)" stroke-width="1px" opacity="0.25"></line><line x1="385.1085625" y1="0" x2="385.1085625" y2="378" fill="rgb(0, 0, 0)" stroke="rgb(60, 60, 60)" stroke-width="1px" opacity="0.25"></line><line x1="449.2933229166667" y1="0" x2="449.2933229166667" y2="378" fill="rgb(0, 0, 0)" stroke="rgb(60, 60, 60)" stroke-width="1px" opacity="0.25"></line><line x1="513.4780833333333" y1="0" x2="513.4780833333333" y2="378" fill="rgb(0, 0, 0)" stroke="rgb(60, 60, 60)" stroke-width="1px" opacity="0.25"></line><line x1="577.66284375" y1="0" x2="577.66284375" y2="378" fill="rgb(0, 0, 0)" stroke="rgb(60, 60, 60)" stroke-width="1px" opacity="0.25"></line><line x1="641.8476041666667" y1="0" x2="641.8476041666667" y2="378" fill="rgb(0, 0, 0)" stroke="rgb(60, 60, 60)" stroke-width="1px" opacity="0.25"></line><line x1="706.0323645833333" y1="0" x2="706.0323645833333" y2="378" fill="rgb(0, 0, 0)" stroke="rgb(60, 60, 60)" stroke-width="1px" opacity="0.25"></line><line x1="770.217125" y1="0" x2="770.217125" y2="378" fill="rgb(0, 0, 0)" stroke="rgb(60, 60, 60)" stroke-width="1px" opacity="0.25"></line></g><g><line x1="0" y1="337.9415683935825" x2="770.217125" y2="337.9415683935825" fill="rgb(0, 0, 0)" stroke="rgb(60, 60, 60)" stroke-width="1px" opacity="0.25"></line><line x1="0" y1="308.5224446738863" x2="770.217125" y2="308.5224446738863" fill="rgb(0, 0, 0)" stroke="rgb(60, 60, 60)" stroke-width="1px" opacity="0.25"></line><line x1="0" y1="287.64924421309644" x2="770.217125" y2="287.64924421309644" fill="rgb(0, 0, 0)" stroke="rgb(60, 60, 60)" stroke-width="1px" opacity="0.25"></line><line x1="0" y1="271.4587321022149" x2="770.217125" y2="271.4587321022149" fill="rgb(0, 0, 0)" stroke="rgb(60, 60, 60)" stroke-width="1px" opacity="0.25"></line><line x1="0" y1="258.23012049340025" x2="770.217125" y2="258.23012049340025" fill="rgb(0, 0, 0)" stroke="rgb(60, 60, 60)" stroke-width="1px" opacity="0.25"></line><line x1="0" y1="247.04548874426436" x2="770.217125" y2="247.04548874426436" fill="rgb(0, 0, 0)" stroke="rgb(60, 60, 60)" stroke-width="1px" opacity="0.25"></line><line x1="0" y1="237.3569200326104" x2="770.217125" y2="237.3569200326104" fill="rgb(0, 0, 0)" stroke="rgb(60, 60, 60)" stroke-width="1px" opacity="0.25"></line><line x1="0" y1="228.81099677370406" x2="770.217125" y2="228.81099677370406" fill="rgb(0, 0, 0)" stroke="rgb(60, 60, 60)" stroke-width="1px" opacity="0.25"></line><line x1="0" y1="221.1664079217289" x2="770.217125" y2="221.1664079217289" fill="rgb(0, 0, 0)" stroke="rgb(60, 60, 60)" stroke-width="1px" opacity="0.25"></line><line x1="0" y1="170.87408374124283" x2="770.217125" y2="170.87408374124283" fill="rgb(0, 0, 0)" stroke="rgb(60, 60, 60)" stroke-width="1px" opacity="0.25"></line><line x1="0" y1="141.45496002154667" x2="770.217125" y2="141.45496002154667" fill="rgb(0, 0, 0)" stroke="rgb(60, 60, 60)" stroke-width="1px" opacity="0.25"></line><line x1="0" y1="120.58175956075677" x2="770.217125" y2="120.58175956075677" fill="rgb(0, 0, 0)" stroke="rgb(60, 60, 60)" stroke-width="1px" opacity="0.25"></line><line x1="0" y1="104.39124744987527" x2="770.217125" y2="104.39124744987527" fill="rgb(0, 0, 0)" stroke="rgb(60, 60, 60)" stroke-width="1px" opacity="0.25"></line><line x1="0" y1="91.16263584106059" x2="770.217125" y2="91.16263584106059" fill="rgb(0, 0, 0)" stroke="rgb(60, 60, 60)" stroke-width="1px" opacity="0.25"></line><line x1="0" y1="79.97800409192469" x2="770.217125" y2="79.97800409192469" fill="rgb(0, 0, 0)" stroke="rgb(60, 60, 60)" stroke-width="1px" opacity="0.25"></line><line x1="0" y1="70.28943538027077" x2="770.217125" y2="70.28943538027077" fill="rgb(0, 0, 0)" stroke="rgb(60, 60, 60)" stroke-width="1px" opacity="0.25"></line><line x1="0" y1="61.7435121213644" x2="770.217125" y2="61.7435121213644" fill="rgb(0, 0, 0)" stroke="rgb(60, 60, 60)" stroke-width="1px" opacity="0.25"></line><line x1="0" y1="54.098923269389225" x2="770.217125" y2="54.098923269389225" fill="rgb(0, 0, 0)" stroke="rgb(60, 60, 60)" stroke-width="1px" opacity="0.25"></line><line x1="0" y1="3.806599088903142" x2="770.217125" y2="3.806599088903142" fill="rgb(0, 0, 0)" stroke="rgb(60, 60, 60)" stroke-width="1px" opacity="0.25"></line></g></g></g><g><g><line x1="64.18476041666666" y1="0" x2="64.18476041666666" y2="378" fill="rgb(0, 0, 0)" stroke="rgb(153, 153, 153)" stroke-width="1.5px"></line></g></g><g><g><g><g><g><path stroke="rgb(204, 51, 17)" stroke-width="2px" d="M64.18476041666666,116.9409707964473L77.0217125,126.54255834529154L89.85866458333334,132.24938966670038L102.69561666666667,117.95760824748926L115.53256875,120.1122954626304L128.36952083333333,114.43941401093565L141.20647291666666,113.00028000372588L154.043425,113.02685299874108L166.88037708333334,98.90735008887191L179.71732916666667,101.80290958191392L192.55428125,84.04733585363645L205.39123333333333,91.78362607141982L218.22818541666666,100.56984272495647L231.0651375,90.67681419250489L243.90208958333332,92.55920967912024L256.73904166666665,84.55279120705387L269.57599375,86.79658836026783L282.4129458333333,85.68145349024488L295.24989791666667,82.45724680058981L308.08685,83.42111385525804L320.9238020833333,78.6483342739711L333.7607541666667,80.00738342616889L346.59770625,77.8519176756686L359.43465833333335,80.35551542449423L372.27161041666665,71.37188177531768L385.1085625,65.55175386217536L397.94551458333336,72.14309342533818L410.78246666666666,69.96157760533312L423.61941875,70.2123495794289L436.4563708333333,73.99354134951722L449.2933229166667,63.36345547227382L462.130275,66.14069027783178L474.96722708333334,63.11774584290842L487.80417916666664,62.19567911045383L500.64113125,60.628008178463276L513.4780833333333,61.24426004640952L526.3150354166667,57.14904800308723L539.1519875,53.9476679733941L551.9889395833334,55.532597717372475L564.8258916666666,55.147773365517594L577.66284375,54.0000000000001L590.4997958333333,51.053595803927045L603.3367479166667,51.46458854553183L616.1737,48.06621272280167L629.0106520833333,49.334554825641696L641.8476041666667,46.80996725862632L654.68455625,48.28131237934561L667.5215083333334,48.44151890176131L680.3584604166666,41.21589295078265L693.1954125,43.5217719925272" style="fill: none;" fill="none"></path></g><g><path stroke="rgb(51, 187, 238)" stroke-width="2px" d="M64.18476041666666,283.0115922996829L77.0217125,282.09884893294776L89.85866458333334,287.67631542024975L102.69561666666667,286.05778658429483L115.53256875,288.7338854944005L128.36952083333333,270.8765556945451L141.20647291666666,270.904026383581L154.043425,266.63235621072187L166.88037708333334,263.4666417582869L179.71732916666667,261.33431566565235L192.55428125,259.9534104849087L205.39123333333333,258.0085485212455L218.22818541666666,256.0367589980065L231.0651375,244.9834165805475L243.90208958333332,248.89000033604052L256.73904166666665,246.68919512231608L269.57599375,237.90690568129634L282.4129458333333,243.1007941563452L295.24989791666667,242.11586701984268L308.08685,242.1644863679545L320.9238020833333,236.56639841912965L333.7607541666667,232.32867575071054L346.59770625,241.1667059825851L359.43465833333335,237.40894756732695L372.27161041666665,237.75591375392028L385.1085625,232.79409106463348L397.94551458333336,227.97588880906744L410.78246666666666,226.73862537113052L423.61941875,227.58380156159055L436.4563708333333,223.92522982697017L449.2933229166667,221.1515151710055L462.130275,219.69436667555348L474.96722708333334,215.947970380223L487.80417916666664,217.01222266092174L500.64113125,220.0317706402338L513.4780833333333,216.82590269606985L526.3150354166667,208.36136350820377L539.1519875,214.139849100406L551.9889395833334,213.9625769862947L564.8258916666666,207.9726517038239L577.66284375,205.0497647407669L590.4997958333333,208.21912673067357L603.3367479166667,209.52501824534735L616.1737,207.4153231978808L629.0106520833333,202.96913524563166L641.8476041666667,205.93227057378283L654.68455625,202.78564440198096L667.5215083333334,200.94139181617973L680.3584604166666,203.11577851262794L693.1954125,198.19345027836792" style="fill: none;" fill="none"></path></g><g><path stroke="rgb(255, 112, 67)" stroke-width="2px" d="M64.18476041666666,290.84195896373984L77.0217125,304.7507487409242L89.85866458333334,312.0375739877461L102.69561666666667,317.47460778903184L115.53256875,320.8336430212577L128.36952083333333,323.83921296749446L141.20647291666666,325.0405226759283L154.043425,326.53877598370457L166.88037708333334,326.7185384960992L179.71732916666667,326.88135810487455L192.55428125,327.25179379811135L205.39123333333333,327.84039111115135L218.22818541666666,326.17201337211293L231.0651375,325.9528662359221L243.90208958333332,324.9568486711216L256.73904166666665,324.79338839925856L269.57599375,323.76523986378106L282.4129458333333,322.54738900187454L295.24989791666667,321.8394551564797L308.08685,322.19027655277216L320.9238020833333,321.17397674278976L333.7607541666667,318.6125686556813L346.59770625,317.247652525522L359.43465833333335,316.4621422935719L372.27161041666665,315.9508934700739L385.1085625,314.66723090272046L397.94551458333336,314.4415873183965L410.78246666666666,313.4486240716361L423.61941875,310.8537452347449L436.4563708333333,310.8083559509063L449.2933229166667,310.0781489772661L462.130275,309.25425590307293L474.96722708333334,308.2808700201253L487.80417916666664,307.1807225953532L500.64113125,307.4263418074249L513.4780833333333,306.5019022059619L526.3150354166667,306.1859336332536L539.1519875,304.5427272457739L551.9889395833334,303.9399845734343L564.8258916666666,302.04476980326507L577.66284375,303.19461160649803L590.4997958333333,300.92164151858356L603.3367479166667,299.5464863423092L616.1737,299.2614498215225L629.0106520833333,298.1529301614478L641.8476041666667,296.9083287819412L654.68455625,296.60997193712393L667.5215083333334,295.88464708327064L680.3584604166666,294.731485066263L693.1954125,293.4894466345221" style="fill: none;" fill="none"></path></g><g><path stroke="rgb(0, 119, 187)" stroke-width="2px" d="M64.18476041666666,213.87021938876183L77.0217125,245.7526474260701L89.85866458333334,261.1613897601407L102.69561666666667,270.3603360463874L115.53256875,276.6235614472824L128.36952083333333,281.3187714182645L141.20647291666666,285.0849267761072L154.043425,288.112880754225L166.88037708333334,290.6750404246565L179.71732916666667,293.03859407691834L192.55428125,295.07972519188655L205.39123333333333,296.9394492346698L218.22818541666666,298.7409136891446L231.0651375,300.3463744231909L243.90208958333332,301.7131945424176L256.73904166666665,303.1011943168473L269.57599375,304.4117730349928L282.4129458333333,305.6070721393433L295.24989791666667,306.6710866133707L308.08685,307.79190534822015L320.9238020833333,308.78690307161855L333.7607541666667,309.85146233120975L346.59770625,310.71808594559417L359.43465833333335,311.4078128914936L372.27161041666665,312.3065080082452L385.1085625,313.02002600607597L397.94551458333336,313.8102942776192L410.78246666666666,314.4561896689083L423.61941875,315.29337180441L436.4563708333333,315.8673876681294L449.2933229166667,316.42409256016737L462.130275,317.0205378834498L474.96722708333334,317.4673833968608L487.80417916666664,317.9613716819153L500.64113125,318.5410532267444L513.4780833333333,319.0587564007114L526.3150354166667,319.5102627705409L539.1519875,319.84047986504544L551.9889395833334,320.31173011542074L564.8258916666666,320.6948523104455L577.66284375,321.31300008139453L590.4997958333333,321.4579067671785L603.3367479166667,321.9134011818672L616.1737,322.2485985341739L629.0106520833333,322.5817425723509L641.8476041666667,322.74852385366484L654.68455625,323.04420253648817L667.5215083333334,323.4076416308423L680.3584604166666,323.6996978217606L693.1954125,324" style="fill: none;" fill="none"></path></g></g></g></g></g></g><g transform="translate(41, 378)" clip-path="url(#clip_1)"><clipPath id="clip_1"><rect width="770" height="21"></rect></clipPath><g><g><line x1="0" y1="0" x2="0" y2="5" style="visibility: inherit;" fill="rgb(0, 0, 0)" stroke="rgb(204, 204, 204)" stroke-width="1px"></line><line x1="64.18476041666666" y1="0" x2="64.18476041666666" y2="5" style="visibility: inherit;" fill="rgb(0, 0, 0)" stroke="rgb(204, 204, 204)" stroke-width="1px"></line><line x1="128.36952083333333" y1="0" x2="128.36952083333333" y2="5" style="visibility: inherit;" fill="rgb(0, 0, 0)" stroke="rgb(204, 204, 204)" stroke-width="1px"></line><line x1="192.55428125" y1="0" x2="192.55428125" y2="5" style="visibility: inherit;" fill="rgb(0, 0, 0)" stroke="rgb(204, 204, 204)" stroke-width="1px"></line><line x1="256.73904166666665" y1="0" x2="256.73904166666665" y2="5" style="visibility: inherit;" fill="rgb(0, 0, 0)" stroke="rgb(204, 204, 204)" stroke-width="1px"></line><line x1="320.9238020833333" y1="0" x2="320.9238020833333" y2="5" style="visibility: inherit;" fill="rgb(0, 0, 0)" stroke="rgb(204, 204, 204)" stroke-width="1px"></line><line x1="385.1085625" y1="0" x2="385.1085625" y2="5" style="visibility: inherit;" fill="rgb(0, 0, 0)" stroke="rgb(204, 204, 204)" stroke-width="1px"></line><line x1="449.2933229166667" y1="0" x2="449.2933229166667" y2="5" style="visibility: inherit;" fill="rgb(0, 0, 0)" stroke="rgb(204, 204, 204)" stroke-width="1px"></line><line x1="513.4780833333333" y1="0" x2="513.4780833333333" y2="5" style="visibility: inherit;" fill="rgb(0, 0, 0)" stroke="rgb(204, 204, 204)" stroke-width="1px"></line><line x1="577.66284375" y1="0" x2="577.66284375" y2="5" style="visibility: inherit;" fill="rgb(0, 0, 0)" stroke="rgb(204, 204, 204)" stroke-width="1px"></line><line x1="641.8476041666667" y1="0" x2="641.8476041666667" y2="5" style="visibility: inherit;" fill="rgb(0, 0, 0)" stroke="rgb(204, 204, 204)" stroke-width="1px"></line><line x1="706.0323645833333" y1="0" x2="706.0323645833333" y2="5" style="visibility: inherit;" fill="rgb(0, 0, 0)" stroke="rgb(204, 204, 204)" stroke-width="1px"></line><line x1="770.217125" y1="0" x2="770.217125" y2="5" style="visibility: inherit;" fill="rgb(0, 0, 0)" stroke="rgb(204, 204, 204)" stroke-width="1px"></line></g><g transform="translate(0, 8)"><text x="0" y="0" dx="0em" dy="0.95em" style="text-anchor: middle; visibility: hidden; font-family: Roboto, sans-serif; font-size: 12px; font-weight: 200;" fill="rgb(50, 49, 63)" stroke="none" stroke-width="1px">-5</text><text x="64.18476041666666" y="0" dx="0em" dy="0.95em" style="text-anchor: middle; visibility: inherit; font-family: Roboto, sans-serif; font-size: 12px; font-weight: 200;" fill="rgb(50, 49, 63)" stroke="none" stroke-width="1px">0</text><text x="128.36952083333333" y="0" dx="0em" dy="0.95em" style="text-anchor: middle; visibility: inherit; font-family: Roboto, sans-serif; font-size: 12px; font-weight: 200;" fill="rgb(50, 49, 63)" stroke="none" stroke-width="1px">5</text><text x="192.55428125" y="0" dx="0em" dy="0.95em" style="text-anchor: middle; visibility: inherit; font-family: Roboto, sans-serif; font-size: 12px; font-weight: 200;" fill="rgb(50, 49, 63)" stroke="none" stroke-width="1px">10</text><text x="256.73904166666665" y="0" dx="0em" dy="0.95em" style="text-anchor: middle; visibility: inherit; font-family: Roboto, sans-serif; font-size: 12px; font-weight: 200;" fill="rgb(50, 49, 63)" stroke="none" stroke-width="1px">15</text><text x="320.9238020833333" y="0" dx="0em" dy="0.95em" style="text-anchor: middle; visibility: inherit; font-family: Roboto, sans-serif; font-size: 12px; font-weight: 200;" fill="rgb(50, 49, 63)" stroke="none" stroke-width="1px">20</text><text x="385.1085625" y="0" dx="0em" dy="0.95em" style="text-anchor: middle; visibility: inherit; font-family: Roboto, sans-serif; font-size: 12px; font-weight: 200;" fill="rgb(50, 49, 63)" stroke="none" stroke-width="1px">25</text><text x="449.2933229166667" y="0" dx="0em" dy="0.95em" style="text-anchor: middle; visibility: inherit; font-family: Roboto, sans-serif; font-size: 12px; font-weight: 200;" fill="rgb(50, 49, 63)" stroke="none" stroke-width="1px">30</text><text x="513.4780833333333" y="0" dx="0em" dy="0.95em" style="text-anchor: middle; visibility: inherit; font-family: Roboto, sans-serif; font-size: 12px; font-weight: 200;" fill="rgb(50, 49, 63)" stroke="none" stroke-width="1px">35</text><text x="577.66284375" y="0" dx="0em" dy="0.95em" style="text-anchor: middle; visibility: inherit; font-family: Roboto, sans-serif; font-size: 12px; font-weight: 200;" fill="rgb(50, 49, 63)" stroke="none" stroke-width="1px">40</text><text x="641.8476041666667" y="0" dx="0em" dy="0.95em" style="text-anchor: middle; visibility: inherit; font-family: Roboto, sans-serif; font-size: 12px; font-weight: 200;" fill="rgb(50, 49, 63)" stroke="none" stroke-width="1px">45</text><text x="706.0323645833333" y="0" dx="0em" dy="0.95em" style="text-anchor: middle; visibility: inherit; font-family: Roboto, sans-serif; font-size: 12px; font-weight: 200;" fill="rgb(50, 49, 63)" stroke="none" stroke-width="1px">50</text><text x="770.217125" y="0" dx="0em" dy="0.95em" style="text-anchor: middle; visibility: hidden; font-family: Roboto, sans-serif; font-size: 12px; font-weight: 200;" fill="rgb(50, 49, 63)" stroke="none" stroke-width="1px">55</text></g><line x1="0" y1="0" x2="770.217125" y2="0" fill="rgb(0, 0, 0)" stroke="rgb(204, 204, 204)" stroke-width="1px"></line></g></g></g></g></svg>