<svg viewBox="0 0 811.388916015625 400.0000305175781" xmlns="http://www.w3.org/2000/svg"><g><g><g><g><g><line x1="30" y1="378" x2="25" y2="378" style="visibility: inherit;" fill="rgb(0, 0, 0)" stroke="rgb(204, 204, 204)" stroke-width="1px"></line><line x1="30" y1="348.92307692307696" x2="25" y2="348.92307692307696" style="visibility: inherit;" fill="rgb(0, 0, 0)" stroke="rgb(204, 204, 204)" stroke-width="1px"></line><line x1="30" y1="319.84615384615387" x2="25" y2="319.84615384615387" style="visibility: inherit;" fill="rgb(0, 0, 0)" stroke="rgb(204, 204, 204)" stroke-width="1px"></line><line x1="30" y1="290.7692307692307" x2="25" y2="290.7692307692307" style="visibility: inherit;" fill="rgb(0, 0, 0)" stroke="rgb(204, 204, 204)" stroke-width="1px"></line><line x1="30" y1="261.6923076923077" x2="25" y2="261.6923076923077" style="visibility: inherit;" fill="rgb(0, 0, 0)" stroke="rgb(204, 204, 204)" stroke-width="1px"></line><line x1="30" y1="232.61538461538464" x2="25" y2="232.61538461538464" style="visibility: inherit;" fill="rgb(0, 0, 0)" stroke="rgb(204, 204, 204)" stroke-width="1px"></line><line x1="30" y1="203.53846153846152" x2="25" y2="203.53846153846152" style="visibility: inherit;" fill="rgb(0, 0, 0)" stroke="rgb(204, 204, 204)" stroke-width="1px"></line><line x1="30" y1="174.46153846153848" x2="25" y2="174.46153846153848" style="visibility: inherit;" fill="rgb(0, 0, 0)" stroke="rgb(204, 204, 204)" stroke-width="1px"></line><line x1="30" y1="145.38461538461536" x2="25" y2="145.38461538461536" style="visibility: inherit;" fill="rgb(0, 0, 0)" stroke="rgb(204, 204, 204)" stroke-width="1px"></line><line x1="30" y1="116.30769230769232" x2="25" y2="116.30769230769232" style="visibility: inherit;" fill="rgb(0, 0, 0)" stroke="rgb(204, 204, 204)" stroke-width="1px"></line><line x1="30" y1="87.23076923076921" x2="25" y2="87.23076923076921" style="visibility: inherit;" fill="rgb(0, 0, 0)" stroke="rgb(204, 204, 204)" stroke-width="1px"></line><line x1="30" y1="58.15384615384616" x2="25" y2="58.15384615384616" style="visibility: inherit;" fill="rgb(0, 0, 0)" stroke="rgb(204, 204, 204)" stroke-width="1px"></line><line x1="30" y1="29.07692307692306" x2="25" y2="29.07692307692306" style="visibility: inherit;" fill="rgb(0, 0, 0)" stroke="rgb(204, 204, 204)" stroke-width="1px"></line><line x1="30" y1="0" x2="25" y2="0" style="visibility: inherit;" fill="rgb(0, 0, 0)" stroke="rgb(204, 204, 204)" stroke-width="1px"></line></g><g transform="translate(20, 0)"><text x="0" y="378" dx="0em" dy="0.3em" style="text-anchor: end; visibility: hidden; font-family: Roboto, sans-serif; font-size: 12px; font-weight: 200;" fill="rgb(50, 49, 63)" stroke="none" stroke-width="1px">-1</text><text x="0" y="348.92307692307696" dx="0em" dy="0.3em" style="text-anchor: end; visibility: inherit; font-family: Roboto, sans-serif; font-size: 12px; font-weight: 200;" fill="rgb(50, 49, 63)" stroke="none" stroke-width="1px">0</text><text x="0" y="319.84615384615387" dx="0em" dy="0.3em" style="text-anchor: end; visibility: inherit; font-family: Roboto, sans-serif; font-size: 12px; font-weight: 200;" fill="rgb(50, 49, 63)" stroke="none" stroke-width="1px">1</text><text x="0" y="290.7692307692307" dx="0em" dy="0.3em" style="text-anchor: end; visibility: inherit; font-family: Roboto, sans-serif; font-size: 12px; font-weight: 200;" fill="rgb(50, 49, 63)" stroke="none" stroke-width="1px">2</text><text x="0" y="261.6923076923077" dx="0em" dy="0.3em" style="text-anchor: end; visibility: inherit; font-family: Roboto, sans-serif; font-size: 12px; font-weight: 200;" fill="rgb(50, 49, 63)" stroke="none" stroke-width="1px">3</text><text x="0" y="232.61538461538464" dx="0em" dy="0.3em" style="text-anchor: end; visibility: inherit; font-family: Roboto, sans-serif; font-size: 12px; font-weight: 200;" fill="rgb(50, 49, 63)" stroke="none" stroke-width="1px">4</text><text x="0" y="203.53846153846152" dx="0em" dy="0.3em" style="text-anchor: end; visibility: inherit; font-family: Roboto, sans-serif; font-size: 12px; font-weight: 200;" fill="rgb(50, 49, 63)" stroke="none" stroke-width="1px">5</text><text x="0" y="174.46153846153848" dx="0em" dy="0.3em" style="text-anchor: end; visibility: inherit; font-family: Roboto, sans-serif; font-size: 12px; font-weight: 200;" fill="rgb(50, 49, 63)" stroke="none" stroke-width="1px">6</text><text x="0" y="145.38461538461536" dx="0em" dy="0.3em" style="text-anchor: end; visibility: inherit; font-family: Roboto, sans-serif; font-size: 12px; font-weight: 200;" fill="rgb(50, 49, 63)" stroke="none" stroke-width="1px">7</text><text x="0" y="116.30769230769232" dx="0em" dy="0.3em" style="text-anchor: end; visibility: inherit; font-family: Roboto, sans-serif; font-size: 12px; font-weight: 200;" fill="rgb(50, 49, 63)" stroke="none" stroke-width="1px">8</text><text x="0" y="87.23076923076921" dx="0em" dy="0.3em" style="text-anchor: end; visibility: inherit; font-family: Roboto, sans-serif; font-size: 12px; font-weight: 200;" fill="rgb(50, 49, 63)" stroke="none" stroke-width="1px">9</text><text x="0" y="58.15384615384616" dx="0em" dy="0.3em" style="text-anchor: end; visibility: inherit; font-family: Roboto, sans-serif; font-size: 12px; font-weight: 200;" fill="rgb(50, 49, 63)" stroke="none" stroke-width="1px">10</text><text x="0" y="29.07692307692306" dx="0em" dy="0.3em" style="text-anchor: end; visibility: inherit; font-family: Roboto, sans-serif; font-size: 12px; font-weight: 200;" fill="rgb(50, 49, 63)" stroke="none" stroke-width="1px">11</text><text x="0" y="0" dx="0em" dy="0.3em" style="text-anchor: end; visibility: hidden; font-family: Roboto, sans-serif; font-size: 12px; font-weight: 200;" fill="rgb(50, 49, 63)" stroke="none" stroke-width="1px">12</text></g><line x1="30" y1="0" x2="30" y2="378" fill="rgb(0, 0, 0)" stroke="rgb(204, 204, 204)" stroke-width="1px"></line></g></g><g transform="translate(30, 0)" clip-path="url(#clip_0)"><clipPath id="clip_0"><rect width="781" height="377"></rect></clipPath><g><g><g><line x1="0" y1="0" x2="0" y2="378" fill="rgb(0, 0, 0)" stroke="rgb(60, 60, 60)" stroke-width="1px" opacity="0.25"></line><line x1="65.11574999999999" y1="0" x2="65.11574999999999" y2="378" fill="rgb(0, 0, 0)" stroke="rgb(60, 60, 60)" stroke-width="1px" opacity="0.25"></line><line x1="130.23149999999998" y1="0" x2="130.23149999999998" y2="378" fill="rgb(0, 0, 0)" stroke="rgb(60, 60, 60)" stroke-width="1px" opacity="0.25"></line><line x1="195.34725" y1="0" x2="195.34725" y2="378" fill="rgb(0, 0, 0)" stroke="rgb(60, 60, 60)" stroke-width="1px" opacity="0.25"></line><line x1="260.46299999999997" y1="0" x2="260.46299999999997" y2="378" fill="rgb(0, 0, 0)" stroke="rgb(60, 60, 60)" stroke-width="1px" opacity="0.25"></line><line x1="325.57875" y1="0" x2="325.57875" y2="378" fill="rgb(0, 0, 0)" stroke="rgb(60, 60, 60)" stroke-width="1px" opacity="0.25"></line><line x1="390.6945" y1="0" x2="390.6945" y2="378" fill="rgb(0, 0, 0)" stroke="rgb(60, 60, 60)" stroke-width="1px" opacity="0.25"></line><line x1="455.81025000000005" y1="0" x2="455.81025000000005" y2="378" fill="rgb(0, 0, 0)" stroke="rgb(60, 60, 60)" stroke-width="1px" opacity="0.25"></line><line x1="520.9259999999999" y1="0" x2="520.9259999999999" y2="378" fill="rgb(0, 0, 0)" stroke="rgb(60, 60, 60)" stroke-width="1px" opacity="0.25"></line><line x1="586.04175" y1="0" x2="586.04175" y2="378" fill="rgb(0, 0, 0)" stroke="rgb(60, 60, 60)" stroke-width="1px" opacity="0.25"></line><line x1="651.1575" y1="0" x2="651.1575" y2="378" fill="rgb(0, 0, 0)" stroke="rgb(60, 60, 60)" stroke-width="1px" opacity="0.25"></line><line x1="716.27325" y1="0" x2="716.27325" y2="378" fill="rgb(0, 0, 0)" stroke="rgb(60, 60, 60)" stroke-width="1px" opacity="0.25"></line><line x1="781.389" y1="0" x2="781.389" y2="378" fill="rgb(0, 0, 0)" stroke="rgb(60, 60, 60)" stroke-width="1px" opacity="0.25"></line></g><g><line x1="0" y1="378" x2="781.389" y2="378" fill="rgb(0, 0, 0)" stroke="rgb(60, 60, 60)" stroke-width="1px" opacity="0.25"></line><line x1="0" y1="348.92307692307696" x2="781.389" y2="348.92307692307696" fill="rgb(0, 0, 0)" stroke="rgb(60, 60, 60)" stroke-width="1px" opacity="0.25"></line><line x1="0" y1="319.84615384615387" x2="781.389" y2="319.84615384615387" fill="rgb(0, 0, 0)" stroke="rgb(60, 60, 60)" stroke-width="1px" opacity="0.25"></line><line x1="0" y1="290.7692307692307" x2="781.389" y2="290.7692307692307" fill="rgb(0, 0, 0)" stroke="rgb(60, 60, 60)" stroke-width="1px" opacity="0.25"></line><line x1="0" y1="261.6923076923077" x2="781.389" y2="261.6923076923077" fill="rgb(0, 0, 0)" stroke="rgb(60, 60, 60)" stroke-width="1px" opacity="0.25"></line><line x1="0" y1="232.61538461538464" x2="781.389" y2="232.61538461538464" fill="rgb(0, 0, 0)" stroke="rgb(60, 60, 60)" stroke-width="1px" opacity="0.25"></line><line x1="0" y1="203.53846153846152" x2="781.389" y2="203.53846153846152" fill="rgb(0, 0, 0)" stroke="rgb(60, 60, 60)" stroke-width="1px" opacity="0.25"></line><line x1="0" y1="174.46153846153848" x2="781.389" y2="174.46153846153848" fill="rgb(0, 0, 0)" stroke="rgb(60, 60, 60)" stroke-width="1px" opacity="0.25"></line><line x1="0" y1="145.38461538461536" x2="781.389" y2="145.38461538461536" fill="rgb(0, 0, 0)" stroke="rgb(60, 60, 60)" stroke-width="1px" opacity="0.25"></line><line x1="0" y1="116.30769230769232" x2="781.389" y2="116.30769230769232" fill="rgb(0, 0, 0)" stroke="rgb(60, 60, 60)" stroke-width="1px" opacity="0.25"></line><line x1="0" y1="87.23076923076921" x2="781.389" y2="87.23076923076921" fill="rgb(0, 0, 0)" stroke="rgb(60, 60, 60)" stroke-width="1px" opacity="0.25"></line><line x1="0" y1="58.15384615384616" x2="781.389" y2="58.15384615384616" fill="rgb(0, 0, 0)" stroke="rgb(60, 60, 60)" stroke-width="1px" opacity="0.25"></line><line x1="0" y1="29.07692307692306" x2="781.389" y2="29.07692307692306" fill="rgb(0, 0, 0)" stroke="rgb(60, 60, 60)" stroke-width="1px" opacity="0.25"></line><line x1="0" y1="0" x2="781.389" y2="0" fill="rgb(0, 0, 0)" stroke="rgb(60, 60, 60)" stroke-width="1px" opacity="0.25"></line></g></g></g><g><g><line x1="0" y1="348.92307692307696" x2="781.389" y2="348.92307692307696" fill="rgb(0, 0, 0)" stroke="rgb(153, 153, 153)" stroke-width="1.5px"></line></g></g><g><g><line x1="65.11574999999999" y1="0" x2="65.11574999999999" y2="378" fill="rgb(0, 0, 0)" stroke="rgb(153, 153, 153)" stroke-width="1.5px"></line></g></g><g><g><g><g><g><path stroke="rgb(204, 51, 17)" stroke-width="2px" d="M65.11574999999999,226.6303123327402L78.1389,241.7885513305664L91.16205000000001,249.89220296419583L104.1852,228.33188922588644L117.20835,231.8603960917546L130.23149999999998,222.3404529278095L143.25465,219.80466314462512L156.2778,219.85194264925443L169.30095,192.12421857393704L182.32410000000002,198.25847779787503L195.34725,156.48585693652814L208.3704,175.94833330007702L221.39355,195.67611562288724L234.4167,173.28946429032547L247.43984999999998,177.7874783002413L260.46299999999997,157.82178717393143L273.48615,163.64111775618332L286.5093,160.7714875294612L299.53245000000004,152.2220081916222L312.5556,154.81777778038614L325.57875,141.62018240415134L338.6019,145.4670148262611L351.62505,139.33218713907092L364.64820000000003,146.44087556692273L377.67135,119.75224685668945L390.6945,100.61186731778659L403.71765000000005,122.17523134671725L416.7408,115.25420511685886L429.76395,116.06042465796837L442.7871,127.88498717087968L455.81025000000005,93.00874064518854L468.8334,102.61923584571251L481.85655,92.1406279343825L494.87969999999996,88.85654640197754L507.90285,83.17635066692644L520.9259999999999,85.42388798640326L533.94915,70.12382433964655L546.9723,57.54706015953652L559.99545,63.84288773169883L573.0186,62.32686556302585L586.04175,57.75714199359602L599.0649000000001,45.68999818655162L612.08805,47.40279183020957L625.1112,32.944331095768874L638.13435,38.419880060049216L651.1575,27.425828493558456L664.18065,33.87968884981595L677.2038,34.57454505333535L690.22695,1.6579438723050728L703.2501,12.520666562593888" style="fill: none;" fill="none"></path></g><g><path stroke="rgb(51, 187, 238)" stroke-width="2px" d="M65.11574999999999,336.52462129409497L78.1389,336.36766651043524L91.16205000000001,337.29664638409247L104.1852,337.03437945017447L117.20835,337.4648820436918L130.23149999999998,334.26749289035797L143.25465,334.27304060642535L156.2778,333.38464346298804L169.30095,332.6916780930299L182.32410000000002,332.20758310648114L195.34725,331.8864048352608L208.3704,331.4235648283592L221.39355,330.9414785275093L234.4167,327.98247131934534L247.43984999999998,329.08013919683606L260.46299999999997,328.46903600142554L273.48615,325.83719672606543L286.5093,327.43201518058777L299.53245000000004,327.138292991198L312.5556,327.15288585882917L325.57875,325.4067123303047L338.6019,323.99231683290924L351.62505,326.8514391550651L364.64820000000003,325.6782124592708L377.67135,325.7891043883103L390.6945,324.1517239809036L403.71765000000005,322.4509044610537L416.7408,321.9956191227986L429.76395,322.30746454458966L442.7871,320.9309931718386L455.81025000000005,319.8401849820064L468.8334,319.25021024850696L481.85655,317.6778304943672L494.87969999999996,318.1327882730044L507.90285,319.3878754102267L520.9259999999999,318.0536193664257L533.94915,314.2338686722976L546.9723,316.8894100922805L559.99545,316.8110488194686L573.0186,314.04752711149365L586.04175,312.6139078507057L599.0649000000001,314.165798664093L612.08805,314.78577369910016L625.1112,313.77860586459815L638.13435,311.5576338034409L651.1575,313.05286200229943L664.18065,311.4630193343529L677.2038,310.4986491570106L690.22695,311.6330765027267L703.2501,309.0154869373028" style="fill: none;" fill="none"></path></g><g><path stroke="rgb(255, 112, 67)" stroke-width="2px" d="M65.11574999999999,337.79300145919507L78.1389,339.7345565007283L91.16205000000001,340.6125315290231L104.1852,341.2125228276619L117.20835,341.5613495569963L130.23149999999998,341.8600709300775L143.25465,341.9760495653519L156.2778,342.11803106161267L169.30095,342.13487005233765L182.32410000000002,342.15008597649063L195.34725,342.1845772243463L208.3704,342.2390205791363L221.39355,342.0835454463959L234.4167,342.0628563303214L247.43984999999998,341.9680334535929L260.46299999999997,341.95234698744923L273.48615,341.85286635160446L286.5093,341.7331922719112L299.53245000000004,341.6626971960068L312.5556,341.6977174786421L325.57875,341.5957996432598L338.6019,341.33251016873584L351.62505,341.1883666056853L364.64820000000003,341.10417425173983L377.67135,341.0488860011101L390.6945,340.9083369282576L403.71765000000005,340.8833730725142L416.7408,340.7725903300139L429.76395,340.47582478248154L442.7871,340.4705387674845L455.81025000000005,340.38504310754627L468.8334,340.28753952796643L481.85655,340.1709083731358L494.87969999999996,340.037191258027L507.90285,340.06722102256924L520.9259999999999,339.95366702171475L533.94915,339.914521914262L546.9723,339.7081749530939L559.99545,339.63130589631885L573.0186,339.3854022117761L586.04175,339.5353595247635L599.0649000000001,339.2366164876865L612.08805,339.05127926973194L625.1112,339.0124218601447L638.13435,338.8598440702145L651.1575,338.6857348680496L664.18065,338.6435516018134L677.2038,338.54027500060886L690.22695,338.373939706729L703.2501,338.1918026942473" style="fill: none;" fill="none"></path></g><g><path stroke="rgb(0, 119, 187)" stroke-width="2px" d="M65.11574999999999,316.7701471952292L78.1389,328.20330716096436L91.16205000000001,332.167697090369L104.1852,334.1628505908526L117.20835,335.3835396354015L130.23149999999998,336.23195110834564L143.25465,336.87389863454376L156.2778,337.3663914524592L169.30095,337.7673668861389L182.32410000000002,338.1249129405388L195.34725,338.4244497464253L208.3704,338.6901248601767L221.39355,338.9410649904838L234.4167,339.15951172663614L247.43984999999998,339.341716330785L260.46299999999997,339.5232649491383L273.48615,339.6915283386524L286.5093,339.84236347675323L299.53245000000004,339.9745571796711L312.5556,340.11172753572464L325.57875,340.2317365407944L338.6019,340.35832620125547L351.62505,340.46001613140106L364.64820000000003,340.5400853936489L377.67135,340.6432779385494L390.6945,340.724302149736L403.71765000000005,340.8131167338444L416.7408,340.8849909397272L429.76395,340.97720417151083L442.7871,341.03981831899057L455.81025000000005,341.10007282403797L468.8334,341.16411766180624L481.85655,341.21175505564764L494.87969999999996,341.26407793852L507.90285,341.32502482487604L520.9259999999999,341.37904529846634L533.94915,341.4258447289467L546.9723,341.4598883986473L559.99545,341.50820430883994L573.0186,341.5472540947107L586.04175,341.6098257807585L599.0649000000001,341.62441691527L612.08805,341.67009285092354L625.1112,341.7035229962606L638.13435,341.73659568566546L651.1575,341.7530958514947L664.18065,341.7822551566821L677.2038,341.81793445807233L690.22695,341.8464767726568L703.2501,341.875705402631" style="fill: none;" fill="none"></path></g></g></g></g></g></g><g transform="translate(30, 378)" clip-path="url(#clip_1)"><clipPath id="clip_1"><rect width="781" height="21"></rect></clipPath><g><g><line x1="0" y1="0" x2="0" y2="5" style="visibility: inherit;" fill="rgb(0, 0, 0)" stroke="rgb(204, 204, 204)" stroke-width="1px"></line><line x1="65.11574999999999" y1="0" x2="65.11574999999999" y2="5" style="visibility: inherit;" fill="rgb(0, 0, 0)" stroke="rgb(204, 204, 204)" stroke-width="1px"></line><line x1="130.23149999999998" y1="0" x2="130.23149999999998" y2="5" style="visibility: inherit;" fill="rgb(0, 0, 0)" stroke="rgb(204, 204, 204)" stroke-width="1px"></line><line x1="195.34725" y1="0" x2="195.34725" y2="5" style="visibility: inherit;" fill="rgb(0, 0, 0)" stroke="rgb(204, 204, 204)" stroke-width="1px"></line><line x1="260.46299999999997" y1="0" x2="260.46299999999997" y2="5" style="visibility: inherit;" fill="rgb(0, 0, 0)" stroke="rgb(204, 204, 204)" stroke-width="1px"></line><line x1="325.57875" y1="0" x2="325.57875" y2="5" style="visibility: inherit;" fill="rgb(0, 0, 0)" stroke="rgb(204, 204, 204)" stroke-width="1px"></line><line x1="390.6945" y1="0" x2="390.6945" y2="5" style="visibility: inherit;" fill="rgb(0, 0, 0)" stroke="rgb(204, 204, 204)" stroke-width="1px"></line><line x1="455.81025000000005" y1="0" x2="455.81025000000005" y2="5" style="visibility: inherit;" fill="rgb(0, 0, 0)" stroke="rgb(204, 204, 204)" stroke-width="1px"></line><line x1="520.9259999999999" y1="0" x2="520.9259999999999" y2="5" style="visibility: inherit;" fill="rgb(0, 0, 0)" stroke="rgb(204, 204, 204)" stroke-width="1px"></line><line x1="586.04175" y1="0" x2="586.04175" y2="5" style="visibility: inherit;" fill="rgb(0, 0, 0)" stroke="rgb(204, 204, 204)" stroke-width="1px"></line><line x1="651.1575" y1="0" x2="651.1575" y2="5" style="visibility: inherit;" fill="rgb(0, 0, 0)" stroke="rgb(204, 204, 204)" stroke-width="1px"></line><line x1="716.27325" y1="0" x2="716.27325" y2="5" style="visibility: inherit;" fill="rgb(0, 0, 0)" stroke="rgb(204, 204, 204)" stroke-width="1px"></line><line x1="781.389" y1="0" x2="781.389" y2="5" style="visibility: inherit;" fill="rgb(0, 0, 0)" stroke="rgb(204, 204, 204)" stroke-width="1px"></line></g><g transform="translate(0, 8)"><text x="0" y="0" dx="0em" dy="0.95em" style="text-anchor: middle; visibility: hidden; font-family: Roboto, sans-serif; font-size: 12px; font-weight: 200;" fill="rgb(50, 49, 63)" stroke="none" stroke-width="1px">-5</text><text x="65.11574999999999" y="0" dx="0em" dy="0.95em" style="text-anchor: middle; visibility: inherit; font-family: Roboto, sans-serif; font-size: 12px; font-weight: 200;" fill="rgb(50, 49, 63)" stroke="none" stroke-width="1px">0</text><text x="130.23149999999998" y="0" dx="0em" dy="0.95em" style="text-anchor: middle; visibility: inherit; font-family: Roboto, sans-serif; font-size: 12px; font-weight: 200;" fill="rgb(50, 49, 63)" stroke="none" stroke-width="1px">5</text><text x="195.34725" y="0" dx="0em" dy="0.95em" style="text-anchor: middle; visibility: inherit; font-family: Roboto, sans-serif; font-size: 12px; font-weight: 200;" fill="rgb(50, 49, 63)" stroke="none" stroke-width="1px">10</text><text x="260.46299999999997" y="0" dx="0em" dy="0.95em" style="text-anchor: middle; visibility: inherit; font-family: Roboto, sans-serif; font-size: 12px; font-weight: 200;" fill="rgb(50, 49, 63)" stroke="none" stroke-width="1px">15</text><text x="325.57875" y="0" dx="0em" dy="0.95em" style="text-anchor: middle; visibility: inherit; font-family: Roboto, sans-serif; font-size: 12px; font-weight: 200;" fill="rgb(50, 49, 63)" stroke="none" stroke-width="1px">20</text><text x="390.6945" y="0" dx="0em" dy="0.95em" style="text-anchor: middle; visibility: inherit; font-family: Roboto, sans-serif; font-size: 12px; font-weight: 200;" fill="rgb(50, 49, 63)" stroke="none" stroke-width="1px">25</text><text x="455.81025000000005" y="0" dx="0em" dy="0.95em" style="text-anchor: middle; visibility: inherit; font-family: Roboto, sans-serif; font-size: 12px; font-weight: 200;" fill="rgb(50, 49, 63)" stroke="none" stroke-width="1px">30</text><text x="520.9259999999999" y="0" dx="0em" dy="0.95em" style="text-anchor: middle; visibility: inherit; font-family: Roboto, sans-serif; font-size: 12px; font-weight: 200;" fill="rgb(50, 49, 63)" stroke="none" stroke-width="1px">35</text><text x="586.04175" y="0" dx="0em" dy="0.95em" style="text-anchor: middle; visibility: inherit; font-family: Roboto, sans-serif; font-size: 12px; font-weight: 200;" fill="rgb(50, 49, 63)" stroke="none" stroke-width="1px">40</text><text x="651.1575" y="0" dx="0em" dy="0.95em" style="text-anchor: middle; visibility: inherit; font-family: Roboto, sans-serif; font-size: 12px; font-weight: 200;" fill="rgb(50, 49, 63)" stroke="none" stroke-width="1px">45</text><text x="716.27325" y="0" dx="0em" dy="0.95em" style="text-anchor: middle; visibility: inherit; font-family: Roboto, sans-serif; font-size: 12px; font-weight: 200;" fill="rgb(50, 49, 63)" stroke="none" stroke-width="1px">50</text><text x="781.389" y="0" dx="0em" dy="0.95em" style="text-anchor: middle; visibility: hidden; font-family: Roboto, sans-serif; font-size: 12px; font-weight: 200;" fill="rgb(50, 49, 63)" stroke="none" stroke-width="1px">55</text></g><line x1="0" y1="0" x2="781.389" y2="0" fill="rgb(0, 0, 0)" stroke="rgb(204, 204, 204)" stroke-width="1px"></line></g></g></g></g></svg>