<svg viewBox="0 0 859 400" xmlns="http://www.w3.org/2000/svg"><g><g><g><g><g><line x1="41.171875" y1="343.4992800920291" x2="36.171875" y2="343.4992800920291" style="visibility: inherit;" fill="rgb(0, 0, 0)" stroke="rgb(204, 204, 204)" stroke-width="1px"></line><line x1="41.171875" y1="299.2467429090355" x2="36.171875" y2="299.2467429090355" style="visibility: inherit;" fill="rgb(0, 0, 0)" stroke="rgb(204, 204, 204)" stroke-width="1px"></line><line x1="41.171875" y1="267.8490681067515" x2="36.171875" y2="267.8490681067515" style="visibility: inherit;" fill="rgb(0, 0, 0)" stroke="rgb(204, 204, 204)" stroke-width="1px"></line><line x1="41.171875" y1="243.4951394845059" x2="36.171875" y2="243.4951394845059" style="visibility: inherit;" fill="rgb(0, 0, 0)" stroke="rgb(204, 204, 204)" stroke-width="1px"></line><line x1="41.171875" y1="223.59653092375785" x2="36.171875" y2="223.59653092375785" style="visibility: inherit;" fill="rgb(0, 0, 0)" stroke="rgb(204, 204, 204)" stroke-width="1px"></line><line x1="41.171875" y1="206.77249710573636" x2="36.171875" y2="206.77249710573636" style="visibility: inherit;" fill="rgb(0, 0, 0)" stroke="rgb(204, 204, 204)" stroke-width="1px"></line><line x1="41.171875" y1="192.19885612147382" x2="36.171875" y2="192.19885612147382" style="visibility: inherit;" fill="rgb(0, 0, 0)" stroke="rgb(204, 204, 204)" stroke-width="1px"></line><line x1="41.171875" y1="179.34399374076423" x2="36.171875" y2="179.34399374076423" style="visibility: inherit;" fill="rgb(0, 0, 0)" stroke="rgb(204, 204, 204)" stroke-width="1px"></line><line x1="41.171875" y1="167.84492749922825" x2="36.171875" y2="167.84492749922825" style="visibility: inherit;" fill="rgb(0, 0, 0)" stroke="rgb(204, 204, 204)" stroke-width="1px"></line><line x1="41.171875" y1="92.19471551395061" x2="36.171875" y2="92.19471551395061" style="visibility: inherit;" fill="rgb(0, 0, 0)" stroke="rgb(204, 204, 204)" stroke-width="1px"></line><line x1="41.171875" y1="47.94217833095704" x2="36.171875" y2="47.94217833095704" style="visibility: inherit;" fill="rgb(0, 0, 0)" stroke="rgb(204, 204, 204)" stroke-width="1px"></line><line x1="41.171875" y1="16.54450352867296" x2="36.171875" y2="16.54450352867296" style="visibility: inherit;" fill="rgb(0, 0, 0)" stroke="rgb(204, 204, 204)" stroke-width="1px"></line></g><g transform="translate(31.171875, 0)"><text x="0" y="343.4992800920291" dx="0em" dy="0.3em" style="text-anchor: end; visibility: inherit; font-family: Roboto, sans-serif; font-size: 12px; font-weight: 200;" fill="rgb(50, 49, 63)" stroke="none" stroke-width="1px">0.2</text><text x="0" y="299.2467429090355" dx="0em" dy="0.3em" style="text-anchor: end; visibility: hidden; font-family: Roboto, sans-serif; font-size: 12px; font-weight: 200;" fill="rgb(50, 49, 63)" stroke="none" stroke-width="1px">0.3</text><text x="0" y="267.8490681067515" dx="0em" dy="0.3em" style="text-anchor: end; visibility: inherit; font-family: Roboto, sans-serif; font-size: 12px; font-weight: 200;" fill="rgb(50, 49, 63)" stroke="none" stroke-width="1px">0.4</text><text x="0" y="243.4951394845059" dx="0em" dy="0.3em" style="text-anchor: end; visibility: hidden; font-family: Roboto, sans-serif; font-size: 12px; font-weight: 200;" fill="rgb(50, 49, 63)" stroke="none" stroke-width="1px">0.5</text><text x="0" y="223.59653092375785" dx="0em" dy="0.3em" style="text-anchor: end; visibility: inherit; font-family: Roboto, sans-serif; font-size: 12px; font-weight: 200;" fill="rgb(50, 49, 63)" stroke="none" stroke-width="1px">0.6</text><text x="0" y="206.77249710573636" dx="0em" dy="0.3em" style="text-anchor: end; visibility: hidden; font-family: Roboto, sans-serif; font-size: 12px; font-weight: 200;" fill="rgb(50, 49, 63)" stroke="none" stroke-width="1px">0.7</text><text x="0" y="192.19885612147382" dx="0em" dy="0.3em" style="text-anchor: end; visibility: inherit; font-family: Roboto, sans-serif; font-size: 12px; font-weight: 200;" fill="rgb(50, 49, 63)" stroke="none" stroke-width="1px">0.8</text><text x="0" y="179.34399374076423" dx="0em" dy="0.3em" style="text-anchor: end; visibility: hidden; font-family: Roboto, sans-serif; font-size: 12px; font-weight: 200;" fill="rgb(50, 49, 63)" stroke="none" stroke-width="1px">0.9</text><text x="0" y="167.84492749922825" dx="0em" dy="0.3em" style="text-anchor: end; visibility: inherit; font-family: Roboto, sans-serif; font-size: 12px; font-weight: 200;" fill="rgb(50, 49, 63)" stroke="none" stroke-width="1px">1</text><text x="0" y="92.19471551395061" dx="0em" dy="0.3em" style="text-anchor: end; visibility: hidden; font-family: Roboto, sans-serif; font-size: 12px; font-weight: 200;" fill="rgb(50, 49, 63)" stroke="none" stroke-width="1px">2</text><text x="0" y="47.94217833095704" dx="0em" dy="0.3em" style="text-anchor: end; visibility: inherit; font-family: Roboto, sans-serif; font-size: 12px; font-weight: 200;" fill="rgb(50, 49, 63)" stroke="none" stroke-width="1px">3</text><text x="0" y="16.54450352867296" dx="0em" dy="0.3em" style="text-anchor: end; visibility: hidden; font-family: Roboto, sans-serif; font-size: 12px; font-weight: 200;" fill="rgb(50, 49, 63)" stroke="none" stroke-width="1px">4</text></g><line x1="41.171875" y1="0" x2="41.171875" y2="378" fill="rgb(0, 0, 0)" stroke="rgb(204, 204, 204)" stroke-width="1px"></line></g></g><g transform="translate(41, 0)" clip-path="url(#clip_0)"><clipPath id="clip_0"><rect width="817" height="378"></rect></clipPath><g><g><g><line x1="0" y1="0" x2="0" y2="378" fill="rgb(0, 0, 0)" stroke="rgb(60, 60, 60)" stroke-width="1px" opacity="0.25"></line><line x1="68.15234375" y1="0" x2="68.15234375" y2="378" fill="rgb(0, 0, 0)" stroke="rgb(60, 60, 60)" stroke-width="1px" opacity="0.25"></line><line x1="136.3046875" y1="0" x2="136.3046875" y2="378" fill="rgb(0, 0, 0)" stroke="rgb(60, 60, 60)" stroke-width="1px" opacity="0.25"></line><line x1="204.45703125" y1="0" x2="204.45703125" y2="378" fill="rgb(0, 0, 0)" stroke="rgb(60, 60, 60)" stroke-width="1px" opacity="0.25"></line><line x1="272.609375" y1="0" x2="272.609375" y2="378" fill="rgb(0, 0, 0)" stroke="rgb(60, 60, 60)" stroke-width="1px" opacity="0.25"></line><line x1="340.76171875" y1="0" x2="340.76171875" y2="378" fill="rgb(0, 0, 0)" stroke="rgb(60, 60, 60)" stroke-width="1px" opacity="0.25"></line><line x1="408.9140625" y1="0" x2="408.9140625" y2="378" fill="rgb(0, 0, 0)" stroke="rgb(60, 60, 60)" stroke-width="1px" opacity="0.25"></line><line x1="477.06640625000006" y1="0" x2="477.06640625000006" y2="378" fill="rgb(0, 0, 0)" stroke="rgb(60, 60, 60)" stroke-width="1px" opacity="0.25"></line><line x1="545.21875" y1="0" x2="545.21875" y2="378" fill="rgb(0, 0, 0)" stroke="rgb(60, 60, 60)" stroke-width="1px" opacity="0.25"></line><line x1="613.37109375" y1="0" x2="613.37109375" y2="378" fill="rgb(0, 0, 0)" stroke="rgb(60, 60, 60)" stroke-width="1px" opacity="0.25"></line><line x1="681.5234375" y1="0" x2="681.5234375" y2="378" fill="rgb(0, 0, 0)" stroke="rgb(60, 60, 60)" stroke-width="1px" opacity="0.25"></line><line x1="749.67578125" y1="0" x2="749.67578125" y2="378" fill="rgb(0, 0, 0)" stroke="rgb(60, 60, 60)" stroke-width="1px" opacity="0.25"></line><line x1="817.828125" y1="0" x2="817.828125" y2="378" fill="rgb(0, 0, 0)" stroke="rgb(60, 60, 60)" stroke-width="1px" opacity="0.25"></line></g><g><line x1="0" y1="343.4992800920291" x2="817.828125" y2="343.4992800920291" fill="rgb(0, 0, 0)" stroke="rgb(60, 60, 60)" stroke-width="1px" opacity="0.25"></line><line x1="0" y1="299.2467429090355" x2="817.828125" y2="299.2467429090355" fill="rgb(0, 0, 0)" stroke="rgb(60, 60, 60)" stroke-width="1px" opacity="0.25"></line><line x1="0" y1="267.8490681067515" x2="817.828125" y2="267.8490681067515" fill="rgb(0, 0, 0)" stroke="rgb(60, 60, 60)" stroke-width="1px" opacity="0.25"></line><line x1="0" y1="243.4951394845059" x2="817.828125" y2="243.4951394845059" fill="rgb(0, 0, 0)" stroke="rgb(60, 60, 60)" stroke-width="1px" opacity="0.25"></line><line x1="0" y1="223.59653092375785" x2="817.828125" y2="223.59653092375785" fill="rgb(0, 0, 0)" stroke="rgb(60, 60, 60)" stroke-width="1px" opacity="0.25"></line><line x1="0" y1="206.77249710573636" x2="817.828125" y2="206.77249710573636" fill="rgb(0, 0, 0)" stroke="rgb(60, 60, 60)" stroke-width="1px" opacity="0.25"></line><line x1="0" y1="192.19885612147382" x2="817.828125" y2="192.19885612147382" fill="rgb(0, 0, 0)" stroke="rgb(60, 60, 60)" stroke-width="1px" opacity="0.25"></line><line x1="0" y1="179.34399374076423" x2="817.828125" y2="179.34399374076423" fill="rgb(0, 0, 0)" stroke="rgb(60, 60, 60)" stroke-width="1px" opacity="0.25"></line><line x1="0" y1="167.84492749922825" x2="817.828125" y2="167.84492749922825" fill="rgb(0, 0, 0)" stroke="rgb(60, 60, 60)" stroke-width="1px" opacity="0.25"></line><line x1="0" y1="92.19471551395061" x2="817.828125" y2="92.19471551395061" fill="rgb(0, 0, 0)" stroke="rgb(60, 60, 60)" stroke-width="1px" opacity="0.25"></line><line x1="0" y1="47.94217833095704" x2="817.828125" y2="47.94217833095704" fill="rgb(0, 0, 0)" stroke="rgb(60, 60, 60)" stroke-width="1px" opacity="0.25"></line><line x1="0" y1="16.54450352867296" x2="817.828125" y2="16.54450352867296" fill="rgb(0, 0, 0)" stroke="rgb(60, 60, 60)" stroke-width="1px" opacity="0.25"></line></g></g></g><g><g><line x1="68.15234375" y1="0" x2="68.15234375" y2="378" fill="rgb(0, 0, 0)" stroke="rgb(153, 153, 153)" stroke-width="1.5px"></line></g></g><g><g><g><g><g><path stroke="rgb(238, 51, 119)" stroke-width="2px" d="M68.15234375,23.478135628009262L81.7828125,52.082101676390785L95.41328125,67.52448625096352L109.04375,91.9212000085595L122.67421875,102.71464489200812L136.3046875,105.76411768254738L149.93515624999998,113.08596600499992L163.565625,114.4478452284587L177.19609375000002,116.62106196473997L190.8265625,116.872401232321L204.45703125,118.77655249282166L218.0875,119.6061894316577L231.71796874999998,118.44463853098529L245.3484375,119.68183029689766L258.97890624999997,120.13424192062054L272.609375,120.2395591303169L286.23984375,120.56808439321387L299.87031249999995,120.73050912094187L313.50078125000005,120.76859629625893L327.13125,120.72309942680779L340.76171875,120.96038330779244L354.39218750000003,121.01394182829534L368.02265625,120.88645747105487L381.653125,120.83669111825394L395.28359375,120.89457213871047L408.9140625,120.90647022923059L422.54453125000003,120.87850415914359L436.175,120.91331687351217L449.80546875000005,120.9098808030404L463.43593749999997,120.9005464089437L477.06640625000006,120.90298359893204L490.696875,120.90360136754032L504.32734375,120.90604708854704L517.9578124999999,120.90794277159787L531.58828125,120.90786660512609L545.21875,120.91041397929882L558.84921875,120.912208178854L572.4796875,120.91191196463045L586.11015625,120.91174269972085L599.7406249999999,120.91186964837844L613.37109375,120.91209815633428L627.0015625000001,120.91229281163695L640.63203125,120.91245361410539L654.2625,120.91245361410539L667.89296875,120.91241129764339L681.5234375,120.9123520546241L695.15390625,120.91241129764339L708.7843750000001,120.91242822422623L722.4148437499999,120.91244515081168L736.0453125,120.91244515081168" style="fill: none;" fill="none"></path></g><g><path stroke="rgb(0, 153, 136)" stroke-width="2px" d="M68.15234375,16.76945296219006L81.7828125,40.648272982145244L95.41328125,64.99037354889214L109.04375,75.09409045754059L122.67421875,76.40151096456312L136.3046875,86.3567966847436L149.93515624999998,88.88290541229101L163.565625,89.64815715956497L177.19609375000002,87.49380845458171L190.8265625,92.60871396861602L204.45703125,99.53527589349665L218.0875,95.15473288724449L231.71796874999998,99.11079039926149L245.3484375,102.86654539519068L258.97890624999997,101.32251429907308L272.609375,102.31792077106182L286.23984375,101.49329843497036L299.87031249999995,100.4641653651543L313.50078125000005,101.89356469153712L327.13125,101.90610002952278L340.76171875,101.5957427698366L354.39218750000003,100.25888458496837L368.02265625,101.00279396139433L381.653125,100.88723006649835L395.28359375,100.81482888493241L408.9140625,101.43595600581135L422.54453125000003,101.33317340827085L436.175,101.50424344847912L449.80546875000005,101.8213101525991L463.43593749999997,101.47404637572203L477.06640625000006,101.40396583533136L490.696875,101.44626508199069L504.32734375,101.46987483556664L517.9578124999999,101.48331073971313L531.58828125,101.4472917946814L545.21875,101.39945016466505L558.84921875,101.49113789859473L572.4796875,101.51345369536344L586.11015625,101.5461138271002L599.7406249999999,101.5773020719098L613.37109375,101.57756437448724L627.0015625000001,101.56109724873379L640.63203125,101.56746972460684L654.2625,101.5556323850364L667.89296875,101.54242144545285L681.5234375,101.54473182701902L695.15390625,101.54583033847739L708.7843750000001,101.54787147299719L722.4148437499999,101.54891331678986L736.0453125,101.54982759606652" style="fill: none;" fill="none"></path></g><g><path stroke="rgb(187, 187, 187)" stroke-width="2px" d="M68.15234375,13.271499293576449L81.7828125,30.87407997027843L95.41328125,34.81482474711173L109.04375,51.251280550286076L122.67421875,50.00275556761748L136.3046875,35.58002765179494L149.93515624999998,54.00000000000002L163.565625,48.168014309079226L177.19609375000002,52.33116957772982L190.8265625,49.960946275779655L204.45703125,55.88104548276997L218.0875,48.46571782225265L231.71796874999998,53.41026830257843L245.3484375,54.083926109469196L258.97890624999997,52.94858671294971L272.609375,52.53397300745493L286.23984375,56.318692370635844L299.87031249999995,57.45041617166117L313.50078125000005,55.46335829069975L327.13125,56.381825411846876L340.76171875,56.701798928877814L354.39218750000003,54.78334737309886L368.02265625,56.62544375790529L381.653125,56.67048750524117L395.28359375,53.77911981776135L408.9140625,55.278872537691484L422.54453125000003,55.220119857882565L436.175,54.63674230365935L449.80546875000005,56.6594291640374L463.43593749999997,55.05798380693477L477.06640625000006,55.760285170864286L490.696875,55.71685420666213L504.32734375,55.76226988136784L517.9578124999999,54.486309199816134L531.58828125,54.938990320575996L545.21875,55.81036122321778L558.84921875,54.02304344264533L572.4796875,54.84787132110516L586.11015625,55.464817221285145L599.7406249999999,55.467595748122164L613.37109375,55.57785533496159L627.0015625000001,55.44536022284292L640.63203125,55.704923499508844L654.2625,55.42929734009325L667.89296875,55.52215841525193L681.5234375,55.40290880590818L695.15390625,55.305361001676424L708.7843750000001,55.183761905220784L722.4148437499999,55.349389679432335L736.0453125,55.39265605974245" style="fill: none;" fill="none"></path></g><g><path stroke="rgb(51, 187, 238)" stroke-width="2px" d="M68.15234375,249.8271315509473L81.7828125,282.44967394480346L95.41328125,295.3391118694024L109.04375,308.45662553359324L122.67421875,310.4218181736111L136.3046875,309.61360227501115L149.93515624999998,312.0354855103864L163.565625,312.4026306417467L177.19609375000002,312.41195110353937L190.8265625,311.41495448509176L204.45703125,312.5056035304056L218.0875,312.59590556937087L231.71796874999998,312.79395455312215L245.3484375,312.60589200436436L258.97890624999997,312.5361408471516L272.609375,312.5942269577363L286.23984375,312.6892990969016L299.87031249999995,312.90216309929457L313.50078125000005,312.6241640317391L327.13125,312.5769399852496L340.76171875,312.6841854525844L354.39218750000003,312.65504102820506L368.02265625,312.68110757115267L381.653125,312.69257342663906L395.28359375,312.6830327696905L408.9140625,312.6929413349956L422.54453125000003,312.677882633132L436.175,312.6863069114336L449.80546875000005,312.6796238425851L463.43593749999997,312.6787654964253L477.06640625000006,312.67207062804795L490.696875,312.6685149125586L504.32734375,312.6663815388682L517.9578124999999,312.6655600785098L531.58828125,312.6664551027841L545.21875,312.6663815388682L558.84921875,312.66622215055406L572.4796875,312.66634475692894L586.11015625,312.66654092741516L599.7406249999999,312.6668597052074L613.37109375,312.66705587661926L627.0015625000001,312.66709265879825L640.63203125,312.6671294409896L654.2625,312.6671539624574L667.89296875,312.6671539624574L681.5234375,312.6671907446694L695.15390625,312.6671907446694L708.7843750000001,312.6671784839307L722.4148437499999,312.6671784839307L736.0453125,312.66716622319336" style="fill: none;" fill="none"></path></g><g><path stroke="rgb(204, 51, 17)" stroke-width="2px" d="M68.15234375,262.4156206687276L81.7828125,265.3043925062072L95.41328125,288.9356499421211L109.04375,291.52024689338856L122.67421875,302.63912145666006L136.3046875,298.6789857892165L149.93515624999998,303.713780028082L163.565625,300.41922314950904L177.19609375000002,298.10346301841946L190.8265625,298.0434500864732L204.45703125,298.17401906430234L218.0875,298.9977628302285L231.71796874999998,298.2868489383672L245.3484375,297.0081058495669L258.97890624999997,296.21342281702397L272.609375,297.2219338184865L286.23984375,295.6352185781407L299.87031249999995,295.790989440904L313.50078125000005,295.80570679376444L327.13125,296.1081193485904L340.76171875,296.32121346568454L354.39218750000003,296.4295016119192L368.02265625,296.17909396025556L381.653125,296.23024325890464L395.28359375,295.8391197149849L408.9140625,295.8479579874916L422.54453125000003,295.7759694925667L436.175,295.67998518162744L449.80546875000005,295.7491592965361L463.43593749999997,295.7815465887585L477.06640625000006,295.87469785708646L490.696875,295.921287547393L504.32734375,295.91194908964366L517.9578124999999,295.91587156522473L531.58828125,295.9312052754909L545.21875,295.8935584501456L558.84921875,295.89032016785L572.4796875,295.88492674860765L586.11015625,295.89530379798424L599.7406249999999,295.898447597338L613.37109375,295.88040615417697L627.0015625000001,295.8781143894559L640.63203125,295.88278207116144L654.2625,295.88258232393684L667.89296875,295.8863250168929L681.5234375,295.8866824718109L695.15390625,295.88544189799694L708.7843750000001,295.8896788311319L722.4148437499999,295.88903749818246L736.0453125,295.8892898254506" style="fill: none;" fill="none"></path></g><g><path stroke="rgb(0, 119, 187)" stroke-width="2px" d="M68.15234375,253.8030200942917L81.7828125,274.82698354576115L95.41328125,278.6631477065968L109.04375,275.85992602951086L122.67421875,280.94875638304694L136.3046875,282.2527307819058L149.93515624999998,278.36622703123317L163.565625,275.46697578471594L177.19609375000002,270.15637130533804L190.8265625,274.1227814141535L204.45703125,275.6329455346993L218.0875,275.517961498283L231.71796874999998,269.7348610447908L245.3484375,270.37280633902276L258.97890624999997,268.87252546854387L272.609375,269.34155461756694L286.23984375,265.70722957641937L299.87031249999995,267.1031825368015L313.50078125000005,265.1846996864242L327.13125,265.71969295252774L340.76171875,265.48824048402844L354.39218750000003,264.4370864680972L368.02265625,265.35264021521743L381.653125,263.9359008385742L395.28359375,261.6422020302452L408.9140625,260.7734125896337L422.54453125000003,261.0068685351469L436.175,261.9450173167331L449.80546875000005,260.59767382218257L463.43593749999997,260.8012332428454L477.06640625000006,261.3023944225897L490.696875,260.7274592580716L504.32734375,260.8106252671151L517.9578124999999,259.3810434352256L531.58828125,260.3081225060868L545.21875,260.6351539104353L558.84921875,260.28403103032684L572.4796875,259.5851862303758L586.11015625,259.4869496870578L599.7406249999999,259.30726040818536L613.37109375,259.5446963664857L627.0015625000001,259.4974570826071L640.63203125,259.4453819540804L654.2625,259.73456783122367L667.89296875,259.4749446252672L681.5234375,259.24113953179557L695.15390625,259.23375265845186L708.7843750000001,259.2968615313939L722.4148437499999,259.13746846372464L736.0453125,259.1028857790761" style="fill: none;" fill="none"></path></g><g><path stroke="rgb(255, 112, 67)" stroke-width="2px" d="M68.15234375,267.2308206300171L81.7828125,285.25892492512014L95.41328125,295.98754202639935L109.04375,301.5075988288553L122.67421875,306.5944097966736L136.3046875,309.4886430456687L149.93515624999998,313.03781164789535L163.565625,313.98593386335136L177.19609375000002,316.67766462056966L190.8265625,318.2773672493787L204.45703125,318.95586165339466L218.0875,319.246184058251L231.71796874999998,320.1465028932898L245.3484375,319.79454549763324L258.97890624999997,320.9340772343052L272.609375,321.92451315399484L286.23984375,321.7896342973008L299.87031249999995,322.7229598200917L313.50078125000005,322.5265305358566L327.13125,322.7895484679322L340.76171875,323.3266655682828L354.39218750000003,323.2078202814045L368.02265625,323.43846118151555L381.653125,323.42548428415404L395.28359375,323.299557289028L408.9140625,323.4609545166326L422.54453125000003,323.35917599604846L436.175,323.7815888053228L449.80546875000005,323.884027157417L463.43593749999997,323.8124901377089L477.06640625000006,323.81180440250625L490.696875,324L504.32734375,324.16189906150356L517.9578124999999,324.1047948612883L531.58828125,324.24316708869657L545.21875,324.2344357274293L558.84921875,324.270933506472L572.4796875,324.1763466788027L586.11015625,324.18903164227083L599.7406249999999,324.1269697506694L613.37109375,324.1441776280355L627.0015625000001,324.2079187555972L640.63203125,324.17813828938625L654.2625,324.16011452861426L667.89296875,324.1580848281999L681.5234375,324.19457751912233L695.15390625,324.2123889115221L708.7843750000001,324.2065627536368L722.4148437499999,324.21536003107445L736.0453125,324.2274429629052" style="fill: none;" fill="none"></path></g></g></g></g></g></g><g transform="translate(41, 378)" clip-path="url(#clip_1)"><clipPath id="clip_1"><rect width="817" height="22"></rect></clipPath><g><g><line x1="0" y1="0" x2="0" y2="5" style="visibility: inherit;" fill="rgb(0, 0, 0)" stroke="rgb(204, 204, 204)" stroke-width="1px"></line><line x1="68.15234375" y1="0" x2="68.15234375" y2="5" style="visibility: inherit;" fill="rgb(0, 0, 0)" stroke="rgb(204, 204, 204)" stroke-width="1px"></line><line x1="136.3046875" y1="0" x2="136.3046875" y2="5" style="visibility: inherit;" fill="rgb(0, 0, 0)" stroke="rgb(204, 204, 204)" stroke-width="1px"></line><line x1="204.45703125" y1="0" x2="204.45703125" y2="5" style="visibility: inherit;" fill="rgb(0, 0, 0)" stroke="rgb(204, 204, 204)" stroke-width="1px"></line><line x1="272.609375" y1="0" x2="272.609375" y2="5" style="visibility: inherit;" fill="rgb(0, 0, 0)" stroke="rgb(204, 204, 204)" stroke-width="1px"></line><line x1="340.76171875" y1="0" x2="340.76171875" y2="5" style="visibility: inherit;" fill="rgb(0, 0, 0)" stroke="rgb(204, 204, 204)" stroke-width="1px"></line><line x1="408.9140625" y1="0" x2="408.9140625" y2="5" style="visibility: inherit;" fill="rgb(0, 0, 0)" stroke="rgb(204, 204, 204)" stroke-width="1px"></line><line x1="477.06640625000006" y1="0" x2="477.06640625000006" y2="5" style="visibility: inherit;" fill="rgb(0, 0, 0)" stroke="rgb(204, 204, 204)" stroke-width="1px"></line><line x1="545.21875" y1="0" x2="545.21875" y2="5" style="visibility: inherit;" fill="rgb(0, 0, 0)" stroke="rgb(204, 204, 204)" stroke-width="1px"></line><line x1="613.37109375" y1="0" x2="613.37109375" y2="5" style="visibility: inherit;" fill="rgb(0, 0, 0)" stroke="rgb(204, 204, 204)" stroke-width="1px"></line><line x1="681.5234375" y1="0" x2="681.5234375" y2="5" style="visibility: inherit;" fill="rgb(0, 0, 0)" stroke="rgb(204, 204, 204)" stroke-width="1px"></line><line x1="749.67578125" y1="0" x2="749.67578125" y2="5" style="visibility: inherit;" fill="rgb(0, 0, 0)" stroke="rgb(204, 204, 204)" stroke-width="1px"></line><line x1="817.828125" y1="0" x2="817.828125" y2="5" style="visibility: inherit;" fill="rgb(0, 0, 0)" stroke="rgb(204, 204, 204)" stroke-width="1px"></line></g><g transform="translate(0, 8)"><text x="0" y="0" dx="0em" dy="0.95em" style="text-anchor: middle; visibility: hidden; font-family: Roboto, sans-serif; font-size: 12px; font-weight: 200;" fill="rgb(50, 49, 63)" stroke="none" stroke-width="1px">-5</text><text x="68.15234375" y="0" dx="0em" dy="0.95em" style="text-anchor: middle; visibility: inherit; font-family: Roboto, sans-serif; font-size: 12px; font-weight: 200;" fill="rgb(50, 49, 63)" stroke="none" stroke-width="1px">0</text><text x="136.3046875" y="0" dx="0em" dy="0.95em" style="text-anchor: middle; visibility: inherit; font-family: Roboto, sans-serif; font-size: 12px; font-weight: 200;" fill="rgb(50, 49, 63)" stroke="none" stroke-width="1px">5</text><text x="204.45703125" y="0" dx="0em" dy="0.95em" style="text-anchor: middle; visibility: inherit; font-family: Roboto, sans-serif; font-size: 12px; font-weight: 200;" fill="rgb(50, 49, 63)" stroke="none" stroke-width="1px">10</text><text x="272.609375" y="0" dx="0em" dy="0.95em" style="text-anchor: middle; visibility: inherit; font-family: Roboto, sans-serif; font-size: 12px; font-weight: 200;" fill="rgb(50, 49, 63)" stroke="none" stroke-width="1px">15</text><text x="340.76171875" y="0" dx="0em" dy="0.95em" style="text-anchor: middle; visibility: inherit; font-family: Roboto, sans-serif; font-size: 12px; font-weight: 200;" fill="rgb(50, 49, 63)" stroke="none" stroke-width="1px">20</text><text x="408.9140625" y="0" dx="0em" dy="0.95em" style="text-anchor: middle; visibility: inherit; font-family: Roboto, sans-serif; font-size: 12px; font-weight: 200;" fill="rgb(50, 49, 63)" stroke="none" stroke-width="1px">25</text><text x="477.06640625000006" y="0" dx="0em" dy="0.95em" style="text-anchor: middle; visibility: inherit; font-family: Roboto, sans-serif; font-size: 12px; font-weight: 200;" fill="rgb(50, 49, 63)" stroke="none" stroke-width="1px">30</text><text x="545.21875" y="0" dx="0em" dy="0.95em" style="text-anchor: middle; visibility: inherit; font-family: Roboto, sans-serif; font-size: 12px; font-weight: 200;" fill="rgb(50, 49, 63)" stroke="none" stroke-width="1px">35</text><text x="613.37109375" y="0" dx="0em" dy="0.95em" style="text-anchor: middle; visibility: inherit; font-family: Roboto, sans-serif; font-size: 12px; font-weight: 200;" fill="rgb(50, 49, 63)" stroke="none" stroke-width="1px">40</text><text x="681.5234375" y="0" dx="0em" dy="0.95em" style="text-anchor: middle; visibility: inherit; font-family: Roboto, sans-serif; font-size: 12px; font-weight: 200;" fill="rgb(50, 49, 63)" stroke="none" stroke-width="1px">45</text><text x="749.67578125" y="0" dx="0em" dy="0.95em" style="text-anchor: middle; visibility: inherit; font-family: Roboto, sans-serif; font-size: 12px; font-weight: 200;" fill="rgb(50, 49, 63)" stroke="none" stroke-width="1px">50</text><text x="817.828125" y="0" dx="0em" dy="0.95em" style="text-anchor: middle; visibility: hidden; font-family: Roboto, sans-serif; font-size: 12px; font-weight: 200;" fill="rgb(50, 49, 63)" stroke="none" stroke-width="1px">55</text></g><line x1="0" y1="0" x2="817.828125" y2="0" fill="rgb(0, 0, 0)" stroke="rgb(204, 204, 204)" stroke-width="1px"></line></g></g></g></g></svg>