<svg viewBox="0 0 1106 400" xmlns="http://www.w3.org/2000/svg"><g><g><g><g><g><line x1="51.53200149536133" y1="375.5223554337835" x2="46.53200149536133" y2="375.5223554337835" style="visibility: inherit;" fill="rgb(0, 0, 0)" stroke="rgb(204, 204, 204)" stroke-width="1px"></line><line x1="51.53200149536133" y1="353.9655793001103" x2="46.53200149536133" y2="353.9655793001103" style="visibility: inherit;" fill="rgb(0, 0, 0)" stroke="rgb(204, 204, 204)" stroke-width="1px"></line><line x1="51.53200149536133" y1="338.67080322813354" x2="46.53200149536133" y2="338.67080322813354" style="visibility: inherit;" fill="rgb(0, 0, 0)" stroke="rgb(204, 204, 204)" stroke-width="1px"></line><line x1="51.53200149536133" y1="326.8072532329265" x2="46.53200149536133" y2="326.8072532329265" style="visibility: inherit;" fill="rgb(0, 0, 0)" stroke="rgb(204, 204, 204)" stroke-width="1px"></line><line x1="51.53200149536133" y1="317.1140270944603" x2="46.53200149536133" y2="317.1140270944603" style="visibility: inherit;" fill="rgb(0, 0, 0)" stroke="rgb(204, 204, 204)" stroke-width="1px"></line><line x1="51.53200149536133" y1="308.9185211694393" x2="46.53200149536133" y2="308.9185211694393" style="visibility: inherit;" fill="rgb(0, 0, 0)" stroke="rgb(204, 204, 204)" stroke-width="1px"></line><line x1="51.53200149536133" y1="301.8192510224836" x2="46.53200149536133" y2="301.8192510224836" style="visibility: inherit;" fill="rgb(0, 0, 0)" stroke="rgb(204, 204, 204)" stroke-width="1px"></line><line x1="51.53200149536133" y1="295.5572509607871" x2="46.53200149536133" y2="295.5572509607871" style="visibility: inherit;" fill="rgb(0, 0, 0)" stroke="rgb(204, 204, 204)" stroke-width="1px"></line><line x1="51.53200149536133" y1="289.9557010272765" x2="46.53200149536133" y2="289.9557010272765" style="visibility: inherit;" fill="rgb(0, 0, 0)" stroke="rgb(204, 204, 204)" stroke-width="1px"></line><line x1="51.53200149536133" y1="253.10414882162658" x2="46.53200149536133" y2="253.10414882162658" style="visibility: inherit;" fill="rgb(0, 0, 0)" stroke="rgb(204, 204, 204)" stroke-width="1px"></line><line x1="51.53200149536133" y1="231.54737268795336" x2="46.53200149536133" y2="231.54737268795336" style="visibility: inherit;" fill="rgb(0, 0, 0)" stroke="rgb(204, 204, 204)" stroke-width="1px"></line><line x1="51.53200149536133" y1="216.25259661597667" x2="46.53200149536133" y2="216.25259661597667" style="visibility: inherit;" fill="rgb(0, 0, 0)" stroke="rgb(204, 204, 204)" stroke-width="1px"></line><line x1="51.53200149536133" y1="204.3890466207696" x2="46.53200149536133" y2="204.3890466207696" style="visibility: inherit;" fill="rgb(0, 0, 0)" stroke="rgb(204, 204, 204)" stroke-width="1px"></line><line x1="51.53200149536133" y1="194.69582048230342" x2="46.53200149536133" y2="194.69582048230342" style="visibility: inherit;" fill="rgb(0, 0, 0)" stroke="rgb(204, 204, 204)" stroke-width="1px"></line><line x1="51.53200149536133" y1="186.50031455728242" x2="46.53200149536133" y2="186.50031455728242" style="visibility: inherit;" fill="rgb(0, 0, 0)" stroke="rgb(204, 204, 204)" stroke-width="1px"></line><line x1="51.53200149536133" y1="179.4010444103267" x2="46.53200149536133" y2="179.4010444103267" style="visibility: inherit;" fill="rgb(0, 0, 0)" stroke="rgb(204, 204, 204)" stroke-width="1px"></line><line x1="51.53200149536133" y1="173.1390443486302" x2="46.53200149536133" y2="173.1390443486302" style="visibility: inherit;" fill="rgb(0, 0, 0)" stroke="rgb(204, 204, 204)" stroke-width="1px"></line><line x1="51.53200149536133" y1="167.53749441511962" x2="46.53200149536133" y2="167.53749441511962" style="visibility: inherit;" fill="rgb(0, 0, 0)" stroke="rgb(204, 204, 204)" stroke-width="1px"></line><line x1="51.53200149536133" y1="130.68594220946972" x2="46.53200149536133" y2="130.68594220946972" style="visibility: inherit;" fill="rgb(0, 0, 0)" stroke="rgb(204, 204, 204)" stroke-width="1px"></line><line x1="51.53200149536133" y1="109.12916607579649" x2="46.53200149536133" y2="109.12916607579649" style="visibility: inherit;" fill="rgb(0, 0, 0)" stroke="rgb(204, 204, 204)" stroke-width="1px"></line><line x1="51.53200149536133" y1="93.83439000381976" x2="46.53200149536133" y2="93.83439000381976" style="visibility: inherit;" fill="rgb(0, 0, 0)" stroke="rgb(204, 204, 204)" stroke-width="1px"></line><line x1="51.53200149536133" y1="81.97084000861274" x2="46.53200149536133" y2="81.97084000861274" style="visibility: inherit;" fill="rgb(0, 0, 0)" stroke="rgb(204, 204, 204)" stroke-width="1px"></line><line x1="51.53200149536133" y1="72.27761387014654" x2="46.53200149536133" y2="72.27761387014654" style="visibility: inherit;" fill="rgb(0, 0, 0)" stroke="rgb(204, 204, 204)" stroke-width="1px"></line><line x1="51.53200149536133" y1="64.08210794512551" x2="46.53200149536133" y2="64.08210794512551" style="visibility: inherit;" fill="rgb(0, 0, 0)" stroke="rgb(204, 204, 204)" stroke-width="1px"></line><line x1="51.53200149536133" y1="56.98283779816981" x2="46.53200149536133" y2="56.98283779816981" style="visibility: inherit;" fill="rgb(0, 0, 0)" stroke="rgb(204, 204, 204)" stroke-width="1px"></line><line x1="51.53200149536133" y1="50.7208377364733" x2="46.53200149536133" y2="50.7208377364733" style="visibility: inherit;" fill="rgb(0, 0, 0)" stroke="rgb(204, 204, 204)" stroke-width="1px"></line><line x1="51.53200149536133" y1="45.11928780296278" x2="46.53200149536133" y2="45.11928780296278" style="visibility: inherit;" fill="rgb(0, 0, 0)" stroke="rgb(204, 204, 204)" stroke-width="1px"></line><line x1="51.53200149536133" y1="8.267735597312827" x2="46.53200149536133" y2="8.267735597312827" style="visibility: inherit;" fill="rgb(0, 0, 0)" stroke="rgb(204, 204, 204)" stroke-width="1px"></line></g><g transform="translate(41.53200149536133, 0)"><text style="text-anchor: end; visibility: hidden; font-family: Roboto, sans-serif; font-size: 12px; font-weight: 200;" x="0" y="375.5223554337835" dx="0em" dy="0.3em" fill="rgb(50, 49, 63)" stroke="none" stroke-width="1px">0.02</text><text style="text-anchor: end; visibility: inherit; font-family: Roboto, sans-serif; font-size: 12px; font-weight: 200;" x="0" y="353.9655793001103" dx="0em" dy="0.3em" fill="rgb(50, 49, 63)" stroke="none" stroke-width="1px">0.03</text><text style="text-anchor: end; visibility: hidden; font-family: Roboto, sans-serif; font-size: 12px; font-weight: 200;" x="0" y="338.67080322813354" dx="0em" dy="0.3em" fill="rgb(50, 49, 63)" stroke="none" stroke-width="1px">0.04</text><text style="text-anchor: end; visibility: hidden; font-family: Roboto, sans-serif; font-size: 12px; font-weight: 200;" x="0" y="326.8072532329265" dx="0em" dy="0.3em" fill="rgb(50, 49, 63)" stroke="none" stroke-width="1px">0.05</text><text style="text-anchor: end; visibility: hidden; font-family: Roboto, sans-serif; font-size: 12px; font-weight: 200;" x="0" y="317.1140270944603" dx="0em" dy="0.3em" fill="rgb(50, 49, 63)" stroke="none" stroke-width="1px">0.06</text><text style="text-anchor: end; visibility: inherit; font-family: Roboto, sans-serif; font-size: 12px; font-weight: 200;" x="0" y="308.9185211694393" dx="0em" dy="0.3em" fill="rgb(50, 49, 63)" stroke="none" stroke-width="1px">0.07</text><text style="text-anchor: end; visibility: hidden; font-family: Roboto, sans-serif; font-size: 12px; font-weight: 200;" x="0" y="301.8192510224836" dx="0em" dy="0.3em" fill="rgb(50, 49, 63)" stroke="none" stroke-width="1px">0.08</text><text style="text-anchor: end; visibility: hidden; font-family: Roboto, sans-serif; font-size: 12px; font-weight: 200;" x="0" y="295.5572509607871" dx="0em" dy="0.3em" fill="rgb(50, 49, 63)" stroke="none" stroke-width="1px">0.09</text><text style="text-anchor: end; visibility: hidden; font-family: Roboto, sans-serif; font-size: 12px; font-weight: 200;" x="0" y="289.9557010272765" dx="0em" dy="0.3em" fill="rgb(50, 49, 63)" stroke="none" stroke-width="1px">0.1</text><text style="text-anchor: end; visibility: inherit; font-family: Roboto, sans-serif; font-size: 12px; font-weight: 200;" x="0" y="253.10414882162658" dx="0em" dy="0.3em" fill="rgb(50, 49, 63)" stroke="none" stroke-width="1px">0.2</text><text style="text-anchor: end; visibility: hidden; font-family: Roboto, sans-serif; font-size: 12px; font-weight: 200;" x="0" y="231.54737268795336" dx="0em" dy="0.3em" fill="rgb(50, 49, 63)" stroke="none" stroke-width="1px">0.3</text><text style="text-anchor: end; visibility: hidden; font-family: Roboto, sans-serif; font-size: 12px; font-weight: 200;" x="0" y="216.25259661597667" dx="0em" dy="0.3em" fill="rgb(50, 49, 63)" stroke="none" stroke-width="1px">0.4</text><text style="text-anchor: end; visibility: hidden; font-family: Roboto, sans-serif; font-size: 12px; font-weight: 200;" x="0" y="204.3890466207696" dx="0em" dy="0.3em" fill="rgb(50, 49, 63)" stroke="none" stroke-width="1px">0.5</text><text style="text-anchor: end; visibility: inherit; font-family: Roboto, sans-serif; font-size: 12px; font-weight: 200;" x="0" y="194.69582048230342" dx="0em" dy="0.3em" fill="rgb(50, 49, 63)" stroke="none" stroke-width="1px">0.6</text><text style="text-anchor: end; visibility: hidden; font-family: Roboto, sans-serif; font-size: 12px; font-weight: 200;" x="0" y="186.50031455728242" dx="0em" dy="0.3em" fill="rgb(50, 49, 63)" stroke="none" stroke-width="1px">0.7</text><text style="text-anchor: end; visibility: hidden; font-family: Roboto, sans-serif; font-size: 12px; font-weight: 200;" x="0" y="179.4010444103267" dx="0em" dy="0.3em" fill="rgb(50, 49, 63)" stroke="none" stroke-width="1px">0.8</text><text style="text-anchor: end; visibility: hidden; font-family: Roboto, sans-serif; font-size: 12px; font-weight: 200;" x="0" y="173.1390443486302" dx="0em" dy="0.3em" fill="rgb(50, 49, 63)" stroke="none" stroke-width="1px">0.9</text><text style="text-anchor: end; visibility: inherit; font-family: Roboto, sans-serif; font-size: 12px; font-weight: 200;" x="0" y="167.53749441511962" dx="0em" dy="0.3em" fill="rgb(50, 49, 63)" stroke="none" stroke-width="1px">1</text><text style="text-anchor: end; visibility: hidden; font-family: Roboto, sans-serif; font-size: 12px; font-weight: 200;" x="0" y="130.68594220946972" dx="0em" dy="0.3em" fill="rgb(50, 49, 63)" stroke="none" stroke-width="1px">2</text><text style="text-anchor: end; visibility: hidden; font-family: Roboto, sans-serif; font-size: 12px; font-weight: 200;" x="0" y="109.12916607579649" dx="0em" dy="0.3em" fill="rgb(50, 49, 63)" stroke="none" stroke-width="1px">3</text><text style="text-anchor: end; visibility: hidden; font-family: Roboto, sans-serif; font-size: 12px; font-weight: 200;" x="0" y="93.83439000381976" dx="0em" dy="0.3em" fill="rgb(50, 49, 63)" stroke="none" stroke-width="1px">4</text><text style="text-anchor: end; visibility: inherit; font-family: Roboto, sans-serif; font-size: 12px; font-weight: 200;" x="0" y="81.97084000861274" dx="0em" dy="0.3em" fill="rgb(50, 49, 63)" stroke="none" stroke-width="1px">5</text><text style="text-anchor: end; visibility: hidden; font-family: Roboto, sans-serif; font-size: 12px; font-weight: 200;" x="0" y="72.27761387014654" dx="0em" dy="0.3em" fill="rgb(50, 49, 63)" stroke="none" stroke-width="1px">6</text><text style="text-anchor: end; visibility: hidden; font-family: Roboto, sans-serif; font-size: 12px; font-weight: 200;" x="0" y="64.08210794512551" dx="0em" dy="0.3em" fill="rgb(50, 49, 63)" stroke="none" stroke-width="1px">7</text><text style="text-anchor: end; visibility: hidden; font-family: Roboto, sans-serif; font-size: 12px; font-weight: 200;" x="0" y="56.98283779816981" dx="0em" dy="0.3em" fill="rgb(50, 49, 63)" stroke="none" stroke-width="1px">8</text><text style="text-anchor: end; visibility: inherit; font-family: Roboto, sans-serif; font-size: 12px; font-weight: 200;" x="0" y="50.7208377364733" dx="0em" dy="0.3em" fill="rgb(50, 49, 63)" stroke="none" stroke-width="1px">9</text><text style="text-anchor: end; visibility: hidden; font-family: Roboto, sans-serif; font-size: 12px; font-weight: 200;" x="0" y="45.11928780296278" dx="0em" dy="0.3em" fill="rgb(50, 49, 63)" stroke="none" stroke-width="1px">10</text><text style="text-anchor: end; visibility: hidden; font-family: Roboto, sans-serif; font-size: 12px; font-weight: 200;" x="0" y="8.267735597312827" dx="0em" dy="0.3em" fill="rgb(50, 49, 63)" stroke="none" stroke-width="1px">20</text></g><line x1="51.53200149536133" y1="0" x2="51.53200149536133" y2="377.5999994277954" fill="rgb(0, 0, 0)" stroke="rgb(204, 204, 204)" stroke-width="1px"></line></g></g><g transform="translate(51, 0)" clip-path="url(#clip_0)"><clipPath id="clip_0"><rect width="1054" height="377"></rect></clipPath><g><g><g><line x1="0" y1="0" x2="0" y2="377.5999994277954" fill="rgb(0, 0, 0)" stroke="rgb(60, 60, 60)" stroke-width="1px" opacity="0.25"></line><line x1="87.87233320871988" y1="0" x2="87.87233320871988" y2="377.5999994277954" fill="rgb(0, 0, 0)" stroke="rgb(60, 60, 60)" stroke-width="1px" opacity="0.25"></line><line x1="175.74466641743976" y1="0" x2="175.74466641743976" y2="377.5999994277954" fill="rgb(0, 0, 0)" stroke="rgb(60, 60, 60)" stroke-width="1px" opacity="0.25"></line><line x1="263.61699962615967" y1="0" x2="263.61699962615967" y2="377.5999994277954" fill="rgb(0, 0, 0)" stroke="rgb(60, 60, 60)" stroke-width="1px" opacity="0.25"></line><line x1="351.4893328348795" y1="0" x2="351.4893328348795" y2="377.5999994277954" fill="rgb(0, 0, 0)" stroke="rgb(60, 60, 60)" stroke-width="1px" opacity="0.25"></line><line x1="439.3616660435995" y1="0" x2="439.3616660435995" y2="377.5999994277954" fill="rgb(0, 0, 0)" stroke="rgb(60, 60, 60)" stroke-width="1px" opacity="0.25"></line><line x1="527.2339992523193" y1="0" x2="527.2339992523193" y2="377.5999994277954" fill="rgb(0, 0, 0)" stroke="rgb(60, 60, 60)" stroke-width="1px" opacity="0.25"></line><line x1="615.1063324610393" y1="0" x2="615.1063324610393" y2="377.5999994277954" fill="rgb(0, 0, 0)" stroke="rgb(60, 60, 60)" stroke-width="1px" opacity="0.25"></line><line x1="702.978665669759" y1="0" x2="702.978665669759" y2="377.5999994277954" fill="rgb(0, 0, 0)" stroke="rgb(60, 60, 60)" stroke-width="1px" opacity="0.25"></line><line x1="790.850998878479" y1="0" x2="790.850998878479" y2="377.5999994277954" fill="rgb(0, 0, 0)" stroke="rgb(60, 60, 60)" stroke-width="1px" opacity="0.25"></line><line x1="878.723332087199" y1="0" x2="878.723332087199" y2="377.5999994277954" fill="rgb(0, 0, 0)" stroke="rgb(60, 60, 60)" stroke-width="1px" opacity="0.25"></line><line x1="966.5956652959187" y1="0" x2="966.5956652959187" y2="377.5999994277954" fill="rgb(0, 0, 0)" stroke="rgb(60, 60, 60)" stroke-width="1px" opacity="0.25"></line><line x1="1054.4679985046387" y1="0" x2="1054.4679985046387" y2="377.5999994277954" fill="rgb(0, 0, 0)" stroke="rgb(60, 60, 60)" stroke-width="1px" opacity="0.25"></line></g><g><line x1="0" y1="375.5223554337835" x2="1054.4679985046387" y2="375.5223554337835" fill="rgb(0, 0, 0)" stroke="rgb(60, 60, 60)" stroke-width="1px" opacity="0.25"></line><line x1="0" y1="353.9655793001103" x2="1054.4679985046387" y2="353.9655793001103" fill="rgb(0, 0, 0)" stroke="rgb(60, 60, 60)" stroke-width="1px" opacity="0.25"></line><line x1="0" y1="338.67080322813354" x2="1054.4679985046387" y2="338.67080322813354" fill="rgb(0, 0, 0)" stroke="rgb(60, 60, 60)" stroke-width="1px" opacity="0.25"></line><line x1="0" y1="326.8072532329265" x2="1054.4679985046387" y2="326.8072532329265" fill="rgb(0, 0, 0)" stroke="rgb(60, 60, 60)" stroke-width="1px" opacity="0.25"></line><line x1="0" y1="317.1140270944603" x2="1054.4679985046387" y2="317.1140270944603" fill="rgb(0, 0, 0)" stroke="rgb(60, 60, 60)" stroke-width="1px" opacity="0.25"></line><line x1="0" y1="308.9185211694393" x2="1054.4679985046387" y2="308.9185211694393" fill="rgb(0, 0, 0)" stroke="rgb(60, 60, 60)" stroke-width="1px" opacity="0.25"></line><line x1="0" y1="301.8192510224836" x2="1054.4679985046387" y2="301.8192510224836" fill="rgb(0, 0, 0)" stroke="rgb(60, 60, 60)" stroke-width="1px" opacity="0.25"></line><line x1="0" y1="295.5572509607871" x2="1054.4679985046387" y2="295.5572509607871" fill="rgb(0, 0, 0)" stroke="rgb(60, 60, 60)" stroke-width="1px" opacity="0.25"></line><line x1="0" y1="289.9557010272765" x2="1054.4679985046387" y2="289.9557010272765" fill="rgb(0, 0, 0)" stroke="rgb(60, 60, 60)" stroke-width="1px" opacity="0.25"></line><line x1="0" y1="253.10414882162658" x2="1054.4679985046387" y2="253.10414882162658" fill="rgb(0, 0, 0)" stroke="rgb(60, 60, 60)" stroke-width="1px" opacity="0.25"></line><line x1="0" y1="231.54737268795336" x2="1054.4679985046387" y2="231.54737268795336" fill="rgb(0, 0, 0)" stroke="rgb(60, 60, 60)" stroke-width="1px" opacity="0.25"></line><line x1="0" y1="216.25259661597667" x2="1054.4679985046387" y2="216.25259661597667" fill="rgb(0, 0, 0)" stroke="rgb(60, 60, 60)" stroke-width="1px" opacity="0.25"></line><line x1="0" y1="204.3890466207696" x2="1054.4679985046387" y2="204.3890466207696" fill="rgb(0, 0, 0)" stroke="rgb(60, 60, 60)" stroke-width="1px" opacity="0.25"></line><line x1="0" y1="194.69582048230342" x2="1054.4679985046387" y2="194.69582048230342" fill="rgb(0, 0, 0)" stroke="rgb(60, 60, 60)" stroke-width="1px" opacity="0.25"></line><line x1="0" y1="186.50031455728242" x2="1054.4679985046387" y2="186.50031455728242" fill="rgb(0, 0, 0)" stroke="rgb(60, 60, 60)" stroke-width="1px" opacity="0.25"></line><line x1="0" y1="179.4010444103267" x2="1054.4679985046387" y2="179.4010444103267" fill="rgb(0, 0, 0)" stroke="rgb(60, 60, 60)" stroke-width="1px" opacity="0.25"></line><line x1="0" y1="173.1390443486302" x2="1054.4679985046387" y2="173.1390443486302" fill="rgb(0, 0, 0)" stroke="rgb(60, 60, 60)" stroke-width="1px" opacity="0.25"></line><line x1="0" y1="167.53749441511962" x2="1054.4679985046387" y2="167.53749441511962" fill="rgb(0, 0, 0)" stroke="rgb(60, 60, 60)" stroke-width="1px" opacity="0.25"></line><line x1="0" y1="130.68594220946972" x2="1054.4679985046387" y2="130.68594220946972" fill="rgb(0, 0, 0)" stroke="rgb(60, 60, 60)" stroke-width="1px" opacity="0.25"></line><line x1="0" y1="109.12916607579649" x2="1054.4679985046387" y2="109.12916607579649" fill="rgb(0, 0, 0)" stroke="rgb(60, 60, 60)" stroke-width="1px" opacity="0.25"></line><line x1="0" y1="93.83439000381976" x2="1054.4679985046387" y2="93.83439000381976" fill="rgb(0, 0, 0)" stroke="rgb(60, 60, 60)" stroke-width="1px" opacity="0.25"></line><line x1="0" y1="81.97084000861274" x2="1054.4679985046387" y2="81.97084000861274" fill="rgb(0, 0, 0)" stroke="rgb(60, 60, 60)" stroke-width="1px" opacity="0.25"></line><line x1="0" y1="72.27761387014654" x2="1054.4679985046387" y2="72.27761387014654" fill="rgb(0, 0, 0)" stroke="rgb(60, 60, 60)" stroke-width="1px" opacity="0.25"></line><line x1="0" y1="64.08210794512551" x2="1054.4679985046387" y2="64.08210794512551" fill="rgb(0, 0, 0)" stroke="rgb(60, 60, 60)" stroke-width="1px" opacity="0.25"></line><line x1="0" y1="56.98283779816981" x2="1054.4679985046387" y2="56.98283779816981" fill="rgb(0, 0, 0)" stroke="rgb(60, 60, 60)" stroke-width="1px" opacity="0.25"></line><line x1="0" y1="50.7208377364733" x2="1054.4679985046387" y2="50.7208377364733" fill="rgb(0, 0, 0)" stroke="rgb(60, 60, 60)" stroke-width="1px" opacity="0.25"></line><line x1="0" y1="45.11928780296278" x2="1054.4679985046387" y2="45.11928780296278" fill="rgb(0, 0, 0)" stroke="rgb(60, 60, 60)" stroke-width="1px" opacity="0.25"></line><line x1="0" y1="8.267735597312827" x2="1054.4679985046387" y2="8.267735597312827" fill="rgb(0, 0, 0)" stroke="rgb(60, 60, 60)" stroke-width="1px" opacity="0.25"></line></g></g></g><g><g><line x1="87.87233320871988" y1="0" x2="87.87233320871988" y2="377.5999994277954" fill="rgb(0, 0, 0)" stroke="rgb(153, 153, 153)" stroke-width="1.5px"></line></g></g><g><g><g><g><g><path style="fill: none;" stroke="rgb(0, 153, 136)" stroke-width="2px" d="M87.87233320871988,91.16661277530676L105.44679985046388,98.20214773176524L123.02126649220784,102.3838115501842L140.59573313395182,91.91155086897771L158.1701997756958,93.49039157060568L175.74466641743976,89.33360441908425L193.31913305918374,88.27908322003829L210.89359970092775,88.2985545037584L228.46806634267173,77.95253039213539L246.0425329844157,80.07424307018667L263.61699962615967,67.06389879099412L281.19146626790365,72.73264262982673L298.76593290964763,79.17071696769139L316.3403995513916,71.92162949010205L333.91486619313554,73.30094923077931L351.4893328348795,67.43426971036624L369.0637994766235,69.07840545628662L386.6382661183675,68.26129366937626L404.2127327601115,65.89876572735425L421.7871994018555,66.60503646872897L439.3616660435995,63.107796307891505L456.93613268534347,64.10363556563837L474.5105993270874,62.524224394522314L492.0850659688314,64.35872826059321L509.65953261057535,57.77599720145638L527.2339992523193,53.51131563961386L544.8084658940634,58.34110026331417L562.3829325358073,56.74260098060336L579.9573991775513,56.92635340496815L597.5318658192953,59.69701052184582L615.1063324610393,51.90784644881664L632.6807991027832,53.94285706111365L650.2552657445273,51.727803442621614L667.8297323862711,51.05216176405853L685.4041990280151,49.90345551250008L702.978665669759,50.355012251098024L720.5531323115031,47.35425770521338L738.127598953247,45.008455930951L755.702065594991,46.16980852608858L773.276532236735,45.887829617309286L790.850998878479,45.046802069092806L808.425465520223,42.88783308486239L825.999932161967,43.18898680404696L843.574398803711,40.698836943477374L861.1488654454549,41.62821087834849L878.723332087199,39.7783267849087L896.2977987289429,40.85645058237187L913.8722653706869,40.97384143914158L931.4467320124307,35.679285335601854L949.0211986541748,37.368911402232" fill="none"></path></g><g><path style="fill: none;" stroke="rgb(238, 51, 119)" stroke-width="2px" d="M87.87233320871988,81.78481342901624L105.44679985046388,106.41544786308354L123.02126649220784,115.72453470788533L140.59573313395182,128.39607640892007L158.1701997756958,128.9512299864897L175.74466641743976,136.80772899513198L193.31913305918374,140.8703135317613L210.89359970092775,134.06737797305848L228.46806634267173,146.50105682495362L246.0425329844157,155.1424929093311L263.61699962615967,137.5688343774725L281.19146626790365,145.5621469920082L298.76593290964763,144.47715197817087L316.3403995513916,143.96337929139042L333.91486619313554,151.86073767106055L351.4893328348795,138.63341785666185L369.0637994766235,146.0250550794434L386.6382661183675,145.77408044245425L404.2127327601115,146.4289673695523L421.7871994018555,152.7423547957133L439.3616660435995,153.8959240046445L456.93613268534347,148.38451107715062L474.5105993270874,141.78955683178296L492.0850659688314,137.77745904238748L509.65953261057535,146.3029913551595L527.2339992523193,150.1505400102735L544.8084658940634,149.169463596743L562.3829325358073,148.22142327364452L579.9573991775513,147.31044536691425L597.5318658192953,146.9614023086668L615.1063324610393,142.76359387257085L632.6807991027832,147.65221932825213L650.2552657445273,150.40630816102004L667.8297323862711,150.13060963275473L685.4041990280151,140.09970749199528L702.978665669759,144.32615679378327L720.5531323115031,144.9089164331116L738.127598953247,145.64703315721482L755.702065594991,147.3583033652211L773.276532236735,142.2301622940531L790.850998878479,158.27208557049036L808.425465520223,145.76036984821823L825.999932161967,140.34010745801544L843.574398803711,139.66410763001693L861.1488654454549,149.67030718179018L878.723332087199,149.2443897498204L896.2977987289429,144.99139240768787L913.8722653706869,149.42171621464448L931.4467320124307,143.4556119174177L949.0211986541748,138.9526823149704" fill="none"></path></g><g><path style="fill: none;" stroke="rgb(0, 119, 187)" stroke-width="2px" d="M87.87233320871988,212.85437085521323L105.44679985046388,212.1855608453817L123.02126649220784,216.2724329631715L140.59573313395182,215.08646073248892L158.1701997756958,217.04736431569427L175.74466641743976,203.96245857518338L193.31913305918374,203.98258764154943L210.89359970092775,200.85253392171128L228.46806634267173,198.5328659939889L246.0425329844157,196.9704103389234L263.61699962615967,195.95855614072403L281.19146626790365,194.5334642732352L298.76593290964763,193.08864131589047L316.3403995513916,184.98933726141678L333.91486619313554,187.85187498575513L351.4893328348795,186.23924145669062L369.0637994766235,179.80404477221438L386.6382661183675,183.609851232892L404.2127327601115,182.88814877867003L421.7871994018555,182.92377446259584L439.3616660435995,178.8217920296984L456.93613268534347,175.71661324361023L474.5105993270874,182.19265382817738L492.0850659688314,179.43916743293468L509.65953261057535,179.69340588278143L527.2339992523193,176.0576449421412L544.8084658940634,172.52712145070015L562.3829325358073,171.62052031587L579.9573991775513,172.23982067657582L597.5318658192953,169.55901302901853L615.1063324610393,167.52658179595335L632.6807991027832,166.4588605337817L650.2552657445273,163.7136996984033L667.8297323862711,164.49352741806493L685.4041990280151,166.70609229372562L702.978665669759,164.3570020133719L720.5531323115031,158.1546358896872L738.127598953247,162.3888041636852L755.702065594991,162.25890854493562L773.276532236735,157.8698084615363L790.850998878479,155.72807166043415L808.425465520223,158.05041231048043L825.999932161967,159.00730046612043L843.574398803711,157.4614276426513L861.1488654454549,154.20349653470663L878.723332087199,156.37472520661876L896.2977987289429,154.06904416022928L913.8722653706869,152.71767351762077L931.4467320124307,154.31094895607268L949.0211986541748,150.7041274608641" fill="none"></path></g><g><path style="fill: none;" stroke="rgb(187, 187, 187)" stroke-width="2px" d="M87.87233320871988,192.7049975798883L105.44679985046388,232.9087474540529L123.02126649220784,243.29324652716622L140.59573313395182,249.7402279515678L158.1701997756958,260.6651195815724L175.74466641743976,262.5935455358895L193.31913305918374,261.82567293670905L210.89359970092775,262.24293225996684L228.46806634267173,266.2955452746546L246.0425329844157,262.89583549913516L263.61699962615967,271.2320984688845L281.19146626790365,272.37137520887455L298.76593290964763,268.63511878442387L316.3403995513916,270.10384622694335L333.91486619313554,270.4167623882947L351.4893328348795,269.1532962046894L369.0637994766235,267.2660241059944L386.6382661183675,264.8922245222393L404.2127327601115,276.5513251905711L421.7871994018555,278.1400041465389L439.3616660435995,273.21258551377065L456.93613268534347,276.61860597198336L474.5105993270874,272.6935989941368L492.0850659688314,266.032303610731L509.65953261057535,276.1940985720004L527.2339992523193,270.07917424647417L544.8084658940634,265.9134416493245L562.3829325358073,274.5200764090002L579.9573991775513,275.68434807792624L597.5318658192953,262.7699915067765L615.1063324610393,270.7239604749709L632.6807991027832,265.5000702252663L650.2552657445273,264.31038819687643L667.8297323862711,267.12149217032936L685.4041990280151,269.01708169950973L702.978665669759,263.8872798233613L720.5531323115031,265.78684419524933L738.127598953247,267.7107453691247L755.702065594991,269.5109349377003L773.276532236735,266.93842979463835L790.850998878479,261.4363476558233L808.425465520223,260.6950934319722L825.999932161967,259.9800602810535L843.574398803711,272.61636738025965L861.1488654454549,265.987999545678L878.723332087199,265.1498975975215L896.2977987289429,266.826038038242L913.8722653706869,262.60864817568284L931.4467320124307,267.34887856695684L949.0211986541748,265.86810337111416" fill="none"></path></g><g><path style="fill: none;" stroke="rgb(0, 119, 187)" stroke-width="2px" d="M87.87233320871988,218.5920489325736L105.44679985046388,228.78367361772192L123.02126649220784,234.12307332478287L140.59573313395182,238.10704380610153L158.1701997756958,240.56836696501446L175.74466641743976,242.77068947816753L193.31913305918374,243.65094562375015L210.89359970092775,244.74878631591346L228.46806634267173,244.88050676665966L246.0425329844157,244.99981235475212L263.61699962615967,245.27124801636842L281.19146626790365,245.7025409614261L298.76593290964763,244.48004209403882L316.3403995513916,244.31946267637116L333.91486619313554,243.58963374352516L351.4893328348795,243.4698587114449L369.0637994766235,242.71648590460583L386.6382661183675,241.8241092776044L404.2127327601115,241.3053728404477L421.7871994018555,241.5624361838306L439.3616660435995,240.8177454956502L456.93613268534347,238.9408812747145L474.5105993270874,237.94074300617103L492.0850659688314,237.36516270057817L509.65953261057535,236.9905466330923L527.2339992523193,236.04994667303683L544.8084658940634,235.884607002161L562.3829325358073,235.1570161118501L579.9573991775513,233.25562629773336L597.5318658192953,233.22236743387668L615.1063324610393,232.687310427693L632.6807991027832,232.08360520765692L650.2552657445273,231.3703595729363L667.8297323862711,230.56422979232792L685.4041990280151,230.74420654551764L702.978665669759,230.06682615418748L720.5531323115031,229.83530111448727L738.127598953247,228.6312464807115L755.702065594991,228.18958856534886L773.276532236735,226.800875532458L790.850998878479,227.64341872230966L808.425465520223,225.9779065945333L825.999932161967,224.97026569514915L843.574398803711,224.7614060252601L861.1488654454549,223.94914151392766L878.723332087199,223.0371635240557L896.2977987289429,222.8185434260217L913.8722653706869,222.287063778712L931.4467320124307,221.44208771201L949.0211986541748,220.53198771455385" fill="none"></path></g><g><path style="fill: none;" stroke="rgb(255, 112, 67)" stroke-width="2px" d="M87.87233320871988,188.80948383293995L105.44679985046388,226.8618174202583L123.02126649220784,241.14440795694912L140.59573313395182,251.225894565008L158.1701997756958,259.2070158665574L175.74466641743976,266.8194546594991L193.31913305918374,273.979790773388L210.89359970092775,278.007329867217L228.46806634267173,283.6943854553711L246.0425329844157,287.145561379238L263.61699962615967,291.5409883841852L281.19146626790365,294.77918333891546L298.76593290964763,298.0357837031513L316.3403995513916,300.2490763947915L333.91486619313554,303.08329182739817L351.4893328348795,304.97242870278757L369.0637994766235,307.9649455174886L386.6382661183675,308.6849257069365L404.2127327601115,311.02336925606363L421.7871994018555,311.38996679987645L439.3616660435995,314.4394686887329L456.93613268534347,316.56238638761533L474.5105993270874,317.21991927324217L492.0850659688314,317.40717720377484L509.65953261057535,321.739977620494L527.2339992523193,317.5914730630756L544.8084658940634,318.7215410068793L562.3829325358073,321.6070928042005L579.9573991775513,320.96203987881603L597.5318658192953,325.42022519671855L615.1063324610393,324.7220765215862L632.6807991027832,325.4586606547573L650.2552657445273,326.46854292831404L667.8297323862711,324.10340973528434L685.4041990280151,328.0896049598659L702.978665669759,329.49621431750177L720.5531323115031,326.22971314151454L738.127598953247,328.25162168218026L755.702065594991,324.29033288397113L773.276532236735,325.9710430237397L790.850998878479,333.11639811850955L808.425465520223,326.3594666926913L825.999932161967,329.09197857827746L843.574398803711,327.64033287145946L861.1488654454549,323.65714236668174L878.723332087199,333.8987157495568L896.2977987289429,329.43783011665073L913.8722653706869,328.0962845947722L931.4467320124307,326.7505907778988L949.0211986541748,332.5179324161557" fill="none"></path></g><g><path style="fill: none;" stroke="rgb(51, 187, 238)" stroke-width="2px" d="M87.87233320871988,162.19123378775282L105.44679985046388,185.5529888946211L123.02126649220784,196.843699391706L140.59573313395182,203.5842001505896L158.1701997756958,208.17356008966345L175.74466641743976,211.6139613473423L193.31913305918374,214.37360057749697L210.89359970092775,216.592324923989L228.46806634267173,218.4697398653878L246.0425329844157,220.20162683276283L263.61699962615967,221.6972596369237L281.19146626790365,223.05996694400253L298.76593290964763,224.37998470958556L316.3403995513916,225.5563813271391L333.91486619313554,226.55791473805587L351.4893328348795,227.57496747885315L369.0637994766235,228.53529016901214L386.6382661183675,229.41114206218097L404.2127327601115,230.19079552970553L421.7871994018555,231.01207215180295L439.3616660435995,231.74115379886956L456.93613268534347,232.5212064564092L474.5105993270874,233.15622235373627L492.0850659688314,233.6616177389891L509.65953261057535,234.32013393508058L527.2339992523193,234.84296214346423L544.8084658940634,235.4220288885351L562.3829325358073,235.89530683142868L579.9573991775513,236.50874957194236L597.5318658192953,236.92935800301854L615.1063324610393,237.33728187065392L632.6807991027832,237.77432542206896L650.2552657445273,238.1017501540466L667.8297323862711,238.46371861289802L685.4041990280151,238.88847855509633L702.978665669759,239.26782402885107L720.5531323115031,239.5986639896221L738.127598953247,239.8406295916424L755.702065594991,240.1859368226487L773.276532236735,240.46666848103118L790.850998878479,240.9196144369624L808.425465520223,241.0257943835672L825.999932161967,241.35955657244597L843.574398803711,241.60517144368154L861.1488654454549,241.84928175504479L878.723332087199,241.97149024700494L896.2977987289429,242.18814792973714L913.8722653706869,242.45445685415874L931.4467320124307,242.66846016663212L949.0211986541748,242.8885057019934" fill="none"></path></g><g><path style="fill: none;" stroke="rgb(204, 51, 17)" stroke-width="2px" d="M87.87233320871988,135.1825969245155L105.44679985046388,173.2839921077529L123.02126649220784,190.43858191482013L140.59573313395182,199.7868563751936L158.1701997756958,206.08255144620105L175.74466641743976,211.29270058709778L193.31913305918374,215.50881837434025L210.89359970092775,218.9291550648597L228.46806634267173,222.0664360044048L246.0425329844157,224.9129212166471L263.61699962615967,227.1440675115727L281.19146626790365,229.62942597812454L298.76593290964763,231.5260533419618L316.3403995513916,234.199598105362L333.91486619313554,235.94552793808037L351.4893328348795,237.5726333453543L369.0637994766235,239.08763229590164L386.6382661183675,241.44844484276337L404.2127327601115,242.3584478203916L421.7871994018555,244.42106066587382L439.3616660435995,246.3899941160218L456.93613268534347,247.07540020388777L474.5105993270874,248.32884229684734L492.0850659688314,249.8932803032513L509.65953261057535,251.61609971434106L527.2339992523193,252.1743942116634L544.8084658940634,254.31188855259796L562.3829325358073,255.85986801536876L579.9573991775513,256.6168064857698L597.5318658192953,257.7546107574529L615.1063324610393,258.8198163024724L632.6807991027832,259.99494340658276L650.2552657445273,260.77863612295806L667.8297323862711,262.33922207934404L685.4041990280151,262.8953926180592L702.978665669759,263.42448573630776L720.5531323115031,265.2216005607805L738.127598953247,264.8782781886522L755.702065594991,266.8926662580807L773.276532236735,268.8630602703327L790.850998878479,268.051180955255L808.425465520223,270.0124564255332L825.999932161967,270.7315642982618L843.574398803711,271.62876460537876L861.1488654454549,272.24593978542543L878.723332087199,273.2289858907722L896.2977987289429,273.3225288446226L913.8722653706869,274.93029364555L931.4467320124307,276.32840662449325L949.0211986541748,276.69860839989656" fill="none"></path></g></g></g></g></g></g><g transform="translate(51, 377)" clip-path="url(#clip_1)"><clipPath id="clip_1"><rect width="1054" height="22"></rect></clipPath><g><g><line x1="0" y1="0" x2="0" y2="5" style="visibility: inherit;" fill="rgb(0, 0, 0)" stroke="rgb(204, 204, 204)" stroke-width="1px"></line><line x1="87.87233320871988" y1="0" x2="87.87233320871988" y2="5" style="visibility: inherit;" fill="rgb(0, 0, 0)" stroke="rgb(204, 204, 204)" stroke-width="1px"></line><line x1="175.74466641743976" y1="0" x2="175.74466641743976" y2="5" style="visibility: inherit;" fill="rgb(0, 0, 0)" stroke="rgb(204, 204, 204)" stroke-width="1px"></line><line x1="263.61699962615967" y1="0" x2="263.61699962615967" y2="5" style="visibility: inherit;" fill="rgb(0, 0, 0)" stroke="rgb(204, 204, 204)" stroke-width="1px"></line><line x1="351.4893328348795" y1="0" x2="351.4893328348795" y2="5" style="visibility: inherit;" fill="rgb(0, 0, 0)" stroke="rgb(204, 204, 204)" stroke-width="1px"></line><line x1="439.3616660435995" y1="0" x2="439.3616660435995" y2="5" style="visibility: inherit;" fill="rgb(0, 0, 0)" stroke="rgb(204, 204, 204)" stroke-width="1px"></line><line x1="527.2339992523193" y1="0" x2="527.2339992523193" y2="5" style="visibility: inherit;" fill="rgb(0, 0, 0)" stroke="rgb(204, 204, 204)" stroke-width="1px"></line><line x1="615.1063324610393" y1="0" x2="615.1063324610393" y2="5" style="visibility: inherit;" fill="rgb(0, 0, 0)" stroke="rgb(204, 204, 204)" stroke-width="1px"></line><line x1="702.978665669759" y1="0" x2="702.978665669759" y2="5" style="visibility: inherit;" fill="rgb(0, 0, 0)" stroke="rgb(204, 204, 204)" stroke-width="1px"></line><line x1="790.850998878479" y1="0" x2="790.850998878479" y2="5" style="visibility: inherit;" fill="rgb(0, 0, 0)" stroke="rgb(204, 204, 204)" stroke-width="1px"></line><line x1="878.723332087199" y1="0" x2="878.723332087199" y2="5" style="visibility: inherit;" fill="rgb(0, 0, 0)" stroke="rgb(204, 204, 204)" stroke-width="1px"></line><line x1="966.5956652959187" y1="0" x2="966.5956652959187" y2="5" style="visibility: inherit;" fill="rgb(0, 0, 0)" stroke="rgb(204, 204, 204)" stroke-width="1px"></line><line x1="1054.4679985046387" y1="0" x2="1054.4679985046387" y2="5" style="visibility: inherit;" fill="rgb(0, 0, 0)" stroke="rgb(204, 204, 204)" stroke-width="1px"></line></g><g transform="translate(0, 8)"><text style="text-anchor: middle; visibility: hidden; font-family: Roboto, sans-serif; font-size: 12px; font-weight: 200;" x="0" y="0" dx="0em" dy="0.95em" fill="rgb(50, 49, 63)" stroke="none" stroke-width="1px">-5</text><text style="text-anchor: middle; visibility: inherit; font-family: Roboto, sans-serif; font-size: 12px; font-weight: 200;" x="87.87233320871988" y="0" dx="0em" dy="0.95em" fill="rgb(50, 49, 63)" stroke="none" stroke-width="1px">0</text><text style="text-anchor: middle; visibility: inherit; font-family: Roboto, sans-serif; font-size: 12px; font-weight: 200;" x="175.74466641743976" y="0" dx="0em" dy="0.95em" fill="rgb(50, 49, 63)" stroke="none" stroke-width="1px">5</text><text style="text-anchor: middle; visibility: inherit; font-family: Roboto, sans-serif; font-size: 12px; font-weight: 200;" x="263.61699962615967" y="0" dx="0em" dy="0.95em" fill="rgb(50, 49, 63)" stroke="none" stroke-width="1px">10</text><text style="text-anchor: middle; visibility: inherit; font-family: Roboto, sans-serif; font-size: 12px; font-weight: 200;" x="351.4893328348795" y="0" dx="0em" dy="0.95em" fill="rgb(50, 49, 63)" stroke="none" stroke-width="1px">15</text><text style="text-anchor: middle; visibility: inherit; font-family: Roboto, sans-serif; font-size: 12px; font-weight: 200;" x="439.3616660435995" y="0" dx="0em" dy="0.95em" fill="rgb(50, 49, 63)" stroke="none" stroke-width="1px">20</text><text style="text-anchor: middle; visibility: inherit; font-family: Roboto, sans-serif; font-size: 12px; font-weight: 200;" x="527.2339992523193" y="0" dx="0em" dy="0.95em" fill="rgb(50, 49, 63)" stroke="none" stroke-width="1px">25</text><text style="text-anchor: middle; visibility: inherit; font-family: Roboto, sans-serif; font-size: 12px; font-weight: 200;" x="615.1063324610393" y="0" dx="0em" dy="0.95em" fill="rgb(50, 49, 63)" stroke="none" stroke-width="1px">30</text><text style="text-anchor: middle; visibility: inherit; font-family: Roboto, sans-serif; font-size: 12px; font-weight: 200;" x="702.978665669759" y="0" dx="0em" dy="0.95em" fill="rgb(50, 49, 63)" stroke="none" stroke-width="1px">35</text><text style="text-anchor: middle; visibility: inherit; font-family: Roboto, sans-serif; font-size: 12px; font-weight: 200;" x="790.850998878479" y="0" dx="0em" dy="0.95em" fill="rgb(50, 49, 63)" stroke="none" stroke-width="1px">40</text><text style="text-anchor: middle; visibility: inherit; font-family: Roboto, sans-serif; font-size: 12px; font-weight: 200;" x="878.723332087199" y="0" dx="0em" dy="0.95em" fill="rgb(50, 49, 63)" stroke="none" stroke-width="1px">45</text><text style="text-anchor: middle; visibility: inherit; font-family: Roboto, sans-serif; font-size: 12px; font-weight: 200;" x="966.5956652959187" y="0" dx="0em" dy="0.95em" fill="rgb(50, 49, 63)" stroke="none" stroke-width="1px">50</text><text style="text-anchor: middle; visibility: hidden; font-family: Roboto, sans-serif; font-size: 12px; font-weight: 200;" x="1054.4679985046387" y="0" dx="0em" dy="0.95em" fill="rgb(50, 49, 63)" stroke="none" stroke-width="1px">55</text></g><line x1="0" y1="0" x2="1054.4679985046387" y2="0" fill="rgb(0, 0, 0)" stroke="rgb(204, 204, 204)" stroke-width="1px"></line></g></g></g></g></svg>