<svg viewBox="0 0 1106 400" xmlns="http://www.w3.org/2000/svg"><g><g><g><g><g><line x1="29.992000579833984" y1="378.6199998855591" x2="24.992000579833984" y2="378.6199998855591" style="visibility: inherit;" fill="rgb(0, 0, 0)" stroke="rgb(204, 204, 204)" stroke-width="1px"></line><line x1="29.992000579833984" y1="344.1999998959628" x2="24.992000579833984" y2="344.1999998959628" style="visibility: inherit;" fill="rgb(0, 0, 0)" stroke="rgb(204, 204, 204)" stroke-width="1px"></line><line x1="29.992000579833984" y1="309.7799999063665" x2="24.992000579833984" y2="309.7799999063665" style="visibility: inherit;" fill="rgb(0, 0, 0)" stroke="rgb(204, 204, 204)" stroke-width="1px"></line><line x1="29.992000579833984" y1="275.3599999167702" x2="24.992000579833984" y2="275.3599999167702" style="visibility: inherit;" fill="rgb(0, 0, 0)" stroke="rgb(204, 204, 204)" stroke-width="1px"></line><line x1="29.992000579833984" y1="240.93999992717397" x2="24.992000579833984" y2="240.93999992717397" style="visibility: inherit;" fill="rgb(0, 0, 0)" stroke="rgb(204, 204, 204)" stroke-width="1px"></line><line x1="29.992000579833984" y1="206.51999993757767" x2="24.992000579833984" y2="206.51999993757767" style="visibility: inherit;" fill="rgb(0, 0, 0)" stroke="rgb(204, 204, 204)" stroke-width="1px"></line><line x1="29.992000579833984" y1="172.09999994798142" x2="24.992000579833984" y2="172.09999994798142" style="visibility: inherit;" fill="rgb(0, 0, 0)" stroke="rgb(204, 204, 204)" stroke-width="1px"></line><line x1="29.992000579833984" y1="137.6799999583851" x2="24.992000579833984" y2="137.6799999583851" style="visibility: inherit;" fill="rgb(0, 0, 0)" stroke="rgb(204, 204, 204)" stroke-width="1px"></line><line x1="29.992000579833984" y1="103.25999996878883" x2="24.992000579833984" y2="103.25999996878883" style="visibility: inherit;" fill="rgb(0, 0, 0)" stroke="rgb(204, 204, 204)" stroke-width="1px"></line><line x1="29.992000579833984" y1="68.83999997919254" x2="24.992000579833984" y2="68.83999997919254" style="visibility: inherit;" fill="rgb(0, 0, 0)" stroke="rgb(204, 204, 204)" stroke-width="1px"></line><line x1="29.992000579833984" y1="34.41999998959629" x2="24.992000579833984" y2="34.41999998959629" style="visibility: inherit;" fill="rgb(0, 0, 0)" stroke="rgb(204, 204, 204)" stroke-width="1px"></line><line x1="29.992000579833984" y1="0" x2="24.992000579833984" y2="0" style="visibility: inherit;" fill="rgb(0, 0, 0)" stroke="rgb(204, 204, 204)" stroke-width="1px"></line></g><g transform="translate(19.992000579833984, 0)"><text style="text-anchor: end; visibility: hidden; font-family: Roboto, sans-serif; font-size: 12px; font-weight: 200;" x="0" y="378.6199998855591" dx="0em" dy="0.3em" fill="rgb(50, 49, 63)" stroke="none" stroke-width="1px">-1</text><text style="text-anchor: end; visibility: inherit; font-family: Roboto, sans-serif; font-size: 12px; font-weight: 200;" x="0" y="344.1999998959628" dx="0em" dy="0.3em" fill="rgb(50, 49, 63)" stroke="none" stroke-width="1px">0</text><text style="text-anchor: end; visibility: inherit; font-family: Roboto, sans-serif; font-size: 12px; font-weight: 200;" x="0" y="309.7799999063665" dx="0em" dy="0.3em" fill="rgb(50, 49, 63)" stroke="none" stroke-width="1px">1</text><text style="text-anchor: end; visibility: inherit; font-family: Roboto, sans-serif; font-size: 12px; font-weight: 200;" x="0" y="275.3599999167702" dx="0em" dy="0.3em" fill="rgb(50, 49, 63)" stroke="none" stroke-width="1px">2</text><text style="text-anchor: end; visibility: inherit; font-family: Roboto, sans-serif; font-size: 12px; font-weight: 200;" x="0" y="240.93999992717397" dx="0em" dy="0.3em" fill="rgb(50, 49, 63)" stroke="none" stroke-width="1px">3</text><text style="text-anchor: end; visibility: inherit; font-family: Roboto, sans-serif; font-size: 12px; font-weight: 200;" x="0" y="206.51999993757767" dx="0em" dy="0.3em" fill="rgb(50, 49, 63)" stroke="none" stroke-width="1px">4</text><text style="text-anchor: end; visibility: inherit; font-family: Roboto, sans-serif; font-size: 12px; font-weight: 200;" x="0" y="172.09999994798142" dx="0em" dy="0.3em" fill="rgb(50, 49, 63)" stroke="none" stroke-width="1px">5</text><text style="text-anchor: end; visibility: inherit; font-family: Roboto, sans-serif; font-size: 12px; font-weight: 200;" x="0" y="137.6799999583851" dx="0em" dy="0.3em" fill="rgb(50, 49, 63)" stroke="none" stroke-width="1px">6</text><text style="text-anchor: end; visibility: inherit; font-family: Roboto, sans-serif; font-size: 12px; font-weight: 200;" x="0" y="103.25999996878883" dx="0em" dy="0.3em" fill="rgb(50, 49, 63)" stroke="none" stroke-width="1px">7</text><text style="text-anchor: end; visibility: inherit; font-family: Roboto, sans-serif; font-size: 12px; font-weight: 200;" x="0" y="68.83999997919254" dx="0em" dy="0.3em" fill="rgb(50, 49, 63)" stroke="none" stroke-width="1px">8</text><text style="text-anchor: end; visibility: inherit; font-family: Roboto, sans-serif; font-size: 12px; font-weight: 200;" x="0" y="34.41999998959629" dx="0em" dy="0.3em" fill="rgb(50, 49, 63)" stroke="none" stroke-width="1px">9</text><text style="text-anchor: end; visibility: hidden; font-family: Roboto, sans-serif; font-size: 12px; font-weight: 200;" x="0" y="0" dx="0em" dy="0.3em" fill="rgb(50, 49, 63)" stroke="none" stroke-width="1px">10</text></g><line x1="29.992000579833984" y1="0" x2="29.992000579833984" y2="378.6199998855591" fill="rgb(0, 0, 0)" stroke="rgb(204, 204, 204)" stroke-width="1px"></line></g></g><g transform="translate(30, 0)" clip-path="url(#clip_0)"><clipPath id="clip_0"><rect width="1076" height="378"></rect></clipPath><g><g><g><line x1="0" y1="0" x2="0" y2="378.6199998855591" fill="rgb(0, 0, 0)" stroke="rgb(60, 60, 60)" stroke-width="1px" opacity="0.25"></line><line x1="89.66733328501383" y1="0" x2="89.66733328501383" y2="378.6199998855591" fill="rgb(0, 0, 0)" stroke="rgb(60, 60, 60)" stroke-width="1px" opacity="0.25"></line><line x1="179.33466657002765" y1="0" x2="179.33466657002765" y2="378.6199998855591" fill="rgb(0, 0, 0)" stroke="rgb(60, 60, 60)" stroke-width="1px" opacity="0.25"></line><line x1="269.0019998550415" y1="0" x2="269.0019998550415" y2="378.6199998855591" fill="rgb(0, 0, 0)" stroke="rgb(60, 60, 60)" stroke-width="1px" opacity="0.25"></line><line x1="358.6693331400553" y1="0" x2="358.6693331400553" y2="378.6199998855591" fill="rgb(0, 0, 0)" stroke="rgb(60, 60, 60)" stroke-width="1px" opacity="0.25"></line><line x1="448.3366664250692" y1="0" x2="448.3366664250692" y2="378.6199998855591" fill="rgb(0, 0, 0)" stroke="rgb(60, 60, 60)" stroke-width="1px" opacity="0.25"></line><line x1="538.003999710083" y1="0" x2="538.003999710083" y2="378.6199998855591" fill="rgb(0, 0, 0)" stroke="rgb(60, 60, 60)" stroke-width="1px" opacity="0.25"></line><line x1="627.6713329950969" y1="0" x2="627.6713329950969" y2="378.6199998855591" fill="rgb(0, 0, 0)" stroke="rgb(60, 60, 60)" stroke-width="1px" opacity="0.25"></line><line x1="717.3386662801106" y1="0" x2="717.3386662801106" y2="378.6199998855591" fill="rgb(0, 0, 0)" stroke="rgb(60, 60, 60)" stroke-width="1px" opacity="0.25"></line><line x1="807.0059995651245" y1="0" x2="807.0059995651245" y2="378.6199998855591" fill="rgb(0, 0, 0)" stroke="rgb(60, 60, 60)" stroke-width="1px" opacity="0.25"></line><line x1="896.6733328501384" y1="0" x2="896.6733328501384" y2="378.6199998855591" fill="rgb(0, 0, 0)" stroke="rgb(60, 60, 60)" stroke-width="1px" opacity="0.25"></line><line x1="986.3406661351521" y1="0" x2="986.3406661351521" y2="378.6199998855591" fill="rgb(0, 0, 0)" stroke="rgb(60, 60, 60)" stroke-width="1px" opacity="0.25"></line><line x1="1076.007999420166" y1="0" x2="1076.007999420166" y2="378.6199998855591" fill="rgb(0, 0, 0)" stroke="rgb(60, 60, 60)" stroke-width="1px" opacity="0.25"></line></g><g><line x1="0" y1="378.6199998855591" x2="1076.007999420166" y2="378.6199998855591" fill="rgb(0, 0, 0)" stroke="rgb(60, 60, 60)" stroke-width="1px" opacity="0.25"></line><line x1="0" y1="344.1999998959628" x2="1076.007999420166" y2="344.1999998959628" fill="rgb(0, 0, 0)" stroke="rgb(60, 60, 60)" stroke-width="1px" opacity="0.25"></line><line x1="0" y1="309.7799999063665" x2="1076.007999420166" y2="309.7799999063665" fill="rgb(0, 0, 0)" stroke="rgb(60, 60, 60)" stroke-width="1px" opacity="0.25"></line><line x1="0" y1="275.3599999167702" x2="1076.007999420166" y2="275.3599999167702" fill="rgb(0, 0, 0)" stroke="rgb(60, 60, 60)" stroke-width="1px" opacity="0.25"></line><line x1="0" y1="240.93999992717397" x2="1076.007999420166" y2="240.93999992717397" fill="rgb(0, 0, 0)" stroke="rgb(60, 60, 60)" stroke-width="1px" opacity="0.25"></line><line x1="0" y1="206.51999993757767" x2="1076.007999420166" y2="206.51999993757767" fill="rgb(0, 0, 0)" stroke="rgb(60, 60, 60)" stroke-width="1px" opacity="0.25"></line><line x1="0" y1="172.09999994798142" x2="1076.007999420166" y2="172.09999994798142" fill="rgb(0, 0, 0)" stroke="rgb(60, 60, 60)" stroke-width="1px" opacity="0.25"></line><line x1="0" y1="137.6799999583851" x2="1076.007999420166" y2="137.6799999583851" fill="rgb(0, 0, 0)" stroke="rgb(60, 60, 60)" stroke-width="1px" opacity="0.25"></line><line x1="0" y1="103.25999996878883" x2="1076.007999420166" y2="103.25999996878883" fill="rgb(0, 0, 0)" stroke="rgb(60, 60, 60)" stroke-width="1px" opacity="0.25"></line><line x1="0" y1="68.83999997919254" x2="1076.007999420166" y2="68.83999997919254" fill="rgb(0, 0, 0)" stroke="rgb(60, 60, 60)" stroke-width="1px" opacity="0.25"></line><line x1="0" y1="34.41999998959629" x2="1076.007999420166" y2="34.41999998959629" fill="rgb(0, 0, 0)" stroke="rgb(60, 60, 60)" stroke-width="1px" opacity="0.25"></line><line x1="0" y1="0" x2="1076.007999420166" y2="0" fill="rgb(0, 0, 0)" stroke="rgb(60, 60, 60)" stroke-width="1px" opacity="0.25"></line></g></g></g><g><g><line x1="0" y1="344.1999998959628" x2="1076.007999420166" y2="344.1999998959628" fill="rgb(0, 0, 0)" stroke="rgb(153, 153, 153)" stroke-width="1.5px"></line></g></g><g><g><line x1="89.66733328501383" y1="0" x2="89.66733328501383" y2="378.6199998855591" fill="rgb(0, 0, 0)" stroke="rgb(153, 153, 153)" stroke-width="1.5px"></line></g></g><g><g><g><g><g><path style="fill: none;" stroke="rgb(0, 153, 136)" stroke-width="2px" d="M89.66733328501383,199.43513104132742L107.60079994201661,217.378796702484L125.53426659901938,226.97154791647296L143.46773325602214,201.44938394179587L161.4011999130249,205.6262772796905L179.33466657002765,194.3569816001896L197.26813322703043,191.355223674156L215.20159988403321,191.41119110043914L233.13506654103597,158.58831435178465L251.06853319803875,165.84978427642392L269.0019998550415,116.40116807280329L286.9354665120443,139.44000318127235L304.868933169047,162.7928959735912L322.8023998260498,136.29254940681778L340.7358664830526,141.6171032382162L358.6693331400553,117.98258432636885L376.6027997970581,124.87125538866354L394.53626645406086,121.47431162977207L412.46973311106365,111.35380892248868L430.40319976806643,114.42656834004745L448.3366664250692,98.80382753246789L466.27013308207194,103.35754085277729L484.2035997390747,96.09539800600383L502.1370663960775,104.51035494506498L520.0705330530802,72.91751420678091L538.003999710083,50.25996334464129L555.9374663670858,75.78573812101403L573.8709330240886,67.59292754991253L591.8043996810914,68.54729526355226L609.737866338094,82.54469933875869L627.6713329950969,41.259711863444466L645.6047996520996,52.636199115102244L663.5382663091024,40.232077700852244L681.4717329661052,36.34452446792693L699.4051996231079,29.620555201160457L717.3386662801106,32.28109236695178L735.2721329371135,14.169540839680778L753.2055995941162,-0.7182869336818102L771.139066251119,6.734440591683963L789.0725329081217,4.939839323458074L807.0059995651245,-0.4696011732589229" fill="none"></path></g><g><path style="fill: none;" stroke="rgb(238, 51, 119)" stroke-width="2px" d="M89.66733328501383,171.49676628651213L107.60079994201661,235.53248792681717L125.53426659901938,252.98707049829306L143.46773325602214,272.33025007122757L161.4011999130249,273.0768079409131L179.33466657002765,282.84729676518845L197.26813322703043,287.36084812300084L215.20159988403321,279.6020312966183L233.13506654103597,293.0728450795301L251.06853319803875,300.74275822370765L269.0019998550415,283.7193505097178L286.9354665120443,292.161913669016L304.868933169047,291.08901728653154L322.8023998260498,290.5732840184265L340.7358664830526,297.9757475429148L358.6693331400553,284.91836645097527L376.6027997970581,292.61303820587074L394.53626645406086,292.36893980487486L412.46973311106365,293.00347255195175L430.40319976806643,298.7359402921853L448.3366664250692,299.71177996636317L466.27013308207194,294.852379457044L484.2035997390747,288.3351614128255L502.1370663960775,283.95621499777104L520.0705330530802,292.88201831309686L538.003999710083,296.46465985874016L555.9374663670858,295.57561072713867L573.8709330240886,294.70077092084637L591.8043996810914,293.84530634819845L609.737866338094,293.5136295933472L627.6713329950969,289.34933302955005L645.6047996520996,294.16797251154543L663.5382663091024,296.6937529167802L681.4717329661052,296.4467617712441L699.4051996231079,286.5309956232898L717.3386662801106,290.93796268013955L735.2721329371135,291.51859190235706L753.2055995941162,292.2449333857305L771.139066251119,293.8906137031118L789.0725329081217,288.7962238607109L807.0059995651245,303.2270349253608L824.9394662221273,292.3555716322333L842.8729328791301,286.79117029819895L860.8063995361329,286.0565567963954L878.7398661931355,296.0315236794239L896.6733328501384,295.64408876066057L914.6067995071411,291.600253465252L932.5402661641439,295.8057706129524L950.4737328211467,290.0586586099326L968.4071994781494,285.27329184492623" fill="none"></path></g><g><path style="fill: none;" stroke="rgb(0, 119, 187)" stroke-width="2px" d="M89.66733328501383,329.52324604922364L107.60079994201661,329.3374497860619L125.53426659901938,330.437135855218L143.46773325602214,330.12667563771674L161.4011999130249,330.6362859298782L179.33466657002765,326.8513553740097L197.26813322703043,326.8579225195937L215.20159988403321,325.8062765257252L233.13506654103597,324.9859741861809L251.06853319803875,324.4129235443405L269.0019998550415,324.0327266417035L286.9354665120443,323.4848367225881L304.868933169047,322.9141638757281L322.8023998260498,319.41141952396924L340.7358664830526,320.7107911332643L358.6693331400553,319.987393684228L376.6027997970581,316.87193653661774L394.53626645406086,318.75981342932903L412.46973311106365,318.41211784513695L430.40319976806643,318.4293922487038L448.3366664250692,316.3623477861709L466.27013308207194,314.68804776216757L484.2035997390747,318.0725527195358L502.1370663960775,316.6837378593732L520.0705330530802,316.81500691374634L538.003999710083,314.87674702782897L555.9374663670858,312.86339067300884L573.8709330240886,312.3244436428659L591.8043996810914,312.6935927232692L609.737866338094,311.064185632621L627.6713329950969,309.77293422395746L645.6047996520996,309.0745477314394L663.5382663091024,307.21323279870194L681.4717329661052,307.751792077981L699.4051996231079,309.23750977705964L717.3386662801106,307.658075361243L735.2721329371135,303.13642021553403L753.2055995941162,306.27993493359327L771.139066251119,306.1871742586678L789.0725329081217,302.9158371605813L807.0059995651245,301.2187808795276L824.9394662221273,303.0558418931478L842.8729328791301,303.7897414409797L860.8063995361329,302.5974998560854L878.7398661931355,299.96840949051654L896.6733328501384,301.73839575945556L914.6067995071411,299.85640898701035L932.5402661641439,298.71482941181677L950.4737328211467,300.0577152847286L968.4071994781494,296.9591263254944" fill="none"></path></g><g><path style="fill: none;" stroke="rgb(187, 187, 187)" stroke-width="2px" d="M89.66733328501383,322.7600093140166L107.60079994201661,334.135054296588L125.53426659901938,335.9208952675181L143.46773325602214,336.8663565079412L161.4011999130249,338.22858273743554L179.33466657002765,338.441297424659L197.26813322703043,338.35752067054347L215.20159988403321,338.4031947475041L233.13506654103597,338.82864258627797L251.06853319803875,338.4739474835147L269.0019998550415,339.3049319490414L286.9354665120443,339.4087117239143L304.868933169047,339.0598862254984L322.8023998260498,339.1999412220657L340.7358664830526,339.2292836019249L358.6693331400553,339.10974093379724L376.6027997970581,338.92580136128015L394.53626645406086,338.6849762751169L412.46973311106365,339.770981816769L430.40319976806643,339.9013707382288L448.3366664250692,339.4839251335538L466.27013308207194,339.776583175479L484.2035997390747,339.43766276262375L502.1370663960775,338.80198112409823L520.0705330530802,339.7411224357579L538.003999710083,339.19762035875993L555.9374663670858,338.78989929956083L573.8709330240886,339.59849217849256L591.8043996810914,339.6981651793345L609.737866338094,338.4603777419717L627.6713329950969,339.25792228577177L645.6047996520996,338.74767087115015L663.5382663091024,338.624289161731L681.4717329661052,338.9114438084581L699.4051996231079,339.0966825515285L717.3386662801106,338.57973884421864L735.2721329371135,338.7770014543561L753.2055995941162,338.96973517543483L771.139066251119,339.1438676259032L789.0725329081217,338.8932025922213L807.0059995651245,338.3145798268551L824.9394662221273,338.2319483739024L842.8729328791301,338.1511407861244L860.8063995361329,339.43073966584984L878.7398661931355,338.79748095732583L896.6733328501384,338.7116408146845L914.6067995071411,338.88197217831095L932.5402661641439,338.4429330562794L950.4737328211467,338.93401439644396L968.4071994781494,338.78528373074556" fill="none"></path></g><g><path style="fill: none;" stroke="rgb(0, 119, 187)" stroke-width="2px" d="M89.66733328501383,331.0246994579648L107.60079994201661,333.32302807865756L125.53426659901938,334.36233682480054L143.46773325602214,335.072580492546L161.4011999130249,335.4855064403258L179.33466657002765,335.8391198412743L197.26813322703043,335.97641031779335L215.20159988403321,336.1444818529722L233.13506654103597,336.1644151196059L251.06853319803875,336.18242707045096L269.0019998550415,336.22325631320456L286.9354665120443,336.28770399449286L304.868933169047,336.10365927789223L322.8023998260498,336.0791683999137L340.7358664830526,335.96692119248485L358.6693331400553,335.9483522344464L376.6027997970581,335.83059137386005L394.53626645406086,335.6889263905707L412.46973311106365,335.60547737825686L430.40319976806643,335.6469328694295L448.3366664250692,335.5262869577724L466.27013308207194,335.2146163010663L484.2035997390747,335.04398540502643L502.1370663960775,334.9443221492458L520.0705330530802,334.8788743169196L538.003999710083,334.71249842242344L555.9374663670858,334.6829472930912L573.8709330240886,334.551807489006L591.8043996810914,334.20050930948577L609.737866338094,334.1942519542745L627.6713329950969,334.09304590140573L645.6047996520996,333.977625394248L663.5382663091024,333.8395624933889L681.4717329661052,333.68127397405425L699.4051996231079,333.7168219064299L717.3386662801106,333.5824016069405L735.2721329371135,333.53606332711115L753.2055995941162,333.29179874717363L771.139066251119,333.20080449285047L789.0725329081217,332.9097143800139L807.0059995651245,333.08722734099024L824.9394662221273,332.73358829514336L842.8729328791301,332.5141941376808L860.8063995361329,332.4681964221023L878.7398661931355,332.28758145421466L896.6733328501384,332.0814785346984L914.6067995071411,332.03154381431654L932.5402661641439,331.90928945463133L950.4737328211467,331.7123889504594L968.4071994781494,331.4967830573895" fill="none"></path></g><g><path style="fill: none;" stroke="rgb(255, 112, 67)" stroke-width="2px" d="M89.66733328501383,321.1300872738084L107.60079994201661,332.9226486409744L125.53426659901938,335.57941703249577L143.46773325602214,337.0684521556324L161.4011999130249,338.0625458684962L179.33466657002765,338.88131361731985L197.26813322703043,339.55149174738636L215.20159988403321,339.89063014187803L233.13506654103597,340.3277997508157L251.06853319803875,340.57117419632954L269.0019998550415,340.8591181930296L286.9354665120443,341.05653082582273L304.868933169047,341.2433021080219L322.8023998260498,341.3638631350653L340.7358664830526,341.5110961386967L358.6693331400553,341.6049636474374L376.6027997970581,341.74699509632495L394.53626645406086,341.7799903355132L412.46973311106365,341.884125548678L430.40319976806643,341.90003949038436L448.3366664250692,342.02824987772453L466.27013308207194,342.113260023229L484.2035997390747,342.13890915304404L502.1370663960775,342.1461558884359L520.0705330530802,342.3068978552011L538.003999710083,342.15326311558033L555.9374663670858,342.1963087186787L573.8709330240886,342.3021602166694L591.8043996810914,342.2789936412446L609.737866338094,342.43351018069706L627.6713329950969,342.4101603724731L645.6047996520996,342.43478678373975L663.5382663091024,342.4680006456869L681.4717329661052,342.38921105496456L699.4051996231079,342.5200137568602L717.3386662801106,342.56387858623816L735.2721329371135,342.4602026732038L753.2055995941162,342.52512555445963L771.139066251119,342.39556637368776L789.0725329081217,342.45171728921895L807.0059995651245,342.67157805560805L824.9394662221273,342.4644435700534L842.8729328791301,342.5513911876324L860.8063995361329,342.5057569884888L878.7398661931355,342.37394746788175L896.6733328501384,342.6939037348141L914.6067995071411,342.56208087885983L932.5402661641439,342.5202248143741L950.4737328211467,342.4771647219081L968.4071994781494,342.6542759555509" fill="none"></path></g><g><path style="fill: none;" stroke="rgb(51, 187, 238)" stroke-width="2px" d="M89.66733328501383,306.1387566904757L107.60079994201661,319.67283541196133L125.53426659901938,324.36570820898567L143.46773325602214,326.72748435992895L161.4011999130249,328.1724830893172L179.33466657002765,329.1767957812982L197.26813322703043,329.9367054108903L215.20159988403321,330.5196970411491L233.13506654103597,330.9943543625779L251.06853319803875,331.4176018690685L269.0019998550415,331.772180543993L286.9354665120443,332.0866752169116L304.868933169047,332.3837272557298L322.8023998260498,332.64231502432557L340.7358664830526,332.85800092947846L358.6693331400553,333.07291030710763L376.6027997970581,333.2720932072378L394.53626645406086,333.4506452994976L412.46973311106365,333.60713046957625L430.40319976806643,333.76950678571694L448.3366664250692,333.91156823913565L466.27013308207194,334.06141958689443L484.2035997390747,334.1817957142203L502.1370663960775,334.2765782329361L520.0705330530802,334.3987330904155L538.003999710083,334.4946460362531L555.9374663670858,334.59978088755776L573.8709330240886,334.68486245410423L591.8043996810914,334.794020477071L609.737866338094,334.86814038824247L627.6713329950969,334.9394670570794L645.6047996520996,335.01528055734167L663.5382663091024,335.07167163734647L681.4717329661052,335.13360919597875L699.4051996231079,335.2057554757688L717.3386662801106,335.2697025686402L735.2721329371135,335.3251017039746L753.2055995941162,335.3654011231271L771.139066251119,335.42259540135L789.0725329081217,335.46882084362636L807.0059995651245,335.54289049079694L824.9394662221273,335.5601628427719L842.8729328791301,335.61423203367497L860.8063995361329,335.6538051893046L878.7398661931355,335.69295520411043L896.6733328501384,335.71248738453306L914.6067995071411,335.74700490489073L932.5402661641439,335.7892405138729L950.4737328211467,335.82302766752395L968.4071994781494,335.8576272515565" fill="none"></path></g><g><path style="fill: none;" stroke="rgb(204, 51, 17)" stroke-width="2px" d="M89.66733328501383,280.94294764133247L107.60079994201661,313.30634166784336L125.53426659901938,321.8262744598391L143.46773325602214,325.43386336265263L161.4011999130249,327.52955830568567L179.33466657002765,329.0857410050148L197.26813322703043,330.23803399296685L215.20159988403321,331.10797562366344L233.13506654103597,331.8581791721065L251.06853319803875,332.50158300244027L269.0019998550415,332.9823602224249L286.9354665120443,333.4946888738175L304.868933169047,333.8698583505708L322.8023998260498,334.3764866539455L340.7358664830526,334.69384637491413L358.6693331400553,334.9803706700384L376.6027997970581,335.2393841439477L394.53626645406086,335.628574712456L412.46973311106365,335.7740382180973L430.40319976806643,336.0946722796946L448.3366664250692,336.3893547299L466.27013308207194,336.48940265915667L484.2035997390747,336.66906312392564L502.1370663960775,336.8874381531255L520.0705330530802,337.1206020823387L538.003999710083,337.1945542758745L555.9374663670858,337.4706180169386L573.8709330240886,337.66372717933007L591.8043996810914,337.7561272869839L609.737866338094,337.89256840446774L627.6713329950969,338.0176842219172L645.6047996520996,338.15283386231727L663.5382663091024,338.2413190197803L681.4717329661052,338.41368402385046L699.4051996231079,338.47389978400366L717.3386662801106,338.53060219307514L735.2721329371135,338.71903782918093L753.2055995941162,338.68352938994883L771.139066251119,338.8886326713252L789.0725329081217,339.0818767258823L807.0059995651245,339.00311919128296L824.9394662221273,339.19133889734417L842.8729328791301,339.2586290591719L860.8063995361329,339.34131795669697L878.7398661931355,339.3973941173494L896.6733328501384,339.48537971219145L914.6067995071411,339.49366763045856L932.5402661641439,339.6338600836814L950.4737328211467,339.752372339791L968.4071994781494,339.7832344363298" fill="none"></path></g></g></g></g></g></g><g transform="translate(30, 378)" clip-path="url(#clip_1)"><clipPath id="clip_1"><rect width="1076" height="21"></rect></clipPath><g><g><line x1="0" y1="0" x2="0" y2="5" style="visibility: inherit;" fill="rgb(0, 0, 0)" stroke="rgb(204, 204, 204)" stroke-width="1px"></line><line x1="89.66733328501383" y1="0" x2="89.66733328501383" y2="5" style="visibility: inherit;" fill="rgb(0, 0, 0)" stroke="rgb(204, 204, 204)" stroke-width="1px"></line><line x1="179.33466657002765" y1="0" x2="179.33466657002765" y2="5" style="visibility: inherit;" fill="rgb(0, 0, 0)" stroke="rgb(204, 204, 204)" stroke-width="1px"></line><line x1="269.0019998550415" y1="0" x2="269.0019998550415" y2="5" style="visibility: inherit;" fill="rgb(0, 0, 0)" stroke="rgb(204, 204, 204)" stroke-width="1px"></line><line x1="358.6693331400553" y1="0" x2="358.6693331400553" y2="5" style="visibility: inherit;" fill="rgb(0, 0, 0)" stroke="rgb(204, 204, 204)" stroke-width="1px"></line><line x1="448.3366664250692" y1="0" x2="448.3366664250692" y2="5" style="visibility: inherit;" fill="rgb(0, 0, 0)" stroke="rgb(204, 204, 204)" stroke-width="1px"></line><line x1="538.003999710083" y1="0" x2="538.003999710083" y2="5" style="visibility: inherit;" fill="rgb(0, 0, 0)" stroke="rgb(204, 204, 204)" stroke-width="1px"></line><line x1="627.6713329950969" y1="0" x2="627.6713329950969" y2="5" style="visibility: inherit;" fill="rgb(0, 0, 0)" stroke="rgb(204, 204, 204)" stroke-width="1px"></line><line x1="717.3386662801106" y1="0" x2="717.3386662801106" y2="5" style="visibility: inherit;" fill="rgb(0, 0, 0)" stroke="rgb(204, 204, 204)" stroke-width="1px"></line><line x1="807.0059995651245" y1="0" x2="807.0059995651245" y2="5" style="visibility: inherit;" fill="rgb(0, 0, 0)" stroke="rgb(204, 204, 204)" stroke-width="1px"></line><line x1="896.6733328501384" y1="0" x2="896.6733328501384" y2="5" style="visibility: inherit;" fill="rgb(0, 0, 0)" stroke="rgb(204, 204, 204)" stroke-width="1px"></line><line x1="986.3406661351521" y1="0" x2="986.3406661351521" y2="5" style="visibility: inherit;" fill="rgb(0, 0, 0)" stroke="rgb(204, 204, 204)" stroke-width="1px"></line><line x1="1076.007999420166" y1="0" x2="1076.007999420166" y2="5" style="visibility: inherit;" fill="rgb(0, 0, 0)" stroke="rgb(204, 204, 204)" stroke-width="1px"></line></g><g transform="translate(0, 8)"><text style="text-anchor: middle; visibility: hidden; font-family: Roboto, sans-serif; font-size: 12px; font-weight: 200;" x="0" y="0" dx="0em" dy="0.95em" fill="rgb(50, 49, 63)" stroke="none" stroke-width="1px">-5</text><text style="text-anchor: middle; visibility: hidden; font-family: Roboto, sans-serif; font-size: 12px; font-weight: 200;" x="89.66733328501383" y="0" dx="0em" dy="0.95em" fill="rgb(50, 49, 63)" stroke="none" stroke-width="1px">0</text><text style="text-anchor: middle; visibility: hidden; font-family: Roboto, sans-serif; font-size: 12px; font-weight: 200;" x="179.33466657002765" y="0" dx="0em" dy="0.95em" fill="rgb(50, 49, 63)" stroke="none" stroke-width="1px">5</text><text style="text-anchor: middle; visibility: hidden; font-family: Roboto, sans-serif; font-size: 12px; font-weight: 200;" x="269.0019998550415" y="0" dx="0em" dy="0.95em" fill="rgb(50, 49, 63)" stroke="none" stroke-width="1px">10</text><text style="text-anchor: middle; visibility: hidden; font-family: Roboto, sans-serif; font-size: 12px; font-weight: 200;" x="358.6693331400553" y="0" dx="0em" dy="0.95em" fill="rgb(50, 49, 63)" stroke="none" stroke-width="1px">15</text><text style="text-anchor: middle; visibility: hidden; font-family: Roboto, sans-serif; font-size: 12px; font-weight: 200;" x="448.3366664250692" y="0" dx="0em" dy="0.95em" fill="rgb(50, 49, 63)" stroke="none" stroke-width="1px">20</text><text style="text-anchor: middle; visibility: hidden; font-family: Roboto, sans-serif; font-size: 12px; font-weight: 200;" x="538.003999710083" y="0" dx="0em" dy="0.95em" fill="rgb(50, 49, 63)" stroke="none" stroke-width="1px">25</text><text style="text-anchor: middle; visibility: hidden; font-family: Roboto, sans-serif; font-size: 12px; font-weight: 200;" x="627.6713329950969" y="0" dx="0em" dy="0.95em" fill="rgb(50, 49, 63)" stroke="none" stroke-width="1px">30</text><text style="text-anchor: middle; visibility: hidden; font-family: Roboto, sans-serif; font-size: 12px; font-weight: 200;" x="717.3386662801106" y="0" dx="0em" dy="0.95em" fill="rgb(50, 49, 63)" stroke="none" stroke-width="1px">35</text><text style="text-anchor: middle; visibility: hidden; font-family: Roboto, sans-serif; font-size: 12px; font-weight: 200;" x="807.0059995651245" y="0" dx="0em" dy="0.95em" fill="rgb(50, 49, 63)" stroke="none" stroke-width="1px">40</text><text style="text-anchor: middle; visibility: hidden; font-family: Roboto, sans-serif; font-size: 12px; font-weight: 200;" x="896.6733328501384" y="0" dx="0em" dy="0.95em" fill="rgb(50, 49, 63)" stroke="none" stroke-width="1px">45</text><text style="text-anchor: middle; visibility: hidden; font-family: Roboto, sans-serif; font-size: 12px; font-weight: 200;" x="986.3406661351521" y="0" dx="0em" dy="0.95em" fill="rgb(50, 49, 63)" stroke="none" stroke-width="1px">50</text><text style="text-anchor: middle; visibility: hidden; font-family: Roboto, sans-serif; font-size: 12px; font-weight: 200;" x="1076.007999420166" y="0" dx="0em" dy="0.95em" fill="rgb(50, 49, 63)" stroke="none" stroke-width="1px">55</text></g><line x1="0" y1="0" x2="1076.007999420166" y2="0" fill="rgb(0, 0, 0)" stroke="rgb(204, 204, 204)" stroke-width="1px"></line></g></g></g></g></svg>