<svg viewBox="0 0 803.0556030273438 400.0000305175781" xmlns="http://www.w3.org/2000/svg"><g><g><g><g><g><line x1="60" y1="378" x2="55" y2="378" style="visibility: inherit;" fill="rgb(0, 0, 0)" stroke="rgb(204, 204, 204)" stroke-width="1px"></line><line x1="60" y1="351" x2="55" y2="351" style="visibility: inherit;" fill="rgb(0, 0, 0)" stroke="rgb(204, 204, 204)" stroke-width="1px"></line><line x1="60" y1="324" x2="55" y2="324" style="visibility: inherit;" fill="rgb(0, 0, 0)" stroke="rgb(204, 204, 204)" stroke-width="1px"></line><line x1="60" y1="297" x2="55" y2="297" style="visibility: inherit;" fill="rgb(0, 0, 0)" stroke="rgb(204, 204, 204)" stroke-width="1px"></line><line x1="60" y1="270" x2="55" y2="270" style="visibility: inherit;" fill="rgb(0, 0, 0)" stroke="rgb(204, 204, 204)" stroke-width="1px"></line><line x1="60" y1="242.99999999999997" x2="55" y2="242.99999999999997" style="visibility: inherit;" fill="rgb(0, 0, 0)" stroke="rgb(204, 204, 204)" stroke-width="1px"></line><line x1="60" y1="216" x2="55" y2="216" style="visibility: inherit;" fill="rgb(0, 0, 0)" stroke="rgb(204, 204, 204)" stroke-width="1px"></line><line x1="60" y1="189" x2="55" y2="189" style="visibility: inherit;" fill="rgb(0, 0, 0)" stroke="rgb(204, 204, 204)" stroke-width="1px"></line><line x1="60" y1="162" x2="55" y2="162" style="visibility: inherit;" fill="rgb(0, 0, 0)" stroke="rgb(204, 204, 204)" stroke-width="1px"></line><line x1="60" y1="134.99999999999997" x2="55" y2="134.99999999999997" style="visibility: inherit;" fill="rgb(0, 0, 0)" stroke="rgb(204, 204, 204)" stroke-width="1px"></line><line x1="60" y1="108" x2="55" y2="108" style="visibility: inherit;" fill="rgb(0, 0, 0)" stroke="rgb(204, 204, 204)" stroke-width="1px"></line><line x1="60" y1="81" x2="55" y2="81" style="visibility: inherit;" fill="rgb(0, 0, 0)" stroke="rgb(204, 204, 204)" stroke-width="1px"></line><line x1="60" y1="54.00000000000002" x2="55" y2="54.00000000000002" style="visibility: inherit;" fill="rgb(0, 0, 0)" stroke="rgb(204, 204, 204)" stroke-width="1px"></line><line x1="60" y1="26.99999999999999" x2="55" y2="26.99999999999999" style="visibility: inherit;" fill="rgb(0, 0, 0)" stroke="rgb(204, 204, 204)" stroke-width="1px"></line><line x1="60" y1="0" x2="55" y2="0" style="visibility: inherit;" fill="rgb(0, 0, 0)" stroke="rgb(204, 204, 204)" stroke-width="1px"></line></g><g transform="translate(50, 0)"><text x="0" y="378" dx="0em" dy="0.3em" style="text-anchor: end; visibility: hidden; font-family: Roboto, sans-serif; font-size: 12px; font-weight: 200;" fill="rgb(50, 49, 63)" stroke="none" stroke-width="1px">0.835</text><text x="0" y="351" dx="0em" dy="0.3em" style="text-anchor: end; visibility: inherit; font-family: Roboto, sans-serif; font-size: 12px; font-weight: 200;" fill="rgb(50, 49, 63)" stroke="none" stroke-width="1px">0.84</text><text x="0" y="324" dx="0em" dy="0.3em" style="text-anchor: end; visibility: inherit; font-family: Roboto, sans-serif; font-size: 12px; font-weight: 200;" fill="rgb(50, 49, 63)" stroke="none" stroke-width="1px">0.845</text><text x="0" y="297" dx="0em" dy="0.3em" style="text-anchor: end; visibility: inherit; font-family: Roboto, sans-serif; font-size: 12px; font-weight: 200;" fill="rgb(50, 49, 63)" stroke="none" stroke-width="1px">0.85</text><text x="0" y="270" dx="0em" dy="0.3em" style="text-anchor: end; visibility: inherit; font-family: Roboto, sans-serif; font-size: 12px; font-weight: 200;" fill="rgb(50, 49, 63)" stroke="none" stroke-width="1px">0.855</text><text x="0" y="242.99999999999997" dx="0em" dy="0.3em" style="text-anchor: end; visibility: inherit; font-family: Roboto, sans-serif; font-size: 12px; font-weight: 200;" fill="rgb(50, 49, 63)" stroke="none" stroke-width="1px">0.86</text><text x="0" y="216" dx="0em" dy="0.3em" style="text-anchor: end; visibility: inherit; font-family: Roboto, sans-serif; font-size: 12px; font-weight: 200;" fill="rgb(50, 49, 63)" stroke="none" stroke-width="1px">0.865</text><text x="0" y="189" dx="0em" dy="0.3em" style="text-anchor: end; visibility: inherit; font-family: Roboto, sans-serif; font-size: 12px; font-weight: 200;" fill="rgb(50, 49, 63)" stroke="none" stroke-width="1px">0.87</text><text x="0" y="162" dx="0em" dy="0.3em" style="text-anchor: end; visibility: inherit; font-family: Roboto, sans-serif; font-size: 12px; font-weight: 200;" fill="rgb(50, 49, 63)" stroke="none" stroke-width="1px">0.875</text><text x="0" y="134.99999999999997" dx="0em" dy="0.3em" style="text-anchor: end; visibility: inherit; font-family: Roboto, sans-serif; font-size: 12px; font-weight: 200;" fill="rgb(50, 49, 63)" stroke="none" stroke-width="1px">0.88</text><text x="0" y="108" dx="0em" dy="0.3em" style="text-anchor: end; visibility: inherit; font-family: Roboto, sans-serif; font-size: 12px; font-weight: 200;" fill="rgb(50, 49, 63)" stroke="none" stroke-width="1px">0.885</text><text x="0" y="81" dx="0em" dy="0.3em" style="text-anchor: end; visibility: inherit; font-family: Roboto, sans-serif; font-size: 12px; font-weight: 200;" fill="rgb(50, 49, 63)" stroke="none" stroke-width="1px">0.89</text><text x="0" y="54.00000000000002" dx="0em" dy="0.3em" style="text-anchor: end; visibility: inherit; font-family: Roboto, sans-serif; font-size: 12px; font-weight: 200;" fill="rgb(50, 49, 63)" stroke="none" stroke-width="1px">0.895</text><text x="0" y="26.99999999999999" dx="0em" dy="0.3em" style="text-anchor: end; visibility: inherit; font-family: Roboto, sans-serif; font-size: 12px; font-weight: 200;" fill="rgb(50, 49, 63)" stroke="none" stroke-width="1px">0.9</text><text x="0" y="0" dx="0em" dy="0.3em" style="text-anchor: end; visibility: hidden; font-family: Roboto, sans-serif; font-size: 12px; font-weight: 200;" fill="rgb(50, 49, 63)" stroke="none" stroke-width="1px">0.905</text></g><line x1="60" y1="0" x2="60" y2="378" fill="rgb(0, 0, 0)" stroke="rgb(204, 204, 204)" stroke-width="1px"></line></g></g><g transform="translate(60, 0)" clip-path="url(#clip_0)"><clipPath id="clip_0"><rect width="743" height="377"></rect></clipPath><g><g><g><line x1="0" y1="0" x2="0" y2="378" fill="rgb(0, 0, 0)" stroke="rgb(60, 60, 60)" stroke-width="1px" opacity="0.25"></line><line x1="61.92133333333334" y1="0" x2="61.92133333333334" y2="378" fill="rgb(0, 0, 0)" stroke="rgb(60, 60, 60)" stroke-width="1px" opacity="0.25"></line><line x1="123.84266666666667" y1="0" x2="123.84266666666667" y2="378" fill="rgb(0, 0, 0)" stroke="rgb(60, 60, 60)" stroke-width="1px" opacity="0.25"></line><line x1="185.764" y1="0" x2="185.764" y2="378" fill="rgb(0, 0, 0)" stroke="rgb(60, 60, 60)" stroke-width="1px" opacity="0.25"></line><line x1="247.68533333333335" y1="0" x2="247.68533333333335" y2="378" fill="rgb(0, 0, 0)" stroke="rgb(60, 60, 60)" stroke-width="1px" opacity="0.25"></line><line x1="309.6066666666667" y1="0" x2="309.6066666666667" y2="378" fill="rgb(0, 0, 0)" stroke="rgb(60, 60, 60)" stroke-width="1px" opacity="0.25"></line><line x1="371.528" y1="0" x2="371.528" y2="378" fill="rgb(0, 0, 0)" stroke="rgb(60, 60, 60)" stroke-width="1px" opacity="0.25"></line><line x1="433.44933333333336" y1="0" x2="433.44933333333336" y2="378" fill="rgb(0, 0, 0)" stroke="rgb(60, 60, 60)" stroke-width="1px" opacity="0.25"></line><line x1="495.3706666666667" y1="0" x2="495.3706666666667" y2="378" fill="rgb(0, 0, 0)" stroke="rgb(60, 60, 60)" stroke-width="1px" opacity="0.25"></line><line x1="557.292" y1="0" x2="557.292" y2="378" fill="rgb(0, 0, 0)" stroke="rgb(60, 60, 60)" stroke-width="1px" opacity="0.25"></line><line x1="619.2133333333334" y1="0" x2="619.2133333333334" y2="378" fill="rgb(0, 0, 0)" stroke="rgb(60, 60, 60)" stroke-width="1px" opacity="0.25"></line><line x1="681.1346666666667" y1="0" x2="681.1346666666667" y2="378" fill="rgb(0, 0, 0)" stroke="rgb(60, 60, 60)" stroke-width="1px" opacity="0.25"></line><line x1="743.056" y1="0" x2="743.056" y2="378" fill="rgb(0, 0, 0)" stroke="rgb(60, 60, 60)" stroke-width="1px" opacity="0.25"></line></g><g><line x1="0" y1="378" x2="743.056" y2="378" fill="rgb(0, 0, 0)" stroke="rgb(60, 60, 60)" stroke-width="1px" opacity="0.25"></line><line x1="0" y1="351" x2="743.056" y2="351" fill="rgb(0, 0, 0)" stroke="rgb(60, 60, 60)" stroke-width="1px" opacity="0.25"></line><line x1="0" y1="324" x2="743.056" y2="324" fill="rgb(0, 0, 0)" stroke="rgb(60, 60, 60)" stroke-width="1px" opacity="0.25"></line><line x1="0" y1="297" x2="743.056" y2="297" fill="rgb(0, 0, 0)" stroke="rgb(60, 60, 60)" stroke-width="1px" opacity="0.25"></line><line x1="0" y1="270" x2="743.056" y2="270" fill="rgb(0, 0, 0)" stroke="rgb(60, 60, 60)" stroke-width="1px" opacity="0.25"></line><line x1="0" y1="242.99999999999997" x2="743.056" y2="242.99999999999997" fill="rgb(0, 0, 0)" stroke="rgb(60, 60, 60)" stroke-width="1px" opacity="0.25"></line><line x1="0" y1="216" x2="743.056" y2="216" fill="rgb(0, 0, 0)" stroke="rgb(60, 60, 60)" stroke-width="1px" opacity="0.25"></line><line x1="0" y1="189" x2="743.056" y2="189" fill="rgb(0, 0, 0)" stroke="rgb(60, 60, 60)" stroke-width="1px" opacity="0.25"></line><line x1="0" y1="162" x2="743.056" y2="162" fill="rgb(0, 0, 0)" stroke="rgb(60, 60, 60)" stroke-width="1px" opacity="0.25"></line><line x1="0" y1="134.99999999999997" x2="743.056" y2="134.99999999999997" fill="rgb(0, 0, 0)" stroke="rgb(60, 60, 60)" stroke-width="1px" opacity="0.25"></line><line x1="0" y1="108" x2="743.056" y2="108" fill="rgb(0, 0, 0)" stroke="rgb(60, 60, 60)" stroke-width="1px" opacity="0.25"></line><line x1="0" y1="81" x2="743.056" y2="81" fill="rgb(0, 0, 0)" stroke="rgb(60, 60, 60)" stroke-width="1px" opacity="0.25"></line><line x1="0" y1="54.00000000000002" x2="743.056" y2="54.00000000000002" fill="rgb(0, 0, 0)" stroke="rgb(60, 60, 60)" stroke-width="1px" opacity="0.25"></line><line x1="0" y1="26.99999999999999" x2="743.056" y2="26.99999999999999" fill="rgb(0, 0, 0)" stroke="rgb(60, 60, 60)" stroke-width="1px" opacity="0.25"></line><line x1="0" y1="0" x2="743.056" y2="0" fill="rgb(0, 0, 0)" stroke="rgb(60, 60, 60)" stroke-width="1px" opacity="0.25"></line></g></g></g><g><g><line x1="0" y1="4886.999999999996" x2="743.056" y2="4886.999999999996" fill="rgb(0, 0, 0)" stroke="rgb(153, 153, 153)" stroke-width="1.5px"></line></g></g><g><g><line x1="61.92133333333334" y1="0" x2="61.92133333333334" y2="378" fill="rgb(0, 0, 0)" stroke="rgb(153, 153, 153)" stroke-width="1.5px"></line></g></g><g><g><g><g><g><path stroke="rgb(0, 153, 136)" stroke-width="2px" d="M74.30560000000001,451.1854763031003L86.68986666666667,335.93299341201765L99.07413333333334,330.3106541633604L111.4584,122.29407978057863L123.84266666666667,188.35334730148313L136.22693333333333,219.27492570877067L148.61120000000003,167.27054071426392L160.9954666666667,191.1645169258117L173.37973333333335,125.10524940490725L185.764,111.05004501342778L198.14826666666667,92.7780861854554L210.53253333333333,95.58925580978398L222.9168,136.3492841720581L235.30106666666666,98.4004254341126L247.68533333333335,85.75080585479743L260.0696,70.29001665115365L272.45386666666667,84.34522104263313L284.83813333333336,89.96723842620855L297.22240000000005,78.7232036590577L309.6066666666667,88.56165361404425L321.9909333333334,84.34522104263313L334.3752,70.29001665115365L346.7594666666667,82.93963623046882L359.14373333333333,68.88443183898933L371.528,67.47884702682502L383.9122666666667,67.47884702682502L396.29653333333334,80.1284666061402L408.68080000000003,81.5340514183045L421.06506666666667,74.50644922256477L433.44933333333336,75.91203403472907L445.8336,77.31761884689338L458.21786666666674,77.31761884689338L470.6021333333333,68.88443183898933L482.98640000000006,74.50644922256477L495.3706666666667,74.50644922256477L507.7549333333334,68.88443183898933L520.1392,80.1284666061402L532.5234666666666,73.10086441040045L544.9077333333333,73.10086441040045L557.292,70.29001665115365L569.6762666666667,74.50644922256477L582.0605333333334,81.5340514183045L594.4448000000001,74.50644922256477L606.8290666666667,74.50644922256477L619.2133333333334,75.91203403472907L631.5976,71.69560146331796L643.9818666666667,70.29001665115365L656.3661333333333,71.69560146331796L668.7504,71.69560146331796" style="fill: none;" fill="none"></path></g><g><path stroke="rgb(187, 187, 187)" stroke-width="2px" d="M74.30560000000001,493.35076761245693L86.68986666666667,267.06255626678455L99.07413333333334,248.79059743881217L111.4584,269.8734040260314L123.84266666666667,115.2664775848389L136.22693333333333,167.27054071426392L148.61120000000003,156.02650594711307L160.9954666666667,151.8100733757019L173.37973333333335,122.29407978057863L185.764,172.8928799629211L198.14826666666667,95.58925580978398L210.53253333333333,92.7780861854554L222.9168,96.9948406219483L235.30106666666666,94.18367099761967L247.68533333333335,82.93963623046882L260.0696,87.15606880187993L272.45386666666667,77.31761884689338L284.83813333333336,81.5340514183045L297.22240000000005,87.15606880187993L309.6066666666667,80.1284666061402L321.9909333333334,78.7232036590577L334.3752,82.93963623046882L346.7594666666667,82.93963623046882L359.14373333333333,77.31761884689338L371.528,78.7232036590577L383.9122666666667,80.1284666061402L396.29653333333334,71.69560146331796L408.68080000000003,75.91203403472907L421.06506666666667,77.31761884689338L433.44933333333336,80.1284666061402L445.8336,80.1284666061402L458.21786666666674,78.7232036590577L470.6021333333333,80.1284666061402L482.98640000000006,80.1284666061402L495.3706666666667,80.1284666061402L507.7549333333334,80.1284666061402L520.1392,82.93963623046882L532.5234666666666,82.93963623046882L544.9077333333333,82.93963623046882L557.292,82.93963623046882L569.6762666666667,82.93963623046882L582.0605333333334,82.93963623046882L594.4448000000001,82.93963623046882L606.8290666666667,82.93963623046882L619.2133333333334,82.93963623046882L631.5976,82.93963623046882L643.9818666666667,82.93963623046882L656.3661333333333,82.93963623046882L668.7504,82.93963623046882" style="fill: none;" fill="none"></path></g><g><path stroke="rgb(238, 51, 119)" stroke-width="2px" d="M86.68986666666667,399.1810913085936L99.07413333333334,316.25544977188093L111.4584,276.9010062217711L123.84266666666667,278.30659103393543L136.22693333333333,223.49135828018183L148.61120000000003,269.8734040260314L160.9954666666667,226.30252790451047L173.37973333333335,172.8928799629211L185.764,150.4044885635376L198.14826666666667,113.86089277267462L210.53253333333333,160.24326038360596L222.9168,195.38094949722287L235.30106666666666,153.2156581878662L247.68533333333335,151.8100733757019L260.0696,134.94369935989383L272.45386666666667,156.02650594711307L284.83813333333336,125.10524940490725L297.22240000000005,113.86089277267462L309.6066666666667,98.4004254341126L321.9909333333334,81.5340514183045L334.3752,95.58925580978398L346.7594666666667,81.5340514183045L359.14373333333333,89.96723842620855L371.528,127.9160971641541L383.9122666666667,98.4004254341126L396.29653333333334,158.83767557144165L408.68080000000003,118.07764720916752L421.06506666666667,75.91203403472907L433.44933333333336,81.5340514183045L445.8336,84.34522104263313L458.21786666666674,94.18367099761967L470.6021333333333,92.7780861854554L482.98640000000006,67.47884702682502L495.3706666666667,96.9948406219483L507.7549333333334,77.31761884689338L520.1392,98.4004254341126L532.5234666666666,91.37282323837287L544.9077333333333,112.45562982559208L557.292,108.23887538909915L569.6762666666667,112.45562982559208L582.0605333333334,104.02244281768803L594.4448000000001,98.4004254341126L606.8290666666667,91.37282323837287L619.2133333333334,91.37282323837287L631.5976,102.61685800552372L643.9818666666667,92.7780861854554L656.3661333333333,91.37282323837287L668.7504,105.42802762985235" style="fill: none;" fill="none"></path></g><g><path stroke="rgb(204, 51, 17)" stroke-width="2px" d="M61.92133333333334,314.85018682479847L74.30560000000001,295.1729650497435L86.68986666666667,309.22784757614124L99.07413333333334,328.90539121627796L111.4584,140.56571674346927L123.84266666666667,137.7548689842224L136.22693333333333,139.16045379638675L148.61120000000003,116.6720623970032L160.9954666666667,116.6720623970032L173.37973333333335,87.15606880187993L185.764,82.93963623046882L198.14826666666667,91.37282323837287L210.53253333333333,84.34522104263313L222.9168,61.8568296432496L235.30106666666666,70.29001665115365L247.68533333333335,89.96723842620855L260.0696,68.88443183898933L272.45386666666667,73.10086441040045L284.83813333333336,88.56165361404425L297.22240000000005,68.88443183898933L309.6066666666667,74.50644922256477L321.9909333333334,78.7232036590577L334.3752,77.31761884689338L346.7594666666667,78.7232036590577L359.14373333333333,75.91203403472907L371.528,89.96723842620855L383.9122666666667,82.93963623046882L396.29653333333334,80.1284666061402L408.68080000000003,85.75080585479743L421.06506666666667,82.93963623046882L433.44933333333336,78.7232036590577L445.8336,84.34522104263313L458.21786666666674,77.31761884689338L470.6021333333333,75.91203403472907L482.98640000000006,77.31761884689338L495.3706666666667,78.7232036590577L507.7549333333334,80.1284666061402L520.1392,78.7232036590577L532.5234666666666,82.93963623046882L544.9077333333333,74.50644922256477L557.292,74.50644922256477L569.6762666666667,75.91203403472907L582.0605333333334,77.31761884689338L594.4448000000001,78.7232036590577L606.8290666666667,77.31761884689338L619.2133333333334,77.31761884689338L631.5976,77.31761884689338L643.9818666666667,74.50644922256477L656.3661333333333,74.50644922256477L668.7504,74.50644922256477" style="fill: none;" fill="none"></path></g><g><path stroke="rgb(0, 119, 187)" stroke-width="2px" d="M61.92133333333334,400.58667612075783L74.30560000000001,321.8777890205382L86.68986666666667,164.45969295501706L99.07413333333334,161.64852333068848L111.4584,167.27054071426392L123.84266666666667,81.5340514183045L136.22693333333333,91.37282323837287L148.61120000000003,108.23887538909915L160.9954666666667,85.75080585479743L173.37973333333335,81.5340514183045L185.764,77.31761884689338L198.14826666666667,75.91203403472907L210.53253333333333,66.07326221466072L222.9168,70.29001665115365L235.30106666666666,77.31761884689338L247.68533333333335,63.26241445541391L260.0696,77.31761884689338L272.45386666666667,68.88443183898933L284.83813333333336,70.29001665115365L297.22240000000005,67.47884702682502L309.6066666666667,71.69560146331796L321.9909333333334,74.50644922256477L334.3752,74.50644922256477L346.7594666666667,70.29001665115365L359.14373333333333,71.69560146331796L371.528,74.50644922256477L383.9122666666667,74.50644922256477L396.29653333333334,75.91203403472907L408.68080000000003,78.7232036590577L421.06506666666667,77.31761884689338L433.44933333333336,77.31761884689338L445.8336,77.31761884689338L458.21786666666674,77.31761884689338L470.6021333333333,77.31761884689338L482.98640000000006,77.31761884689338L495.3706666666667,74.50644922256477L507.7549333333334,74.50644922256477L520.1392,74.50644922256477L532.5234666666666,74.50644922256477L544.9077333333333,74.50644922256477L557.292,74.50644922256477L569.6762666666667,74.50644922256477L582.0605333333334,74.50644922256477L594.4448000000001,74.50644922256477L606.8290666666667,74.50644922256477L619.2133333333334,74.50644922256477L631.5976,74.50644922256477L643.9818666666667,74.50644922256477L656.3661333333333,74.50644922256477L668.7504,74.50644922256477" style="fill: none;" fill="none"></path></g><g><path stroke="rgb(51, 187, 238)" stroke-width="2px" d="M61.92133333333334,313.44460201263416L74.30560000000001,305.0114150047301L86.68986666666667,300.794982433319L99.07413333333334,317.66103458404524L111.4584,293.76738023757923L123.84266666666667,289.5506258010863L136.22693333333333,216.4637560844421L148.61120000000003,209.43615388870236L160.9954666666667,220.68051052093503L173.37973333333335,137.7548689842224L185.764,113.86089277267462L198.14826666666667,96.9948406219483L210.53253333333333,129.32168197631836L222.9168,87.15606880187993L235.30106666666666,120.88849496841436L247.68533333333335,88.56165361404425L260.0696,101.21127319335942L272.45386666666667,119.48323202133183L284.83813333333336,125.10524940490725L297.22240000000005,112.45562982559208L309.6066666666667,113.86089277267462L321.9909333333334,104.02244281768803L334.3752,82.93963623046882L346.7594666666667,77.31761884689338L359.14373333333333,92.7780861854554L371.528,94.18367099761967L383.9122666666667,68.88443183898933L396.29653333333334,88.56165361404425L408.68080000000003,105.42802762985235L421.06506666666667,73.10086441040045L433.44933333333336,106.83329057693489L445.8336,96.9948406219483L458.21786666666674,96.9948406219483L470.6021333333333,92.7780861854554L482.98640000000006,96.9948406219483L495.3706666666667,95.58925580978398L507.7549333333334,96.9948406219483L520.1392,95.58925580978398L532.5234666666666,94.18367099761967L544.9077333333333,94.18367099761967L557.292,88.56165361404425L569.6762666666667,92.7780861854554L582.0605333333334,96.9948406219483L594.4448000000001,111.05004501342778L606.8290666666667,99.80568838119514L619.2133333333334,95.58925580978398L631.5976,111.05004501342778L643.9818666666667,102.61685800552372L656.3661333333333,99.80568838119514L668.7504,111.05004501342778" style="fill: none;" fill="none"></path></g><g><path stroke="rgb(255, 112, 67)" stroke-width="2px" d="M61.92133333333334,421.66948270797707L74.30560000000001,300.794982433319L86.68986666666667,248.79059743881217L99.07413333333334,185.5424995422363L111.4584,151.8100733757019L123.84266666666667,140.56571674346927L136.22693333333333,123.69966459274295L148.61120000000003,115.2664775848389L160.9954666666667,118.07764720916752L173.37973333333335,116.6720623970032L185.764,123.69966459274295L198.14826666666667,112.45562982559208L210.53253333333333,105.42802762985235L222.9168,111.05004501342778L235.30106666666666,105.42802762985235L247.68533333333335,94.18367099761967L260.0696,88.56165361404425L272.45386666666667,101.21127319335942L284.83813333333336,99.80568838119514L297.22240000000005,96.9948406219483L309.6066666666667,92.7780861854554L321.9909333333334,99.80568838119514L334.3752,94.18367099761967L346.7594666666667,98.4004254341126L359.14373333333333,85.75080585479743L371.528,91.37282323837287L383.9122666666667,98.4004254341126L396.29653333333334,94.18367099761967L408.68080000000003,87.15606880187993L421.06506666666667,87.15606880187993L433.44933333333336,91.37282323837287L445.8336,87.15606880187993L458.21786666666674,87.15606880187993L470.6021333333333,88.56165361404425L482.98640000000006,87.15606880187993L495.3706666666667,87.15606880187993L507.7549333333334,84.34522104263313L520.1392,87.15606880187993L532.5234666666666,87.15606880187993L544.9077333333333,87.15606880187993L557.292,88.56165361404425L569.6762666666667,89.96723842620855L582.0605333333334,88.56165361404425L594.4448000000001,88.56165361404425L606.8290666666667,88.56165361404425L619.2133333333334,88.56165361404425L631.5976,88.56165361404425L643.9818666666667,88.56165361404425L656.3661333333333,87.15606880187993L668.7504,87.15606880187993" style="fill: none;" fill="none"></path></g></g></g></g></g></g><g transform="translate(60, 378)" clip-path="url(#clip_1)"><clipPath id="clip_1"><rect width="743" height="21"></rect></clipPath><g><g><line x1="0" y1="0" x2="0" y2="5" style="visibility: inherit;" fill="rgb(0, 0, 0)" stroke="rgb(204, 204, 204)" stroke-width="1px"></line><line x1="61.92133333333334" y1="0" x2="61.92133333333334" y2="5" style="visibility: inherit;" fill="rgb(0, 0, 0)" stroke="rgb(204, 204, 204)" stroke-width="1px"></line><line x1="123.84266666666667" y1="0" x2="123.84266666666667" y2="5" style="visibility: inherit;" fill="rgb(0, 0, 0)" stroke="rgb(204, 204, 204)" stroke-width="1px"></line><line x1="185.764" y1="0" x2="185.764" y2="5" style="visibility: inherit;" fill="rgb(0, 0, 0)" stroke="rgb(204, 204, 204)" stroke-width="1px"></line><line x1="247.68533333333335" y1="0" x2="247.68533333333335" y2="5" style="visibility: inherit;" fill="rgb(0, 0, 0)" stroke="rgb(204, 204, 204)" stroke-width="1px"></line><line x1="309.6066666666667" y1="0" x2="309.6066666666667" y2="5" style="visibility: inherit;" fill="rgb(0, 0, 0)" stroke="rgb(204, 204, 204)" stroke-width="1px"></line><line x1="371.528" y1="0" x2="371.528" y2="5" style="visibility: inherit;" fill="rgb(0, 0, 0)" stroke="rgb(204, 204, 204)" stroke-width="1px"></line><line x1="433.44933333333336" y1="0" x2="433.44933333333336" y2="5" style="visibility: inherit;" fill="rgb(0, 0, 0)" stroke="rgb(204, 204, 204)" stroke-width="1px"></line><line x1="495.3706666666667" y1="0" x2="495.3706666666667" y2="5" style="visibility: inherit;" fill="rgb(0, 0, 0)" stroke="rgb(204, 204, 204)" stroke-width="1px"></line><line x1="557.292" y1="0" x2="557.292" y2="5" style="visibility: inherit;" fill="rgb(0, 0, 0)" stroke="rgb(204, 204, 204)" stroke-width="1px"></line><line x1="619.2133333333334" y1="0" x2="619.2133333333334" y2="5" style="visibility: inherit;" fill="rgb(0, 0, 0)" stroke="rgb(204, 204, 204)" stroke-width="1px"></line><line x1="681.1346666666667" y1="0" x2="681.1346666666667" y2="5" style="visibility: inherit;" fill="rgb(0, 0, 0)" stroke="rgb(204, 204, 204)" stroke-width="1px"></line><line x1="743.056" y1="0" x2="743.056" y2="5" style="visibility: inherit;" fill="rgb(0, 0, 0)" stroke="rgb(204, 204, 204)" stroke-width="1px"></line></g><g transform="translate(0, 8)"><text x="0" y="0" dx="0em" dy="0.95em" style="text-anchor: middle; visibility: hidden; font-family: Roboto, sans-serif; font-size: 12px; font-weight: 200;" fill="rgb(50, 49, 63)" stroke="none" stroke-width="1px">-5</text><text x="61.92133333333334" y="0" dx="0em" dy="0.95em" style="text-anchor: middle; visibility: inherit; font-family: Roboto, sans-serif; font-size: 12px; font-weight: 200;" fill="rgb(50, 49, 63)" stroke="none" stroke-width="1px">0</text><text x="123.84266666666667" y="0" dx="0em" dy="0.95em" style="text-anchor: middle; visibility: inherit; font-family: Roboto, sans-serif; font-size: 12px; font-weight: 200;" fill="rgb(50, 49, 63)" stroke="none" stroke-width="1px">5</text><text x="185.764" y="0" dx="0em" dy="0.95em" style="text-anchor: middle; visibility: inherit; font-family: Roboto, sans-serif; font-size: 12px; font-weight: 200;" fill="rgb(50, 49, 63)" stroke="none" stroke-width="1px">10</text><text x="247.68533333333335" y="0" dx="0em" dy="0.95em" style="text-anchor: middle; visibility: inherit; font-family: Roboto, sans-serif; font-size: 12px; font-weight: 200;" fill="rgb(50, 49, 63)" stroke="none" stroke-width="1px">15</text><text x="309.6066666666667" y="0" dx="0em" dy="0.95em" style="text-anchor: middle; visibility: inherit; font-family: Roboto, sans-serif; font-size: 12px; font-weight: 200;" fill="rgb(50, 49, 63)" stroke="none" stroke-width="1px">20</text><text x="371.528" y="0" dx="0em" dy="0.95em" style="text-anchor: middle; visibility: inherit; font-family: Roboto, sans-serif; font-size: 12px; font-weight: 200;" fill="rgb(50, 49, 63)" stroke="none" stroke-width="1px">25</text><text x="433.44933333333336" y="0" dx="0em" dy="0.95em" style="text-anchor: middle; visibility: inherit; font-family: Roboto, sans-serif; font-size: 12px; font-weight: 200;" fill="rgb(50, 49, 63)" stroke="none" stroke-width="1px">30</text><text x="495.3706666666667" y="0" dx="0em" dy="0.95em" style="text-anchor: middle; visibility: inherit; font-family: Roboto, sans-serif; font-size: 12px; font-weight: 200;" fill="rgb(50, 49, 63)" stroke="none" stroke-width="1px">35</text><text x="557.292" y="0" dx="0em" dy="0.95em" style="text-anchor: middle; visibility: inherit; font-family: Roboto, sans-serif; font-size: 12px; font-weight: 200;" fill="rgb(50, 49, 63)" stroke="none" stroke-width="1px">40</text><text x="619.2133333333334" y="0" dx="0em" dy="0.95em" style="text-anchor: middle; visibility: inherit; font-family: Roboto, sans-serif; font-size: 12px; font-weight: 200;" fill="rgb(50, 49, 63)" stroke="none" stroke-width="1px">45</text><text x="681.1346666666667" y="0" dx="0em" dy="0.95em" style="text-anchor: middle; visibility: inherit; font-family: Roboto, sans-serif; font-size: 12px; font-weight: 200;" fill="rgb(50, 49, 63)" stroke="none" stroke-width="1px">50</text><text x="743.056" y="0" dx="0em" dy="0.95em" style="text-anchor: middle; visibility: hidden; font-family: Roboto, sans-serif; font-size: 12px; font-weight: 200;" fill="rgb(50, 49, 63)" stroke="none" stroke-width="1px">55</text></g><line x1="0" y1="0" x2="743.056" y2="0" fill="rgb(0, 0, 0)" stroke="rgb(204, 204, 204)" stroke-width="1px"></line></g></g></g></g></svg>