<svg viewBox="0 0 1106 400" xmlns="http://www.w3.org/2000/svg"><g><g><g><g><g><line x1="49.98400115966797" y1="378.6199998855591" x2="44.98400115966797" y2="378.6199998855591" style="visibility: inherit;" fill="rgb(0, 0, 0)" stroke="rgb(204, 204, 204)" stroke-width="1px"></line><line x1="49.98400115966797" y1="331.2924998998644" x2="44.98400115966797" y2="331.2924998998644" style="visibility: inherit;" fill="rgb(0, 0, 0)" stroke="rgb(204, 204, 204)" stroke-width="1px"></line><line x1="49.98400115966797" y1="283.9649999141694" x2="44.98400115966797" y2="283.9649999141694" style="visibility: inherit;" fill="rgb(0, 0, 0)" stroke="rgb(204, 204, 204)" stroke-width="1px"></line><line x1="49.98400115966797" y1="236.6374999284745" x2="44.98400115966797" y2="236.6374999284745" style="visibility: inherit;" fill="rgb(0, 0, 0)" stroke="rgb(204, 204, 204)" stroke-width="1px"></line><line x1="49.98400115966797" y1="189.30999994277954" x2="44.98400115966797" y2="189.30999994277954" style="visibility: inherit;" fill="rgb(0, 0, 0)" stroke="rgb(204, 204, 204)" stroke-width="1px"></line><line x1="49.98400115966797" y1="141.98249995708457" x2="44.98400115966797" y2="141.98249995708457" style="visibility: inherit;" fill="rgb(0, 0, 0)" stroke="rgb(204, 204, 204)" stroke-width="1px"></line><line x1="49.98400115966797" y1="94.65499997138964" x2="44.98400115966797" y2="94.65499997138964" style="visibility: inherit;" fill="rgb(0, 0, 0)" stroke="rgb(204, 204, 204)" stroke-width="1px"></line><line x1="49.98400115966797" y1="47.32749998569497" x2="44.98400115966797" y2="47.32749998569497" style="visibility: inherit;" fill="rgb(0, 0, 0)" stroke="rgb(204, 204, 204)" stroke-width="1px"></line><line x1="49.98400115966797" y1="0" x2="44.98400115966797" y2="0" style="visibility: inherit;" fill="rgb(0, 0, 0)" stroke="rgb(204, 204, 204)" stroke-width="1px"></line></g><g transform="translate(39.98400115966797, 0)"><text style="text-anchor: end; visibility: hidden; font-family: Roboto, sans-serif; font-size: 12px; font-weight: 200;" x="0" y="378.6199998855591" dx="0em" dy="0.3em" fill="rgb(50, 49, 63)" stroke="none" stroke-width="1px">0.8</text><text style="text-anchor: end; visibility: inherit; font-family: Roboto, sans-serif; font-size: 12px; font-weight: 200;" x="0" y="331.2924998998644" dx="0em" dy="0.3em" fill="rgb(50, 49, 63)" stroke="none" stroke-width="1px">0.82</text><text style="text-anchor: end; visibility: inherit; font-family: Roboto, sans-serif; font-size: 12px; font-weight: 200;" x="0" y="283.9649999141694" dx="0em" dy="0.3em" fill="rgb(50, 49, 63)" stroke="none" stroke-width="1px">0.84</text><text style="text-anchor: end; visibility: inherit; font-family: Roboto, sans-serif; font-size: 12px; font-weight: 200;" x="0" y="236.6374999284745" dx="0em" dy="0.3em" fill="rgb(50, 49, 63)" stroke="none" stroke-width="1px">0.86</text><text style="text-anchor: end; visibility: inherit; font-family: Roboto, sans-serif; font-size: 12px; font-weight: 200;" x="0" y="189.30999994277954" dx="0em" dy="0.3em" fill="rgb(50, 49, 63)" stroke="none" stroke-width="1px">0.88</text><text style="text-anchor: end; visibility: inherit; font-family: Roboto, sans-serif; font-size: 12px; font-weight: 200;" x="0" y="141.98249995708457" dx="0em" dy="0.3em" fill="rgb(50, 49, 63)" stroke="none" stroke-width="1px">0.9</text><text style="text-anchor: end; visibility: inherit; font-family: Roboto, sans-serif; font-size: 12px; font-weight: 200;" x="0" y="94.65499997138964" dx="0em" dy="0.3em" fill="rgb(50, 49, 63)" stroke="none" stroke-width="1px">0.92</text><text style="text-anchor: end; visibility: inherit; font-family: Roboto, sans-serif; font-size: 12px; font-weight: 200;" x="0" y="47.32749998569497" dx="0em" dy="0.3em" fill="rgb(50, 49, 63)" stroke="none" stroke-width="1px">0.94</text><text style="text-anchor: end; visibility: hidden; font-family: Roboto, sans-serif; font-size: 12px; font-weight: 200;" x="0" y="0" dx="0em" dy="0.3em" fill="rgb(50, 49, 63)" stroke="none" stroke-width="1px">0.96</text></g><line x1="49.98400115966797" y1="0" x2="49.98400115966797" y2="378.6199998855591" fill="rgb(0, 0, 0)" stroke="rgb(204, 204, 204)" stroke-width="1px"></line></g></g><g transform="translate(49, 0)" clip-path="url(#clip_0)"><clipPath id="clip_0"><rect width="1094" height="378"></rect></clipPath><g><g><g><line x1="0" y1="0" x2="0" y2="378.6199998855591" fill="rgb(0, 0, 0)" stroke="rgb(60, 60, 60)" stroke-width="1px" opacity="0.25"></line><line x1="91.167999903361" y1="0" x2="91.167999903361" y2="378.6199998855591" fill="rgb(0, 0, 0)" stroke="rgb(60, 60, 60)" stroke-width="1px" opacity="0.25"></line><line x1="182.335999806722" y1="0" x2="182.335999806722" y2="378.6199998855591" fill="rgb(0, 0, 0)" stroke="rgb(60, 60, 60)" stroke-width="1px" opacity="0.25"></line><line x1="273.503999710083" y1="0" x2="273.503999710083" y2="378.6199998855591" fill="rgb(0, 0, 0)" stroke="rgb(60, 60, 60)" stroke-width="1px" opacity="0.25"></line><line x1="364.671999613444" y1="0" x2="364.671999613444" y2="378.6199998855591" fill="rgb(0, 0, 0)" stroke="rgb(60, 60, 60)" stroke-width="1px" opacity="0.25"></line><line x1="455.83999951680505" y1="0" x2="455.83999951680505" y2="378.6199998855591" fill="rgb(0, 0, 0)" stroke="rgb(60, 60, 60)" stroke-width="1px" opacity="0.25"></line><line x1="547.007999420166" y1="0" x2="547.007999420166" y2="378.6199998855591" fill="rgb(0, 0, 0)" stroke="rgb(60, 60, 60)" stroke-width="1px" opacity="0.25"></line><line x1="638.1759993235271" y1="0" x2="638.1759993235271" y2="378.6199998855591" fill="rgb(0, 0, 0)" stroke="rgb(60, 60, 60)" stroke-width="1px" opacity="0.25"></line><line x1="729.343999226888" y1="0" x2="729.343999226888" y2="378.6199998855591" fill="rgb(0, 0, 0)" stroke="rgb(60, 60, 60)" stroke-width="1px" opacity="0.25"></line><line x1="820.511999130249" y1="0" x2="820.511999130249" y2="378.6199998855591" fill="rgb(0, 0, 0)" stroke="rgb(60, 60, 60)" stroke-width="1px" opacity="0.25"></line><line x1="911.6799990336101" y1="0" x2="911.6799990336101" y2="378.6199998855591" fill="rgb(0, 0, 0)" stroke="rgb(60, 60, 60)" stroke-width="1px" opacity="0.25"></line><line x1="1002.847998936971" y1="0" x2="1002.847998936971" y2="378.6199998855591" fill="rgb(0, 0, 0)" stroke="rgb(60, 60, 60)" stroke-width="1px" opacity="0.25"></line><line x1="1094.015998840332" y1="0" x2="1094.015998840332" y2="378.6199998855591" fill="rgb(0, 0, 0)" stroke="rgb(60, 60, 60)" stroke-width="1px" opacity="0.25"></line></g><g><line x1="0" y1="378.6199998855591" x2="1094.015998840332" y2="378.6199998855591" fill="rgb(0, 0, 0)" stroke="rgb(60, 60, 60)" stroke-width="1px" opacity="0.25"></line><line x1="0" y1="331.2924998998644" x2="1094.015998840332" y2="331.2924998998644" fill="rgb(0, 0, 0)" stroke="rgb(60, 60, 60)" stroke-width="1px" opacity="0.25"></line><line x1="0" y1="283.9649999141694" x2="1094.015998840332" y2="283.9649999141694" fill="rgb(0, 0, 0)" stroke="rgb(60, 60, 60)" stroke-width="1px" opacity="0.25"></line><line x1="0" y1="236.6374999284745" x2="1094.015998840332" y2="236.6374999284745" fill="rgb(0, 0, 0)" stroke="rgb(60, 60, 60)" stroke-width="1px" opacity="0.25"></line><line x1="0" y1="189.30999994277954" x2="1094.015998840332" y2="189.30999994277954" fill="rgb(0, 0, 0)" stroke="rgb(60, 60, 60)" stroke-width="1px" opacity="0.25"></line><line x1="0" y1="141.98249995708457" x2="1094.015998840332" y2="141.98249995708457" fill="rgb(0, 0, 0)" stroke="rgb(60, 60, 60)" stroke-width="1px" opacity="0.25"></line><line x1="0" y1="94.65499997138964" x2="1094.015998840332" y2="94.65499997138964" fill="rgb(0, 0, 0)" stroke="rgb(60, 60, 60)" stroke-width="1px" opacity="0.25"></line><line x1="0" y1="47.32749998569497" x2="1094.015998840332" y2="47.32749998569497" fill="rgb(0, 0, 0)" stroke="rgb(60, 60, 60)" stroke-width="1px" opacity="0.25"></line><line x1="0" y1="0" x2="1094.015998840332" y2="0" fill="rgb(0, 0, 0)" stroke="rgb(60, 60, 60)" stroke-width="1px" opacity="0.25"></line></g></g></g><g><g><line x1="0" y1="2271.7199993133554" x2="1094.015998840332" y2="2271.7199993133554" fill="rgb(0, 0, 0)" stroke="rgb(153, 153, 153)" stroke-width="1.5px"></line></g></g><g><g><line x1="91.167999903361" y1="0" x2="91.167999903361" y2="378.6199998855591" fill="rgb(0, 0, 0)" stroke="rgb(153, 153, 153)" stroke-width="1.5px"></line></g></g><g><g><g><g><g><path style="fill: none;" stroke="rgb(0, 153, 136)" stroke-width="2px" d="M91.167999903361,389.46027539193807L109.4015998840332,335.25903890698476L127.6351998647054,247.79808739652663L145.8687998453776,263.8119929168938L164.1023998260498,257.0368030945393L182.335999806722,249.64580232674092L200.5695997873942,237.94327865918748L218.8031997680664,200.98785167937166L237.03679974873862,244.71846848154198L255.2703997294108,230.5521368444478L273.503999710083,256.4209921490954L291.7375996907552,222.5451840842642L309.9711996714274,190.51723199658858L328.2047996520996,250.87756526457002L346.4383996327718,198.52418475677217L364.671999613444,231.78404082921818L382.9055995941162,216.3859462542949L401.1391995747884,212.69037534692507L419.37279955546063,224.3928990144785L437.6063995361328,198.52418475677217L455.83999951680505,209.61075643194044L474.07359949747723,213.92227933169545L492.3071994781494,206.53113751695577L510.5407994588216,177.58280434426482L528.7743994394938,191.13318398897377L547.007999420166,236.09542268203197L565.2415994008383,210.84266041671077L583.4751993815104,196.67646982655788L601.7087993621826,171.42356651429552L619.9423993428549,178.19875633664998L638.1759993235271,199.14013674915736L656.4095993041992,203.45151860197115L674.6431992848715,202.219755664142L692.8767992655436,217.00189824668007L711.1103992462158,209.61075643194044L729.343999226888,181.27837525163466L747.5775992075602,181.89432724401982L765.8111991882324,205.29937457912666L784.0447991689047,202.219755664142L802.2783991495768,178.19875633664998L820.511999130249,189.90128000420341L838.7455991109213,202.219755664142L856.9791990915934,184.97394615900447L875.2127990722656,204.68342258674147L893.4463990529379,204.68342258674147L911.6799990336101,185.5897571044484L929.9135990142822,199.14013674915736L948.1471989949545,168.34394759931087L966.3807989756266,201.60380367175685L984.6143989562988,177.58280434426482" fill="none"></path></g><g><path style="fill: none;" stroke="rgb(238, 51, 119)" stroke-width="2px" d="M91.167999903361,529.746268381693L109.4015998840332,318.3493442628167L127.6351998647054,269.1380664649718L145.8687998453776,229.4515475619698L164.1023998260498,211.19584195757005L182.335999806722,187.91308232051634L200.5695997873942,174.6841486548882L218.8031997680664,175.21335677841216L237.03679974873862,157.2221141888332L255.2703997294108,138.96626753749223L273.503999710083,163.04283935983193L291.7375996907552,146.90368415564564L309.9711996714274,139.7600797227782L328.2047996520996,138.17259639914752L346.4383996327718,119.12307860946181L364.671999613444,136.32050901375487L382.9055995941162,133.14568341343474L401.1391995747884,113.30235343846307L419.37279955546063,124.67919971869857L437.6063995361328,114.88983676209375L455.83999951680505,112.24407823835637L474.07359949747723,108.54004451451227L492.3071994781494,115.15444082385574L510.5407994588216,114.09616562374903L528.7743994394938,108.80450752933302L547.007999420166,104.04219860538223L565.2415994008383,107.48162826746433L583.4751993815104,112.50868230011835L601.7087993621826,109.06911159109501L619.9423993428549,107.48162826746433L638.1759993235271,102.98392340527552L656.4095993041992,102.45471528175155L674.6431992848715,99.27974863449019L692.8767992655436,95.84031897240808L711.1103992462158,103.51299048185825L729.343999226888,98.75068155790746L747.5775992075602,102.45471528175155L765.8111991882324,95.04650678712213L784.0447991689047,95.5757149106461L802.2783991495768,100.86723195812087L820.511999130249,89.49052672482661L838.7455991109213,93.72362752525343L856.9791990915934,97.42780229603876L875.2127990722656,96.36952709593206L893.4463990529379,90.01959380140934L911.6799990336101,91.34247306327804L929.9135990142822,94.2528356487774L948.1471989949545,84.46347269217259L966.3807989756266,93.1945604486707L984.6143989562988,89.75498973964736" fill="none"></path></g><g><path style="fill: none;" stroke="rgb(0, 119, 187)" stroke-width="2px" d="M91.167999903361,301.9991828345388L109.4015998840332,274.8985645920621L127.6351998647054,245.33427942698592L145.8687998453776,225.62480299924886L164.1023998260498,212.69037534692507L182.335999806722,236.71137467441713L200.5695997873942,221.92923209187904L218.8031997680664,213.92227933169545L237.03679974873862,192.36494692680287L255.2703997294108,206.53113751695577L273.503999710083,209.61075643194044L291.7375996907552,200.98785167937166L309.9711996714274,191.13318398897377L328.2047996520996,227.47251792946315L346.4383996327718,208.3789934941113L364.671999613444,182.51027923640498L382.9055995941162,229.32037390661867L401.1391995747884,194.82861384940236L419.37279955546063,190.51723199658858L437.6063995361328,183.12609018184895L455.83999951680505,189.90128000420341L474.07359949747723,202.83570765652718L492.3071994781494,173.27142249145106L510.5407994588216,183.74204217423411L528.7743994394938,175.73508941405052L547.007999420166,188.05356507398912L565.2415994008383,191.7489949344177L583.4751993815104,196.0605178341727L601.7087993621826,183.74204217423411L619.9423993428549,191.7489949344177L638.1759993235271,197.908232764387L656.4095993041992,186.82166108921876L674.6431992848715,217.61785023906526L692.8767992655436,196.67646982655788L711.1103992462158,188.05356507398912L729.343999226888,186.82166108921876L747.5775992075602,206.53113751695577L765.8111991882324,182.51027923640498L784.0447991689047,186.20570909683357L802.2783991495768,197.29242181894307L820.511999130249,194.21280290395842L838.7455991109213,172.65547049906587L856.9791990915934,184.97394615900447L875.2127990722656,187.43761308160396L893.4463990529379,205.91532657151186L911.6799990336101,178.19875633664998L929.9135990142822,181.27837525163466L948.1471989949545,191.13318398897377L966.3807989756266,180.04647126686427L984.6143989562988,196.67646982655788" fill="none"></path></g><g><path style="fill: none;" stroke="rgb(187, 187, 187)" stroke-width="2px" d="M91.167999903361,443.4942302045836L109.4015998840332,236.33054793307525L127.6351998647054,202.99396232459594L145.8687998453776,179.4465986257802L164.1023998260498,155.10556378861978L182.335999806722,140.28914679936094L200.5695997873942,143.72871750838428L218.8031997680664,133.93935455177945L237.03679974873862,130.23532082793537L255.2703997294108,131.55820008980407L273.503999710083,117.00638716230716L291.7375996907552,110.3919908529637L309.9711996714274,115.15444082385574L328.2047996520996,117.27099122406915L346.4383996327718,100.86723195812087L364.671999613444,107.74623232922632L382.9055995941162,104.04219860538223L401.1391995747884,112.50868230011835L419.37279955546063,93.98823158701542L437.6063995361328,93.1945604486707L455.83999951680505,93.45916451043269L474.07359949747723,93.1945604486707L492.3071994781494,96.6339901107528L510.5407994588216,96.36952709593206L528.7743994394938,85.78635195404128L547.007999420166,90.01959380140934L565.2415994008383,95.31111084888411L583.4751993815104,90.01959380140934L601.7087993621826,89.75498973964736L619.9423993428549,94.78204377230138L638.1759993235271,93.1945604486707L656.4095993041992,91.34247306327804L674.6431992848715,90.01959380140934L692.8767992655436,87.90304340119593L711.1103992462158,89.75498973964736L729.343999226888,96.10492303417007L747.5775992075602,90.01959380140934L765.8111991882324,92.136285248564L784.0447991689047,85.25728487745855L802.2783991495768,86.05095601580327L820.511999130249,91.34247306327804L838.7455991109213,88.16750641601668L856.9791990915934,91.07786900151605L875.2127990722656,78.64274752117385L893.4463990529379,84.1988686304106L911.6799990336101,84.72807675393457L929.9135990142822,80.7594389683285L948.1471989949545,84.99268081569656L966.3807989756266,80.7594389683285L984.6143989562988,82.08231823019719" fill="none"></path></g><g><path style="fill: none;" stroke="rgb(0, 119, 187)" stroke-width="2px" d="M91.167999903361,327.8680381391863L109.4015998840332,273.666801654233L127.6351998647054,247.18213540414143L145.8687998453776,222.5451840842642L164.1023998260498,213.30632733931026L182.335999806722,209.61075643194044L200.5695997873942,204.68342258674147L218.8031997680664,197.908232764387L237.03679974873862,202.219755664142L255.2703997294108,213.92227933169545L273.503999710083,199.75608874154256L291.7375996907552,191.13318398897377L309.9711996714274,192.98089891918806L328.2047996520996,189.90128000420341L346.4383996327718,185.5897571044484L364.671999613444,190.51723199658858L382.9055995941162,185.5897571044484L401.1391995747884,180.66242325924946L419.37279955546063,183.74204217423411L437.6063995361328,184.97394615900447L455.83999951680505,181.27837525163466L474.07359949747723,178.19875633664998L492.3071994781494,179.43066032142036L510.5407994588216,188.05356507398912L528.7743994394938,191.13318398897377L547.007999420166,186.82166108921876L565.2415994008383,184.97394615900447L583.4751993815104,185.5897571044484L601.7087993621826,191.13318398897377L619.9423993428549,186.20570909683357L638.1759993235271,190.51723199658858L656.4095993041992,188.05356507398912L674.6431992848715,188.66937601943306L692.8767992655436,184.35799416661928L711.1103992462158,182.51027923640498L729.343999226888,190.51723199658858L747.5775992075602,180.04647126686427L765.8111991882324,180.66242325924946L784.0447991689047,181.89432724401982L802.2783991495768,186.20570909683357L820.511999130249,183.74204217423411L838.7455991109213,183.12609018184895L856.9791990915934,187.43761308160396L875.2127990722656,181.27837525163466L893.4463990529379,183.12609018184895L911.6799990336101,194.82861384940236L929.9135990142822,185.5897571044484L948.1471989949545,189.28532801181825L966.3807989756266,187.43761308160396L984.6143989562988,188.66937601943306" fill="none"></path></g><g><path style="fill: none;" stroke="rgb(255, 112, 67)" stroke-width="2px" d="M91.167999903361,464.3958353796619L109.4015998840332,272.3130331122332L127.6351998647054,202.99396232459594L145.8687998453776,167.011477145438L164.1023998260498,141.34756304640888L182.335999806722,123.35632045682988L200.5695997873942,109.59831971461898L218.8031997680664,99.01528561966944L237.03679974873862,92.92995638690871L255.2703997294108,91.87168118680201L273.503999710083,82.08231823019719L291.7375996907552,76.52619712096043L309.9711996714274,76.26159305919845L328.2047996520996,70.97007601172368L346.4383996327718,64.88474677896295L364.671999613444,68.58892154974828L382.9055995941162,61.974525240404816L401.1391995747884,65.67855896424891L419.37279955546063,64.35567970238021L437.6063995361328,64.35567970238021L455.83999951680505,56.68286714598881L474.07359949747723,57.47667933127477L492.3071994781494,63.29740450227351L510.5407994588216,58.27035046961949L528.7743994394938,53.50804154566869L547.007999420166,58.79955859314346L565.2415994008383,60.12243785501215L583.4751993815104,54.83092080753738L601.7087993621826,58.53495453138147L619.9423993428549,54.566316745775396L638.1759993235271,57.21207526951278L656.4095993041992,52.1851622838L674.6431992848715,55.359987884120116L692.8767992655436,57.21207526951278L711.1103992462158,57.21207526951278L729.343999226888,52.97883342214472L747.5775992075602,55.359987884120116L765.8111991882324,53.50804154566869L784.0447991689047,54.566316745775396L802.2783991495768,52.71422936038273L820.511999130249,46.89364523632523L838.7455991109213,54.566316745775396L856.9791990915934,51.655954160276025L875.2127990722656,52.1851622838L893.4463990529379,52.71422936038273L911.6799990336101,46.364437112801255L929.9135990142822,54.566316745775396L948.1471989949545,51.92055822203801L966.3807989756266,48.48098751301467L984.6143989562988,49.01019563653864" fill="none"></path></g><g><path style="fill: none;" stroke="rgb(51, 187, 238)" stroke-width="2px" d="M109.4015998840332,428.2634173019683L127.6351998647054,370.366609909645L145.8687998453776,335.8749908993699L164.1023998260498,314.31765849447737L182.335999806722,304.46284975713826L200.5695997873942,291.5285631517557L218.8031997680664,283.5214693446309L237.03679974873862,279.2100874918171L255.2703997294108,273.05084966184774L273.503999710083,271.20313473163344L291.7375996907552,266.2756598394933L309.9711996714274,257.0368030945393L328.2047996520996,257.6527550869245L346.4383996327718,253.95718417955467L364.671999613444,253.34137323411073L382.9055995941162,252.10946924934038L401.1391995747884,247.79808739652663L419.37279955546063,240.40694558178697L437.6063995361328,239.79099358940178L455.83999951680505,236.09542268203197L474.07359949747723,233.63175575943248L492.3071994781494,233.63175575943248L510.5407994588216,237.32732666680232L528.7743994394938,231.16808883683296L547.007999420166,230.5521368444478L565.2415994008383,227.47251792946315L583.4751993815104,228.08846992184834L601.7087993621826,222.5451840842642L619.9423993428549,221.31328009949385L638.1759993235271,217.00189824668007L656.4095993041992,218.2336611845092L674.6431992848715,215.15418331646578L692.8767992655436,214.5382313240806L711.1103992462158,213.92227933169545L729.343999226888,210.2267084243256L747.5775992075602,209.61075643194044L765.8111991882324,208.3789934941113L784.0447991689047,207.76304150172615L802.2783991495768,205.91532657151186L820.511999130249,203.45151860197115L838.7455991109213,204.0674705943563L856.9791990915934,202.219755664142L875.2127990722656,200.98785167937166L893.4463990529379,202.83570765652718L911.6799990336101,200.98785167937166L929.9135990142822,199.14013674915736L948.1471989949545,197.908232764387L966.3807989756266,196.0605178341727L984.6143989562988,194.21280290395842" fill="none"></path></g><g><path style="fill: none;" stroke="rgb(204, 51, 17)" stroke-width="2px" d="M127.6351998647054,409.3638324108182L145.8687998453776,358.8296753511047L164.1023998260498,337.39900309944363L182.335999806722,320.99510278655407L200.5695997873942,298.50615533478634L218.8031997680664,281.5731879453141L237.03679974873862,270.7255497886025L255.2703997294108,259.613307570129L273.503999710083,251.94063606067883L291.7375996907552,236.85975605659922L309.9711996714274,231.03903088560045L328.2047996520996,222.8371512526263L346.4383996327718,216.7519630668068L364.671999613444,208.2854793720707L382.9055995941162,201.67108306272723L401.1391995747884,193.73366644457383L419.37279955546063,195.32114976820452L437.6063995361328,178.65278644049425L455.83999951680505,178.91739050225624L474.07359949747723,179.4465986257802L492.3071994781494,171.50932305456806L510.5407994588216,165.15938976004534L528.7743994394938,158.01578532717792L547.007999420166,158.2803893889399L565.2415994008383,150.34311381772773L583.4751993815104,146.10987197035968L601.7087993621826,142.6704423082776L619.9423993428549,139.7600797227782L638.1759993235271,136.58511307551686L656.4095993041992,137.11432119904083L674.6431992848715,133.41014642825547L692.8767992655436,129.4415086426494L711.1103992462158,129.17704562782865L729.343999226888,130.49992488969735L747.5775992075602,120.71056193309249L765.8111991882324,125.2082667952813L784.0447991689047,121.23962900967523L802.2783991495768,116.21271602396244L820.511999130249,111.45026605307041L838.7455991109213,111.7148701148324L856.9791990915934,111.7148701148324L875.2127990722656,108.27544045275029L893.4463990529379,104.83586974372695L911.6799990336101,105.6296819290129L929.9135990142822,105.10047380548893L948.1471989949545,102.98392340527552L966.3807989756266,98.22147343438348L984.6143989562988,100.86723195812087" fill="none"></path></g></g></g></g></g></g><g transform="translate(49, 378)" clip-path="url(#clip_1)"><clipPath id="clip_1"><rect width="1094" height="21"></rect></clipPath><g><g><line x1="0" y1="0" x2="0" y2="5" style="visibility: inherit;" fill="rgb(0, 0, 0)" stroke="rgb(204, 204, 204)" stroke-width="1px"></line><line x1="91.167999903361" y1="0" x2="91.167999903361" y2="5" style="visibility: inherit;" fill="rgb(0, 0, 0)" stroke="rgb(204, 204, 204)" stroke-width="1px"></line><line x1="182.335999806722" y1="0" x2="182.335999806722" y2="5" style="visibility: inherit;" fill="rgb(0, 0, 0)" stroke="rgb(204, 204, 204)" stroke-width="1px"></line><line x1="273.503999710083" y1="0" x2="273.503999710083" y2="5" style="visibility: inherit;" fill="rgb(0, 0, 0)" stroke="rgb(204, 204, 204)" stroke-width="1px"></line><line x1="364.671999613444" y1="0" x2="364.671999613444" y2="5" style="visibility: inherit;" fill="rgb(0, 0, 0)" stroke="rgb(204, 204, 204)" stroke-width="1px"></line><line x1="455.83999951680505" y1="0" x2="455.83999951680505" y2="5" style="visibility: inherit;" fill="rgb(0, 0, 0)" stroke="rgb(204, 204, 204)" stroke-width="1px"></line><line x1="547.007999420166" y1="0" x2="547.007999420166" y2="5" style="visibility: inherit;" fill="rgb(0, 0, 0)" stroke="rgb(204, 204, 204)" stroke-width="1px"></line><line x1="638.1759993235271" y1="0" x2="638.1759993235271" y2="5" style="visibility: inherit;" fill="rgb(0, 0, 0)" stroke="rgb(204, 204, 204)" stroke-width="1px"></line><line x1="729.343999226888" y1="0" x2="729.343999226888" y2="5" style="visibility: inherit;" fill="rgb(0, 0, 0)" stroke="rgb(204, 204, 204)" stroke-width="1px"></line><line x1="820.511999130249" y1="0" x2="820.511999130249" y2="5" style="visibility: inherit;" fill="rgb(0, 0, 0)" stroke="rgb(204, 204, 204)" stroke-width="1px"></line><line x1="911.6799990336101" y1="0" x2="911.6799990336101" y2="5" style="visibility: inherit;" fill="rgb(0, 0, 0)" stroke="rgb(204, 204, 204)" stroke-width="1px"></line><line x1="1002.847998936971" y1="0" x2="1002.847998936971" y2="5" style="visibility: inherit;" fill="rgb(0, 0, 0)" stroke="rgb(204, 204, 204)" stroke-width="1px"></line><line x1="1094.015998840332" y1="0" x2="1094.015998840332" y2="5" style="visibility: inherit;" fill="rgb(0, 0, 0)" stroke="rgb(204, 204, 204)" stroke-width="1px"></line></g><g transform="translate(0, 8)"><text style="text-anchor: middle; visibility: hidden; font-family: Roboto, sans-serif; font-size: 12px; font-weight: 200;" x="0" y="0" dx="0em" dy="0.95em" fill="rgb(50, 49, 63)" stroke="none" stroke-width="1px">-5</text><text style="text-anchor: middle; visibility: hidden; font-family: Roboto, sans-serif; font-size: 12px; font-weight: 200;" x="91.167999903361" y="0" dx="0em" dy="0.95em" fill="rgb(50, 49, 63)" stroke="none" stroke-width="1px">0</text><text style="text-anchor: middle; visibility: hidden; font-family: Roboto, sans-serif; font-size: 12px; font-weight: 200;" x="182.335999806722" y="0" dx="0em" dy="0.95em" fill="rgb(50, 49, 63)" stroke="none" stroke-width="1px">5</text><text style="text-anchor: middle; visibility: hidden; font-family: Roboto, sans-serif; font-size: 12px; font-weight: 200;" x="273.503999710083" y="0" dx="0em" dy="0.95em" fill="rgb(50, 49, 63)" stroke="none" stroke-width="1px">10</text><text style="text-anchor: middle; visibility: hidden; font-family: Roboto, sans-serif; font-size: 12px; font-weight: 200;" x="364.671999613444" y="0" dx="0em" dy="0.95em" fill="rgb(50, 49, 63)" stroke="none" stroke-width="1px">15</text><text style="text-anchor: middle; visibility: hidden; font-family: Roboto, sans-serif; font-size: 12px; font-weight: 200;" x="455.83999951680505" y="0" dx="0em" dy="0.95em" fill="rgb(50, 49, 63)" stroke="none" stroke-width="1px">20</text><text style="text-anchor: middle; visibility: hidden; font-family: Roboto, sans-serif; font-size: 12px; font-weight: 200;" x="547.007999420166" y="0" dx="0em" dy="0.95em" fill="rgb(50, 49, 63)" stroke="none" stroke-width="1px">25</text><text style="text-anchor: middle; visibility: hidden; font-family: Roboto, sans-serif; font-size: 12px; font-weight: 200;" x="638.1759993235271" y="0" dx="0em" dy="0.95em" fill="rgb(50, 49, 63)" stroke="none" stroke-width="1px">30</text><text style="text-anchor: middle; visibility: hidden; font-family: Roboto, sans-serif; font-size: 12px; font-weight: 200;" x="729.343999226888" y="0" dx="0em" dy="0.95em" fill="rgb(50, 49, 63)" stroke="none" stroke-width="1px">35</text><text style="text-anchor: middle; visibility: hidden; font-family: Roboto, sans-serif; font-size: 12px; font-weight: 200;" x="820.511999130249" y="0" dx="0em" dy="0.95em" fill="rgb(50, 49, 63)" stroke="none" stroke-width="1px">40</text><text style="text-anchor: middle; visibility: hidden; font-family: Roboto, sans-serif; font-size: 12px; font-weight: 200;" x="911.6799990336101" y="0" dx="0em" dy="0.95em" fill="rgb(50, 49, 63)" stroke="none" stroke-width="1px">45</text><text style="text-anchor: middle; visibility: hidden; font-family: Roboto, sans-serif; font-size: 12px; font-weight: 200;" x="1002.847998936971" y="0" dx="0em" dy="0.95em" fill="rgb(50, 49, 63)" stroke="none" stroke-width="1px">50</text><text style="text-anchor: middle; visibility: hidden; font-family: Roboto, sans-serif; font-size: 12px; font-weight: 200;" x="1094.015998840332" y="0" dx="0em" dy="0.95em" fill="rgb(50, 49, 63)" stroke="none" stroke-width="1px">55</text></g><line x1="0" y1="0" x2="1094.015998840332" y2="0" fill="rgb(0, 0, 0)" stroke="rgb(204, 204, 204)" stroke-width="1px"></line></g></g></g></g></svg>